  0
SECTION
  2
HEADER
  9
$ACADVER
  1
AC1009
  9
$FILLMODE
 70
0
  9
$EXTMIN
 10
-2.603000
 20
-0.508333
 30
0.000000
  9
$EXTMAX
 10
11.753000
 20
11.753000
 30
0.000000
  0
ENDSEC
  0
SECTION
  2
TABLES
  0
TABLE
  2
LTYPE
 70
1
  0
LTYPE
  2
CONTINUOUS
 70
64
  3
Solid line
 72
65
 73
0
 40
0
  0
ENDTAB
  0
TABLE
  2
LAYER
 70
255
  0
LAYER
  2
1
 70
64
 62
22
  6
CONTINUOUS
  0
LAYER
  2
16
 70
64
 62
175
  6
CONTINUOUS
  0
LAYER
  2
17
 70
64
 62
82
  6
CONTINUOUS
  0
LAYER
  2
18
 70
64
 62
82
  6
CONTINUOUS
  0
LAYER
  2
19
 70
64
 62
53
  6
CONTINUOUS
  0
LAYER
  2
20
 70
64
 62
7
  6
CONTINUOUS
  0
LAYER
  2
21
 70
64
 62
253
  6
CONTINUOUS
  0
LAYER
  2
22
 70
64
 62
253
  6
CONTINUOUS
  0
LAYER
  2
23
 70
64
 62
7
  6
CONTINUOUS
  0
LAYER
  2
24
 70
64
 62
7
  6
CONTINUOUS
  0
LAYER
  2
25
 70
64
 62
253
  6
CONTINUOUS
  0
LAYER
  2
26
 70
64
 62
253
  6
CONTINUOUS
  0
LAYER
  2
27
 70
64
 62
253
  6
CONTINUOUS
  0
LAYER
  2
28
 70
64
 62
253
  6
CONTINUOUS
  0
LAYER
  2
39
 70
64
 62
22
  6
CONTINUOUS
  0
LAYER
  2
40
 70
64
 62
175
  6
CONTINUOUS
  0
LAYER
  2
41
 70
64
 62
22
  6
CONTINUOUS
  0
LAYER
  2
42
 70
64
 62
175
  6
CONTINUOUS
  0
LAYER
  2
43
 70
64
 62
82
  6
CONTINUOUS
  0
LAYER
  2
44
 70
64
 62
253
  6
CONTINUOUS
  0
LAYER
  2
45
 70
64
 62
253
  6
CONTINUOUS
  0
LAYER
  2
46
 70
64
 62
140
  6
CONTINUOUS
  0
LAYER
  2
47
 70
64
 62
140
  6
CONTINUOUS
  0
LAYER
  2
48
 70
64
 62
82
  6
CONTINUOUS
  0
LAYER
  2
49
 70
64
 62
53
  6
CONTINUOUS
  0
LAYER
  2
51
 70
64
 62
253
  6
CONTINUOUS
  0
LAYER
  2
52
 70
64
 62
253
  6
CONTINUOUS
  0
ENDTAB
  0
ENDSEC
  0
SECTION
  2
BLOCKS
  0
BLOCK
  8
0
  2
RECT
 70
64
 10
0.000000
 20
0.000000
 30
0.000000
  3
RECT
  0
SOLID
  8
0
 10
-0.500000
 20
-0.500000
 30
0.000000
 11
0.500000
 21
-0.500000
 31
0.000000
 12
-0.500000
 22
0.500000
 32
0.000000
 13
0.500000
 23
0.500000
 33
0.000000
  0
ENDBLK
  8
0
  0
BLOCK
  8
0
  2
PIE
 70
64
 10
0.000000
 20
0.000000
 30
0.000000
  3
PIE
  0
CIRCLE
  8
0
 10
0.000000
 20
0.000000
 30
0.000000
 40
0.500000
  0
ENDBLK
  8
0
  0
BLOCK
  8
0
  2
OCTAGONP
 70
64
 10
0.000000
 20
0.000000
 30
0.000000
  3
OCTAGONP
  0
POLYLINE
  8
0
 66
1
 10
0.000000
 20
0.000000
 30
0.000000
 40
0.000000
 41
0.000000
 70
1
  0
VERTEX
  8
0
 10
-0.500000
 20
-0.207107
 30
0.000000
  0
VERTEX
  8
0
 10
-0.500000
 20
0.207107
 30
0.000000
  0
VERTEX
  8
0
 10
-0.207107
 20
0.500000
 30
0.000000
  0
VERTEX
  8
0
 10
0.207107
 20
0.500000
 30
0.000000
  0
VERTEX
  8
0
 10
0.500000
 20
0.207107
 30
0.000000
  0
VERTEX
  8
0
 10
0.500000
 20
-0.207107
 30
0.000000
  0
VERTEX
  8
0
 10
0.207107
 20
-0.500000
 30
0.000000
  0
VERTEX
  8
0
 10
-0.207107
 20
-0.500000
 30
0.000000
  0
SEQEND
  8
0
  0
ENDBLK
  8
0
  0
BLOCK
  8
0
  2
SQUAREP
 70
64
 10
0.000000
 20
0.000000
 30
0.000000
  3
SQUAREP
  0
SOLID
  8
0
 10
-0.500000
 20
-0.500000
 30
0.000000
 11
0.500000
 21
-0.500000
 31
0.000000
 12
-0.500000
 22
0.500000
 32
0.000000
 13
0.500000
 23
0.500000
 33
0.000000
  0
ENDBLK
  8
0
  0
BLOCK
  8
0
  2
ROUNDP
 70
64
 10
0.000000
 20
0.000000
 30
0.000000
  3
ROUNDP
  0
CIRCLE
  8
0
 10
0.000000
 20
0.000000
 30
0.000000
 40
0.500000
  0
ENDBLK
  8
0
  0
BLOCK
  8
0
  2
ANNULUSP
 70
64
 10
0.000000
 20
0.000000
 30
0.000000
  3
ANNULUSP
  0
CIRCLE
  8
0
 10
0.000000
 20
0.000000
 30
0.000000
 40
0.500000
  0
ENDBLK
  8
0
  0
BLOCK
  8
0
  2
THERMALP
 70
64
 10
0.000000
 20
0.000000
 30
0.000000
  3
THERMALP
  0
LINE
  8
0
 10
-0.237868
 20
0.450000
 30
0.000000
 11
0.237868
 21
0.450000
 31
0.000000
  0
LINE
  8
0
 10
0.450000
 20
0.237868
 30
0.000000
 11
0.450000
 21
-0.237868
 31
0.000000
  0
LINE
  8
0
 10
0.237868
 20
-0.450000
 30
0.000000
 11
-0.237868
 21
-0.450000
 31
0.000000
  0
LINE
  8
0
 10
-0.450000
 20
-0.237868
 30
0.000000
 11
-0.450000
 21
0.237868
 31
0.000000
  0
ENDBLK
  8
0
  0
BLOCK
  8
0
  2
OCTAGONV
 70
64
 10
0.000000
 20
0.000000
 30
0.000000
  3
OCTAGONV
  0
POLYLINE
  8
0
 66
1
 10
0.000000
 20
0.000000
 30
0.000000
 40
0.000000
 41
0.000000
 70
1
  0
VERTEX
  8
0
 10
-0.500000
 20
-0.207107
 30
0.000000
  0
VERTEX
  8
0
 10
-0.500000
 20
0.207107
 30
0.000000
  0
VERTEX
  8
0
 10
-0.207107
 20
0.500000
 30
0.000000
  0
VERTEX
  8
0
 10
0.207107
 20
0.500000
 30
0.000000
  0
VERTEX
  8
0
 10
0.500000
 20
0.207107
 30
0.000000
  0
VERTEX
  8
0
 10
0.500000
 20
-0.207107
 30
0.000000
  0
VERTEX
  8
0
 10
0.207107
 20
-0.500000
 30
0.000000
  0
VERTEX
  8
0
 10
-0.207107
 20
-0.500000
 30
0.000000
  0
SEQEND
  8
0
  0
ENDBLK
  8
0
  0
BLOCK
  8
0
  2
SQUAREV
 70
64
 10
0.000000
 20
0.000000
 30
0.000000
  3
SQUAREV
  0
SOLID
  8
0
 10
-0.500000
 20
-0.500000
 30
0.000000
 11
0.500000
 21
-0.500000
 31
0.000000
 12
-0.500000
 22
0.500000
 32
0.000000
 13
0.500000
 23
0.500000
 33
0.000000
  0
ENDBLK
  8
0
  0
BLOCK
  8
0
  2
ROUNDV
 70
64
 10
0.000000
 20
0.000000
 30
0.000000
  3
ROUNDV
  0
CIRCLE
  8
0
 10
0.000000
 20
0.000000
 30
0.000000
 40
0.500000
  0
ENDBLK
  8
0
  0
BLOCK
  8
0
  2
ANNULUSV
 70
64
 10
0.000000
 20
0.000000
 30
0.000000
  3
ANNULUSV
  0
CIRCLE
  8
0
 10
0.000000
 20
0.000000
 30
0.000000
 40
0.500000
  0
ENDBLK
  8
0
  0
BLOCK
  8
0
  2
THERMALV
 70
64
 10
0.000000
 20
0.000000
 30
0.000000
  3
THERMALV
  0
LINE
  8
0
 10
-0.237868
 20
0.450000
 30
0.000000
 11
0.237868
 21
0.450000
 31
0.000000
  0
LINE
  8
0
 10
0.450000
 20
0.237868
 30
0.000000
 11
0.450000
 21
-0.237868
 31
0.000000
  0
LINE
  8
0
 10
0.237868
 20
-0.450000
 30
0.000000
 11
-0.237868
 21
-0.450000
 31
0.000000
  0
LINE
  8
0
 10
-0.450000
 20
-0.237868
 30
0.000000
 11
-0.450000
 21
0.237868
 31
0.000000
  0
ENDBLK
  8
0
  0
ENDSEC
  0
SECTION
  2
ENTITIES
  0
LINE
  8
49
 10
-2.000000
 20
7.500000
 30
0.000000
 11
-2.000000
 21
6.500000
 31
0.000000
  0
LINE
  8
49
 10
-2.000000
 20
6.500000
 30
0.000000
 11
-1.000000
 21
6.500000
 31
0.000000
  0
LINE
  8
49
 10
-1.000000
 20
6.500000
 30
0.000000
 11
-1.000000
 21
7.500000
 31
0.000000
  0
LINE
  8
49
 10
-1.000000
 20
7.500000
 30
0.000000
 11
-2.000000
 21
7.500000
 31
0.000000
  0
LINE
  8
20
 10
-2.500000
 20
4.500000
 30
0.000000
 11
-0.300000
 21
4.500000
 31
0.000000
  0
ARC
  8
20
 10
-0.300000
 20
4.400000
 30
0.000000
 40
0.100000
 50
0.000000
 51
90.000000
  0
LINE
  8
20
 10
-0.200000
 20
4.400000
 30
0.000000
 11
-0.200000
 21
3.300000
 31
0.000000
  0
ARC
  8
20
 10
-0.300000
 20
3.300000
 30
0.000000
 40
0.100000
 50
270.000000
 51
0.000000
  0
LINE
  8
20
 10
-0.300000
 20
3.200000
 30
0.000000
 11
-2.500000
 21
3.200000
 31
0.000000
  0
ARC
  8
20
 10
-2.500000
 20
3.300000
 30
0.000000
 40
0.100000
 50
180.000000
 51
270.000000
  0
LINE
  8
20
 10
-2.600000
 20
3.300000
 30
0.000000
 11
-2.600000
 21
3.600000
 31
0.000000
  0
ARC
  8
20
 10
-2.550000
 20
3.600000
 30
0.000000
 40
0.050000
 50
90.000000
 51
180.000000
  0
LINE
  8
20
 10
-2.550000
 20
3.650000
 30
0.000000
 11
-2.475000
 21
3.650000
 31
0.000000
  0
ARC
  8
20
 10
-2.475000
 20
3.600000
 30
0.000000
 40
0.050000
 50
0.000000
 51
90.000000
  0
LINE
  8
20
 10
-2.425000
 20
3.600000
 30
0.000000
 11
-2.425000
 21
3.475000
 31
0.000000
  0
LINE
  8
20
 10
-2.600000
 20
4.400000
 30
0.000000
 11
-2.600000
 21
4.100000
 31
0.000000
  0
ARC
  8
20
 10
-2.550000
 20
4.100000
 30
0.000000
 40
0.050000
 50
180.000000
 51
270.000000
  0
LINE
  8
20
 10
-2.425000
 20
4.225000
 30
0.000000
 11
-2.425000
 21
4.100000
 31
0.000000
  0
ARC
  8
20
 10
-2.475000
 20
4.100000
 30
0.000000
 40
0.050000
 50
270.000000
 51
0.000000
  0
LINE
  8
20
 10
-2.475000
 20
4.050000
 30
0.000000
 11
-2.550000
 21
4.050000
 31
0.000000
  0
ARC
  8
20
 10
-2.500000
 20
4.400000
 30
0.000000
 40
0.100000
 50
90.000000
 51
180.000000
  0
LINE
  8
20
 10
-0.475000
 20
4.325000
 30
0.000000
 11
-2.325000
 21
4.325000
 31
0.000000
  0
ARC
  8
20
 10
-2.325000
 20
4.225000
 30
0.000000
 40
0.100000
 50
90.000000
 51
180.000000
  0
ARC
  8
20
 10
-2.325000
 20
3.475000
 30
0.000000
 40
0.100000
 50
180.000000
 51
270.000000
  0
LINE
  8
20
 10
-2.325000
 20
3.375000
 30
0.000000
 11
-0.475000
 21
3.375000
 31
0.000000
  0
ARC
  8
20
 10
-0.475000
 20
3.475000
 30
0.000000
 40
0.100000
 50
270.000000
 51
0.000000
  0
LINE
  8
20
 10
-0.375000
 20
3.475000
 30
0.000000
 11
-0.375000
 21
4.225000
 31
0.000000
  0
ARC
  8
20
 10
-0.475000
 20
4.225000
 30
0.000000
 40
0.100000
 50
0.000000
 51
90.000000
  0
LINE
  8
20
 10
-0.200000
 20
2.900000
 30
0.000000
 11
-0.200000
 21
1.800000
 31
0.000000
  0
ARC
  8
20
 10
-0.300000
 20
1.800000
 30
0.000000
 40
0.100000
 50
270.000000
 51
0.000000
  0
LINE
  8
20
 10
-0.300000
 20
1.700000
 30
0.000000
 11
-2.500000
 21
1.700000
 31
0.000000
  0
ARC
  8
20
 10
-2.500000
 20
1.800000
 30
0.000000
 40
0.100000
 50
180.000000
 51
270.000000
  0
LINE
  8
20
 10
-2.600000
 20
1.800000
 30
0.000000
 11
-2.600000
 21
2.900000
 31
0.000000
  0
ARC
  8
20
 10
-2.500000
 20
2.900000
 30
0.000000
 40
0.100000
 50
90.000000
 51
180.000000
  0
LINE
  8
20
 10
-2.500000
 20
3.000000
 30
0.000000
 11
-0.300000
 21
3.000000
 31
0.000000
  0
ARC
  8
20
 10
-0.300000
 20
2.900000
 30
0.000000
 40
0.100000
 50
0.000000
 51
90.000000
  0
LINE
  8
20
 10
-0.475000
 20
2.825000
 30
0.000000
 11
-2.325000
 21
2.825000
 31
0.000000
  0
ARC
  8
20
 10
-2.325000
 20
2.725000
 30
0.000000
 40
0.100000
 50
90.000000
 51
180.000000
  0
LINE
  8
20
 10
-2.425000
 20
2.725000
 30
0.000000
 11
-2.425000
 21
1.975000
 31
0.000000
  0
ARC
  8
20
 10
-2.325000
 20
1.975000
 30
0.000000
 40
0.100000
 50
180.000000
 51
270.000000
  0
LINE
  8
20
 10
-2.325000
 20
1.875000
 30
0.000000
 11
-0.475000
 21
1.875000
 31
0.000000
  0
ARC
  8
20
 10
-0.475000
 20
1.975000
 30
0.000000
 40
0.100000
 50
270.000000
 51
0.000000
  0
LINE
  8
20
 10
-0.375000
 20
1.975000
 30
0.000000
 11
-0.375000
 21
2.725000
 31
0.000000
  0
ARC
  8
20
 10
-0.475000
 20
2.725000
 30
0.000000
 40
0.100000
 50
0.000000
 51
90.000000
  0
LINE
  8
47
 10
0.000000
 20
11.750000
 30
0.000000
 11
11.750000
 21
11.750000
 31
0.000000
  0
LINE
  8
47
 10
0.000000
 20
0.000000
 30
0.000000
 11
11.750000
 21
0.000000
 31
0.000000
  0
LINE
  8
47
 10
0.000000
 20
0.000000
 30
0.000000
 11
0.000000
 21
11.750000
 31
0.000000
  0
LINE
  8
47
 10
11.750000
 20
0.000000
 30
0.000000
 11
11.750000
 21
11.750000
 31
0.000000
  0
LINE
  8
20
 10
-0.200000
 20
5.900000
 30
0.000000
 11
-0.200000
 21
4.800000
 31
0.000000
  0
ARC
  8
20
 10
-0.300000
 20
4.800000
 30
0.000000
 40
0.100000
 50
270.000000
 51
0.000000
  0
LINE
  8
20
 10
-0.300000
 20
4.700000
 30
0.000000
 11
-2.500000
 21
4.700000
 31
0.000000
  0
ARC
  8
20
 10
-2.500000
 20
4.800000
 30
0.000000
 40
0.100000
 50
180.000000
 51
270.000000
  0
LINE
  8
20
 10
-2.600000
 20
4.800000
 30
0.000000
 11
-2.600000
 21
5.900000
 31
0.000000
  0
ARC
  8
20
 10
-2.500000
 20
5.900000
 30
0.000000
 40
0.100000
 50
90.000000
 51
180.000000
  0
LINE
  8
20
 10
-2.500000
 20
6.000000
 30
0.000000
 11
-0.300000
 21
6.000000
 31
0.000000
  0
ARC
  8
20
 10
-0.300000
 20
5.900000
 30
0.000000
 40
0.100000
 50
0.000000
 51
90.000000
  0
LINE
  8
49
 10
-2.400000
 20
5.700000
 30
0.000000
 11
-2.400000
 21
5.000000
 31
0.000000
  0
ARC
  8
49
 10
-2.300000
 20
5.000000
 30
0.000000
 40
0.100000
 50
180.000000
 51
270.000000
  0
LINE
  8
49
 10
-2.300000
 20
4.900000
 30
0.000000
 11
-0.500000
 21
4.900000
 31
0.000000
  0
ARC
  8
49
 10
-0.500000
 20
5.000000
 30
0.000000
 40
0.100000
 50
270.000000
 51
0.000000
  0
LINE
  8
49
 10
-0.400000
 20
5.000000
 30
0.000000
 11
-0.400000
 21
5.700000
 31
0.000000
  0
ARC
  8
49
 10
-0.500000
 20
5.700000
 30
0.000000
 40
0.100000
 50
0.000000
 51
90.000000
  0
LINE
  8
49
 10
-0.500000
 20
5.800000
 30
0.000000
 11
-2.300000
 21
5.800000
 31
0.000000
  0
ARC
  8
49
 10
-2.300000
 20
5.700000
 30
0.000000
 40
0.100000
 50
90.000000
 51
180.000000
  0
LINE
  8
20
 10
-0.200000
 20
1.400000
 30
0.000000
 11
-0.200000
 21
0.300000
 31
0.000000
  0
ARC
  8
20
 10
-0.300000
 20
0.300000
 30
0.000000
 40
0.100000
 50
270.000000
 51
0.000000
  0
LINE
  8
20
 10
-0.300000
 20
0.200000
 30
0.000000
 11
-2.500000
 21
0.200000
 31
0.000000
  0
ARC
  8
20
 10
-2.500000
 20
0.300000
 30
0.000000
 40
0.100000
 50
180.000000
 51
270.000000
  0
LINE
  8
20
 10
-2.600000
 20
0.300000
 30
0.000000
 11
-2.600000
 21
1.400000
 31
0.000000
  0
ARC
  8
20
 10
-2.500000
 20
1.400000
 30
0.000000
 40
0.100000
 50
90.000000
 51
180.000000
  0
LINE
  8
20
 10
-2.500000
 20
1.500000
 30
0.000000
 11
-0.300000
 21
1.500000
 31
0.000000
  0
ARC
  8
20
 10
-0.300000
 20
1.400000
 30
0.000000
 40
0.100000
 50
0.000000
 51
90.000000
  0
LINE
  8
49
 10
-2.400000
 20
1.200000
 30
0.000000
 11
-2.400000
 21
0.500000
 31
0.000000
  0
ARC
  8
49
 10
-2.300000
 20
0.500000
 30
0.000000
 40
0.100000
 50
180.000000
 51
270.000000
  0
LINE
  8
49
 10
-2.300000
 20
0.400000
 30
0.000000
 11
-0.500000
 21
0.400000
 31
0.000000
  0
ARC
  8
49
 10
-0.500000
 20
0.500000
 30
0.000000
 40
0.100000
 50
270.000000
 51
0.000000
  0
LINE
  8
49
 10
-0.400000
 20
0.500000
 30
0.000000
 11
-0.400000
 21
1.200000
 31
0.000000
  0
ARC
  8
49
 10
-0.500000
 20
1.200000
 30
0.000000
 40
0.100000
 50
0.000000
 51
90.000000
  0
LINE
  8
49
 10
-0.500000
 20
1.300000
 30
0.000000
 11
-2.300000
 21
1.300000
 31
0.000000
  0
ARC
  8
49
 10
-2.300000
 20
1.200000
 30
0.000000
 40
0.100000
 50
90.000000
 51
180.000000
  0
LINE
  8
20
 10
2.900000
 20
3.600000
 30
0.000000
 11
0.700000
 21
3.600000
 31
0.000000
  0
ARC
  8
20
 10
0.700000
 20
3.700000
 30
0.000000
 40
0.100000
 50
180.000000
 51
270.000000
  0
LINE
  8
20
 10
0.600000
 20
3.700000
 30
0.000000
 11
0.600000
 21
4.800000
 31
0.000000
  0
ARC
  8
20
 10
0.700000
 20
4.800000
 30
0.000000
 40
0.100000
 50
90.000000
 51
180.000000
  0
LINE
  8
20
 10
0.700000
 20
4.900000
 30
0.000000
 11
2.900000
 21
4.900000
 31
0.000000
  0
ARC
  8
20
 10
2.900000
 20
4.800000
 30
0.000000
 40
0.100000
 50
0.000000
 51
90.000000
  0
LINE
  8
20
 10
3.000000
 20
4.800000
 30
0.000000
 11
3.000000
 21
4.500000
 31
0.000000
  0
ARC
  8
20
 10
2.950000
 20
4.500000
 30
0.000000
 40
0.050000
 50
270.000000
 51
0.000000
  0
LINE
  8
20
 10
2.950000
 20
4.450000
 30
0.000000
 11
2.875000
 21
4.450000
 31
0.000000
  0
ARC
  8
20
 10
2.875000
 20
4.500000
 30
0.000000
 40
0.050000
 50
180.000000
 51
270.000000
  0
LINE
  8
20
 10
2.825000
 20
4.500000
 30
0.000000
 11
2.825000
 21
4.625000
 31
0.000000
  0
LINE
  8
20
 10
3.000000
 20
3.700000
 30
0.000000
 11
3.000000
 21
4.000000
 31
0.000000
  0
ARC
  8
20
 10
2.950000
 20
4.000000
 30
0.000000
 40
0.050000
 50
0.000000
 51
90.000000
  0
LINE
  8
20
 10
2.825000
 20
3.875000
 30
0.000000
 11
2.825000
 21
4.000000
 31
0.000000
  0
ARC
  8
20
 10
2.875000
 20
4.000000
 30
0.000000
 40
0.050000
 50
90.000000
 51
180.000000
  0
LINE
  8
20
 10
2.875000
 20
4.050000
 30
0.000000
 11
2.950000
 21
4.050000
 31
0.000000
  0
ARC
  8
20
 10
2.900000
 20
3.700000
 30
0.000000
 40
0.100000
 50
270.000000
 51
0.000000
  0
LINE
  8
20
 10
0.875000
 20
3.775000
 30
0.000000
 11
2.725000
 21
3.775000
 31
0.000000
  0
ARC
  8
20
 10
2.725000
 20
3.875000
 30
0.000000
 40
0.100000
 50
270.000000
 51
0.000000
  0
ARC
  8
20
 10
2.725000
 20
4.625000
 30
0.000000
 40
0.100000
 50
0.000000
 51
90.000000
  0
LINE
  8
20
 10
2.725000
 20
4.725000
 30
0.000000
 11
0.875000
 21
4.725000
 31
0.000000
  0
ARC
  8
20
 10
0.875000
 20
4.625000
 30
0.000000
 40
0.100000
 50
90.000000
 51
180.000000
  0
LINE
  8
20
 10
0.775000
 20
4.625000
 30
0.000000
 11
0.775000
 21
3.875000
 31
0.000000
  0
ARC
  8
20
 10
0.875000
 20
3.875000
 30
0.000000
 40
0.100000
 50
180.000000
 51
270.000000
  0
LINE
  8
20
 10
2.900000
 20
5.200000
 30
0.000000
 11
0.700000
 21
5.200000
 31
0.000000
  0
ARC
  8
20
 10
0.700000
 20
5.300000
 30
0.000000
 40
0.100000
 50
180.000000
 51
270.000000
  0
LINE
  8
20
 10
0.600000
 20
5.300000
 30
0.000000
 11
0.600000
 21
6.400000
 31
0.000000
  0
ARC
  8
20
 10
0.700000
 20
6.400000
 30
0.000000
 40
0.100000
 50
90.000000
 51
180.000000
  0
LINE
  8
20
 10
0.700000
 20
6.500000
 30
0.000000
 11
2.900000
 21
6.500000
 31
0.000000
  0
ARC
  8
20
 10
2.900000
 20
6.400000
 30
0.000000
 40
0.100000
 50
0.000000
 51
90.000000
  0
LINE
  8
20
 10
3.000000
 20
6.400000
 30
0.000000
 11
3.000000
 21
6.100000
 31
0.000000
  0
ARC
  8
20
 10
2.950000
 20
6.100000
 30
0.000000
 40
0.050000
 50
270.000000
 51
0.000000
  0
LINE
  8
20
 10
2.950000
 20
6.050000
 30
0.000000
 11
2.875000
 21
6.050000
 31
0.000000
  0
ARC
  8
20
 10
2.875000
 20
6.100000
 30
0.000000
 40
0.050000
 50
180.000000
 51
270.000000
  0
LINE
  8
20
 10
2.825000
 20
6.100000
 30
0.000000
 11
2.825000
 21
6.225000
 31
0.000000
  0
LINE
  8
20
 10
3.000000
 20
5.300000
 30
0.000000
 11
3.000000
 21
5.600000
 31
0.000000
  0
ARC
  8
20
 10
2.950000
 20
5.600000
 30
0.000000
 40
0.050000
 50
0.000000
 51
90.000000
  0
LINE
  8
20
 10
2.825000
 20
5.475000
 30
0.000000
 11
2.825000
 21
5.600000
 31
0.000000
  0
ARC
  8
20
 10
2.875000
 20
5.600000
 30
0.000000
 40
0.050000
 50
90.000000
 51
180.000000
  0
LINE
  8
20
 10
2.875000
 20
5.650000
 30
0.000000
 11
2.950000
 21
5.650000
 31
0.000000
  0
ARC
  8
20
 10
2.900000
 20
5.300000
 30
0.000000
 40
0.100000
 50
270.000000
 51
0.000000
  0
LINE
  8
20
 10
0.875000
 20
5.375000
 30
0.000000
 11
2.725000
 21
5.375000
 31
0.000000
  0
ARC
  8
20
 10
2.725000
 20
5.475000
 30
0.000000
 40
0.100000
 50
270.000000
 51
0.000000
  0
ARC
  8
20
 10
2.725000
 20
6.225000
 30
0.000000
 40
0.100000
 50
0.000000
 51
90.000000
  0
LINE
  8
20
 10
2.725000
 20
6.325000
 30
0.000000
 11
0.875000
 21
6.325000
 31
0.000000
  0
ARC
  8
20
 10
0.875000
 20
6.225000
 30
0.000000
 40
0.100000
 50
90.000000
 51
180.000000
  0
LINE
  8
20
 10
0.775000
 20
6.225000
 30
0.000000
 11
0.775000
 21
5.475000
 31
0.000000
  0
ARC
  8
20
 10
0.875000
 20
5.475000
 30
0.000000
 40
0.100000
 50
180.000000
 51
270.000000
  0
LINE
  8
20
 10
3.000000
 20
8.000000
 30
0.000000
 11
3.000000
 21
6.900000
 31
0.000000
  0
ARC
  8
20
 10
2.900000
 20
6.900000
 30
0.000000
 40
0.100000
 50
270.000000
 51
0.000000
  0
LINE
  8
20
 10
2.900000
 20
6.800000
 30
0.000000
 11
0.700000
 21
6.800000
 31
0.000000
  0
ARC
  8
20
 10
0.700000
 20
6.900000
 30
0.000000
 40
0.100000
 50
180.000000
 51
270.000000
  0
LINE
  8
20
 10
0.600000
 20
6.900000
 30
0.000000
 11
0.600000
 21
8.000000
 31
0.000000
  0
ARC
  8
20
 10
0.700000
 20
8.000000
 30
0.000000
 40
0.100000
 50
90.000000
 51
180.000000
  0
LINE
  8
20
 10
0.700000
 20
8.100000
 30
0.000000
 11
2.900000
 21
8.100000
 31
0.000000
  0
ARC
  8
20
 10
2.900000
 20
8.000000
 30
0.000000
 40
0.100000
 50
0.000000
 51
90.000000
  0
LINE
  8
20
 10
2.725000
 20
7.925000
 30
0.000000
 11
0.875000
 21
7.925000
 31
0.000000
  0
ARC
  8
20
 10
0.875000
 20
7.825000
 30
0.000000
 40
0.100000
 50
90.000000
 51
180.000000
  0
LINE
  8
20
 10
0.775000
 20
7.825000
 30
0.000000
 11
0.775000
 21
7.075000
 31
0.000000
  0
ARC
  8
20
 10
0.875000
 20
7.075000
 30
0.000000
 40
0.100000
 50
180.000000
 51
270.000000
  0
LINE
  8
20
 10
0.875000
 20
6.975000
 30
0.000000
 11
2.725000
 21
6.975000
 31
0.000000
  0
ARC
  8
20
 10
2.725000
 20
7.075000
 30
0.000000
 40
0.100000
 50
270.000000
 51
0.000000
  0
LINE
  8
20
 10
2.825000
 20
7.075000
 30
0.000000
 11
2.825000
 21
7.825000
 31
0.000000
  0
ARC
  8
20
 10
2.725000
 20
7.825000
 30
0.000000
 40
0.100000
 50
0.000000
 51
90.000000
  0
LINE
  8
20
 10
3.000000
 20
9.600000
 30
0.000000
 11
3.000000
 21
8.500000
 31
0.000000
  0
ARC
  8
20
 10
2.900000
 20
8.500000
 30
0.000000
 40
0.100000
 50
270.000000
 51
0.000000
  0
LINE
  8
20
 10
2.900000
 20
8.400000
 30
0.000000
 11
0.700000
 21
8.400000
 31
0.000000
  0
ARC
  8
20
 10
0.700000
 20
8.500000
 30
0.000000
 40
0.100000
 50
180.000000
 51
270.000000
  0
LINE
  8
20
 10
0.600000
 20
8.500000
 30
0.000000
 11
0.600000
 21
9.600000
 31
0.000000
  0
ARC
  8
20
 10
0.700000
 20
9.600000
 30
0.000000
 40
0.100000
 50
90.000000
 51
180.000000
  0
LINE
  8
20
 10
0.700000
 20
9.700000
 30
0.000000
 11
2.900000
 21
9.700000
 31
0.000000
  0
ARC
  8
20
 10
2.900000
 20
9.600000
 30
0.000000
 40
0.100000
 50
0.000000
 51
90.000000
  0
LINE
  8
20
 10
2.725000
 20
9.525000
 30
0.000000
 11
0.875000
 21
9.525000
 31
0.000000
  0
ARC
  8
20
 10
0.875000
 20
9.425000
 30
0.000000
 40
0.100000
 50
90.000000
 51
180.000000
  0
LINE
  8
20
 10
0.775000
 20
9.425000
 30
0.000000
 11
0.775000
 21
8.675000
 31
0.000000
  0
ARC
  8
20
 10
0.875000
 20
8.675000
 30
0.000000
 40
0.100000
 50
180.000000
 51
270.000000
  0
LINE
  8
20
 10
0.875000
 20
8.575000
 30
0.000000
 11
2.725000
 21
8.575000
 31
0.000000
  0
ARC
  8
20
 10
2.725000
 20
8.675000
 30
0.000000
 40
0.100000
 50
270.000000
 51
0.000000
  0
LINE
  8
20
 10
2.825000
 20
8.675000
 30
0.000000
 11
2.825000
 21
9.425000
 31
0.000000
  0
ARC
  8
20
 10
2.725000
 20
9.425000
 30
0.000000
 40
0.100000
 50
0.000000
 51
90.000000
  0
LINE
  8
20
 10
3.000000
 20
11.200000
 30
0.000000
 11
3.000000
 21
10.100000
 31
0.000000
  0
ARC
  8
20
 10
2.900000
 20
10.100000
 30
0.000000
 40
0.100000
 50
270.000000
 51
0.000000
  0
LINE
  8
20
 10
2.900000
 20
10.000000
 30
0.000000
 11
0.700000
 21
10.000000
 31
0.000000
  0
ARC
  8
20
 10
0.700000
 20
10.100000
 30
0.000000
 40
0.100000
 50
180.000000
 51
270.000000
  0
LINE
  8
20
 10
0.600000
 20
10.100000
 30
0.000000
 11
0.600000
 21
11.200000
 31
0.000000
  0
ARC
  8
20
 10
0.700000
 20
11.200000
 30
0.000000
 40
0.100000
 50
90.000000
 51
180.000000
  0
LINE
  8
20
 10
0.700000
 20
11.300000
 30
0.000000
 11
2.900000
 21
11.300000
 31
0.000000
  0
ARC
  8
20
 10
2.900000
 20
11.200000
 30
0.000000
 40
0.100000
 50
0.000000
 51
90.000000
  0
LINE
  8
20
 10
2.725000
 20
11.125000
 30
0.000000
 11
0.875000
 21
11.125000
 31
0.000000
  0
ARC
  8
20
 10
0.875000
 20
11.025000
 30
0.000000
 40
0.100000
 50
90.000000
 51
180.000000
  0
LINE
  8
20
 10
0.775000
 20
11.025000
 30
0.000000
 11
0.775000
 21
10.275000
 31
0.000000
  0
ARC
  8
20
 10
0.875000
 20
10.275000
 30
0.000000
 40
0.100000
 50
180.000000
 51
270.000000
  0
LINE
  8
20
 10
0.875000
 20
10.175000
 30
0.000000
 11
2.725000
 21
10.175000
 31
0.000000
  0
ARC
  8
20
 10
2.725000
 20
10.275000
 30
0.000000
 40
0.100000
 50
270.000000
 51
0.000000
  0
LINE
  8
20
 10
2.825000
 20
10.275000
 30
0.000000
 11
2.825000
 21
11.025000
 31
0.000000
  0
ARC
  8
20
 10
2.725000
 20
11.025000
 30
0.000000
 40
0.100000
 50
0.000000
 51
90.000000
  0
LINE
  8
20
 10
5.700000
 20
6.400000
 30
0.000000
 11
5.700000
 21
5.300000
 31
0.000000
  0
ARC
  8
20
 10
5.600000
 20
5.300000
 30
0.000000
 40
0.100000
 50
270.000000
 51
0.000000
  0
LINE
  8
20
 10
5.600000
 20
5.200000
 30
0.000000
 11
3.400000
 21
5.200000
 31
0.000000
  0
ARC
  8
20
 10
3.400000
 20
5.300000
 30
0.000000
 40
0.100000
 50
180.000000
 51
270.000000
  0
LINE
  8
20
 10
3.300000
 20
5.300000
 30
0.000000
 11
3.300000
 21
6.400000
 31
0.000000
  0
ARC
  8
20
 10
3.400000
 20
6.400000
 30
0.000000
 40
0.100000
 50
90.000000
 51
180.000000
  0
LINE
  8
20
 10
3.400000
 20
6.500000
 30
0.000000
 11
5.600000
 21
6.500000
 31
0.000000
  0
ARC
  8
20
 10
5.600000
 20
6.400000
 30
0.000000
 40
0.100000
 50
0.000000
 51
90.000000
  0
LINE
  8
20
 10
5.425000
 20
6.325000
 30
0.000000
 11
3.575000
 21
6.325000
 31
0.000000
  0
ARC
  8
20
 10
3.575000
 20
6.225000
 30
0.000000
 40
0.100000
 50
90.000000
 51
180.000000
  0
LINE
  8
20
 10
3.475000
 20
6.225000
 30
0.000000
 11
3.475000
 21
5.475000
 31
0.000000
  0
ARC
  8
20
 10
3.575000
 20
5.475000
 30
0.000000
 40
0.100000
 50
180.000000
 51
270.000000
  0
LINE
  8
20
 10
3.575000
 20
5.375000
 30
0.000000
 11
5.425000
 21
5.375000
 31
0.000000
  0
ARC
  8
20
 10
5.425000
 20
5.475000
 30
0.000000
 40
0.100000
 50
270.000000
 51
0.000000
  0
LINE
  8
20
 10
5.525000
 20
5.475000
 30
0.000000
 11
5.525000
 21
6.225000
 31
0.000000
  0
ARC
  8
20
 10
5.425000
 20
6.225000
 30
0.000000
 40
0.100000
 50
0.000000
 51
90.000000
  0
LINE
  8
20
 10
5.700000
 20
8.000000
 30
0.000000
 11
5.700000
 21
6.900000
 31
0.000000
  0
ARC
  8
20
 10
5.600000
 20
6.900000
 30
0.000000
 40
0.100000
 50
270.000000
 51
0.000000
  0
LINE
  8
20
 10
5.600000
 20
6.800000
 30
0.000000
 11
3.400000
 21
6.800000
 31
0.000000
  0
ARC
  8
20
 10
3.400000
 20
6.900000
 30
0.000000
 40
0.100000
 50
180.000000
 51
270.000000
  0
LINE
  8
20
 10
3.300000
 20
6.900000
 30
0.000000
 11
3.300000
 21
8.000000
 31
0.000000
  0
ARC
  8
20
 10
3.400000
 20
8.000000
 30
0.000000
 40
0.100000
 50
90.000000
 51
180.000000
  0
LINE
  8
20
 10
3.400000
 20
8.100000
 30
0.000000
 11
5.600000
 21
8.100000
 31
0.000000
  0
ARC
  8
20
 10
5.600000
 20
8.000000
 30
0.000000
 40
0.100000
 50
0.000000
 51
90.000000
  0
LINE
  8
20
 10
5.425000
 20
7.925000
 30
0.000000
 11
3.575000
 21
7.925000
 31
0.000000
  0
ARC
  8
20
 10
3.575000
 20
7.825000
 30
0.000000
 40
0.100000
 50
90.000000
 51
180.000000
  0
LINE
  8
20
 10
3.475000
 20
7.825000
 30
0.000000
 11
3.475000
 21
7.075000
 31
0.000000
  0
ARC
  8
20
 10
3.575000
 20
7.075000
 30
0.000000
 40
0.100000
 50
180.000000
 51
270.000000
  0
LINE
  8
20
 10
3.575000
 20
6.975000
 30
0.000000
 11
5.425000
 21
6.975000
 31
0.000000
  0
ARC
  8
20
 10
5.425000
 20
7.075000
 30
0.000000
 40
0.100000
 50
270.000000
 51
0.000000
  0
LINE
  8
20
 10
5.525000
 20
7.075000
 30
0.000000
 11
5.525000
 21
7.825000
 31
0.000000
  0
ARC
  8
20
 10
5.425000
 20
7.825000
 30
0.000000
 40
0.100000
 50
0.000000
 51
90.000000
  0
LINE
  8
20
 10
5.700000
 20
9.600000
 30
0.000000
 11
5.700000
 21
8.500000
 31
0.000000
  0
ARC
  8
20
 10
5.600000
 20
8.500000
 30
0.000000
 40
0.100000
 50
270.000000
 51
0.000000
  0
LINE
  8
20
 10
5.600000
 20
8.400000
 30
0.000000
 11
3.400000
 21
8.400000
 31
0.000000
  0
ARC
  8
20
 10
3.400000
 20
8.500000
 30
0.000000
 40
0.100000
 50
180.000000
 51
270.000000
  0
LINE
  8
20
 10
3.300000
 20
8.500000
 30
0.000000
 11
3.300000
 21
9.600000
 31
0.000000
  0
ARC
  8
20
 10
3.400000
 20
9.600000
 30
0.000000
 40
0.100000
 50
90.000000
 51
180.000000
  0
LINE
  8
20
 10
3.400000
 20
9.700000
 30
0.000000
 11
5.600000
 21
9.700000
 31
0.000000
  0
ARC
  8
20
 10
5.600000
 20
9.600000
 30
0.000000
 40
0.100000
 50
0.000000
 51
90.000000
  0
LINE
  8
20
 10
5.425000
 20
9.525000
 30
0.000000
 11
3.575000
 21
9.525000
 31
0.000000
  0
ARC
  8
20
 10
3.575000
 20
9.425000
 30
0.000000
 40
0.100000
 50
90.000000
 51
180.000000
  0
LINE
  8
20
 10
3.475000
 20
9.425000
 30
0.000000
 11
3.475000
 21
8.675000
 31
0.000000
  0
ARC
  8
20
 10
3.575000
 20
8.675000
 30
0.000000
 40
0.100000
 50
180.000000
 51
270.000000
  0
LINE
  8
20
 10
3.575000
 20
8.575000
 30
0.000000
 11
5.425000
 21
8.575000
 31
0.000000
  0
ARC
  8
20
 10
5.425000
 20
8.675000
 30
0.000000
 40
0.100000
 50
270.000000
 51
0.000000
  0
LINE
  8
20
 10
5.525000
 20
8.675000
 30
0.000000
 11
5.525000
 21
9.425000
 31
0.000000
  0
ARC
  8
20
 10
5.425000
 20
9.425000
 30
0.000000
 40
0.100000
 50
0.000000
 51
90.000000
  0
LINE
  8
20
 10
5.700000
 20
11.200000
 30
0.000000
 11
5.700000
 21
10.100000
 31
0.000000
  0
ARC
  8
20
 10
5.600000
 20
10.100000
 30
0.000000
 40
0.100000
 50
270.000000
 51
0.000000
  0
LINE
  8
20
 10
5.600000
 20
10.000000
 30
0.000000
 11
3.400000
 21
10.000000
 31
0.000000
  0
ARC
  8
20
 10
3.400000
 20
10.100000
 30
0.000000
 40
0.100000
 50
180.000000
 51
270.000000
  0
LINE
  8
20
 10
3.300000
 20
10.100000
 30
0.000000
 11
3.300000
 21
11.200000
 31
0.000000
  0
ARC
  8
20
 10
3.400000
 20
11.200000
 30
0.000000
 40
0.100000
 50
90.000000
 51
180.000000
  0
LINE
  8
20
 10
3.400000
 20
11.300000
 30
0.000000
 11
5.600000
 21
11.300000
 31
0.000000
  0
ARC
  8
20
 10
5.600000
 20
11.200000
 30
0.000000
 40
0.100000
 50
0.000000
 51
90.000000
  0
LINE
  8
20
 10
5.425000
 20
11.125000
 30
0.000000
 11
3.575000
 21
11.125000
 31
0.000000
  0
ARC
  8
20
 10
3.575000
 20
11.025000
 30
0.000000
 40
0.100000
 50
90.000000
 51
180.000000
  0
LINE
  8
20
 10
3.475000
 20
11.025000
 30
0.000000
 11
3.475000
 21
10.275000
 31
0.000000
  0
ARC
  8
20
 10
3.575000
 20
10.275000
 30
0.000000
 40
0.100000
 50
180.000000
 51
270.000000
  0
LINE
  8
20
 10
3.575000
 20
10.175000
 30
0.000000
 11
5.425000
 21
10.175000
 31
0.000000
  0
ARC
  8
20
 10
5.425000
 20
10.275000
 30
0.000000
 40
0.100000
 50
270.000000
 51
0.000000
  0
LINE
  8
20
 10
5.525000
 20
10.275000
 30
0.000000
 11
5.525000
 21
11.025000
 31
0.000000
  0
ARC
  8
20
 10
5.425000
 20
11.025000
 30
0.000000
 40
0.100000
 50
0.000000
 51
90.000000
  0
LINE
  8
20
 10
5.700000
 20
4.800000
 30
0.000000
 11
5.700000
 21
3.700000
 31
0.000000
  0
ARC
  8
20
 10
5.600000
 20
3.700000
 30
0.000000
 40
0.100000
 50
270.000000
 51
0.000000
  0
LINE
  8
20
 10
5.600000
 20
3.600000
 30
0.000000
 11
3.400000
 21
3.600000
 31
0.000000
  0
ARC
  8
20
 10
3.400000
 20
3.700000
 30
0.000000
 40
0.100000
 50
180.000000
 51
270.000000
  0
LINE
  8
20
 10
3.300000
 20
3.700000
 30
0.000000
 11
3.300000
 21
4.800000
 31
0.000000
  0
ARC
  8
20
 10
3.400000
 20
4.800000
 30
0.000000
 40
0.100000
 50
90.000000
 51
180.000000
  0
LINE
  8
20
 10
3.400000
 20
4.900000
 30
0.000000
 11
5.600000
 21
4.900000
 31
0.000000
  0
ARC
  8
20
 10
5.600000
 20
4.800000
 30
0.000000
 40
0.100000
 50
0.000000
 51
90.000000
  0
LINE
  8
20
 10
5.425000
 20
4.725000
 30
0.000000
 11
3.575000
 21
4.725000
 31
0.000000
  0
ARC
  8
20
 10
3.575000
 20
4.625000
 30
0.000000
 40
0.100000
 50
90.000000
 51
180.000000
  0
LINE
  8
20
 10
3.475000
 20
4.625000
 30
0.000000
 11
3.475000
 21
3.875000
 31
0.000000
  0
ARC
  8
20
 10
3.575000
 20
3.875000
 30
0.000000
 40
0.100000
 50
180.000000
 51
270.000000
  0
LINE
  8
20
 10
3.575000
 20
3.775000
 30
0.000000
 11
5.425000
 21
3.775000
 31
0.000000
  0
ARC
  8
20
 10
5.425000
 20
3.875000
 30
0.000000
 40
0.100000
 50
270.000000
 51
0.000000
  0
LINE
  8
20
 10
5.525000
 20
3.875000
 30
0.000000
 11
5.525000
 21
4.625000
 31
0.000000
  0
ARC
  8
20
 10
5.425000
 20
4.625000
 30
0.000000
 40
0.100000
 50
0.000000
 51
90.000000
  0
LINE
  8
20
 10
5.700000
 20
1.600000
 30
0.000000
 11
5.700000
 21
0.500000
 31
0.000000
  0
ARC
  8
20
 10
5.600000
 20
0.500000
 30
0.000000
 40
0.100000
 50
270.000000
 51
0.000000
  0
LINE
  8
20
 10
5.600000
 20
0.400000
 30
0.000000
 11
3.400000
 21
0.400000
 31
0.000000
  0
ARC
  8
20
 10
3.400000
 20
0.500000
 30
0.000000
 40
0.100000
 50
180.000000
 51
270.000000
  0
LINE
  8
20
 10
3.300000
 20
0.500000
 30
0.000000
 11
3.300000
 21
1.600000
 31
0.000000
  0
ARC
  8
20
 10
3.400000
 20
1.600000
 30
0.000000
 40
0.100000
 50
90.000000
 51
180.000000
  0
LINE
  8
20
 10
3.400000
 20
1.700000
 30
0.000000
 11
5.600000
 21
1.700000
 31
0.000000
  0
ARC
  8
20
 10
5.600000
 20
1.600000
 30
0.000000
 40
0.100000
 50
0.000000
 51
90.000000
  0
LINE
  8
49
 10
-2.285000
 20
5.137500
 30
0.000000
 11
-2.175000
 21
5.137500
 31
0.000000
  0
LINE
  8
49
 10
-2.285000
 20
5.212500
 30
0.000000
 11
-2.175000
 21
5.212500
 31
0.000000
  0
LINE
  8
49
 10
-2.285000
 20
5.212500
 30
0.000000
 11
-2.285000
 21
5.137500
 31
0.000000
  0
LINE
  8
49
 10
-2.175000
 20
5.137500
 30
0.000000
 11
-2.175000
 21
5.212000
 31
0.000000
  0
LINE
  8
49
 10
-2.285000
 20
5.312500
 30
0.000000
 11
-2.175000
 21
5.312500
 31
0.000000
  0
LINE
  8
49
 10
-2.285000
 20
5.387500
 30
0.000000
 11
-2.175000
 21
5.387500
 31
0.000000
  0
LINE
  8
49
 10
-2.285000
 20
5.387500
 30
0.000000
 11
-2.285000
 21
5.312500
 31
0.000000
  0
LINE
  8
49
 10
-2.175000
 20
5.312500
 30
0.000000
 11
-2.175000
 21
5.387000
 31
0.000000
  0
LINE
  8
49
 10
-2.285000
 20
5.487500
 30
0.000000
 11
-2.175000
 21
5.487500
 31
0.000000
  0
LINE
  8
49
 10
-2.285000
 20
5.562500
 30
0.000000
 11
-2.175000
 21
5.562500
 31
0.000000
  0
LINE
  8
49
 10
-2.285000
 20
5.562500
 30
0.000000
 11
-2.285000
 21
5.487500
 31
0.000000
  0
LINE
  8
49
 10
-2.175000
 20
5.487500
 30
0.000000
 11
-2.175000
 21
5.562000
 31
0.000000
  0
LINE
  8
49
 10
-2.115000
 20
5.672500
 30
0.000000
 11
-2.005000
 21
5.672500
 31
0.000000
  0
LINE
  8
49
 10
-2.115000
 20
5.747500
 30
0.000000
 11
-2.005000
 21
5.747500
 31
0.000000
  0
LINE
  8
49
 10
-2.115000
 20
5.747500
 30
0.000000
 11
-2.115000
 21
5.672500
 31
0.000000
  0
LINE
  8
49
 10
-2.005000
 20
5.672500
 30
0.000000
 11
-2.005000
 21
5.747000
 31
0.000000
  0
LINE
  8
20
 10
3.000000
 20
1.600000
 30
0.000000
 11
3.000000
 21
0.500000
 31
0.000000
  0
ARC
  8
20
 10
2.900000
 20
0.500000
 30
0.000000
 40
0.100000
 50
270.000000
 51
0.000000
  0
LINE
  8
20
 10
2.900000
 20
0.400000
 30
0.000000
 11
0.700000
 21
0.400000
 31
0.000000
  0
ARC
  8
20
 10
0.700000
 20
0.500000
 30
0.000000
 40
0.100000
 50
180.000000
 51
270.000000
  0
LINE
  8
20
 10
0.600000
 20
0.500000
 30
0.000000
 11
0.600000
 21
1.600000
 31
0.000000
  0
ARC
  8
20
 10
0.700000
 20
1.600000
 30
0.000000
 40
0.100000
 50
90.000000
 51
180.000000
  0
LINE
  8
20
 10
0.700000
 20
1.700000
 30
0.000000
 11
2.900000
 21
1.700000
 31
0.000000
  0
ARC
  8
20
 10
2.900000
 20
1.600000
 30
0.000000
 40
0.100000
 50
0.000000
 51
90.000000
  0
LINE
  8
20
 10
3.000000
 20
3.200000
 30
0.000000
 11
3.000000
 21
2.100000
 31
0.000000
  0
ARC
  8
20
 10
2.900000
 20
2.100000
 30
0.000000
 40
0.100000
 50
270.000000
 51
0.000000
  0
LINE
  8
20
 10
2.900000
 20
2.000000
 30
0.000000
 11
0.700000
 21
2.000000
 31
0.000000
  0
ARC
  8
20
 10
0.700000
 20
2.100000
 30
0.000000
 40
0.100000
 50
180.000000
 51
270.000000
  0
LINE
  8
20
 10
0.600000
 20
2.100000
 30
0.000000
 11
0.600000
 21
3.200000
 31
0.000000
  0
ARC
  8
20
 10
0.700000
 20
3.200000
 30
0.000000
 40
0.100000
 50
90.000000
 51
180.000000
  0
LINE
  8
20
 10
0.700000
 20
3.300000
 30
0.000000
 11
2.900000
 21
3.300000
 31
0.000000
  0
ARC
  8
20
 10
2.900000
 20
3.200000
 30
0.000000
 40
0.100000
 50
0.000000
 51
90.000000
  0
LINE
  8
20
 10
8.300000
 20
3.600000
 30
0.000000
 11
6.100000
 21
3.600000
 31
0.000000
  0
ARC
  8
20
 10
6.100000
 20
3.700000
 30
0.000000
 40
0.100000
 50
180.000000
 51
270.000000
  0
LINE
  8
20
 10
6.000000
 20
3.700000
 30
0.000000
 11
6.000000
 21
4.800000
 31
0.000000
  0
ARC
  8
20
 10
6.100000
 20
4.800000
 30
0.000000
 40
0.100000
 50
90.000000
 51
180.000000
  0
LINE
  8
20
 10
6.100000
 20
4.900000
 30
0.000000
 11
8.300000
 21
4.900000
 31
0.000000
  0
ARC
  8
20
 10
8.300000
 20
4.800000
 30
0.000000
 40
0.100000
 50
0.000000
 51
90.000000
  0
LINE
  8
20
 10
8.400000
 20
4.800000
 30
0.000000
 11
8.400000
 21
4.500000
 31
0.000000
  0
ARC
  8
20
 10
8.350000
 20
4.500000
 30
0.000000
 40
0.050000
 50
270.000000
 51
0.000000
  0
LINE
  8
20
 10
8.350000
 20
4.450000
 30
0.000000
 11
8.275000
 21
4.450000
 31
0.000000
  0
ARC
  8
20
 10
8.275000
 20
4.500000
 30
0.000000
 40
0.050000
 50
180.000000
 51
270.000000
  0
LINE
  8
20
 10
8.225000
 20
4.500000
 30
0.000000
 11
8.225000
 21
4.625000
 31
0.000000
  0
LINE
  8
20
 10
8.400000
 20
3.700000
 30
0.000000
 11
8.400000
 21
4.000000
 31
0.000000
  0
ARC
  8
20
 10
8.350000
 20
4.000000
 30
0.000000
 40
0.050000
 50
0.000000
 51
90.000000
  0
LINE
  8
20
 10
8.225000
 20
3.875000
 30
0.000000
 11
8.225000
 21
4.000000
 31
0.000000
  0
ARC
  8
20
 10
8.275000
 20
4.000000
 30
0.000000
 40
0.050000
 50
90.000000
 51
180.000000
  0
LINE
  8
20
 10
8.275000
 20
4.050000
 30
0.000000
 11
8.350000
 21
4.050000
 31
0.000000
  0
ARC
  8
20
 10
8.300000
 20
3.700000
 30
0.000000
 40
0.100000
 50
270.000000
 51
0.000000
  0
LINE
  8
20
 10
6.275000
 20
3.775000
 30
0.000000
 11
8.125000
 21
3.775000
 31
0.000000
  0
ARC
  8
20
 10
8.125000
 20
3.875000
 30
0.000000
 40
0.100000
 50
270.000000
 51
0.000000
  0
ARC
  8
20
 10
8.125000
 20
4.625000
 30
0.000000
 40
0.100000
 50
0.000000
 51
90.000000
  0
LINE
  8
20
 10
8.125000
 20
4.725000
 30
0.000000
 11
6.275000
 21
4.725000
 31
0.000000
  0
ARC
  8
20
 10
6.275000
 20
4.625000
 30
0.000000
 40
0.100000
 50
90.000000
 51
180.000000
  0
LINE
  8
20
 10
6.175000
 20
4.625000
 30
0.000000
 11
6.175000
 21
3.875000
 31
0.000000
  0
ARC
  8
20
 10
6.275000
 20
3.875000
 30
0.000000
 40
0.100000
 50
180.000000
 51
270.000000
  0
LINE
  8
20
 10
8.300000
 20
5.200000
 30
0.000000
 11
6.100000
 21
5.200000
 31
0.000000
  0
ARC
  8
20
 10
6.100000
 20
5.300000
 30
0.000000
 40
0.100000
 50
180.000000
 51
270.000000
  0
LINE
  8
20
 10
6.000000
 20
5.300000
 30
0.000000
 11
6.000000
 21
6.400000
 31
0.000000
  0
ARC
  8
20
 10
6.100000
 20
6.400000
 30
0.000000
 40
0.100000
 50
90.000000
 51
180.000000
  0
LINE
  8
20
 10
6.100000
 20
6.500000
 30
0.000000
 11
8.300000
 21
6.500000
 31
0.000000
  0
ARC
  8
20
 10
8.300000
 20
6.400000
 30
0.000000
 40
0.100000
 50
0.000000
 51
90.000000
  0
LINE
  8
20
 10
8.400000
 20
6.400000
 30
0.000000
 11
8.400000
 21
6.100000
 31
0.000000
  0
ARC
  8
20
 10
8.350000
 20
6.100000
 30
0.000000
 40
0.050000
 50
270.000000
 51
0.000000
  0
LINE
  8
20
 10
8.350000
 20
6.050000
 30
0.000000
 11
8.275000
 21
6.050000
 31
0.000000
  0
ARC
  8
20
 10
8.275000
 20
6.100000
 30
0.000000
 40
0.050000
 50
180.000000
 51
270.000000
  0
LINE
  8
20
 10
8.225000
 20
6.100000
 30
0.000000
 11
8.225000
 21
6.225000
 31
0.000000
  0
LINE
  8
20
 10
8.400000
 20
5.300000
 30
0.000000
 11
8.400000
 21
5.600000
 31
0.000000
  0
ARC
  8
20
 10
8.350000
 20
5.600000
 30
0.000000
 40
0.050000
 50
0.000000
 51
90.000000
  0
LINE
  8
20
 10
8.225000
 20
5.475000
 30
0.000000
 11
8.225000
 21
5.600000
 31
0.000000
  0
ARC
  8
20
 10
8.275000
 20
5.600000
 30
0.000000
 40
0.050000
 50
90.000000
 51
180.000000
  0
LINE
  8
20
 10
8.275000
 20
5.650000
 30
0.000000
 11
8.350000
 21
5.650000
 31
0.000000
  0
ARC
  8
20
 10
8.300000
 20
5.300000
 30
0.000000
 40
0.100000
 50
270.000000
 51
0.000000
  0
LINE
  8
20
 10
6.275000
 20
5.375000
 30
0.000000
 11
8.125000
 21
5.375000
 31
0.000000
  0
ARC
  8
20
 10
8.125000
 20
5.475000
 30
0.000000
 40
0.100000
 50
270.000000
 51
0.000000
  0
ARC
  8
20
 10
8.125000
 20
6.225000
 30
0.000000
 40
0.100000
 50
0.000000
 51
90.000000
  0
LINE
  8
20
 10
8.125000
 20
6.325000
 30
0.000000
 11
6.275000
 21
6.325000
 31
0.000000
  0
ARC
  8
20
 10
6.275000
 20
6.225000
 30
0.000000
 40
0.100000
 50
90.000000
 51
180.000000
  0
LINE
  8
20
 10
6.175000
 20
6.225000
 30
0.000000
 11
6.175000
 21
5.475000
 31
0.000000
  0
ARC
  8
20
 10
6.275000
 20
5.475000
 30
0.000000
 40
0.100000
 50
180.000000
 51
270.000000
  0
LINE
  8
20
 10
8.400000
 20
8.000000
 30
0.000000
 11
8.400000
 21
6.900000
 31
0.000000
  0
ARC
  8
20
 10
8.300000
 20
6.900000
 30
0.000000
 40
0.100000
 50
270.000000
 51
0.000000
  0
LINE
  8
20
 10
8.300000
 20
6.800000
 30
0.000000
 11
6.100000
 21
6.800000
 31
0.000000
  0
ARC
  8
20
 10
6.100000
 20
6.900000
 30
0.000000
 40
0.100000
 50
180.000000
 51
270.000000
  0
LINE
  8
20
 10
6.000000
 20
6.900000
 30
0.000000
 11
6.000000
 21
8.000000
 31
0.000000
  0
ARC
  8
20
 10
6.100000
 20
8.000000
 30
0.000000
 40
0.100000
 50
90.000000
 51
180.000000
  0
LINE
  8
20
 10
6.100000
 20
8.100000
 30
0.000000
 11
8.300000
 21
8.100000
 31
0.000000
  0
ARC
  8
20
 10
8.300000
 20
8.000000
 30
0.000000
 40
0.100000
 50
0.000000
 51
90.000000
  0
LINE
  8
20
 10
8.125000
 20
7.925000
 30
0.000000
 11
6.275000
 21
7.925000
 31
0.000000
  0
ARC
  8
20
 10
6.275000
 20
7.825000
 30
0.000000
 40
0.100000
 50
90.000000
 51
180.000000
  0
LINE
  8
20
 10
6.175000
 20
7.825000
 30
0.000000
 11
6.175000
 21
7.075000
 31
0.000000
  0
ARC
  8
20
 10
6.275000
 20
7.075000
 30
0.000000
 40
0.100000
 50
180.000000
 51
270.000000
  0
LINE
  8
20
 10
6.275000
 20
6.975000
 30
0.000000
 11
8.125000
 21
6.975000
 31
0.000000
  0
ARC
  8
20
 10
8.125000
 20
7.075000
 30
0.000000
 40
0.100000
 50
270.000000
 51
0.000000
  0
LINE
  8
20
 10
8.225000
 20
7.075000
 30
0.000000
 11
8.225000
 21
7.825000
 31
0.000000
  0
ARC
  8
20
 10
8.125000
 20
7.825000
 30
0.000000
 40
0.100000
 50
0.000000
 51
90.000000
  0
LINE
  8
20
 10
8.400000
 20
9.600000
 30
0.000000
 11
8.400000
 21
8.500000
 31
0.000000
  0
ARC
  8
20
 10
8.300000
 20
8.500000
 30
0.000000
 40
0.100000
 50
270.000000
 51
0.000000
  0
LINE
  8
20
 10
8.300000
 20
8.400000
 30
0.000000
 11
6.100000
 21
8.400000
 31
0.000000
  0
ARC
  8
20
 10
6.100000
 20
8.500000
 30
0.000000
 40
0.100000
 50
180.000000
 51
270.000000
  0
LINE
  8
20
 10
6.000000
 20
8.500000
 30
0.000000
 11
6.000000
 21
9.600000
 31
0.000000
  0
ARC
  8
20
 10
6.100000
 20
9.600000
 30
0.000000
 40
0.100000
 50
90.000000
 51
180.000000
  0
LINE
  8
20
 10
6.100000
 20
9.700000
 30
0.000000
 11
8.300000
 21
9.700000
 31
0.000000
  0
ARC
  8
20
 10
8.300000
 20
9.600000
 30
0.000000
 40
0.100000
 50
0.000000
 51
90.000000
  0
LINE
  8
20
 10
8.125000
 20
9.525000
 30
0.000000
 11
6.275000
 21
9.525000
 31
0.000000
  0
ARC
  8
20
 10
6.275000
 20
9.425000
 30
0.000000
 40
0.100000
 50
90.000000
 51
180.000000
  0
LINE
  8
20
 10
6.175000
 20
9.425000
 30
0.000000
 11
6.175000
 21
8.675000
 31
0.000000
  0
ARC
  8
20
 10
6.275000
 20
8.675000
 30
0.000000
 40
0.100000
 50
180.000000
 51
270.000000
  0
LINE
  8
20
 10
6.275000
 20
8.575000
 30
0.000000
 11
8.125000
 21
8.575000
 31
0.000000
  0
ARC
  8
20
 10
8.125000
 20
8.675000
 30
0.000000
 40
0.100000
 50
270.000000
 51
0.000000
  0
LINE
  8
20
 10
8.225000
 20
8.675000
 30
0.000000
 11
8.225000
 21
9.425000
 31
0.000000
  0
ARC
  8
20
 10
8.125000
 20
9.425000
 30
0.000000
 40
0.100000
 50
0.000000
 51
90.000000
  0
LINE
  8
20
 10
8.400000
 20
11.200000
 30
0.000000
 11
8.400000
 21
10.100000
 31
0.000000
  0
ARC
  8
20
 10
8.300000
 20
10.100000
 30
0.000000
 40
0.100000
 50
270.000000
 51
0.000000
  0
LINE
  8
20
 10
8.300000
 20
10.000000
 30
0.000000
 11
6.100000
 21
10.000000
 31
0.000000
  0
ARC
  8
20
 10
6.100000
 20
10.100000
 30
0.000000
 40
0.100000
 50
180.000000
 51
270.000000
  0
LINE
  8
20
 10
6.000000
 20
10.100000
 30
0.000000
 11
6.000000
 21
11.200000
 31
0.000000
  0
ARC
  8
20
 10
6.100000
 20
11.200000
 30
0.000000
 40
0.100000
 50
90.000000
 51
180.000000
  0
LINE
  8
20
 10
6.100000
 20
11.300000
 30
0.000000
 11
8.300000
 21
11.300000
 31
0.000000
  0
ARC
  8
20
 10
8.300000
 20
11.200000
 30
0.000000
 40
0.100000
 50
0.000000
 51
90.000000
  0
LINE
  8
20
 10
8.125000
 20
11.125000
 30
0.000000
 11
6.275000
 21
11.125000
 31
0.000000
  0
ARC
  8
20
 10
6.275000
 20
11.025000
 30
0.000000
 40
0.100000
 50
90.000000
 51
180.000000
  0
LINE
  8
20
 10
6.175000
 20
11.025000
 30
0.000000
 11
6.175000
 21
10.275000
 31
0.000000
  0
ARC
  8
20
 10
6.275000
 20
10.275000
 30
0.000000
 40
0.100000
 50
180.000000
 51
270.000000
  0
LINE
  8
20
 10
6.275000
 20
10.175000
 30
0.000000
 11
8.125000
 21
10.175000
 31
0.000000
  0
ARC
  8
20
 10
8.125000
 20
10.275000
 30
0.000000
 40
0.100000
 50
270.000000
 51
0.000000
  0
LINE
  8
20
 10
8.225000
 20
10.275000
 30
0.000000
 11
8.225000
 21
11.025000
 31
0.000000
  0
ARC
  8
20
 10
8.125000
 20
11.025000
 30
0.000000
 40
0.100000
 50
0.000000
 51
90.000000
  0
LINE
  8
20
 10
11.100000
 20
6.400000
 30
0.000000
 11
11.100000
 21
5.300000
 31
0.000000
  0
ARC
  8
20
 10
11.000000
 20
5.300000
 30
0.000000
 40
0.100000
 50
270.000000
 51
0.000000
  0
LINE
  8
20
 10
11.000000
 20
5.200000
 30
0.000000
 11
8.800000
 21
5.200000
 31
0.000000
  0
ARC
  8
20
 10
8.800000
 20
5.300000
 30
0.000000
 40
0.100000
 50
180.000000
 51
270.000000
  0
LINE
  8
20
 10
8.700000
 20
5.300000
 30
0.000000
 11
8.700000
 21
6.400000
 31
0.000000
  0
ARC
  8
20
 10
8.800000
 20
6.400000
 30
0.000000
 40
0.100000
 50
90.000000
 51
180.000000
  0
LINE
  8
20
 10
8.800000
 20
6.500000
 30
0.000000
 11
11.000000
 21
6.500000
 31
0.000000
  0
ARC
  8
20
 10
11.000000
 20
6.400000
 30
0.000000
 40
0.100000
 50
0.000000
 51
90.000000
  0
LINE
  8
20
 10
10.825000
 20
6.325000
 30
0.000000
 11
8.975000
 21
6.325000
 31
0.000000
  0
ARC
  8
20
 10
8.975000
 20
6.225000
 30
0.000000
 40
0.100000
 50
90.000000
 51
180.000000
  0
LINE
  8
20
 10
8.875000
 20
6.225000
 30
0.000000
 11
8.875000
 21
5.475000
 31
0.000000
  0
ARC
  8
20
 10
8.975000
 20
5.475000
 30
0.000000
 40
0.100000
 50
180.000000
 51
270.000000
  0
LINE
  8
20
 10
8.975000
 20
5.375000
 30
0.000000
 11
10.825000
 21
5.375000
 31
0.000000
  0
ARC
  8
20
 10
10.825000
 20
5.475000
 30
0.000000
 40
0.100000
 50
270.000000
 51
0.000000
  0
LINE
  8
20
 10
10.925000
 20
5.475000
 30
0.000000
 11
10.925000
 21
6.225000
 31
0.000000
  0
ARC
  8
20
 10
10.825000
 20
6.225000
 30
0.000000
 40
0.100000
 50
0.000000
 51
90.000000
  0
LINE
  8
20
 10
11.100000
 20
8.000000
 30
0.000000
 11
11.100000
 21
6.900000
 31
0.000000
  0
ARC
  8
20
 10
11.000000
 20
6.900000
 30
0.000000
 40
0.100000
 50
270.000000
 51
0.000000
  0
LINE
  8
20
 10
11.000000
 20
6.800000
 30
0.000000
 11
8.800000
 21
6.800000
 31
0.000000
  0
ARC
  8
20
 10
8.800000
 20
6.900000
 30
0.000000
 40
0.100000
 50
180.000000
 51
270.000000
  0
LINE
  8
20
 10
8.700000
 20
6.900000
 30
0.000000
 11
8.700000
 21
8.000000
 31
0.000000
  0
ARC
  8
20
 10
8.800000
 20
8.000000
 30
0.000000
 40
0.100000
 50
90.000000
 51
180.000000
  0
LINE
  8
20
 10
8.800000
 20
8.100000
 30
0.000000
 11
11.000000
 21
8.100000
 31
0.000000
  0
ARC
  8
20
 10
11.000000
 20
8.000000
 30
0.000000
 40
0.100000
 50
0.000000
 51
90.000000
  0
LINE
  8
20
 10
10.825000
 20
7.925000
 30
0.000000
 11
8.975000
 21
7.925000
 31
0.000000
  0
ARC
  8
20
 10
8.975000
 20
7.825000
 30
0.000000
 40
0.100000
 50
90.000000
 51
180.000000
  0
LINE
  8
20
 10
8.875000
 20
7.825000
 30
0.000000
 11
8.875000
 21
7.075000
 31
0.000000
  0
ARC
  8
20
 10
8.975000
 20
7.075000
 30
0.000000
 40
0.100000
 50
180.000000
 51
270.000000
  0
LINE
  8
20
 10
8.975000
 20
6.975000
 30
0.000000
 11
10.825000
 21
6.975000
 31
0.000000
  0
ARC
  8
20
 10
10.825000
 20
7.075000
 30
0.000000
 40
0.100000
 50
270.000000
 51
0.000000
  0
LINE
  8
20
 10
10.925000
 20
7.075000
 30
0.000000
 11
10.925000
 21
7.825000
 31
0.000000
  0
ARC
  8
20
 10
10.825000
 20
7.825000
 30
0.000000
 40
0.100000
 50
0.000000
 51
90.000000
  0
LINE
  8
20
 10
11.100000
 20
9.600000
 30
0.000000
 11
11.100000
 21
8.500000
 31
0.000000
  0
ARC
  8
20
 10
11.000000
 20
8.500000
 30
0.000000
 40
0.100000
 50
270.000000
 51
0.000000
  0
LINE
  8
20
 10
11.000000
 20
8.400000
 30
0.000000
 11
8.800000
 21
8.400000
 31
0.000000
  0
ARC
  8
20
 10
8.800000
 20
8.500000
 30
0.000000
 40
0.100000
 50
180.000000
 51
270.000000
  0
LINE
  8
20
 10
8.700000
 20
8.500000
 30
0.000000
 11
8.700000
 21
9.600000
 31
0.000000
  0
ARC
  8
20
 10
8.800000
 20
9.600000
 30
0.000000
 40
0.100000
 50
90.000000
 51
180.000000
  0
LINE
  8
20
 10
8.800000
 20
9.700000
 30
0.000000
 11
11.000000
 21
9.700000
 31
0.000000
  0
ARC
  8
20
 10
11.000000
 20
9.600000
 30
0.000000
 40
0.100000
 50
0.000000
 51
90.000000
  0
LINE
  8
20
 10
10.825000
 20
9.525000
 30
0.000000
 11
8.975000
 21
9.525000
 31
0.000000
  0
ARC
  8
20
 10
8.975000
 20
9.425000
 30
0.000000
 40
0.100000
 50
90.000000
 51
180.000000
  0
LINE
  8
20
 10
8.875000
 20
9.425000
 30
0.000000
 11
8.875000
 21
8.675000
 31
0.000000
  0
ARC
  8
20
 10
8.975000
 20
8.675000
 30
0.000000
 40
0.100000
 50
180.000000
 51
270.000000
  0
LINE
  8
20
 10
8.975000
 20
8.575000
 30
0.000000
 11
10.825000
 21
8.575000
 31
0.000000
  0
ARC
  8
20
 10
10.825000
 20
8.675000
 30
0.000000
 40
0.100000
 50
270.000000
 51
0.000000
  0
LINE
  8
20
 10
10.925000
 20
8.675000
 30
0.000000
 11
10.925000
 21
9.425000
 31
0.000000
  0
ARC
  8
20
 10
10.825000
 20
9.425000
 30
0.000000
 40
0.100000
 50
0.000000
 51
90.000000
  0
LINE
  8
20
 10
11.100000
 20
11.200000
 30
0.000000
 11
11.100000
 21
10.100000
 31
0.000000
  0
ARC
  8
20
 10
11.000000
 20
10.100000
 30
0.000000
 40
0.100000
 50
270.000000
 51
0.000000
  0
LINE
  8
20
 10
11.000000
 20
10.000000
 30
0.000000
 11
8.800000
 21
10.000000
 31
0.000000
  0
ARC
  8
20
 10
8.800000
 20
10.100000
 30
0.000000
 40
0.100000
 50
180.000000
 51
270.000000
  0
LINE
  8
20
 10
8.700000
 20
10.100000
 30
0.000000
 11
8.700000
 21
11.200000
 31
0.000000
  0
ARC
  8
20
 10
8.800000
 20
11.200000
 30
0.000000
 40
0.100000
 50
90.000000
 51
180.000000
  0
LINE
  8
20
 10
8.800000
 20
11.300000
 30
0.000000
 11
11.000000
 21
11.300000
 31
0.000000
  0
ARC
  8
20
 10
11.000000
 20
11.200000
 30
0.000000
 40
0.100000
 50
0.000000
 51
90.000000
  0
LINE
  8
20
 10
10.825000
 20
11.125000
 30
0.000000
 11
8.975000
 21
11.125000
 31
0.000000
  0
ARC
  8
20
 10
8.975000
 20
11.025000
 30
0.000000
 40
0.100000
 50
90.000000
 51
180.000000
  0
LINE
  8
20
 10
8.875000
 20
11.025000
 30
0.000000
 11
8.875000
 21
10.275000
 31
0.000000
  0
ARC
  8
20
 10
8.975000
 20
10.275000
 30
0.000000
 40
0.100000
 50
180.000000
 51
270.000000
  0
LINE
  8
20
 10
8.975000
 20
10.175000
 30
0.000000
 11
10.825000
 21
10.175000
 31
0.000000
  0
ARC
  8
20
 10
10.825000
 20
10.275000
 30
0.000000
 40
0.100000
 50
270.000000
 51
0.000000
  0
LINE
  8
20
 10
10.925000
 20
10.275000
 30
0.000000
 11
10.925000
 21
11.025000
 31
0.000000
  0
ARC
  8
20
 10
10.825000
 20
11.025000
 30
0.000000
 40
0.100000
 50
0.000000
 51
90.000000
  0
LINE
  8
20
 10
11.100000
 20
4.800000
 30
0.000000
 11
11.100000
 21
3.700000
 31
0.000000
  0
ARC
  8
20
 10
11.000000
 20
3.700000
 30
0.000000
 40
0.100000
 50
270.000000
 51
0.000000
  0
LINE
  8
20
 10
11.000000
 20
3.600000
 30
0.000000
 11
8.800000
 21
3.600000
 31
0.000000
  0
ARC
  8
20
 10
8.800000
 20
3.700000
 30
0.000000
 40
0.100000
 50
180.000000
 51
270.000000
  0
LINE
  8
20
 10
8.700000
 20
3.700000
 30
0.000000
 11
8.700000
 21
4.800000
 31
0.000000
  0
ARC
  8
20
 10
8.800000
 20
4.800000
 30
0.000000
 40
0.100000
 50
90.000000
 51
180.000000
  0
LINE
  8
20
 10
8.800000
 20
4.900000
 30
0.000000
 11
11.000000
 21
4.900000
 31
0.000000
  0
ARC
  8
20
 10
11.000000
 20
4.800000
 30
0.000000
 40
0.100000
 50
0.000000
 51
90.000000
  0
LINE
  8
20
 10
10.825000
 20
4.725000
 30
0.000000
 11
8.975000
 21
4.725000
 31
0.000000
  0
ARC
  8
20
 10
8.975000
 20
4.625000
 30
0.000000
 40
0.100000
 50
90.000000
 51
180.000000
  0
LINE
  8
20
 10
8.875000
 20
4.625000
 30
0.000000
 11
8.875000
 21
3.875000
 31
0.000000
  0
ARC
  8
20
 10
8.975000
 20
3.875000
 30
0.000000
 40
0.100000
 50
180.000000
 51
270.000000
  0
LINE
  8
20
 10
8.975000
 20
3.775000
 30
0.000000
 11
10.825000
 21
3.775000
 31
0.000000
  0
ARC
  8
20
 10
10.825000
 20
3.875000
 30
0.000000
 40
0.100000
 50
270.000000
 51
0.000000
  0
LINE
  8
20
 10
10.925000
 20
3.875000
 30
0.000000
 11
10.925000
 21
4.625000
 31
0.000000
  0
ARC
  8
20
 10
10.825000
 20
4.625000
 30
0.000000
 40
0.100000
 50
0.000000
 51
90.000000
  0
LINE
  8
20
 10
11.100000
 20
1.600000
 30
0.000000
 11
11.100000
 21
0.500000
 31
0.000000
  0
ARC
  8
20
 10
11.000000
 20
0.500000
 30
0.000000
 40
0.100000
 50
270.000000
 51
0.000000
  0
LINE
  8
20
 10
11.000000
 20
0.400000
 30
0.000000
 11
8.800000
 21
0.400000
 31
0.000000
  0
ARC
  8
20
 10
8.800000
 20
0.500000
 30
0.000000
 40
0.100000
 50
180.000000
 51
270.000000
  0
LINE
  8
20
 10
8.700000
 20
0.500000
 30
0.000000
 11
8.700000
 21
1.600000
 31
0.000000
  0
ARC
  8
20
 10
8.800000
 20
1.600000
 30
0.000000
 40
0.100000
 50
90.000000
 51
180.000000
  0
LINE
  8
20
 10
8.800000
 20
1.700000
 30
0.000000
 11
11.000000
 21
1.700000
 31
0.000000
  0
ARC
  8
20
 10
11.000000
 20
1.600000
 30
0.000000
 40
0.100000
 50
0.000000
 51
90.000000
  0
LINE
  8
20
 10
8.400000
 20
1.600000
 30
0.000000
 11
8.400000
 21
0.500000
 31
0.000000
  0
ARC
  8
20
 10
8.300000
 20
0.500000
 30
0.000000
 40
0.100000
 50
270.000000
 51
0.000000
  0
LINE
  8
20
 10
8.300000
 20
0.400000
 30
0.000000
 11
6.100000
 21
0.400000
 31
0.000000
  0
ARC
  8
20
 10
6.100000
 20
0.500000
 30
0.000000
 40
0.100000
 50
180.000000
 51
270.000000
  0
LINE
  8
20
 10
6.000000
 20
0.500000
 30
0.000000
 11
6.000000
 21
1.600000
 31
0.000000
  0
ARC
  8
20
 10
6.100000
 20
1.600000
 30
0.000000
 40
0.100000
 50
90.000000
 51
180.000000
  0
LINE
  8
20
 10
6.100000
 20
1.700000
 30
0.000000
 11
8.300000
 21
1.700000
 31
0.000000
  0
ARC
  8
20
 10
8.300000
 20
1.600000
 30
0.000000
 40
0.100000
 50
0.000000
 51
90.000000
  0
LINE
  8
20
 10
8.400000
 20
3.200000
 30
0.000000
 11
8.400000
 21
2.100000
 31
0.000000
  0
ARC
  8
20
 10
8.300000
 20
2.100000
 30
0.000000
 40
0.100000
 50
270.000000
 51
0.000000
  0
LINE
  8
20
 10
8.300000
 20
2.000000
 30
0.000000
 11
6.100000
 21
2.000000
 31
0.000000
  0
ARC
  8
20
 10
6.100000
 20
2.100000
 30
0.000000
 40
0.100000
 50
180.000000
 51
270.000000
  0
LINE
  8
20
 10
6.000000
 20
2.100000
 30
0.000000
 11
6.000000
 21
3.200000
 31
0.000000
  0
ARC
  8
20
 10
6.100000
 20
3.200000
 30
0.000000
 40
0.100000
 50
90.000000
 51
180.000000
  0
LINE
  8
20
 10
6.100000
 20
3.300000
 30
0.000000
 11
8.300000
 21
3.300000
 31
0.000000
  0
ARC
  8
20
 10
8.300000
 20
3.200000
 30
0.000000
 40
0.100000
 50
0.000000
 51
90.000000
  0
LINE
  8
20
 10
5.700000
 20
3.200000
 30
0.000000
 11
5.700000
 21
2.100000
 31
0.000000
  0
ARC
  8
20
 10
5.600000
 20
2.100000
 30
0.000000
 40
0.100000
 50
270.000000
 51
0.000000
  0
LINE
  8
20
 10
5.600000
 20
2.000000
 30
0.000000
 11
3.400000
 21
2.000000
 31
0.000000
  0
ARC
  8
20
 10
3.400000
 20
2.100000
 30
0.000000
 40
0.100000
 50
180.000000
 51
270.000000
  0
LINE
  8
20
 10
3.300000
 20
2.100000
 30
0.000000
 11
3.300000
 21
3.200000
 31
0.000000
  0
ARC
  8
20
 10
3.400000
 20
3.200000
 30
0.000000
 40
0.100000
 50
90.000000
 51
180.000000
  0
LINE
  8
20
 10
3.400000
 20
3.300000
 30
0.000000
 11
5.600000
 21
3.300000
 31
0.000000
  0
ARC
  8
20
 10
5.600000
 20
3.200000
 30
0.000000
 40
0.100000
 50
0.000000
 51
90.000000
  0
LINE
  8
20
 10
11.100000
 20
3.200000
 30
0.000000
 11
11.100000
 21
2.100000
 31
0.000000
  0
ARC
  8
20
 10
11.000000
 20
2.100000
 30
0.000000
 40
0.100000
 50
270.000000
 51
0.000000
  0
LINE
  8
20
 10
11.000000
 20
2.000000
 30
0.000000
 11
8.800000
 21
2.000000
 31
0.000000
  0
ARC
  8
20
 10
8.800000
 20
2.100000
 30
0.000000
 40
0.100000
 50
180.000000
 51
270.000000
  0
LINE
  8
20
 10
8.700000
 20
2.100000
 30
0.000000
 11
8.700000
 21
3.200000
 31
0.000000
  0
ARC
  8
20
 10
8.800000
 20
3.200000
 30
0.000000
 40
0.100000
 50
90.000000
 51
180.000000
  0
LINE
  8
20
 10
8.800000
 20
3.300000
 30
0.000000
 11
11.000000
 21
3.300000
 31
0.000000
  0
ARC
  8
20
 10
11.000000
 20
3.200000
 30
0.000000
 40
0.100000
 50
0.000000
 51
90.000000
  0
LINE
  8
49
 10
-1.639455
 20
7.045026
 30
0.000000
 11
-1.624442
 21
7.060038
 31
0.000000
  0
LINE
  8
49
 10
-1.624442
 20
7.060038
 30
0.000000
 11
-1.624442
 21
7.015000
 31
0.000000
  0
LINE
  8
49
 10
-1.639455
 20
7.015000
 30
0.000000
 11
-1.609429
 21
7.015000
 31
0.000000
  0
LINE
  8
49
 10
-1.593415
 20
7.015000
 30
0.000000
 11
-1.593415
 21
7.022506
 31
0.000000
  0
LINE
  8
49
 10
-1.593415
 20
7.022506
 30
0.000000
 11
-1.585909
 21
7.022506
 31
0.000000
  0
LINE
  8
49
 10
-1.585909
 20
7.022506
 30
0.000000
 11
-1.585909
 21
7.015000
 31
0.000000
  0
LINE
  8
49
 10
-1.585909
 20
7.015000
 30
0.000000
 11
-1.593415
 21
7.015000
 31
0.000000
  0
LINE
  8
49
 10
-1.570396
 20
7.022506
 30
0.000000
 11
-1.570396
 21
7.052532
 31
0.000000
  0
LINE
  8
49
 10
-1.570396
 20
7.052532
 30
0.000000
 11
-1.562889
 21
7.060038
 31
0.000000
  0
LINE
  8
49
 10
-1.562889
 20
7.060038
 30
0.000000
 11
-1.547877
 21
7.060038
 31
0.000000
  0
LINE
  8
49
 10
-1.547877
 20
7.060038
 30
0.000000
 11
-1.540370
 21
7.052532
 31
0.000000
  0
LINE
  8
49
 10
-1.540370
 20
7.052532
 30
0.000000
 11
-1.540370
 21
7.022506
 31
0.000000
  0
LINE
  8
49
 10
-1.540370
 20
7.022506
 30
0.000000
 11
-1.547877
 21
7.015000
 31
0.000000
  0
LINE
  8
49
 10
-1.547877
 20
7.015000
 30
0.000000
 11
-1.562889
 21
7.015000
 31
0.000000
  0
LINE
  8
49
 10
-1.562889
 20
7.015000
 30
0.000000
 11
-1.570396
 21
7.022506
 31
0.000000
  0
LINE
  8
49
 10
-1.570396
 20
7.022506
 30
0.000000
 11
-1.540370
 21
7.052532
 31
0.000000
  0
LINE
  8
49
 10
-1.524357
 20
7.022506
 30
0.000000
 11
-1.524357
 21
7.052532
 31
0.000000
  0
LINE
  8
49
 10
-1.524357
 20
7.052532
 30
0.000000
 11
-1.516850
 21
7.060038
 31
0.000000
  0
LINE
  8
49
 10
-1.516850
 20
7.060038
 30
0.000000
 11
-1.501837
 21
7.060038
 31
0.000000
  0
LINE
  8
49
 10
-1.501837
 20
7.060038
 30
0.000000
 11
-1.494331
 21
7.052532
 31
0.000000
  0
LINE
  8
49
 10
-1.494331
 20
7.052532
 30
0.000000
 11
-1.494331
 21
7.022506
 31
0.000000
  0
LINE
  8
49
 10
-1.494331
 20
7.022506
 30
0.000000
 11
-1.501837
 21
7.015000
 31
0.000000
  0
LINE
  8
49
 10
-1.501837
 20
7.015000
 30
0.000000
 11
-1.516850
 21
7.015000
 31
0.000000
  0
LINE
  8
49
 10
-1.516850
 20
7.015000
 30
0.000000
 11
-1.524357
 21
7.022506
 31
0.000000
  0
LINE
  8
49
 10
-1.524357
 20
7.022506
 30
0.000000
 11
-1.494331
 21
7.052532
 31
0.000000
  0
LINE
  8
49
 10
-1.432278
 20
7.045026
 30
0.000000
 11
-1.424772
 21
7.045026
 31
0.000000
  0
LINE
  8
49
 10
-1.424772
 20
7.045026
 30
0.000000
 11
-1.424772
 21
7.015000
 31
0.000000
  0
LINE
  8
49
 10
-1.432278
 20
7.015000
 30
0.000000
 11
-1.417265
 21
7.015000
 31
0.000000
  0
LINE
  8
49
 10
-1.424772
 20
7.067545
 30
0.000000
 11
-1.424772
 21
7.060038
 31
0.000000
  0
LINE
  8
49
 10
-1.401585
 20
7.015000
 30
0.000000
 11
-1.401585
 21
7.045026
 31
0.000000
  0
LINE
  8
49
 10
-1.401585
 20
7.045026
 30
0.000000
 11
-1.379066
 21
7.045026
 31
0.000000
  0
LINE
  8
49
 10
-1.379066
 20
7.045026
 30
0.000000
 11
-1.371560
 21
7.037519
 31
0.000000
  0
LINE
  8
49
 10
-1.371560
 20
7.037519
 30
0.000000
 11
-1.371560
 21
7.015000
 31
0.000000
  0
LINE
  8
49
 10
-1.755220
 20
6.970026
 30
0.000000
 11
-1.777739
 21
6.970026
 31
0.000000
  0
LINE
  8
49
 10
-1.777739
 20
6.970026
 30
0.000000
 11
-1.785246
 21
6.962519
 31
0.000000
  0
LINE
  8
49
 10
-1.785246
 20
6.962519
 30
0.000000
 11
-1.785246
 21
6.947506
 31
0.000000
  0
LINE
  8
49
 10
-1.785246
 20
6.947506
 30
0.000000
 11
-1.777739
 21
6.940000
 31
0.000000
  0
LINE
  8
49
 10
-1.777739
 20
6.940000
 30
0.000000
 11
-1.755220
 21
6.940000
 31
0.000000
  0
LINE
  8
49
 10
-1.731700
 20
6.970026
 30
0.000000
 11
-1.716687
 21
6.970026
 31
0.000000
  0
LINE
  8
49
 10
-1.716687
 20
6.970026
 30
0.000000
 11
-1.709181
 21
6.962519
 31
0.000000
  0
LINE
  8
49
 10
-1.709181
 20
6.962519
 30
0.000000
 11
-1.709181
 21
6.940000
 31
0.000000
  0
LINE
  8
49
 10
-1.709181
 20
6.940000
 30
0.000000
 11
-1.731700
 21
6.940000
 31
0.000000
  0
LINE
  8
49
 10
-1.731700
 20
6.940000
 30
0.000000
 11
-1.739207
 21
6.947506
 31
0.000000
  0
LINE
  8
49
 10
-1.739207
 20
6.947506
 30
0.000000
 11
-1.731700
 21
6.955013
 31
0.000000
  0
LINE
  8
49
 10
-1.731700
 20
6.955013
 30
0.000000
 11
-1.709181
 21
6.955013
 31
0.000000
  0
LINE
  8
49
 10
-1.693167
 20
6.985038
 30
0.000000
 11
-1.685661
 21
6.985038
 31
0.000000
  0
LINE
  8
49
 10
-1.685661
 20
6.985038
 30
0.000000
 11
-1.685661
 21
6.940000
 31
0.000000
  0
LINE
  8
49
 10
-1.693167
 20
6.940000
 30
0.000000
 11
-1.678155
 21
6.940000
 31
0.000000
  0
LINE
  8
49
 10
-1.662475
 20
6.970026
 30
0.000000
 11
-1.654968
 21
6.970026
 31
0.000000
  0
LINE
  8
49
 10
-1.654968
 20
6.970026
 30
0.000000
 11
-1.654968
 21
6.940000
 31
0.000000
  0
LINE
  8
49
 10
-1.662475
 20
6.940000
 30
0.000000
 11
-1.647462
 21
6.940000
 31
0.000000
  0
LINE
  8
49
 10
-1.654968
 20
6.992545
 30
0.000000
 11
-1.654968
 21
6.985038
 31
0.000000
  0
LINE
  8
49
 10
-1.631782
 20
6.985038
 30
0.000000
 11
-1.631782
 21
6.940000
 31
0.000000
  0
LINE
  8
49
 10
-1.631782
 20
6.940000
 30
0.000000
 11
-1.609263
 21
6.940000
 31
0.000000
  0
LINE
  8
49
 10
-1.609263
 20
6.940000
 30
0.000000
 11
-1.601756
 21
6.947506
 31
0.000000
  0
LINE
  8
49
 10
-1.601756
 20
6.947506
 30
0.000000
 11
-1.601756
 21
6.962519
 31
0.000000
  0
LINE
  8
49
 10
-1.601756
 20
6.962519
 30
0.000000
 11
-1.609263
 21
6.970026
 31
0.000000
  0
LINE
  8
49
 10
-1.609263
 20
6.970026
 30
0.000000
 11
-1.631782
 21
6.970026
 31
0.000000
  0
LINE
  8
49
 10
-1.585742
 20
6.940000
 30
0.000000
 11
-1.585742
 21
6.970026
 31
0.000000
  0
LINE
  8
49
 10
-1.585742
 20
6.955013
 30
0.000000
 11
-1.570730
 21
6.970026
 31
0.000000
  0
LINE
  8
49
 10
-1.570730
 20
6.970026
 30
0.000000
 11
-1.563223
 21
6.970026
 31
0.000000
  0
LINE
  8
49
 10
-1.539870
 20
6.970026
 30
0.000000
 11
-1.524857
 21
6.970026
 31
0.000000
  0
LINE
  8
49
 10
-1.524857
 20
6.970026
 30
0.000000
 11
-1.517351
 21
6.962519
 31
0.000000
  0
LINE
  8
49
 10
-1.517351
 20
6.962519
 30
0.000000
 11
-1.517351
 21
6.940000
 31
0.000000
  0
LINE
  8
49
 10
-1.517351
 20
6.940000
 30
0.000000
 11
-1.539870
 21
6.940000
 31
0.000000
  0
LINE
  8
49
 10
-1.539870
 20
6.940000
 30
0.000000
 11
-1.547376
 21
6.947506
 31
0.000000
  0
LINE
  8
49
 10
-1.547376
 20
6.947506
 30
0.000000
 11
-1.539870
 21
6.955013
 31
0.000000
  0
LINE
  8
49
 10
-1.539870
 20
6.955013
 30
0.000000
 11
-1.517351
 21
6.955013
 31
0.000000
  0
LINE
  8
49
 10
-1.493831
 20
6.977532
 30
0.000000
 11
-1.493831
 21
6.947506
 31
0.000000
  0
LINE
  8
49
 10
-1.493831
 20
6.947506
 30
0.000000
 11
-1.486324
 21
6.940000
 31
0.000000
  0
LINE
  8
49
 10
-1.501337
 20
6.970026
 30
0.000000
 11
-1.486324
 21
6.970026
 31
0.000000
  0
LINE
  8
49
 10
-1.470644
 20
6.970026
 30
0.000000
 11
-1.463138
 21
6.970026
 31
0.000000
  0
LINE
  8
49
 10
-1.463138
 20
6.970026
 30
0.000000
 11
-1.463138
 21
6.940000
 31
0.000000
  0
LINE
  8
49
 10
-1.470644
 20
6.940000
 30
0.000000
 11
-1.455632
 21
6.940000
 31
0.000000
  0
LINE
  8
49
 10
-1.463138
 20
6.992545
 30
0.000000
 11
-1.463138
 21
6.985038
 31
0.000000
  0
LINE
  8
49
 10
-1.432445
 20
6.940000
 30
0.000000
 11
-1.417432
 21
6.940000
 31
0.000000
  0
LINE
  8
49
 10
-1.417432
 20
6.940000
 30
0.000000
 11
-1.409926
 21
6.947506
 31
0.000000
  0
LINE
  8
49
 10
-1.409926
 20
6.947506
 30
0.000000
 11
-1.409926
 21
6.962519
 31
0.000000
  0
LINE
  8
49
 10
-1.409926
 20
6.962519
 30
0.000000
 11
-1.417432
 21
6.970026
 31
0.000000
  0
LINE
  8
49
 10
-1.417432
 20
6.970026
 30
0.000000
 11
-1.432445
 21
6.970026
 31
0.000000
  0
LINE
  8
49
 10
-1.432445
 20
6.970026
 30
0.000000
 11
-1.439952
 21
6.962519
 31
0.000000
  0
LINE
  8
49
 10
-1.439952
 20
6.962519
 30
0.000000
 11
-1.439952
 21
6.947506
 31
0.000000
  0
LINE
  8
49
 10
-1.439952
 20
6.947506
 30
0.000000
 11
-1.432445
 21
6.940000
 31
0.000000
  0
LINE
  8
49
 10
-1.393912
 20
6.940000
 30
0.000000
 11
-1.393912
 21
6.970026
 31
0.000000
  0
LINE
  8
49
 10
-1.393912
 20
6.970026
 30
0.000000
 11
-1.371393
 21
6.970026
 31
0.000000
  0
LINE
  8
49
 10
-1.371393
 20
6.970026
 30
0.000000
 11
-1.363887
 21
6.962519
 31
0.000000
  0
LINE
  8
49
 10
-1.363887
 20
6.962519
 30
0.000000
 11
-1.363887
 21
6.940000
 31
0.000000
  0
LINE
  8
49
 10
-1.301834
 20
6.940000
 30
0.000000
 11
-1.279315
 21
6.940000
 31
0.000000
  0
LINE
  8
49
 10
-1.279315
 20
6.940000
 30
0.000000
 11
-1.271808
 21
6.947506
 31
0.000000
  0
LINE
  8
49
 10
-1.271808
 20
6.947506
 30
0.000000
 11
-1.279315
 21
6.955013
 31
0.000000
  0
LINE
  8
49
 10
-1.279315
 20
6.955013
 30
0.000000
 11
-1.294328
 21
6.955013
 31
0.000000
  0
LINE
  8
49
 10
-1.294328
 20
6.955013
 30
0.000000
 11
-1.301834
 21
6.962519
 31
0.000000
  0
LINE
  8
49
 10
-1.301834
 20
6.962519
 30
0.000000
 11
-1.294328
 21
6.970026
 31
0.000000
  0
LINE
  8
49
 10
-1.294328
 20
6.970026
 30
0.000000
 11
-1.271808
 21
6.970026
 31
0.000000
  0
LINE
  8
49
 10
-1.225769
 20
6.924987
 30
0.000000
 11
-1.225769
 21
6.970026
 31
0.000000
  0
LINE
  8
49
 10
-1.225769
 20
6.970026
 30
0.000000
 11
-1.248288
 21
6.970026
 31
0.000000
  0
LINE
  8
49
 10
-1.248288
 20
6.970026
 30
0.000000
 11
-1.255795
 21
6.962519
 31
0.000000
  0
LINE
  8
49
 10
-1.255795
 20
6.962519
 30
0.000000
 11
-1.255795
 21
6.947506
 31
0.000000
  0
LINE
  8
49
 10
-1.255795
 20
6.947506
 30
0.000000
 11
-1.248288
 21
6.940000
 31
0.000000
  0
LINE
  8
49
 10
-1.248288
 20
6.940000
 30
0.000000
 11
-1.225769
 21
6.940000
 31
0.000000
  0
LINE
  8
48
 10
-2.241803
 20
6.277500
 30
0.000000
 11
-2.241803
 21
6.322538
 31
0.000000
  0
LINE
  8
48
 10
-2.241803
 20
6.322538
 30
0.000000
 11
-2.226790
 21
6.307526
 31
0.000000
  0
LINE
  8
48
 10
-2.226790
 20
6.307526
 30
0.000000
 11
-2.211777
 21
6.322538
 31
0.000000
  0
LINE
  8
48
 10
-2.211777
 20
6.322538
 30
0.000000
 11
-2.211777
 21
6.277500
 31
0.000000
  0
LINE
  8
48
 10
-2.188257
 20
6.307526
 30
0.000000
 11
-2.173244
 21
6.307526
 31
0.000000
  0
LINE
  8
48
 10
-2.173244
 20
6.307526
 30
0.000000
 11
-2.165738
 21
6.300019
 31
0.000000
  0
LINE
  8
48
 10
-2.165738
 20
6.300019
 30
0.000000
 11
-2.165738
 21
6.277500
 31
0.000000
  0
LINE
  8
48
 10
-2.165738
 20
6.277500
 30
0.000000
 11
-2.188257
 21
6.277500
 31
0.000000
  0
LINE
  8
48
 10
-2.188257
 20
6.277500
 30
0.000000
 11
-2.195764
 21
6.285006
 31
0.000000
  0
LINE
  8
48
 10
-2.195764
 20
6.285006
 30
0.000000
 11
-2.188257
 21
6.292513
 31
0.000000
  0
LINE
  8
48
 10
-2.188257
 20
6.292513
 30
0.000000
 11
-2.165738
 21
6.292513
 31
0.000000
  0
LINE
  8
48
 10
-2.142218
 20
6.315032
 30
0.000000
 11
-2.142218
 21
6.285006
 31
0.000000
  0
LINE
  8
48
 10
-2.142218
 20
6.285006
 30
0.000000
 11
-2.134711
 21
6.277500
 31
0.000000
  0
LINE
  8
48
 10
-2.149724
 20
6.307526
 30
0.000000
 11
-2.134711
 21
6.307526
 31
0.000000
  0
LINE
  8
48
 10
-2.096512
 20
6.277500
 30
0.000000
 11
-2.111525
 21
6.277500
 31
0.000000
  0
LINE
  8
48
 10
-2.111525
 20
6.277500
 30
0.000000
 11
-2.119031
 21
6.285006
 31
0.000000
  0
LINE
  8
48
 10
-2.119031
 20
6.285006
 30
0.000000
 11
-2.119031
 21
6.300019
 31
0.000000
  0
LINE
  8
48
 10
-2.119031
 20
6.300019
 30
0.000000
 11
-2.111525
 21
6.307526
 31
0.000000
  0
LINE
  8
48
 10
-2.111525
 20
6.307526
 30
0.000000
 11
-2.096512
 21
6.307526
 31
0.000000
  0
LINE
  8
48
 10
-2.096512
 20
6.307526
 30
0.000000
 11
-2.089006
 21
6.300019
 31
0.000000
  0
LINE
  8
48
 10
-2.089006
 20
6.300019
 30
0.000000
 11
-2.089006
 21
6.292513
 31
0.000000
  0
LINE
  8
48
 10
-2.089006
 20
6.292513
 30
0.000000
 11
-2.119031
 21
6.292513
 31
0.000000
  0
LINE
  8
48
 10
-2.072992
 20
6.277500
 30
0.000000
 11
-2.072992
 21
6.307526
 31
0.000000
  0
LINE
  8
48
 10
-2.072992
 20
6.292513
 30
0.000000
 11
-2.057979
 21
6.307526
 31
0.000000
  0
LINE
  8
48
 10
-2.057979
 20
6.307526
 30
0.000000
 11
-2.050473
 21
6.307526
 31
0.000000
  0
LINE
  8
48
 10
-2.034626
 20
6.307526
 30
0.000000
 11
-2.027120
 21
6.307526
 31
0.000000
  0
LINE
  8
48
 10
-2.027120
 20
6.307526
 30
0.000000
 11
-2.027120
 21
6.277500
 31
0.000000
  0
LINE
  8
48
 10
-2.034626
 20
6.277500
 30
0.000000
 11
-2.019613
 21
6.277500
 31
0.000000
  0
LINE
  8
48
 10
-2.027120
 20
6.330045
 30
0.000000
 11
-2.027120
 21
6.322538
 31
0.000000
  0
LINE
  8
48
 10
-1.996427
 20
6.307526
 30
0.000000
 11
-1.981414
 21
6.307526
 31
0.000000
  0
LINE
  8
48
 10
-1.981414
 20
6.307526
 30
0.000000
 11
-1.973908
 21
6.300019
 31
0.000000
  0
LINE
  8
48
 10
-1.973908
 20
6.300019
 30
0.000000
 11
-1.973908
 21
6.277500
 31
0.000000
  0
LINE
  8
48
 10
-1.973908
 20
6.277500
 30
0.000000
 11
-1.996427
 21
6.277500
 31
0.000000
  0
LINE
  8
48
 10
-1.996427
 20
6.277500
 30
0.000000
 11
-2.003933
 21
6.285006
 31
0.000000
  0
LINE
  8
48
 10
-2.003933
 20
6.285006
 30
0.000000
 11
-1.996427
 21
6.292513
 31
0.000000
  0
LINE
  8
48
 10
-1.996427
 20
6.292513
 30
0.000000
 11
-1.973908
 21
6.292513
 31
0.000000
  0
LINE
  8
48
 10
-1.957894
 20
6.322538
 30
0.000000
 11
-1.950388
 21
6.322538
 31
0.000000
  0
LINE
  8
48
 10
-1.950388
 20
6.322538
 30
0.000000
 11
-1.950388
 21
6.277500
 31
0.000000
  0
LINE
  8
48
 10
-1.957894
 20
6.277500
 30
0.000000
 11
-1.942881
 21
6.277500
 31
0.000000
  0
LINE
  8
48
 10
-1.873656
 20
6.277500
 30
0.000000
 11
-1.873656
 21
6.322538
 31
0.000000
  0
LINE
  8
48
 10
-1.858643
 20
6.322538
 30
0.000000
 11
-1.858643
 21
6.277500
 31
0.000000
  0
LINE
  8
48
 10
-1.881162
 20
6.307526
 30
0.000000
 11
-1.858643
 21
6.307526
 31
0.000000
  0
LINE
  8
48
 10
-1.858643
 20
6.307526
 30
0.000000
 11
-1.851137
 21
6.307526
 31
0.000000
  0
LINE
  8
48
 10
-1.881162
 20
6.292513
 30
0.000000
 11
-1.851137
 21
6.292513
 31
0.000000
  0
LINE
  8
48
 10
-1.835123
 20
6.307526
 30
0.000000
 11
-1.820110
 21
6.322538
 31
0.000000
  0
LINE
  8
48
 10
-1.820110
 20
6.322538
 30
0.000000
 11
-1.820110
 21
6.277500
 31
0.000000
  0
LINE
  8
48
 10
-1.835123
 20
6.277500
 30
0.000000
 11
-1.805097
 21
6.277500
 31
0.000000
  0
LINE
  8
48
 10
-1.743044
 20
6.300019
 30
0.000000
 11
-1.713019
 21
6.300019
 31
0.000000
  0
LINE
  8
48
 10
-1.620940
 20
6.315032
 30
0.000000
 11
-1.628447
 21
6.322538
 31
0.000000
  0
LINE
  8
48
 10
-1.628447
 20
6.322538
 30
0.000000
 11
-1.643460
 21
6.322538
 31
0.000000
  0
LINE
  8
48
 10
-1.643460
 20
6.322538
 30
0.000000
 11
-1.650966
 21
6.315032
 31
0.000000
  0
LINE
  8
48
 10
-1.650966
 20
6.315032
 30
0.000000
 11
-1.650966
 21
6.285006
 31
0.000000
  0
LINE
  8
48
 10
-1.650966
 20
6.285006
 30
0.000000
 11
-1.643460
 21
6.277500
 31
0.000000
  0
LINE
  8
48
 10
-1.643460
 20
6.277500
 30
0.000000
 11
-1.628447
 21
6.277500
 31
0.000000
  0
LINE
  8
48
 10
-1.628447
 20
6.277500
 30
0.000000
 11
-1.620940
 21
6.285006
 31
0.000000
  0
LINE
  8
48
 10
-1.604927
 20
6.322538
 30
0.000000
 11
-1.597420
 21
6.322538
 31
0.000000
  0
LINE
  8
48
 10
-1.597420
 20
6.322538
 30
0.000000
 11
-1.597420
 21
6.277500
 31
0.000000
  0
LINE
  8
48
 10
-1.604927
 20
6.277500
 30
0.000000
 11
-1.589914
 21
6.277500
 31
0.000000
  0
LINE
  8
48
 10
-1.551715
 20
6.277500
 30
0.000000
 11
-1.566727
 21
6.277500
 31
0.000000
  0
LINE
  8
48
 10
-1.566727
 20
6.277500
 30
0.000000
 11
-1.574234
 21
6.285006
 31
0.000000
  0
LINE
  8
48
 10
-1.574234
 20
6.285006
 30
0.000000
 11
-1.574234
 21
6.300019
 31
0.000000
  0
LINE
  8
48
 10
-1.574234
 20
6.300019
 30
0.000000
 11
-1.566727
 21
6.307526
 31
0.000000
  0
LINE
  8
48
 10
-1.566727
 20
6.307526
 30
0.000000
 11
-1.551715
 21
6.307526
 31
0.000000
  0
LINE
  8
48
 10
-1.551715
 20
6.307526
 30
0.000000
 11
-1.544208
 21
6.300019
 31
0.000000
  0
LINE
  8
48
 10
-1.544208
 20
6.300019
 30
0.000000
 11
-1.544208
 21
6.292513
 31
0.000000
  0
LINE
  8
48
 10
-1.544208
 20
6.292513
 30
0.000000
 11
-1.574234
 21
6.292513
 31
0.000000
  0
LINE
  8
48
 10
-1.520688
 20
6.307526
 30
0.000000
 11
-1.505675
 21
6.307526
 31
0.000000
  0
LINE
  8
48
 10
-1.505675
 20
6.307526
 30
0.000000
 11
-1.498169
 21
6.300019
 31
0.000000
  0
LINE
  8
48
 10
-1.498169
 20
6.300019
 30
0.000000
 11
-1.498169
 21
6.277500
 31
0.000000
  0
LINE
  8
48
 10
-1.498169
 20
6.277500
 30
0.000000
 11
-1.520688
 21
6.277500
 31
0.000000
  0
LINE
  8
48
 10
-1.520688
 20
6.277500
 30
0.000000
 11
-1.528195
 21
6.285006
 31
0.000000
  0
LINE
  8
48
 10
-1.528195
 20
6.285006
 30
0.000000
 11
-1.520688
 21
6.292513
 31
0.000000
  0
LINE
  8
48
 10
-1.520688
 20
6.292513
 30
0.000000
 11
-1.498169
 21
6.292513
 31
0.000000
  0
LINE
  8
48
 10
-1.482155
 20
6.277500
 30
0.000000
 11
-1.482155
 21
6.307526
 31
0.000000
  0
LINE
  8
48
 10
-1.482155
 20
6.292513
 30
0.000000
 11
-1.467143
 21
6.307526
 31
0.000000
  0
LINE
  8
48
 10
-1.467143
 20
6.307526
 30
0.000000
 11
-1.459636
 21
6.307526
 31
0.000000
  0
LINE
  8
48
 10
-1.397750
 20
6.277500
 30
0.000000
 11
-1.397750
 21
6.307526
 31
0.000000
  0
LINE
  8
48
 10
-1.397750
 20
6.307526
 30
0.000000
 11
-1.382737
 21
6.322538
 31
0.000000
  0
LINE
  8
48
 10
-1.382737
 20
6.322538
 30
0.000000
 11
-1.367725
 21
6.307526
 31
0.000000
  0
LINE
  8
48
 10
-1.367725
 20
6.307526
 30
0.000000
 11
-1.367725
 21
6.277500
 31
0.000000
  0
LINE
  8
48
 10
-1.397750
 20
6.300019
 30
0.000000
 11
-1.367725
 21
6.300019
 31
0.000000
  0
LINE
  8
48
 10
-1.321685
 20
6.307526
 30
0.000000
 11
-1.344204
 21
6.307526
 31
0.000000
  0
LINE
  8
48
 10
-1.344204
 20
6.307526
 30
0.000000
 11
-1.351711
 21
6.300019
 31
0.000000
  0
LINE
  8
48
 10
-1.351711
 20
6.300019
 30
0.000000
 11
-1.351711
 21
6.285006
 31
0.000000
  0
LINE
  8
48
 10
-1.351711
 20
6.285006
 30
0.000000
 11
-1.344204
 21
6.277500
 31
0.000000
  0
LINE
  8
48
 10
-1.344204
 20
6.277500
 30
0.000000
 11
-1.321685
 21
6.277500
 31
0.000000
  0
LINE
  8
48
 10
-1.305672
 20
6.277500
 30
0.000000
 11
-1.305672
 21
6.307526
 31
0.000000
  0
LINE
  8
48
 10
-1.305672
 20
6.292513
 30
0.000000
 11
-1.290659
 21
6.307526
 31
0.000000
  0
LINE
  8
48
 10
-1.290659
 20
6.307526
 30
0.000000
 11
-1.283152
 21
6.307526
 31
0.000000
  0
LINE
  8
48
 10
-1.267306
 20
6.307526
 30
0.000000
 11
-1.267306
 21
6.285006
 31
0.000000
  0
LINE
  8
48
 10
-1.267306
 20
6.285006
 30
0.000000
 11
-1.259799
 21
6.277500
 31
0.000000
  0
LINE
  8
48
 10
-1.259799
 20
6.277500
 30
0.000000
 11
-1.237280
 21
6.277500
 31
0.000000
  0
LINE
  8
48
 10
-1.237280
 20
6.307526
 30
0.000000
 11
-1.237280
 21
6.269994
 31
0.000000
  0
LINE
  8
48
 10
-1.237280
 20
6.269994
 30
0.000000
 11
-1.244786
 21
6.262487
 31
0.000000
  0
LINE
  8
48
 10
-1.244786
 20
6.262487
 30
0.000000
 11
-1.252293
 21
6.262487
 31
0.000000
  0
LINE
  8
48
 10
-1.221266
 20
6.322538
 30
0.000000
 11
-1.213760
 21
6.322538
 31
0.000000
  0
LINE
  8
48
 10
-1.213760
 20
6.322538
 30
0.000000
 11
-1.213760
 21
6.277500
 31
0.000000
  0
LINE
  8
48
 10
-1.221266
 20
6.277500
 30
0.000000
 11
-1.206254
 21
6.277500
 31
0.000000
  0
LINE
  8
48
 10
-1.190574
 20
6.307526
 30
0.000000
 11
-1.183067
 21
6.307526
 31
0.000000
  0
LINE
  8
48
 10
-1.183067
 20
6.307526
 30
0.000000
 11
-1.183067
 21
6.277500
 31
0.000000
  0
LINE
  8
48
 10
-1.190574
 20
6.277500
 30
0.000000
 11
-1.175561
 21
6.277500
 31
0.000000
  0
LINE
  8
48
 10
-1.183067
 20
6.330045
 30
0.000000
 11
-1.183067
 21
6.322538
 31
0.000000
  0
LINE
  8
48
 10
-1.129855
 20
6.307526
 30
0.000000
 11
-1.152374
 21
6.307526
 31
0.000000
  0
LINE
  8
48
 10
-1.152374
 20
6.307526
 30
0.000000
 11
-1.159881
 21
6.300019
 31
0.000000
  0
LINE
  8
48
 10
-1.159881
 20
6.300019
 30
0.000000
 11
-1.159881
 21
6.285006
 31
0.000000
  0
LINE
  8
48
 10
-1.159881
 20
6.285006
 30
0.000000
 11
-1.152374
 21
6.277500
 31
0.000000
  0
LINE
  8
48
 10
-1.152374
 20
6.277500
 30
0.000000
 11
-1.129855
 21
6.277500
 31
0.000000
  0
LINE
  8
48
 10
-1.052789
 20
6.277500
 30
0.000000
 11
-1.067802
 21
6.292513
 31
0.000000
  0
LINE
  8
48
 10
-1.067802
 20
6.292513
 30
0.000000
 11
-1.067802
 21
6.307526
 31
0.000000
  0
LINE
  8
48
 10
-1.067802
 20
6.307526
 30
0.000000
 11
-1.052789
 21
6.322538
 31
0.000000
  0
LINE
  8
48
 10
-1.037109
 20
6.307526
 30
0.000000
 11
-1.022097
 21
6.322538
 31
0.000000
  0
LINE
  8
48
 10
-1.022097
 20
6.322538
 30
0.000000
 11
-1.022097
 21
6.277500
 31
0.000000
  0
LINE
  8
48
 10
-1.037109
 20
6.277500
 30
0.000000
 11
-1.007084
 21
6.277500
 31
0.000000
  0
LINE
  8
48
 10
-0.991070
 20
6.277500
 30
0.000000
 11
-0.991070
 21
6.285006
 31
0.000000
  0
LINE
  8
48
 10
-0.991070
 20
6.285006
 30
0.000000
 11
-0.983564
 21
6.285006
 31
0.000000
  0
LINE
  8
48
 10
-0.983564
 20
6.285006
 30
0.000000
 11
-0.983564
 21
6.277500
 31
0.000000
  0
LINE
  8
48
 10
-0.983564
 20
6.277500
 30
0.000000
 11
-0.991070
 21
6.277500
 31
0.000000
  0
LINE
  8
48
 10
-0.938025
 20
6.322538
 30
0.000000
 11
-0.968051
 21
6.322538
 31
0.000000
  0
LINE
  8
48
 10
-0.968051
 20
6.322538
 30
0.000000
 11
-0.968051
 21
6.300019
 31
0.000000
  0
LINE
  8
48
 10
-0.968051
 20
6.300019
 30
0.000000
 11
-0.953038
 21
6.307526
 31
0.000000
  0
LINE
  8
48
 10
-0.953038
 20
6.307526
 30
0.000000
 11
-0.945531
 21
6.307526
 31
0.000000
  0
LINE
  8
48
 10
-0.945531
 20
6.307526
 30
0.000000
 11
-0.938025
 21
6.300019
 31
0.000000
  0
LINE
  8
48
 10
-0.938025
 20
6.300019
 30
0.000000
 11
-0.938025
 21
6.285006
 31
0.000000
  0
LINE
  8
48
 10
-0.938025
 20
6.285006
 30
0.000000
 11
-0.945531
 21
6.277500
 31
0.000000
  0
LINE
  8
48
 10
-0.945531
 20
6.277500
 30
0.000000
 11
-0.960544
 21
6.277500
 31
0.000000
  0
LINE
  8
48
 10
-0.960544
 20
6.277500
 30
0.000000
 11
-0.968051
 21
6.285006
 31
0.000000
  0
LINE
  8
48
 10
-0.875972
 20
6.277500
 30
0.000000
 11
-0.875972
 21
6.307526
 31
0.000000
  0
LINE
  8
48
 10
-0.875972
 20
6.307526
 30
0.000000
 11
-0.868466
 21
6.307526
 31
0.000000
  0
LINE
  8
48
 10
-0.868466
 20
6.307526
 30
0.000000
 11
-0.860959
 21
6.300019
 31
0.000000
  0
LINE
  8
48
 10
-0.860959
 20
6.300019
 30
0.000000
 11
-0.860959
 21
6.277500
 31
0.000000
  0
LINE
  8
48
 10
-0.860959
 20
6.300019
 30
0.000000
 11
-0.853453
 21
6.307526
 31
0.000000
  0
LINE
  8
48
 10
-0.853453
 20
6.307526
 30
0.000000
 11
-0.845947
 21
6.300019
 31
0.000000
  0
LINE
  8
48
 10
-0.845947
 20
6.300019
 30
0.000000
 11
-0.845947
 21
6.277500
 31
0.000000
  0
LINE
  8
48
 10
-0.829933
 20
6.277500
 30
0.000000
 11
-0.829933
 21
6.307526
 31
0.000000
  0
LINE
  8
48
 10
-0.829933
 20
6.307526
 30
0.000000
 11
-0.822427
 21
6.307526
 31
0.000000
  0
LINE
  8
48
 10
-0.822427
 20
6.307526
 30
0.000000
 11
-0.814920
 21
6.300019
 31
0.000000
  0
LINE
  8
48
 10
-0.814920
 20
6.300019
 30
0.000000
 11
-0.814920
 21
6.277500
 31
0.000000
  0
LINE
  8
48
 10
-0.814920
 20
6.300019
 30
0.000000
 11
-0.807414
 21
6.307526
 31
0.000000
  0
LINE
  8
48
 10
-0.807414
 20
6.307526
 30
0.000000
 11
-0.799907
 21
6.300019
 31
0.000000
  0
LINE
  8
48
 10
-0.799907
 20
6.300019
 30
0.000000
 11
-0.799907
 21
6.277500
 31
0.000000
  0
LINE
  8
48
 10
-0.783894
 20
6.277500
 30
0.000000
 11
-0.768881
 21
6.292513
 31
0.000000
  0
LINE
  8
48
 10
-0.768881
 20
6.292513
 30
0.000000
 11
-0.768881
 21
6.307526
 31
0.000000
  0
LINE
  8
48
 10
-0.768881
 20
6.307526
 30
0.000000
 11
-0.783894
 21
6.322538
 31
0.000000
  0
LINE
  8
48
 10
-1.754305
 20
3.827500
 30
0.000000
 11
-1.754305
 21
3.872538
 31
0.000000
  0
LINE
  8
48
 10
-1.754305
 20
3.872538
 30
0.000000
 11
-1.731786
 21
3.872538
 31
0.000000
  0
LINE
  8
48
 10
-1.731786
 20
3.872538
 30
0.000000
 11
-1.724279
 21
3.865032
 31
0.000000
  0
LINE
  8
48
 10
-1.724279
 20
3.865032
 30
0.000000
 11
-1.724279
 21
3.850019
 31
0.000000
  0
LINE
  8
48
 10
-1.724279
 20
3.850019
 30
0.000000
 11
-1.731786
 21
3.842513
 31
0.000000
  0
LINE
  8
48
 10
-1.731786
 20
3.842513
 30
0.000000
 11
-1.754305
 21
3.842513
 31
0.000000
  0
LINE
  8
48
 10
-1.700759
 20
3.857526
 30
0.000000
 11
-1.685746
 21
3.857526
 31
0.000000
  0
LINE
  8
48
 10
-1.685746
 20
3.857526
 30
0.000000
 11
-1.678240
 21
3.850019
 31
0.000000
  0
LINE
  8
48
 10
-1.678240
 20
3.850019
 30
0.000000
 11
-1.678240
 21
3.827500
 31
0.000000
  0
LINE
  8
48
 10
-1.678240
 20
3.827500
 30
0.000000
 11
-1.700759
 21
3.827500
 31
0.000000
  0
LINE
  8
48
 10
-1.700759
 20
3.827500
 30
0.000000
 11
-1.708266
 21
3.835006
 31
0.000000
  0
LINE
  8
48
 10
-1.708266
 20
3.835006
 30
0.000000
 11
-1.700759
 21
3.842513
 31
0.000000
  0
LINE
  8
48
 10
-1.700759
 20
3.842513
 30
0.000000
 11
-1.678240
 21
3.842513
 31
0.000000
  0
LINE
  8
48
 10
-1.662226
 20
3.827500
 30
0.000000
 11
-1.662226
 21
3.857526
 31
0.000000
  0
LINE
  8
48
 10
-1.662226
 20
3.842513
 30
0.000000
 11
-1.647214
 21
3.857526
 31
0.000000
  0
LINE
  8
48
 10
-1.647214
 20
3.857526
 30
0.000000
 11
-1.639707
 21
3.857526
 31
0.000000
  0
LINE
  8
48
 10
-1.616354
 20
3.865032
 30
0.000000
 11
-1.616354
 21
3.835006
 31
0.000000
  0
LINE
  8
48
 10
-1.616354
 20
3.835006
 30
0.000000
 11
-1.608848
 21
3.827500
 31
0.000000
  0
LINE
  8
48
 10
-1.623860
 20
3.857526
 30
0.000000
 11
-1.608848
 21
3.857526
 31
0.000000
  0
LINE
  8
48
 10
-1.547128
 20
3.827500
 30
0.000000
 11
-1.547128
 21
3.872538
 31
0.000000
  0
LINE
  8
48
 10
-1.547128
 20
3.872538
 30
0.000000
 11
-1.524609
 21
3.872538
 31
0.000000
  0
LINE
  8
48
 10
-1.524609
 20
3.872538
 30
0.000000
 11
-1.517103
 21
3.865032
 31
0.000000
  0
LINE
  8
48
 10
-1.517103
 20
3.865032
 30
0.000000
 11
-1.517103
 21
3.857526
 31
0.000000
  0
LINE
  8
48
 10
-1.517103
 20
3.857526
 30
0.000000
 11
-1.524609
 21
3.850019
 31
0.000000
  0
LINE
  8
48
 10
-1.524609
 20
3.850019
 30
0.000000
 11
-1.517103
 21
3.842513
 31
0.000000
  0
LINE
  8
48
 10
-1.517103
 20
3.842513
 30
0.000000
 11
-1.517103
 21
3.835006
 31
0.000000
  0
LINE
  8
48
 10
-1.517103
 20
3.835006
 30
0.000000
 11
-1.524609
 21
3.827500
 31
0.000000
  0
LINE
  8
48
 10
-1.524609
 20
3.827500
 30
0.000000
 11
-1.547128
 21
3.827500
 31
0.000000
  0
LINE
  8
48
 10
-1.547128
 20
3.850019
 30
0.000000
 11
-1.524609
 21
3.850019
 31
0.000000
  0
LINE
  8
48
 10
-1.440037
 20
3.827500
 30
0.000000
 11
-1.455050
 21
3.827500
 31
0.000000
  0
LINE
  8
48
 10
-1.455050
 20
3.827500
 30
0.000000
 11
-1.455050
 21
3.872538
 31
0.000000
  0
LINE
  8
48
 10
-1.455050
 20
3.872538
 30
0.000000
 11
-1.440037
 21
3.872538
 31
0.000000
  0
LINE
  8
48
 10
-1.401838
 20
3.827500
 30
0.000000
 11
-1.401838
 21
3.872538
 31
0.000000
  0
LINE
  8
48
 10
-1.401838
 20
3.872538
 30
0.000000
 11
-1.424357
 21
3.850019
 31
0.000000
  0
LINE
  8
48
 10
-1.424357
 20
3.850019
 30
0.000000
 11
-1.394331
 21
3.850019
 31
0.000000
  0
LINE
  8
48
 10
-1.302253
 20
3.857526
 30
0.000000
 11
-1.324772
 21
3.857526
 31
0.000000
  0
LINE
  8
48
 10
-1.324772
 20
3.857526
 30
0.000000
 11
-1.332279
 21
3.850019
 31
0.000000
  0
LINE
  8
48
 10
-1.332279
 20
3.850019
 30
0.000000
 11
-1.332279
 21
3.835006
 31
0.000000
  0
LINE
  8
48
 10
-1.332279
 20
3.835006
 30
0.000000
 11
-1.324772
 21
3.827500
 31
0.000000
  0
LINE
  8
48
 10
-1.324772
 20
3.827500
 30
0.000000
 11
-1.302253
 21
3.827500
 31
0.000000
  0
LINE
  8
48
 10
-1.278733
 20
3.827500
 30
0.000000
 11
-1.263720
 21
3.827500
 31
0.000000
  0
LINE
  8
48
 10
-1.263720
 20
3.827500
 30
0.000000
 11
-1.256214
 21
3.835006
 31
0.000000
  0
LINE
  8
48
 10
-1.256214
 20
3.835006
 30
0.000000
 11
-1.256214
 21
3.850019
 31
0.000000
  0
LINE
  8
48
 10
-1.256214
 20
3.850019
 30
0.000000
 11
-1.263720
 21
3.857526
 31
0.000000
  0
LINE
  8
48
 10
-1.263720
 20
3.857526
 30
0.000000
 11
-1.278733
 21
3.857526
 31
0.000000
  0
LINE
  8
48
 10
-1.278733
 20
3.857526
 30
0.000000
 11
-1.286239
 21
3.850019
 31
0.000000
  0
LINE
  8
48
 10
-1.286239
 20
3.850019
 30
0.000000
 11
-1.286239
 21
3.835006
 31
0.000000
  0
LINE
  8
48
 10
-1.286239
 20
3.835006
 30
0.000000
 11
-1.278733
 21
3.827500
 31
0.000000
  0
LINE
  8
48
 10
-1.240200
 20
3.812487
 30
0.000000
 11
-1.240200
 21
3.857526
 31
0.000000
  0
LINE
  8
48
 10
-1.240200
 20
3.857526
 30
0.000000
 11
-1.217681
 21
3.857526
 31
0.000000
  0
LINE
  8
48
 10
-1.217681
 20
3.857526
 30
0.000000
 11
-1.210174
 21
3.850019
 31
0.000000
  0
LINE
  8
48
 10
-1.210174
 20
3.850019
 30
0.000000
 11
-1.210174
 21
3.835006
 31
0.000000
  0
LINE
  8
48
 10
-1.210174
 20
3.835006
 30
0.000000
 11
-1.217681
 21
3.827500
 31
0.000000
  0
LINE
  8
48
 10
-1.217681
 20
3.827500
 30
0.000000
 11
-1.240200
 21
3.827500
 31
0.000000
  0
LINE
  8
48
 10
-1.194161
 20
3.857526
 30
0.000000
 11
-1.186654
 21
3.857526
 31
0.000000
  0
LINE
  8
48
 10
-1.186654
 20
3.857526
 30
0.000000
 11
-1.186654
 21
3.827500
 31
0.000000
  0
LINE
  8
48
 10
-1.194161
 20
3.827500
 30
0.000000
 11
-1.179148
 21
3.827500
 31
0.000000
  0
LINE
  8
48
 10
-1.186654
 20
3.880045
 30
0.000000
 11
-1.186654
 21
3.872538
 31
0.000000
  0
LINE
  8
48
 10
-1.140949
 20
3.827500
 30
0.000000
 11
-1.155962
 21
3.827500
 31
0.000000
  0
LINE
  8
48
 10
-1.155962
 20
3.827500
 30
0.000000
 11
-1.163468
 21
3.835006
 31
0.000000
  0
LINE
  8
48
 10
-1.163468
 20
3.835006
 30
0.000000
 11
-1.163468
 21
3.850019
 31
0.000000
  0
LINE
  8
48
 10
-1.163468
 20
3.850019
 30
0.000000
 11
-1.155962
 21
3.857526
 31
0.000000
  0
LINE
  8
48
 10
-1.155962
 20
3.857526
 30
0.000000
 11
-1.140949
 21
3.857526
 31
0.000000
  0
LINE
  8
48
 10
-1.140949
 20
3.857526
 30
0.000000
 11
-1.133442
 21
3.850019
 31
0.000000
  0
LINE
  8
48
 10
-1.133442
 20
3.850019
 30
0.000000
 11
-1.133442
 21
3.842513
 31
0.000000
  0
LINE
  8
48
 10
-1.133442
 20
3.842513
 30
0.000000
 11
-1.163468
 21
3.842513
 31
0.000000
  0
LINE
  8
48
 10
-1.117429
 20
3.827500
 30
0.000000
 11
-1.094910
 21
3.827500
 31
0.000000
  0
LINE
  8
48
 10
-1.094910
 20
3.827500
 30
0.000000
 11
-1.087403
 21
3.835006
 31
0.000000
  0
LINE
  8
48
 10
-1.087403
 20
3.835006
 30
0.000000
 11
-1.094910
 21
3.842513
 31
0.000000
  0
LINE
  8
48
 10
-1.094910
 20
3.842513
 30
0.000000
 11
-1.109922
 21
3.842513
 31
0.000000
  0
LINE
  8
48
 10
-1.109922
 20
3.842513
 30
0.000000
 11
-1.117429
 21
3.850019
 31
0.000000
  0
LINE
  8
48
 10
-1.117429
 20
3.850019
 30
0.000000
 11
-1.109922
 21
3.857526
 31
0.000000
  0
LINE
  8
48
 10
-1.109922
 20
3.857526
 30
0.000000
 11
-1.087403
 21
3.857526
 31
0.000000
  0
LINE
  8
48
 10
-1.071390
 20
3.827500
 30
0.000000
 11
-1.056377
 21
3.827500
 31
0.000000
  0
LINE
  8
48
 10
-1.056377
 20
3.827500
 30
0.000000
 11
-1.056377
 21
3.872538
 31
0.000000
  0
LINE
  8
48
 10
-1.056377
 20
3.872538
 30
0.000000
 11
-1.071390
 21
3.872538
 31
0.000000
  0
LINE
  8
48
 10
-1.777325
 20
2.327500
 30
0.000000
 11
-1.777325
 21
2.372538
 31
0.000000
  0
LINE
  8
48
 10
-1.777325
 20
2.372538
 30
0.000000
 11
-1.754805
 21
2.372538
 31
0.000000
  0
LINE
  8
48
 10
-1.754805
 20
2.372538
 30
0.000000
 11
-1.747299
 21
2.365032
 31
0.000000
  0
LINE
  8
48
 10
-1.747299
 20
2.365032
 30
0.000000
 11
-1.747299
 21
2.350019
 31
0.000000
  0
LINE
  8
48
 10
-1.747299
 20
2.350019
 30
0.000000
 11
-1.754805
 21
2.342513
 31
0.000000
  0
LINE
  8
48
 10
-1.754805
 20
2.342513
 30
0.000000
 11
-1.777325
 21
2.342513
 31
0.000000
  0
LINE
  8
48
 10
-1.723779
 20
2.357526
 30
0.000000
 11
-1.708766
 21
2.357526
 31
0.000000
  0
LINE
  8
48
 10
-1.708766
 20
2.357526
 30
0.000000
 11
-1.701260
 21
2.350019
 31
0.000000
  0
LINE
  8
48
 10
-1.701260
 20
2.350019
 30
0.000000
 11
-1.701260
 21
2.327500
 31
0.000000
  0
LINE
  8
48
 10
-1.701260
 20
2.327500
 30
0.000000
 11
-1.723779
 21
2.327500
 31
0.000000
  0
LINE
  8
48
 10
-1.723779
 20
2.327500
 30
0.000000
 11
-1.731285
 21
2.335006
 31
0.000000
  0
LINE
  8
48
 10
-1.731285
 20
2.335006
 30
0.000000
 11
-1.723779
 21
2.342513
 31
0.000000
  0
LINE
  8
48
 10
-1.723779
 20
2.342513
 30
0.000000
 11
-1.701260
 21
2.342513
 31
0.000000
  0
LINE
  8
48
 10
-1.685246
 20
2.327500
 30
0.000000
 11
-1.685246
 21
2.357526
 31
0.000000
  0
LINE
  8
48
 10
-1.685246
 20
2.342513
 30
0.000000
 11
-1.670233
 21
2.357526
 31
0.000000
  0
LINE
  8
48
 10
-1.670233
 20
2.357526
 30
0.000000
 11
-1.662727
 21
2.357526
 31
0.000000
  0
LINE
  8
48
 10
-1.639374
 20
2.365032
 30
0.000000
 11
-1.639374
 21
2.335006
 31
0.000000
  0
LINE
  8
48
 10
-1.639374
 20
2.335006
 30
0.000000
 11
-1.631867
 21
2.327500
 31
0.000000
  0
LINE
  8
48
 10
-1.646880
 20
2.357526
 30
0.000000
 11
-1.631867
 21
2.357526
 31
0.000000
  0
LINE
  8
48
 10
-1.540122
 20
2.365032
 30
0.000000
 11
-1.547629
 21
2.372538
 31
0.000000
  0
LINE
  8
48
 10
-1.547629
 20
2.372538
 30
0.000000
 11
-1.562642
 21
2.372538
 31
0.000000
  0
LINE
  8
48
 10
-1.562642
 20
2.372538
 30
0.000000
 11
-1.570148
 21
2.365032
 31
0.000000
  0
LINE
  8
48
 10
-1.570148
 20
2.365032
 30
0.000000
 11
-1.570148
 21
2.335006
 31
0.000000
  0
LINE
  8
48
 10
-1.570148
 20
2.335006
 30
0.000000
 11
-1.562642
 21
2.327500
 31
0.000000
  0
LINE
  8
48
 10
-1.562642
 20
2.327500
 30
0.000000
 11
-1.547629
 21
2.327500
 31
0.000000
  0
LINE
  8
48
 10
-1.547629
 20
2.327500
 30
0.000000
 11
-1.540122
 21
2.335006
 31
0.000000
  0
LINE
  8
48
 10
-1.463057
 20
2.327500
 30
0.000000
 11
-1.478070
 21
2.327500
 31
0.000000
  0
LINE
  8
48
 10
-1.478070
 20
2.327500
 30
0.000000
 11
-1.478070
 21
2.372538
 31
0.000000
  0
LINE
  8
48
 10
-1.478070
 20
2.372538
 30
0.000000
 11
-1.463057
 21
2.372538
 31
0.000000
  0
LINE
  8
48
 10
-1.447377
 20
2.357526
 30
0.000000
 11
-1.432364
 21
2.372538
 31
0.000000
  0
LINE
  8
48
 10
-1.432364
 20
2.372538
 30
0.000000
 11
-1.432364
 21
2.327500
 31
0.000000
  0
LINE
  8
48
 10
-1.447377
 20
2.327500
 30
0.000000
 11
-1.417351
 21
2.327500
 31
0.000000
  0
LINE
  8
48
 10
-1.371312
 20
2.372538
 30
0.000000
 11
-1.386325
 21
2.365032
 31
0.000000
  0
LINE
  8
48
 10
-1.386325
 20
2.365032
 30
0.000000
 11
-1.401337
 21
2.350019
 31
0.000000
  0
LINE
  8
48
 10
-1.401337
 20
2.350019
 30
0.000000
 11
-1.401337
 21
2.335006
 31
0.000000
  0
LINE
  8
48
 10
-1.401337
 20
2.335006
 30
0.000000
 11
-1.393831
 21
2.327500
 31
0.000000
  0
LINE
  8
48
 10
-1.393831
 20
2.327500
 30
0.000000
 11
-1.378818
 21
2.327500
 31
0.000000
  0
LINE
  8
48
 10
-1.378818
 20
2.327500
 30
0.000000
 11
-1.371312
 21
2.335006
 31
0.000000
  0
LINE
  8
48
 10
-1.371312
 20
2.335006
 30
0.000000
 11
-1.371312
 21
2.342513
 31
0.000000
  0
LINE
  8
48
 10
-1.371312
 20
2.342513
 30
0.000000
 11
-1.378818
 21
2.350019
 31
0.000000
  0
LINE
  8
48
 10
-1.378818
 20
2.350019
 30
0.000000
 11
-1.401337
 21
2.350019
 31
0.000000
  0
LINE
  8
48
 10
-1.279233
 20
2.357526
 30
0.000000
 11
-1.301753
 21
2.357526
 31
0.000000
  0
LINE
  8
48
 10
-1.301753
 20
2.357526
 30
0.000000
 11
-1.309259
 21
2.350019
 31
0.000000
  0
LINE
  8
48
 10
-1.309259
 20
2.350019
 30
0.000000
 11
-1.309259
 21
2.335006
 31
0.000000
  0
LINE
  8
48
 10
-1.309259
 20
2.335006
 30
0.000000
 11
-1.301753
 21
2.327500
 31
0.000000
  0
LINE
  8
48
 10
-1.301753
 20
2.327500
 30
0.000000
 11
-1.279233
 21
2.327500
 31
0.000000
  0
LINE
  8
48
 10
-1.255713
 20
2.327500
 30
0.000000
 11
-1.240701
 21
2.327500
 31
0.000000
  0
LINE
  8
48
 10
-1.240701
 20
2.327500
 30
0.000000
 11
-1.233194
 21
2.335006
 31
0.000000
  0
LINE
  8
48
 10
-1.233194
 20
2.335006
 30
0.000000
 11
-1.233194
 21
2.350019
 31
0.000000
  0
LINE
  8
48
 10
-1.233194
 20
2.350019
 30
0.000000
 11
-1.240701
 21
2.357526
 31
0.000000
  0
LINE
  8
48
 10
-1.240701
 20
2.357526
 30
0.000000
 11
-1.255713
 21
2.357526
 31
0.000000
  0
LINE
  8
48
 10
-1.255713
 20
2.357526
 30
0.000000
 11
-1.263220
 21
2.350019
 31
0.000000
  0
LINE
  8
48
 10
-1.263220
 20
2.350019
 30
0.000000
 11
-1.263220
 21
2.335006
 31
0.000000
  0
LINE
  8
48
 10
-1.263220
 20
2.335006
 30
0.000000
 11
-1.255713
 21
2.327500
 31
0.000000
  0
LINE
  8
48
 10
-1.217180
 20
2.312487
 30
0.000000
 11
-1.217180
 21
2.357526
 31
0.000000
  0
LINE
  8
48
 10
-1.217180
 20
2.357526
 30
0.000000
 11
-1.194661
 21
2.357526
 31
0.000000
  0
LINE
  8
48
 10
-1.194661
 20
2.357526
 30
0.000000
 11
-1.187155
 21
2.350019
 31
0.000000
  0
LINE
  8
48
 10
-1.187155
 20
2.350019
 30
0.000000
 11
-1.187155
 21
2.335006
 31
0.000000
  0
LINE
  8
48
 10
-1.187155
 20
2.335006
 30
0.000000
 11
-1.194661
 21
2.327500
 31
0.000000
  0
LINE
  8
48
 10
-1.194661
 20
2.327500
 30
0.000000
 11
-1.217180
 21
2.327500
 31
0.000000
  0
LINE
  8
48
 10
-1.171141
 20
2.357526
 30
0.000000
 11
-1.163635
 21
2.357526
 31
0.000000
  0
LINE
  8
48
 10
-1.163635
 20
2.357526
 30
0.000000
 11
-1.163635
 21
2.327500
 31
0.000000
  0
LINE
  8
48
 10
-1.171141
 20
2.327500
 30
0.000000
 11
-1.156128
 21
2.327500
 31
0.000000
  0
LINE
  8
48
 10
-1.163635
 20
2.380045
 30
0.000000
 11
-1.163635
 21
2.372538
 31
0.000000
  0
LINE
  8
48
 10
-1.117929
 20
2.327500
 30
0.000000
 11
-1.132942
 21
2.327500
 31
0.000000
  0
LINE
  8
48
 10
-1.132942
 20
2.327500
 30
0.000000
 11
-1.140448
 21
2.335006
 31
0.000000
  0
LINE
  8
48
 10
-1.140448
 20
2.335006
 30
0.000000
 11
-1.140448
 21
2.350019
 31
0.000000
  0
LINE
  8
48
 10
-1.140448
 20
2.350019
 30
0.000000
 11
-1.132942
 21
2.357526
 31
0.000000
  0
LINE
  8
48
 10
-1.132942
 20
2.357526
 30
0.000000
 11
-1.117929
 21
2.357526
 31
0.000000
  0
LINE
  8
48
 10
-1.117929
 20
2.357526
 30
0.000000
 11
-1.110423
 21
2.350019
 31
0.000000
  0
LINE
  8
48
 10
-1.110423
 20
2.350019
 30
0.000000
 11
-1.110423
 21
2.342513
 31
0.000000
  0
LINE
  8
48
 10
-1.110423
 20
2.342513
 30
0.000000
 11
-1.140448
 21
2.342513
 31
0.000000
  0
LINE
  8
48
 10
-1.094409
 20
2.327500
 30
0.000000
 11
-1.071890
 21
2.327500
 31
0.000000
  0
LINE
  8
48
 10
-1.071890
 20
2.327500
 30
0.000000
 11
-1.064384
 21
2.335006
 31
0.000000
  0
LINE
  8
48
 10
-1.064384
 20
2.335006
 30
0.000000
 11
-1.071890
 21
2.342513
 31
0.000000
  0
LINE
  8
48
 10
-1.071890
 20
2.342513
 30
0.000000
 11
-1.086903
 21
2.342513
 31
0.000000
  0
LINE
  8
48
 10
-1.086903
 20
2.342513
 30
0.000000
 11
-1.094409
 21
2.350019
 31
0.000000
  0
LINE
  8
48
 10
-1.094409
 20
2.350019
 30
0.000000
 11
-1.086903
 21
2.357526
 31
0.000000
  0
LINE
  8
48
 10
-1.086903
 20
2.357526
 30
0.000000
 11
-1.064384
 21
2.357526
 31
0.000000
  0
LINE
  8
48
 10
-1.048370
 20
2.327500
 30
0.000000
 11
-1.033357
 21
2.327500
 31
0.000000
  0
LINE
  8
48
 10
-1.033357
 20
2.327500
 30
0.000000
 11
-1.033357
 21
2.372538
 31
0.000000
  0
LINE
  8
48
 10
-1.033357
 20
2.372538
 30
0.000000
 11
-1.048370
 21
2.372538
 31
0.000000
  0
LINE
  8
48
 10
-1.754305
 20
5.327500
 30
0.000000
 11
-1.754305
 21
5.372538
 31
0.000000
  0
LINE
  8
48
 10
-1.754305
 20
5.372538
 30
0.000000
 11
-1.731786
 21
5.372538
 31
0.000000
  0
LINE
  8
48
 10
-1.731786
 20
5.372538
 30
0.000000
 11
-1.724279
 21
5.365032
 31
0.000000
  0
LINE
  8
48
 10
-1.724279
 20
5.365032
 30
0.000000
 11
-1.724279
 21
5.350019
 31
0.000000
  0
LINE
  8
48
 10
-1.724279
 20
5.350019
 30
0.000000
 11
-1.731786
 21
5.342513
 31
0.000000
  0
LINE
  8
48
 10
-1.731786
 20
5.342513
 30
0.000000
 11
-1.754305
 21
5.342513
 31
0.000000
  0
LINE
  8
48
 10
-1.700759
 20
5.357526
 30
0.000000
 11
-1.685746
 21
5.357526
 31
0.000000
  0
LINE
  8
48
 10
-1.685746
 20
5.357526
 30
0.000000
 11
-1.678240
 21
5.350019
 31
0.000000
  0
LINE
  8
48
 10
-1.678240
 20
5.350019
 30
0.000000
 11
-1.678240
 21
5.327500
 31
0.000000
  0
LINE
  8
48
 10
-1.678240
 20
5.327500
 30
0.000000
 11
-1.700759
 21
5.327500
 31
0.000000
  0
LINE
  8
48
 10
-1.700759
 20
5.327500
 30
0.000000
 11
-1.708266
 21
5.335006
 31
0.000000
  0
LINE
  8
48
 10
-1.708266
 20
5.335006
 30
0.000000
 11
-1.700759
 21
5.342513
 31
0.000000
  0
LINE
  8
48
 10
-1.700759
 20
5.342513
 30
0.000000
 11
-1.678240
 21
5.342513
 31
0.000000
  0
LINE
  8
48
 10
-1.662226
 20
5.327500
 30
0.000000
 11
-1.662226
 21
5.357526
 31
0.000000
  0
LINE
  8
48
 10
-1.662226
 20
5.342513
 30
0.000000
 11
-1.647214
 21
5.357526
 31
0.000000
  0
LINE
  8
48
 10
-1.647214
 20
5.357526
 30
0.000000
 11
-1.639707
 21
5.357526
 31
0.000000
  0
LINE
  8
48
 10
-1.616354
 20
5.365032
 30
0.000000
 11
-1.616354
 21
5.335006
 31
0.000000
  0
LINE
  8
48
 10
-1.616354
 20
5.335006
 30
0.000000
 11
-1.608848
 21
5.327500
 31
0.000000
  0
LINE
  8
48
 10
-1.623860
 20
5.357526
 30
0.000000
 11
-1.608848
 21
5.357526
 31
0.000000
  0
LINE
  8
48
 10
-1.547128
 20
5.327500
 30
0.000000
 11
-1.547128
 21
5.357526
 31
0.000000
  0
LINE
  8
48
 10
-1.547128
 20
5.357526
 30
0.000000
 11
-1.532116
 21
5.372538
 31
0.000000
  0
LINE
  8
48
 10
-1.532116
 20
5.372538
 30
0.000000
 11
-1.517103
 21
5.357526
 31
0.000000
  0
LINE
  8
48
 10
-1.517103
 20
5.357526
 30
0.000000
 11
-1.517103
 21
5.327500
 31
0.000000
  0
LINE
  8
48
 10
-1.547128
 20
5.350019
 30
0.000000
 11
-1.517103
 21
5.350019
 31
0.000000
  0
LINE
  8
48
 10
-1.440037
 20
5.327500
 30
0.000000
 11
-1.455050
 21
5.327500
 31
0.000000
  0
LINE
  8
48
 10
-1.455050
 20
5.327500
 30
0.000000
 11
-1.455050
 21
5.372538
 31
0.000000
  0
LINE
  8
48
 10
-1.455050
 20
5.372538
 30
0.000000
 11
-1.440037
 21
5.372538
 31
0.000000
  0
LINE
  8
48
 10
-1.401838
 20
5.327500
 30
0.000000
 11
-1.401838
 21
5.372538
 31
0.000000
  0
LINE
  8
48
 10
-1.401838
 20
5.372538
 30
0.000000
 11
-1.424357
 21
5.350019
 31
0.000000
  0
LINE
  8
48
 10
-1.424357
 20
5.350019
 30
0.000000
 11
-1.394331
 21
5.350019
 31
0.000000
  0
LINE
  8
48
 10
-1.302253
 20
5.357526
 30
0.000000
 11
-1.324772
 21
5.357526
 31
0.000000
  0
LINE
  8
48
 10
-1.324772
 20
5.357526
 30
0.000000
 11
-1.332279
 21
5.350019
 31
0.000000
  0
LINE
  8
48
 10
-1.332279
 20
5.350019
 30
0.000000
 11
-1.332279
 21
5.335006
 31
0.000000
  0
LINE
  8
48
 10
-1.332279
 20
5.335006
 30
0.000000
 11
-1.324772
 21
5.327500
 31
0.000000
  0
LINE
  8
48
 10
-1.324772
 20
5.327500
 30
0.000000
 11
-1.302253
 21
5.327500
 31
0.000000
  0
LINE
  8
48
 10
-1.278733
 20
5.327500
 30
0.000000
 11
-1.263720
 21
5.327500
 31
0.000000
  0
LINE
  8
48
 10
-1.263720
 20
5.327500
 30
0.000000
 11
-1.256214
 21
5.335006
 31
0.000000
  0
LINE
  8
48
 10
-1.256214
 20
5.335006
 30
0.000000
 11
-1.256214
 21
5.350019
 31
0.000000
  0
LINE
  8
48
 10
-1.256214
 20
5.350019
 30
0.000000
 11
-1.263720
 21
5.357526
 31
0.000000
  0
LINE
  8
48
 10
-1.263720
 20
5.357526
 30
0.000000
 11
-1.278733
 21
5.357526
 31
0.000000
  0
LINE
  8
48
 10
-1.278733
 20
5.357526
 30
0.000000
 11
-1.286239
 21
5.350019
 31
0.000000
  0
LINE
  8
48
 10
-1.286239
 20
5.350019
 30
0.000000
 11
-1.286239
 21
5.335006
 31
0.000000
  0
LINE
  8
48
 10
-1.286239
 20
5.335006
 30
0.000000
 11
-1.278733
 21
5.327500
 31
0.000000
  0
LINE
  8
48
 10
-1.240200
 20
5.312487
 30
0.000000
 11
-1.240200
 21
5.357526
 31
0.000000
  0
LINE
  8
48
 10
-1.240200
 20
5.357526
 30
0.000000
 11
-1.217681
 21
5.357526
 31
0.000000
  0
LINE
  8
48
 10
-1.217681
 20
5.357526
 30
0.000000
 11
-1.210174
 21
5.350019
 31
0.000000
  0
LINE
  8
48
 10
-1.210174
 20
5.350019
 30
0.000000
 11
-1.210174
 21
5.335006
 31
0.000000
  0
LINE
  8
48
 10
-1.210174
 20
5.335006
 30
0.000000
 11
-1.217681
 21
5.327500
 31
0.000000
  0
LINE
  8
48
 10
-1.217681
 20
5.327500
 30
0.000000
 11
-1.240200
 21
5.327500
 31
0.000000
  0
LINE
  8
48
 10
-1.194161
 20
5.357526
 30
0.000000
 11
-1.186654
 21
5.357526
 31
0.000000
  0
LINE
  8
48
 10
-1.186654
 20
5.357526
 30
0.000000
 11
-1.186654
 21
5.327500
 31
0.000000
  0
LINE
  8
48
 10
-1.194161
 20
5.327500
 30
0.000000
 11
-1.179148
 21
5.327500
 31
0.000000
  0
LINE
  8
48
 10
-1.186654
 20
5.380045
 30
0.000000
 11
-1.186654
 21
5.372538
 31
0.000000
  0
LINE
  8
48
 10
-1.140949
 20
5.327500
 30
0.000000
 11
-1.155962
 21
5.327500
 31
0.000000
  0
LINE
  8
48
 10
-1.155962
 20
5.327500
 30
0.000000
 11
-1.163468
 21
5.335006
 31
0.000000
  0
LINE
  8
48
 10
-1.163468
 20
5.335006
 30
0.000000
 11
-1.163468
 21
5.350019
 31
0.000000
  0
LINE
  8
48
 10
-1.163468
 20
5.350019
 30
0.000000
 11
-1.155962
 21
5.357526
 31
0.000000
  0
LINE
  8
48
 10
-1.155962
 20
5.357526
 30
0.000000
 11
-1.140949
 21
5.357526
 31
0.000000
  0
LINE
  8
48
 10
-1.140949
 20
5.357526
 30
0.000000
 11
-1.133442
 21
5.350019
 31
0.000000
  0
LINE
  8
48
 10
-1.133442
 20
5.350019
 30
0.000000
 11
-1.133442
 21
5.342513
 31
0.000000
  0
LINE
  8
48
 10
-1.133442
 20
5.342513
 30
0.000000
 11
-1.163468
 21
5.342513
 31
0.000000
  0
LINE
  8
48
 10
-1.117429
 20
5.327500
 30
0.000000
 11
-1.094910
 21
5.327500
 31
0.000000
  0
LINE
  8
48
 10
-1.094910
 20
5.327500
 30
0.000000
 11
-1.087403
 21
5.335006
 31
0.000000
  0
LINE
  8
48
 10
-1.087403
 20
5.335006
 30
0.000000
 11
-1.094910
 21
5.342513
 31
0.000000
  0
LINE
  8
48
 10
-1.094910
 20
5.342513
 30
0.000000
 11
-1.109922
 21
5.342513
 31
0.000000
  0
LINE
  8
48
 10
-1.109922
 20
5.342513
 30
0.000000
 11
-1.117429
 21
5.350019
 31
0.000000
  0
LINE
  8
48
 10
-1.117429
 20
5.350019
 30
0.000000
 11
-1.109922
 21
5.357526
 31
0.000000
  0
LINE
  8
48
 10
-1.109922
 20
5.357526
 30
0.000000
 11
-1.087403
 21
5.357526
 31
0.000000
  0
LINE
  8
48
 10
-1.071390
 20
5.327500
 30
0.000000
 11
-1.056377
 21
5.327500
 31
0.000000
  0
LINE
  8
48
 10
-1.056377
 20
5.327500
 30
0.000000
 11
-1.056377
 21
5.372538
 31
0.000000
  0
LINE
  8
48
 10
-1.056377
 20
5.372538
 30
0.000000
 11
-1.071390
 21
5.372538
 31
0.000000
  0
LINE
  8
48
 10
-1.804305
 20
0.827500
 30
0.000000
 11
-1.804305
 21
0.872538
 31
0.000000
  0
LINE
  8
48
 10
-1.804305
 20
0.872538
 30
0.000000
 11
-1.781786
 21
0.872538
 31
0.000000
  0
LINE
  8
48
 10
-1.781786
 20
0.872538
 30
0.000000
 11
-1.774279
 21
0.865032
 31
0.000000
  0
LINE
  8
48
 10
-1.774279
 20
0.865032
 30
0.000000
 11
-1.774279
 21
0.850019
 31
0.000000
  0
LINE
  8
48
 10
-1.774279
 20
0.850019
 30
0.000000
 11
-1.781786
 21
0.842513
 31
0.000000
  0
LINE
  8
48
 10
-1.781786
 20
0.842513
 30
0.000000
 11
-1.804305
 21
0.842513
 31
0.000000
  0
LINE
  8
48
 10
-1.750759
 20
0.857526
 30
0.000000
 11
-1.735746
 21
0.857526
 31
0.000000
  0
LINE
  8
48
 10
-1.735746
 20
0.857526
 30
0.000000
 11
-1.728240
 21
0.850019
 31
0.000000
  0
LINE
  8
48
 10
-1.728240
 20
0.850019
 30
0.000000
 11
-1.728240
 21
0.827500
 31
0.000000
  0
LINE
  8
48
 10
-1.728240
 20
0.827500
 30
0.000000
 11
-1.750759
 21
0.827500
 31
0.000000
  0
LINE
  8
48
 10
-1.750759
 20
0.827500
 30
0.000000
 11
-1.758266
 21
0.835006
 31
0.000000
  0
LINE
  8
48
 10
-1.758266
 20
0.835006
 30
0.000000
 11
-1.750759
 21
0.842513
 31
0.000000
  0
LINE
  8
48
 10
-1.750759
 20
0.842513
 30
0.000000
 11
-1.728240
 21
0.842513
 31
0.000000
  0
LINE
  8
48
 10
-1.712226
 20
0.827500
 30
0.000000
 11
-1.712226
 21
0.857526
 31
0.000000
  0
LINE
  8
48
 10
-1.712226
 20
0.842513
 30
0.000000
 11
-1.697214
 21
0.857526
 31
0.000000
  0
LINE
  8
48
 10
-1.697214
 20
0.857526
 30
0.000000
 11
-1.689707
 21
0.857526
 31
0.000000
  0
LINE
  8
48
 10
-1.666354
 20
0.865032
 30
0.000000
 11
-1.666354
 21
0.835006
 31
0.000000
  0
LINE
  8
48
 10
-1.666354
 20
0.835006
 30
0.000000
 11
-1.658848
 21
0.827500
 31
0.000000
  0
LINE
  8
48
 10
-1.673860
 20
0.857526
 30
0.000000
 11
-1.658848
 21
0.857526
 31
0.000000
  0
LINE
  8
48
 10
-1.597128
 20
0.872538
 30
0.000000
 11
-1.597128
 21
0.827500
 31
0.000000
  0
LINE
  8
48
 10
-1.597128
 20
0.827500
 30
0.000000
 11
-1.574609
 21
0.827500
 31
0.000000
  0
LINE
  8
48
 10
-1.574609
 20
0.827500
 30
0.000000
 11
-1.567103
 21
0.835006
 31
0.000000
  0
LINE
  8
48
 10
-1.567103
 20
0.835006
 30
0.000000
 11
-1.567103
 21
0.865032
 31
0.000000
  0
LINE
  8
48
 10
-1.567103
 20
0.865032
 30
0.000000
 11
-1.574609
 21
0.872538
 31
0.000000
  0
LINE
  8
48
 10
-1.574609
 20
0.872538
 30
0.000000
 11
-1.597128
 21
0.872538
 31
0.000000
  0
LINE
  8
48
 10
-1.490037
 20
0.827500
 30
0.000000
 11
-1.505050
 21
0.827500
 31
0.000000
  0
LINE
  8
48
 10
-1.505050
 20
0.827500
 30
0.000000
 11
-1.505050
 21
0.872538
 31
0.000000
  0
LINE
  8
48
 10
-1.505050
 20
0.872538
 30
0.000000
 11
-1.490037
 21
0.872538
 31
0.000000
  0
LINE
  8
48
 10
-1.451838
 20
0.827500
 30
0.000000
 11
-1.451838
 21
0.872538
 31
0.000000
  0
LINE
  8
48
 10
-1.451838
 20
0.872538
 30
0.000000
 11
-1.474357
 21
0.850019
 31
0.000000
  0
LINE
  8
48
 10
-1.474357
 20
0.850019
 30
0.000000
 11
-1.444331
 21
0.850019
 31
0.000000
  0
LINE
  8
48
 10
-1.352253
 20
0.857526
 30
0.000000
 11
-1.374772
 21
0.857526
 31
0.000000
  0
LINE
  8
48
 10
-1.374772
 20
0.857526
 30
0.000000
 11
-1.382279
 21
0.850019
 31
0.000000
  0
LINE
  8
48
 10
-1.382279
 20
0.850019
 30
0.000000
 11
-1.382279
 21
0.835006
 31
0.000000
  0
LINE
  8
48
 10
-1.382279
 20
0.835006
 30
0.000000
 11
-1.374772
 21
0.827500
 31
0.000000
  0
LINE
  8
48
 10
-1.374772
 20
0.827500
 30
0.000000
 11
-1.352253
 21
0.827500
 31
0.000000
  0
LINE
  8
48
 10
-1.328733
 20
0.827500
 30
0.000000
 11
-1.313720
 21
0.827500
 31
0.000000
  0
LINE
  8
48
 10
-1.313720
 20
0.827500
 30
0.000000
 11
-1.306214
 21
0.835006
 31
0.000000
  0
LINE
  8
48
 10
-1.306214
 20
0.835006
 30
0.000000
 11
-1.306214
 21
0.850019
 31
0.000000
  0
LINE
  8
48
 10
-1.306214
 20
0.850019
 30
0.000000
 11
-1.313720
 21
0.857526
 31
0.000000
  0
LINE
  8
48
 10
-1.313720
 20
0.857526
 30
0.000000
 11
-1.328733
 21
0.857526
 31
0.000000
  0
LINE
  8
48
 10
-1.328733
 20
0.857526
 30
0.000000
 11
-1.336239
 21
0.850019
 31
0.000000
  0
LINE
  8
48
 10
-1.336239
 20
0.850019
 30
0.000000
 11
-1.336239
 21
0.835006
 31
0.000000
  0
LINE
  8
48
 10
-1.336239
 20
0.835006
 30
0.000000
 11
-1.328733
 21
0.827500
 31
0.000000
  0
LINE
  8
48
 10
-1.290200
 20
0.812487
 30
0.000000
 11
-1.290200
 21
0.857526
 31
0.000000
  0
LINE
  8
48
 10
-1.290200
 20
0.857526
 30
0.000000
 11
-1.267681
 21
0.857526
 31
0.000000
  0
LINE
  8
48
 10
-1.267681
 20
0.857526
 30
0.000000
 11
-1.260174
 21
0.850019
 31
0.000000
  0
LINE
  8
48
 10
-1.260174
 20
0.850019
 30
0.000000
 11
-1.260174
 21
0.835006
 31
0.000000
  0
LINE
  8
48
 10
-1.260174
 20
0.835006
 30
0.000000
 11
-1.267681
 21
0.827500
 31
0.000000
  0
LINE
  8
48
 10
-1.267681
 20
0.827500
 30
0.000000
 11
-1.290200
 21
0.827500
 31
0.000000
  0
LINE
  8
48
 10
-1.244161
 20
0.857526
 30
0.000000
 11
-1.236654
 21
0.857526
 31
0.000000
  0
LINE
  8
48
 10
-1.236654
 20
0.857526
 30
0.000000
 11
-1.236654
 21
0.827500
 31
0.000000
  0
LINE
  8
48
 10
-1.244161
 20
0.827500
 30
0.000000
 11
-1.229148
 21
0.827500
 31
0.000000
  0
LINE
  8
48
 10
-1.236654
 20
0.880045
 30
0.000000
 11
-1.236654
 21
0.872538
 31
0.000000
  0
LINE
  8
48
 10
-1.190949
 20
0.827500
 30
0.000000
 11
-1.205962
 21
0.827500
 31
0.000000
  0
LINE
  8
48
 10
-1.205962
 20
0.827500
 30
0.000000
 11
-1.213468
 21
0.835006
 31
0.000000
  0
LINE
  8
48
 10
-1.213468
 20
0.835006
 30
0.000000
 11
-1.213468
 21
0.850019
 31
0.000000
  0
LINE
  8
48
 10
-1.213468
 20
0.850019
 30
0.000000
 11
-1.205962
 21
0.857526
 31
0.000000
  0
LINE
  8
48
 10
-1.205962
 20
0.857526
 30
0.000000
 11
-1.190949
 21
0.857526
 31
0.000000
  0
LINE
  8
48
 10
-1.190949
 20
0.857526
 30
0.000000
 11
-1.183442
 21
0.850019
 31
0.000000
  0
LINE
  8
48
 10
-1.183442
 20
0.850019
 30
0.000000
 11
-1.183442
 21
0.842513
 31
0.000000
  0
LINE
  8
48
 10
-1.183442
 20
0.842513
 30
0.000000
 11
-1.213468
 21
0.842513
 31
0.000000
  0
LINE
  8
48
 10
-1.167429
 20
0.827500
 30
0.000000
 11
-1.144910
 21
0.827500
 31
0.000000
  0
LINE
  8
48
 10
-1.144910
 20
0.827500
 30
0.000000
 11
-1.137403
 21
0.835006
 31
0.000000
  0
LINE
  8
48
 10
-1.137403
 20
0.835006
 30
0.000000
 11
-1.144910
 21
0.842513
 31
0.000000
  0
LINE
  8
48
 10
-1.144910
 20
0.842513
 30
0.000000
 11
-1.159922
 21
0.842513
 31
0.000000
  0
LINE
  8
48
 10
-1.159922
 20
0.842513
 30
0.000000
 11
-1.167429
 21
0.850019
 31
0.000000
  0
LINE
  8
48
 10
-1.167429
 20
0.850019
 30
0.000000
 11
-1.159922
 21
0.857526
 31
0.000000
  0
LINE
  8
48
 10
-1.159922
 20
0.857526
 30
0.000000
 11
-1.137403
 21
0.857526
 31
0.000000
  0
LINE
  8
48
 10
-1.121390
 20
0.827500
 30
0.000000
 11
-1.106377
 21
0.827500
 31
0.000000
  0
LINE
  8
48
 10
-1.106377
 20
0.827500
 30
0.000000
 11
-1.106377
 21
0.872538
 31
0.000000
  0
LINE
  8
48
 10
-1.106377
 20
0.872538
 30
0.000000
 11
-1.121390
 21
0.872538
 31
0.000000
  0
LINE
  8
48
 10
1.697402
 20
0.937500
 30
0.000000
 11
1.697402
 21
1.087628
 31
0.000000
  0
LINE
  8
48
 10
1.697402
 20
1.087628
 30
0.000000
 11
1.772466
 21
1.162692
 31
0.000000
  0
LINE
  8
48
 10
1.772466
 20
1.162692
 30
0.000000
 11
1.847530
 21
1.087628
 31
0.000000
  0
LINE
  8
48
 10
1.847530
 20
1.087628
 30
0.000000
 11
1.847530
 21
0.937500
 31
0.000000
  0
LINE
  8
48
 10
1.697402
 20
1.050096
 30
0.000000
 11
1.847530
 21
1.050096
 31
0.000000
  0
LINE
  8
48
 10
7.097402
 20
0.937500
 30
0.000000
 11
7.097402
 21
1.087628
 31
0.000000
  0
LINE
  8
48
 10
7.097402
 20
1.087628
 30
0.000000
 11
7.172466
 21
1.162692
 31
0.000000
  0
LINE
  8
48
 10
7.172466
 20
1.162692
 30
0.000000
 11
7.247530
 21
1.087628
 31
0.000000
  0
LINE
  8
48
 10
7.247530
 20
1.087628
 30
0.000000
 11
7.247530
 21
0.937500
 31
0.000000
  0
LINE
  8
48
 10
7.097402
 20
1.050096
 30
0.000000
 11
7.247530
 21
1.050096
 31
0.000000
  0
LINE
  8
48
 10
4.397402
 20
1.162692
 30
0.000000
 11
4.397402
 21
0.937500
 31
0.000000
  0
LINE
  8
48
 10
4.397402
 20
0.937500
 30
0.000000
 11
4.509998
 21
0.937500
 31
0.000000
  0
LINE
  8
48
 10
4.509998
 20
0.937500
 30
0.000000
 11
4.547530
 21
0.975032
 31
0.000000
  0
LINE
  8
48
 10
4.547530
 20
0.975032
 30
0.000000
 11
4.547530
 21
1.125160
 31
0.000000
  0
LINE
  8
48
 10
4.547530
 20
1.125160
 30
0.000000
 11
4.509998
 21
1.162692
 31
0.000000
  0
LINE
  8
48
 10
4.509998
 20
1.162692
 30
0.000000
 11
4.397402
 21
1.162692
 31
0.000000
  0
LINE
  8
48
 10
9.797402
 20
1.162692
 30
0.000000
 11
9.797402
 21
0.937500
 31
0.000000
  0
LINE
  8
48
 10
9.797402
 20
0.937500
 30
0.000000
 11
9.909998
 21
0.937500
 31
0.000000
  0
LINE
  8
48
 10
9.909998
 20
0.937500
 30
0.000000
 11
9.947530
 21
0.975032
 31
0.000000
  0
LINE
  8
48
 10
9.947530
 20
0.975032
 30
0.000000
 11
9.947530
 21
1.125160
 31
0.000000
  0
LINE
  8
48
 10
9.947530
 20
1.125160
 30
0.000000
 11
9.909998
 21
1.162692
 31
0.000000
  0
LINE
  8
48
 10
9.909998
 20
1.162692
 30
0.000000
 11
9.797402
 21
1.162692
 31
0.000000
  0
LINE
  8
48
 10
1.697402
 20
5.737500
 30
0.000000
 11
1.697402
 21
5.962692
 31
0.000000
  0
LINE
  8
48
 10
1.697402
 20
5.962692
 30
0.000000
 11
1.809998
 21
5.962692
 31
0.000000
  0
LINE
  8
48
 10
1.809998
 20
5.962692
 30
0.000000
 11
1.847530
 21
5.925160
 31
0.000000
  0
LINE
  8
48
 10
1.847530
 20
5.925160
 30
0.000000
 11
1.847530
 21
5.887628
 31
0.000000
  0
LINE
  8
48
 10
1.847530
 20
5.887628
 30
0.000000
 11
1.809998
 21
5.850096
 31
0.000000
  0
LINE
  8
48
 10
1.809998
 20
5.850096
 30
0.000000
 11
1.847530
 21
5.812564
 31
0.000000
  0
LINE
  8
48
 10
1.847530
 20
5.812564
 30
0.000000
 11
1.847530
 21
5.775032
 31
0.000000
  0
LINE
  8
48
 10
1.847530
 20
5.775032
 30
0.000000
 11
1.809998
 21
5.737500
 31
0.000000
  0
LINE
  8
48
 10
1.809998
 20
5.737500
 30
0.000000
 11
1.697402
 21
5.737500
 31
0.000000
  0
LINE
  8
48
 10
1.697402
 20
5.850096
 30
0.000000
 11
1.809998
 21
5.850096
 31
0.000000
  0
LINE
  8
48
 10
1.697402
 20
4.137500
 30
0.000000
 11
1.697402
 21
4.362692
 31
0.000000
  0
LINE
  8
48
 10
1.697402
 20
4.362692
 30
0.000000
 11
1.809998
 21
4.362692
 31
0.000000
  0
LINE
  8
48
 10
1.809998
 20
4.362692
 30
0.000000
 11
1.847530
 21
4.325160
 31
0.000000
  0
LINE
  8
48
 10
1.847530
 20
4.325160
 30
0.000000
 11
1.847530
 21
4.287628
 31
0.000000
  0
LINE
  8
48
 10
1.847530
 20
4.287628
 30
0.000000
 11
1.809998
 21
4.250096
 31
0.000000
  0
LINE
  8
48
 10
1.809998
 20
4.250096
 30
0.000000
 11
1.847530
 21
4.212564
 31
0.000000
  0
LINE
  8
48
 10
1.847530
 20
4.212564
 30
0.000000
 11
1.847530
 21
4.175032
 31
0.000000
  0
LINE
  8
48
 10
1.847530
 20
4.175032
 30
0.000000
 11
1.809998
 21
4.137500
 31
0.000000
  0
LINE
  8
48
 10
1.809998
 20
4.137500
 30
0.000000
 11
1.697402
 21
4.137500
 31
0.000000
  0
LINE
  8
48
 10
1.697402
 20
4.250096
 30
0.000000
 11
1.809998
 21
4.250096
 31
0.000000
  0
LINE
  8
48
 10
7.097402
 20
4.137500
 30
0.000000
 11
7.097402
 21
4.362692
 31
0.000000
  0
LINE
  8
48
 10
7.097402
 20
4.362692
 30
0.000000
 11
7.209998
 21
4.362692
 31
0.000000
  0
LINE
  8
48
 10
7.209998
 20
4.362692
 30
0.000000
 11
7.247530
 21
4.325160
 31
0.000000
  0
LINE
  8
48
 10
7.247530
 20
4.325160
 30
0.000000
 11
7.247530
 21
4.287628
 31
0.000000
  0
LINE
  8
48
 10
7.247530
 20
4.287628
 30
0.000000
 11
7.209998
 21
4.250096
 31
0.000000
  0
LINE
  8
48
 10
7.209998
 20
4.250096
 30
0.000000
 11
7.247530
 21
4.212564
 31
0.000000
  0
LINE
  8
48
 10
7.247530
 20
4.212564
 30
0.000000
 11
7.247530
 21
4.175032
 31
0.000000
  0
LINE
  8
48
 10
7.247530
 20
4.175032
 30
0.000000
 11
7.209998
 21
4.137500
 31
0.000000
  0
LINE
  8
48
 10
7.209998
 20
4.137500
 30
0.000000
 11
7.097402
 21
4.137500
 31
0.000000
  0
LINE
  8
48
 10
7.097402
 20
4.250096
 30
0.000000
 11
7.209998
 21
4.250096
 31
0.000000
  0
LINE
  8
48
 10
7.097402
 20
2.537500
 30
0.000000
 11
7.097402
 21
2.687628
 31
0.000000
  0
LINE
  8
48
 10
7.097402
 20
2.687628
 30
0.000000
 11
7.172466
 21
2.762692
 31
0.000000
  0
LINE
  8
48
 10
7.172466
 20
2.762692
 30
0.000000
 11
7.247530
 21
2.687628
 31
0.000000
  0
LINE
  8
48
 10
7.247530
 20
2.687628
 30
0.000000
 11
7.247530
 21
2.537500
 31
0.000000
  0
LINE
  8
48
 10
7.097402
 20
2.650096
 30
0.000000
 11
7.247530
 21
2.650096
 31
0.000000
  0
LINE
  8
48
 10
4.547530
 20
4.325160
 30
0.000000
 11
4.509998
 21
4.362692
 31
0.000000
  0
LINE
  8
48
 10
4.509998
 20
4.362692
 30
0.000000
 11
4.434934
 21
4.362692
 31
0.000000
  0
LINE
  8
48
 10
4.434934
 20
4.362692
 30
0.000000
 11
4.397402
 21
4.325160
 31
0.000000
  0
LINE
  8
48
 10
4.397402
 20
4.325160
 30
0.000000
 11
4.397402
 21
4.175032
 31
0.000000
  0
LINE
  8
48
 10
4.397402
 20
4.175032
 30
0.000000
 11
4.434934
 21
4.137500
 31
0.000000
  0
LINE
  8
48
 10
4.434934
 20
4.137500
 30
0.000000
 11
4.509998
 21
4.137500
 31
0.000000
  0
LINE
  8
48
 10
4.509998
 20
4.137500
 30
0.000000
 11
4.547530
 21
4.175032
 31
0.000000
  0
LINE
  8
48
 10
4.397402
 20
2.762692
 30
0.000000
 11
4.397402
 21
2.537500
 31
0.000000
  0
LINE
  8
48
 10
4.397402
 20
2.537500
 30
0.000000
 11
4.509998
 21
2.537500
 31
0.000000
  0
LINE
  8
48
 10
4.509998
 20
2.537500
 30
0.000000
 11
4.547530
 21
2.575032
 31
0.000000
  0
LINE
  8
48
 10
4.547530
 20
2.575032
 30
0.000000
 11
4.547530
 21
2.725160
 31
0.000000
  0
LINE
  8
48
 10
4.547530
 20
2.725160
 30
0.000000
 11
4.509998
 21
2.762692
 31
0.000000
  0
LINE
  8
48
 10
4.509998
 20
2.762692
 30
0.000000
 11
4.397402
 21
2.762692
 31
0.000000
  0
LINE
  8
48
 10
9.797402
 20
2.762692
 30
0.000000
 11
9.797402
 21
2.537500
 31
0.000000
  0
LINE
  8
48
 10
9.797402
 20
2.537500
 30
0.000000
 11
9.909998
 21
2.537500
 31
0.000000
  0
LINE
  8
48
 10
9.909998
 20
2.537500
 30
0.000000
 11
9.947530
 21
2.575032
 31
0.000000
  0
LINE
  8
48
 10
9.947530
 20
2.575032
 30
0.000000
 11
9.947530
 21
2.725160
 31
0.000000
  0
LINE
  8
48
 10
9.947530
 20
2.725160
 30
0.000000
 11
9.909998
 21
2.762692
 31
0.000000
  0
LINE
  8
48
 10
9.909998
 20
2.762692
 30
0.000000
 11
9.797402
 21
2.762692
 31
0.000000
  0
LINE
  8
48
 10
9.947530
 20
4.325160
 30
0.000000
 11
9.909998
 21
4.362692
 31
0.000000
  0
LINE
  8
48
 10
9.909998
 20
4.362692
 30
0.000000
 11
9.834934
 21
4.362692
 31
0.000000
  0
LINE
  8
48
 10
9.834934
 20
4.362692
 30
0.000000
 11
9.797402
 21
4.325160
 31
0.000000
  0
LINE
  8
48
 10
9.797402
 20
4.325160
 30
0.000000
 11
9.797402
 21
4.175032
 31
0.000000
  0
LINE
  8
48
 10
9.797402
 20
4.175032
 30
0.000000
 11
9.834934
 21
4.137500
 31
0.000000
  0
LINE
  8
48
 10
9.834934
 20
4.137500
 30
0.000000
 11
9.909998
 21
4.137500
 31
0.000000
  0
LINE
  8
48
 10
9.909998
 20
4.137500
 30
0.000000
 11
9.947530
 21
4.175032
 31
0.000000
  0
LINE
  8
48
 10
9.947530
 20
5.925160
 30
0.000000
 11
9.909998
 21
5.962692
 31
0.000000
  0
LINE
  8
48
 10
9.909998
 20
5.962692
 30
0.000000
 11
9.834934
 21
5.962692
 31
0.000000
  0
LINE
  8
48
 10
9.834934
 20
5.962692
 30
0.000000
 11
9.797402
 21
5.925160
 31
0.000000
  0
LINE
  8
48
 10
9.797402
 20
5.925160
 30
0.000000
 11
9.797402
 21
5.775032
 31
0.000000
  0
LINE
  8
48
 10
9.797402
 20
5.775032
 30
0.000000
 11
9.834934
 21
5.737500
 31
0.000000
  0
LINE
  8
48
 10
9.834934
 20
5.737500
 30
0.000000
 11
9.909998
 21
5.737500
 31
0.000000
  0
LINE
  8
48
 10
9.909998
 20
5.737500
 30
0.000000
 11
9.947530
 21
5.775032
 31
0.000000
  0
LINE
  8
48
 10
9.947530
 20
7.525160
 30
0.000000
 11
9.909998
 21
7.562692
 31
0.000000
  0
LINE
  8
48
 10
9.909998
 20
7.562692
 30
0.000000
 11
9.834934
 21
7.562692
 31
0.000000
  0
LINE
  8
48
 10
9.834934
 20
7.562692
 30
0.000000
 11
9.797402
 21
7.525160
 31
0.000000
  0
LINE
  8
48
 10
9.797402
 20
7.525160
 30
0.000000
 11
9.797402
 21
7.375032
 31
0.000000
  0
LINE
  8
48
 10
9.797402
 20
7.375032
 30
0.000000
 11
9.834934
 21
7.337500
 31
0.000000
  0
LINE
  8
48
 10
9.834934
 20
7.337500
 30
0.000000
 11
9.909998
 21
7.337500
 31
0.000000
  0
LINE
  8
48
 10
9.909998
 20
7.337500
 30
0.000000
 11
9.947530
 21
7.375032
 31
0.000000
  0
LINE
  8
48
 10
9.947530
 20
9.125160
 30
0.000000
 11
9.909998
 21
9.162692
 31
0.000000
  0
LINE
  8
48
 10
9.909998
 20
9.162692
 30
0.000000
 11
9.834934
 21
9.162692
 31
0.000000
  0
LINE
  8
48
 10
9.834934
 20
9.162692
 30
0.000000
 11
9.797402
 21
9.125160
 31
0.000000
  0
LINE
  8
48
 10
9.797402
 20
9.125160
 30
0.000000
 11
9.797402
 21
8.975032
 31
0.000000
  0
LINE
  8
48
 10
9.797402
 20
8.975032
 30
0.000000
 11
9.834934
 21
8.937500
 31
0.000000
  0
LINE
  8
48
 10
9.834934
 20
8.937500
 30
0.000000
 11
9.909998
 21
8.937500
 31
0.000000
  0
LINE
  8
48
 10
9.909998
 20
8.937500
 30
0.000000
 11
9.947530
 21
8.975032
 31
0.000000
  0
LINE
  8
48
 10
9.947530
 20
10.725160
 30
0.000000
 11
9.909998
 21
10.762692
 31
0.000000
  0
LINE
  8
48
 10
9.909998
 20
10.762692
 30
0.000000
 11
9.834934
 21
10.762692
 31
0.000000
  0
LINE
  8
48
 10
9.834934
 20
10.762692
 30
0.000000
 11
9.797402
 21
10.725160
 31
0.000000
  0
LINE
  8
48
 10
9.797402
 20
10.725160
 30
0.000000
 11
9.797402
 21
10.575032
 31
0.000000
  0
LINE
  8
48
 10
9.797402
 20
10.575032
 30
0.000000
 11
9.834934
 21
10.537500
 31
0.000000
  0
LINE
  8
48
 10
9.834934
 20
10.537500
 30
0.000000
 11
9.909998
 21
10.537500
 31
0.000000
  0
LINE
  8
48
 10
9.909998
 20
10.537500
 30
0.000000
 11
9.947530
 21
10.575032
 31
0.000000
  0
LINE
  8
48
 10
7.097402
 20
5.737500
 30
0.000000
 11
7.097402
 21
5.962692
 31
0.000000
  0
LINE
  8
48
 10
7.097402
 20
5.962692
 30
0.000000
 11
7.209998
 21
5.962692
 31
0.000000
  0
LINE
  8
48
 10
7.209998
 20
5.962692
 30
0.000000
 11
7.247530
 21
5.925160
 31
0.000000
  0
LINE
  8
48
 10
7.247530
 20
5.925160
 30
0.000000
 11
7.247530
 21
5.887628
 31
0.000000
  0
LINE
  8
48
 10
7.247530
 20
5.887628
 30
0.000000
 11
7.209998
 21
5.850096
 31
0.000000
  0
LINE
  8
48
 10
7.209998
 20
5.850096
 30
0.000000
 11
7.247530
 21
5.812564
 31
0.000000
  0
LINE
  8
48
 10
7.247530
 20
5.812564
 30
0.000000
 11
7.247530
 21
5.775032
 31
0.000000
  0
LINE
  8
48
 10
7.247530
 20
5.775032
 30
0.000000
 11
7.209998
 21
5.737500
 31
0.000000
  0
LINE
  8
48
 10
7.209998
 20
5.737500
 30
0.000000
 11
7.097402
 21
5.737500
 31
0.000000
  0
LINE
  8
48
 10
7.097402
 20
5.850096
 30
0.000000
 11
7.209998
 21
5.850096
 31
0.000000
  0
LINE
  8
48
 10
7.247530
 20
7.525160
 30
0.000000
 11
7.209998
 21
7.562692
 31
0.000000
  0
LINE
  8
48
 10
7.209998
 20
7.562692
 30
0.000000
 11
7.134934
 21
7.562692
 31
0.000000
  0
LINE
  8
48
 10
7.134934
 20
7.562692
 30
0.000000
 11
7.097402
 21
7.525160
 31
0.000000
  0
LINE
  8
48
 10
7.097402
 20
7.525160
 30
0.000000
 11
7.097402
 21
7.375032
 31
0.000000
  0
LINE
  8
48
 10
7.097402
 20
7.375032
 30
0.000000
 11
7.134934
 21
7.337500
 31
0.000000
  0
LINE
  8
48
 10
7.134934
 20
7.337500
 30
0.000000
 11
7.209998
 21
7.337500
 31
0.000000
  0
LINE
  8
48
 10
7.209998
 20
7.337500
 30
0.000000
 11
7.247530
 21
7.375032
 31
0.000000
  0
LINE
  8
48
 10
7.247530
 20
9.125160
 30
0.000000
 11
7.209998
 21
9.162692
 31
0.000000
  0
LINE
  8
48
 10
7.209998
 20
9.162692
 30
0.000000
 11
7.134934
 21
9.162692
 31
0.000000
  0
LINE
  8
48
 10
7.134934
 20
9.162692
 30
0.000000
 11
7.097402
 21
9.125160
 31
0.000000
  0
LINE
  8
48
 10
7.097402
 20
9.125160
 30
0.000000
 11
7.097402
 21
8.975032
 31
0.000000
  0
LINE
  8
48
 10
7.097402
 20
8.975032
 30
0.000000
 11
7.134934
 21
8.937500
 31
0.000000
  0
LINE
  8
48
 10
7.134934
 20
8.937500
 30
0.000000
 11
7.209998
 21
8.937500
 31
0.000000
  0
LINE
  8
48
 10
7.209998
 20
8.937500
 30
0.000000
 11
7.247530
 21
8.975032
 31
0.000000
  0
LINE
  8
48
 10
7.247530
 20
10.725160
 30
0.000000
 11
7.209998
 21
10.762692
 31
0.000000
  0
LINE
  8
48
 10
7.209998
 20
10.762692
 30
0.000000
 11
7.134934
 21
10.762692
 31
0.000000
  0
LINE
  8
48
 10
7.134934
 20
10.762692
 30
0.000000
 11
7.097402
 21
10.725160
 31
0.000000
  0
LINE
  8
48
 10
7.097402
 20
10.725160
 30
0.000000
 11
7.097402
 21
10.575032
 31
0.000000
  0
LINE
  8
48
 10
7.097402
 20
10.575032
 30
0.000000
 11
7.134934
 21
10.537500
 31
0.000000
  0
LINE
  8
48
 10
7.134934
 20
10.537500
 30
0.000000
 11
7.209998
 21
10.537500
 31
0.000000
  0
LINE
  8
48
 10
7.209998
 20
10.537500
 30
0.000000
 11
7.247530
 21
10.575032
 31
0.000000
  0
LINE
  8
48
 10
4.547530
 20
5.925160
 30
0.000000
 11
4.509998
 21
5.962692
 31
0.000000
  0
LINE
  8
48
 10
4.509998
 20
5.962692
 30
0.000000
 11
4.434934
 21
5.962692
 31
0.000000
  0
LINE
  8
48
 10
4.434934
 20
5.962692
 30
0.000000
 11
4.397402
 21
5.925160
 31
0.000000
  0
LINE
  8
48
 10
4.397402
 20
5.925160
 30
0.000000
 11
4.397402
 21
5.775032
 31
0.000000
  0
LINE
  8
48
 10
4.397402
 20
5.775032
 30
0.000000
 11
4.434934
 21
5.737500
 31
0.000000
  0
LINE
  8
48
 10
4.434934
 20
5.737500
 30
0.000000
 11
4.509998
 21
5.737500
 31
0.000000
  0
LINE
  8
48
 10
4.509998
 20
5.737500
 30
0.000000
 11
4.547530
 21
5.775032
 31
0.000000
  0
LINE
  8
48
 10
4.547530
 20
7.525160
 30
0.000000
 11
4.509998
 21
7.562692
 31
0.000000
  0
LINE
  8
48
 10
4.509998
 20
7.562692
 30
0.000000
 11
4.434934
 21
7.562692
 31
0.000000
  0
LINE
  8
48
 10
4.434934
 20
7.562692
 30
0.000000
 11
4.397402
 21
7.525160
 31
0.000000
  0
LINE
  8
48
 10
4.397402
 20
7.525160
 30
0.000000
 11
4.397402
 21
7.375032
 31
0.000000
  0
LINE
  8
48
 10
4.397402
 20
7.375032
 30
0.000000
 11
4.434934
 21
7.337500
 31
0.000000
  0
LINE
  8
48
 10
4.434934
 20
7.337500
 30
0.000000
 11
4.509998
 21
7.337500
 31
0.000000
  0
LINE
  8
48
 10
4.509998
 20
7.337500
 30
0.000000
 11
4.547530
 21
7.375032
 31
0.000000
  0
LINE
  8
48
 10
4.547530
 20
9.125160
 30
0.000000
 11
4.509998
 21
9.162692
 31
0.000000
  0
LINE
  8
48
 10
4.509998
 20
9.162692
 30
0.000000
 11
4.434934
 21
9.162692
 31
0.000000
  0
LINE
  8
48
 10
4.434934
 20
9.162692
 30
0.000000
 11
4.397402
 21
9.125160
 31
0.000000
  0
LINE
  8
48
 10
4.397402
 20
9.125160
 30
0.000000
 11
4.397402
 21
8.975032
 31
0.000000
  0
LINE
  8
48
 10
4.397402
 20
8.975032
 30
0.000000
 11
4.434934
 21
8.937500
 31
0.000000
  0
LINE
  8
48
 10
4.434934
 20
8.937500
 30
0.000000
 11
4.509998
 21
8.937500
 31
0.000000
  0
LINE
  8
48
 10
4.509998
 20
8.937500
 30
0.000000
 11
4.547530
 21
8.975032
 31
0.000000
  0
LINE
  8
48
 10
4.547530
 20
10.725160
 30
0.000000
 11
4.509998
 21
10.762692
 31
0.000000
  0
LINE
  8
48
 10
4.509998
 20
10.762692
 30
0.000000
 11
4.434934
 21
10.762692
 31
0.000000
  0
LINE
  8
48
 10
4.434934
 20
10.762692
 30
0.000000
 11
4.397402
 21
10.725160
 31
0.000000
  0
LINE
  8
48
 10
4.397402
 20
10.725160
 30
0.000000
 11
4.397402
 21
10.575032
 31
0.000000
  0
LINE
  8
48
 10
4.397402
 20
10.575032
 30
0.000000
 11
4.434934
 21
10.537500
 31
0.000000
  0
LINE
  8
48
 10
4.434934
 20
10.537500
 30
0.000000
 11
4.509998
 21
10.537500
 31
0.000000
  0
LINE
  8
48
 10
4.509998
 20
10.537500
 30
0.000000
 11
4.547530
 21
10.575032
 31
0.000000
  0
LINE
  8
48
 10
1.847530
 20
7.525160
 30
0.000000
 11
1.809998
 21
7.562692
 31
0.000000
  0
LINE
  8
48
 10
1.809998
 20
7.562692
 30
0.000000
 11
1.734934
 21
7.562692
 31
0.000000
  0
LINE
  8
48
 10
1.734934
 20
7.562692
 30
0.000000
 11
1.697402
 21
7.525160
 31
0.000000
  0
LINE
  8
48
 10
1.697402
 20
7.525160
 30
0.000000
 11
1.697402
 21
7.375032
 31
0.000000
  0
LINE
  8
48
 10
1.697402
 20
7.375032
 30
0.000000
 11
1.734934
 21
7.337500
 31
0.000000
  0
LINE
  8
48
 10
1.734934
 20
7.337500
 30
0.000000
 11
1.809998
 21
7.337500
 31
0.000000
  0
LINE
  8
48
 10
1.809998
 20
7.337500
 30
0.000000
 11
1.847530
 21
7.375032
 31
0.000000
  0
LINE
  8
48
 10
1.847530
 20
9.125160
 30
0.000000
 11
1.809998
 21
9.162692
 31
0.000000
  0
LINE
  8
48
 10
1.809998
 20
9.162692
 30
0.000000
 11
1.734934
 21
9.162692
 31
0.000000
  0
LINE
  8
48
 10
1.734934
 20
9.162692
 30
0.000000
 11
1.697402
 21
9.125160
 31
0.000000
  0
LINE
  8
48
 10
1.697402
 20
9.125160
 30
0.000000
 11
1.697402
 21
8.975032
 31
0.000000
  0
LINE
  8
48
 10
1.697402
 20
8.975032
 30
0.000000
 11
1.734934
 21
8.937500
 31
0.000000
  0
LINE
  8
48
 10
1.734934
 20
8.937500
 30
0.000000
 11
1.809998
 21
8.937500
 31
0.000000
  0
LINE
  8
48
 10
1.809998
 20
8.937500
 30
0.000000
 11
1.847530
 21
8.975032
 31
0.000000
  0
LINE
  8
48
 10
1.847530
 20
10.725160
 30
0.000000
 11
1.809998
 21
10.762692
 31
0.000000
  0
LINE
  8
48
 10
1.809998
 20
10.762692
 30
0.000000
 11
1.734934
 21
10.762692
 31
0.000000
  0
LINE
  8
48
 10
1.734934
 20
10.762692
 30
0.000000
 11
1.697402
 21
10.725160
 31
0.000000
  0
LINE
  8
48
 10
1.697402
 20
10.725160
 30
0.000000
 11
1.697402
 21
10.575032
 31
0.000000
  0
LINE
  8
48
 10
1.697402
 20
10.575032
 30
0.000000
 11
1.734934
 21
10.537500
 31
0.000000
  0
LINE
  8
48
 10
1.734934
 20
10.537500
 30
0.000000
 11
1.809998
 21
10.537500
 31
0.000000
  0
LINE
  8
48
 10
1.809998
 20
10.537500
 30
0.000000
 11
1.847530
 21
10.575032
 31
0.000000
  0
LINE
  8
48
 10
-2.234057
 20
-0.187308
 30
0.000000
 11
-2.309121
 21
-0.187308
 31
0.000000
  0
LINE
  8
48
 10
-2.309121
 20
-0.187308
 30
0.000000
 11
-2.346653
 21
-0.224840
 31
0.000000
  0
LINE
  8
48
 10
-2.346653
 20
-0.224840
 30
0.000000
 11
-2.346653
 21
-0.374968
 31
0.000000
  0
LINE
  8
48
 10
-2.346653
 20
-0.374968
 30
0.000000
 11
-2.309121
 21
-0.412500
 31
0.000000
  0
LINE
  8
48
 10
-2.309121
 20
-0.412500
 30
0.000000
 11
-2.234057
 21
-0.412500
 31
0.000000
  0
LINE
  8
48
 10
-2.234057
 20
-0.412500
 30
0.000000
 11
-2.196525
 21
-0.374968
 31
0.000000
  0
LINE
  8
48
 10
-2.196525
 20
-0.374968
 30
0.000000
 11
-2.196525
 21
-0.224840
 31
0.000000
  0
LINE
  8
48
 10
-2.196525
 20
-0.224840
 30
0.000000
 11
-2.234057
 21
-0.187308
 31
0.000000
  0
LINE
  8
48
 10
-2.116456
 20
-0.412500
 30
0.000000
 11
-2.116456
 21
-0.187308
 31
0.000000
  0
LINE
  8
48
 10
-2.116456
 20
-0.187308
 30
0.000000
 11
-2.003860
 21
-0.187308
 31
0.000000
  0
LINE
  8
48
 10
-2.003860
 20
-0.187308
 30
0.000000
 11
-1.966328
 21
-0.224840
 31
0.000000
  0
LINE
  8
48
 10
-1.966328
 20
-0.224840
 30
0.000000
 11
-1.966328
 21
-0.299904
 31
0.000000
  0
LINE
  8
48
 10
-1.966328
 20
-0.299904
 30
0.000000
 11
-2.003860
 21
-0.337436
 31
0.000000
  0
LINE
  8
48
 10
-2.003860
 20
-0.337436
 30
0.000000
 11
-2.116456
 21
-0.337436
 31
0.000000
  0
LINE
  8
48
 10
-2.041392
 20
-0.337436
 30
0.000000
 11
-1.966328
 21
-0.412500
 31
0.000000
  0
LINE
  8
48
 10
-1.886260
 20
-0.412500
 30
0.000000
 11
-1.811195
 21
-0.412500
 31
0.000000
  0
LINE
  8
48
 10
-1.848728
 20
-0.412500
 30
0.000000
 11
-1.848728
 21
-0.187308
 31
0.000000
  0
LINE
  8
48
 10
-1.886260
 20
-0.187308
 30
0.000000
 11
-1.811195
 21
-0.187308
 31
0.000000
  0
LINE
  8
48
 10
-1.582667
 20
-0.224840
 30
0.000000
 11
-1.620199
 21
-0.187308
 31
0.000000
  0
LINE
  8
48
 10
-1.620199
 20
-0.187308
 30
0.000000
 11
-1.695263
 21
-0.187308
 31
0.000000
  0
LINE
  8
48
 10
-1.695263
 20
-0.187308
 30
0.000000
 11
-1.732795
 21
-0.224840
 31
0.000000
  0
LINE
  8
48
 10
-1.732795
 20
-0.224840
 30
0.000000
 11
-1.732795
 21
-0.374968
 31
0.000000
  0
LINE
  8
48
 10
-1.732795
 20
-0.374968
 30
0.000000
 11
-1.695263
 21
-0.412500
 31
0.000000
  0
LINE
  8
48
 10
-1.695263
 20
-0.412500
 30
0.000000
 11
-1.620199
 21
-0.412500
 31
0.000000
  0
LINE
  8
48
 10
-1.620199
 20
-0.412500
 30
0.000000
 11
-1.582667
 21
-0.374968
 31
0.000000
  0
LINE
  8
48
 10
-1.582667
 20
-0.374968
 30
0.000000
 11
-1.582667
 21
-0.299904
 31
0.000000
  0
LINE
  8
48
 10
-1.582667
 20
-0.299904
 30
0.000000
 11
-1.657731
 21
-0.299904
 31
0.000000
  0
LINE
  8
48
 10
-1.502598
 20
-0.412500
 30
0.000000
 11
-1.427534
 21
-0.412500
 31
0.000000
  0
LINE
  8
48
 10
-1.465066
 20
-0.412500
 30
0.000000
 11
-1.465066
 21
-0.187308
 31
0.000000
  0
LINE
  8
48
 10
-1.502598
 20
-0.187308
 30
0.000000
 11
-1.427534
 21
-0.187308
 31
0.000000
  0
LINE
  8
48
 10
-1.349134
 20
-0.412500
 30
0.000000
 11
-1.349134
 21
-0.187308
 31
0.000000
  0
LINE
  8
48
 10
-1.349134
 20
-0.187308
 30
0.000000
 11
-1.199006
 21
-0.412500
 31
0.000000
  0
LINE
  8
48
 10
-1.199006
 20
-0.412500
 30
0.000000
 11
-1.199006
 21
-0.187308
 31
0.000000
  0
LINE
  8
48
 10
-1.118937
 20
-0.412500
 30
0.000000
 11
-1.118937
 21
-0.262372
 31
0.000000
  0
LINE
  8
48
 10
-1.118937
 20
-0.262372
 30
0.000000
 11
-1.043873
 21
-0.187308
 31
0.000000
  0
LINE
  8
48
 10
-1.043873
 20
-0.187308
 30
0.000000
 11
-0.968809
 21
-0.262372
 31
0.000000
  0
LINE
  8
48
 10
-0.968809
 20
-0.262372
 30
0.000000
 11
-0.968809
 21
-0.412500
 31
0.000000
  0
LINE
  8
48
 10
-1.118937
 20
-0.299904
 30
0.000000
 11
-0.968809
 21
-0.299904
 31
0.000000
  0
LINE
  8
48
 10
-0.888741
 20
-0.187308
 30
0.000000
 11
-0.888741
 21
-0.412500
 31
0.000000
  0
LINE
  8
48
 10
-0.888741
 20
-0.412500
 30
0.000000
 11
-0.738612
 21
-0.412500
 31
0.000000
  0
LINE
  8
48
 10
-0.508416
 20
-0.224840
 30
0.000000
 11
-0.545948
 21
-0.187308
 31
0.000000
  0
LINE
  8
48
 10
-0.545948
 20
-0.187308
 30
0.000000
 11
-0.621012
 21
-0.187308
 31
0.000000
  0
LINE
  8
48
 10
-0.621012
 20
-0.187308
 30
0.000000
 11
-0.658544
 21
-0.224840
 31
0.000000
  0
LINE
  8
48
 10
-0.658544
 20
-0.224840
 30
0.000000
 11
-0.658544
 21
-0.262372
 31
0.000000
  0
LINE
  8
48
 10
-0.658544
 20
-0.262372
 30
0.000000
 11
-0.621012
 21
-0.299904
 31
0.000000
  0
LINE
  8
48
 10
-0.621012
 20
-0.299904
 30
0.000000
 11
-0.545948
 21
-0.299904
 31
0.000000
  0
LINE
  8
48
 10
-0.545948
 20
-0.299904
 30
0.000000
 11
-0.508416
 21
-0.337436
 31
0.000000
  0
LINE
  8
48
 10
-0.508416
 20
-0.337436
 30
0.000000
 11
-0.508416
 21
-0.374968
 31
0.000000
  0
LINE
  8
48
 10
-0.508416
 20
-0.374968
 30
0.000000
 11
-0.545948
 21
-0.412500
 31
0.000000
  0
LINE
  8
48
 10
-0.545948
 20
-0.412500
 30
0.000000
 11
-0.621012
 21
-0.412500
 31
0.000000
  0
LINE
  8
48
 10
-0.621012
 20
-0.412500
 30
0.000000
 11
-0.658544
 21
-0.374968
 31
0.000000
  0
LINE
  8
48
 10
5.221910
 20
-0.087308
 30
0.000000
 11
5.221910
 21
-0.312500
 31
0.000000
  0
LINE
  8
48
 10
5.221910
 20
-0.312500
 30
0.000000
 11
5.372038
 21
-0.312500
 31
0.000000
  0
LINE
  8
48
 10
5.452107
 20
-0.312500
 30
0.000000
 11
5.452107
 21
-0.162372
 31
0.000000
  0
LINE
  8
48
 10
5.452107
 20
-0.162372
 30
0.000000
 11
5.527171
 21
-0.087308
 31
0.000000
  0
LINE
  8
48
 10
5.527171
 20
-0.087308
 30
0.000000
 11
5.602235
 21
-0.162372
 31
0.000000
  0
LINE
  8
48
 10
5.602235
 20
-0.162372
 30
0.000000
 11
5.602235
 21
-0.312500
 31
0.000000
  0
LINE
  8
48
 10
5.452107
 20
-0.199904
 30
0.000000
 11
5.602235
 21
-0.199904
 31
0.000000
  0
LINE
  8
48
 10
5.682303
 20
-0.087308
 30
0.000000
 11
5.682303
 21
-0.124840
 31
0.000000
  0
LINE
  8
48
 10
5.682303
 20
-0.124840
 30
0.000000
 11
5.757367
 21
-0.199904
 31
0.000000
  0
LINE
  8
48
 10
5.757367
 20
-0.199904
 30
0.000000
 11
5.832431
 21
-0.124840
 31
0.000000
  0
LINE
  8
48
 10
5.832431
 20
-0.124840
 30
0.000000
 11
5.832431
 21
-0.087308
 31
0.000000
  0
LINE
  8
48
 10
5.757367
 20
-0.199904
 30
0.000000
 11
5.757367
 21
-0.312500
 31
0.000000
  0
LINE
  8
48
 10
6.025096
 20
-0.087308
 30
0.000000
 11
5.950032
 21
-0.087308
 31
0.000000
  0
LINE
  8
48
 10
5.950032
 20
-0.087308
 30
0.000000
 11
5.912500
 21
-0.124840
 31
0.000000
  0
LINE
  8
48
 10
5.912500
 20
-0.124840
 30
0.000000
 11
5.912500
 21
-0.274968
 31
0.000000
  0
LINE
  8
48
 10
5.912500
 20
-0.274968
 30
0.000000
 11
5.950032
 21
-0.312500
 31
0.000000
  0
LINE
  8
48
 10
5.950032
 20
-0.312500
 30
0.000000
 11
6.025096
 21
-0.312500
 31
0.000000
  0
LINE
  8
48
 10
6.025096
 20
-0.312500
 30
0.000000
 11
6.062628
 21
-0.274968
 31
0.000000
  0
LINE
  8
48
 10
6.062628
 20
-0.274968
 30
0.000000
 11
6.062628
 21
-0.124840
 31
0.000000
  0
LINE
  8
48
 10
6.062628
 20
-0.124840
 30
0.000000
 11
6.025096
 21
-0.087308
 31
0.000000
  0
LINE
  8
48
 10
6.142697
 20
-0.087308
 30
0.000000
 11
6.142697
 21
-0.274968
 31
0.000000
  0
LINE
  8
48
 10
6.142697
 20
-0.274968
 30
0.000000
 11
6.180229
 21
-0.312500
 31
0.000000
  0
LINE
  8
48
 10
6.180229
 20
-0.312500
 30
0.000000
 11
6.255293
 21
-0.312500
 31
0.000000
  0
LINE
  8
48
 10
6.255293
 20
-0.312500
 30
0.000000
 11
6.292825
 21
-0.274968
 31
0.000000
  0
LINE
  8
48
 10
6.292825
 20
-0.274968
 30
0.000000
 11
6.292825
 21
-0.087308
 31
0.000000
  0
LINE
  8
48
 10
6.447958
 20
-0.312500
 30
0.000000
 11
6.447958
 21
-0.087308
 31
0.000000
  0
LINE
  8
48
 10
6.372893
 20
-0.087308
 30
0.000000
 11
6.523022
 21
-0.087308
 31
0.000000
  0
LINE
  8
49
 10
-2.246416
 20
5.507000
 30
0.000000
 11
-2.246416
 21
5.531020
 31
0.000000
  0
LINE
  8
49
 10
-2.246416
 20
5.531020
 30
0.000000
 11
-2.234406
 21
5.543031
 31
0.000000
  0
LINE
  8
49
 10
-2.234406
 20
5.543031
 30
0.000000
 11
-2.222395
 21
5.531020
 31
0.000000
  0
LINE
  8
49
 10
-2.222395
 20
5.531020
 30
0.000000
 11
-2.222395
 21
5.507000
 31
0.000000
  0
LINE
  8
49
 10
-2.246416
 20
5.525015
 30
0.000000
 11
-2.222395
 21
5.525015
 31
0.000000
  0
LINE
  8
49
 10
-2.246416
 20
5.332000
 30
0.000000
 11
-2.246416
 21
5.368031
 31
0.000000
  0
LINE
  8
49
 10
-2.246416
 20
5.368031
 30
0.000000
 11
-2.228400
 21
5.368031
 31
0.000000
  0
LINE
  8
49
 10
-2.228400
 20
5.368031
 30
0.000000
 11
-2.222395
 21
5.362026
 31
0.000000
  0
LINE
  8
49
 10
-2.222395
 20
5.362026
 30
0.000000
 11
-2.222395
 21
5.356020
 31
0.000000
  0
LINE
  8
49
 10
-2.222395
 20
5.356020
 30
0.000000
 11
-2.228400
 21
5.350015
 31
0.000000
  0
LINE
  8
49
 10
-2.228400
 20
5.350015
 30
0.000000
 11
-2.222395
 21
5.344010
 31
0.000000
  0
LINE
  8
49
 10
-2.222395
 20
5.344010
 30
0.000000
 11
-2.222395
 21
5.338005
 31
0.000000
  0
LINE
  8
49
 10
-2.222395
 20
5.338005
 30
0.000000
 11
-2.228400
 21
5.332000
 31
0.000000
  0
LINE
  8
49
 10
-2.228400
 20
5.332000
 30
0.000000
 11
-2.246416
 21
5.332000
 31
0.000000
  0
LINE
  8
49
 10
-2.246416
 20
5.350015
 30
0.000000
 11
-2.228400
 21
5.350015
 31
0.000000
  0
LINE
  8
49
 10
-2.222395
 20
5.187026
 30
0.000000
 11
-2.228400
 21
5.193031
 31
0.000000
  0
LINE
  8
49
 10
-2.228400
 20
5.193031
 30
0.000000
 11
-2.240411
 21
5.193031
 31
0.000000
  0
LINE
  8
49
 10
-2.240411
 20
5.193031
 30
0.000000
 11
-2.246416
 21
5.187026
 31
0.000000
  0
LINE
  8
49
 10
-2.246416
 20
5.187026
 30
0.000000
 11
-2.246416
 21
5.163005
 31
0.000000
  0
LINE
  8
49
 10
-2.246416
 20
5.163005
 30
0.000000
 11
-2.240411
 21
5.157000
 31
0.000000
  0
LINE
  8
49
 10
-2.240411
 20
5.157000
 30
0.000000
 11
-2.228400
 21
5.157000
 31
0.000000
  0
LINE
  8
49
 10
-2.228400
 20
5.157000
 30
0.000000
 11
-2.222395
 21
5.163005
 31
0.000000
  0
LINE
  8
49
 10
-2.099935
 20
5.696500
 30
0.000000
 11
-2.099935
 21
5.723523
 31
0.000000
  0
LINE
  8
49
 10
-2.099935
 20
5.723523
 30
0.000000
 11
-2.086424
 21
5.723523
 31
0.000000
  0
LINE
  8
49
 10
-2.086424
 20
5.723523
 30
0.000000
 11
-2.081920
 21
5.719019
 31
0.000000
  0
LINE
  8
49
 10
-2.081920
 20
5.719019
 30
0.000000
 11
-2.081920
 21
5.710011
 31
0.000000
  0
LINE
  8
49
 10
-2.081920
 20
5.710011
 30
0.000000
 11
-2.086424
 21
5.705508
 31
0.000000
  0
LINE
  8
49
 10
-2.086424
 20
5.705508
 30
0.000000
 11
-2.099935
 21
5.705508
 31
0.000000
  0
LINE
  8
49
 10
-2.090928
 20
5.705508
 30
0.000000
 11
-2.081920
 21
5.696500
 31
0.000000
  0
LINE
  8
49
 10
-2.054297
 20
5.719019
 30
0.000000
 11
-2.058800
 21
5.723523
 31
0.000000
  0
LINE
  8
49
 10
-2.058800
 20
5.723523
 30
0.000000
 11
-2.067808
 21
5.723523
 31
0.000000
  0
LINE
  8
49
 10
-2.067808
 20
5.723523
 30
0.000000
 11
-2.072312
 21
5.719019
 31
0.000000
  0
LINE
  8
49
 10
-2.072312
 20
5.719019
 30
0.000000
 11
-2.072312
 21
5.714515
 31
0.000000
  0
LINE
  8
49
 10
-2.072312
 20
5.714515
 30
0.000000
 11
-2.067808
 21
5.710011
 31
0.000000
  0
LINE
  8
49
 10
-2.067808
 20
5.710011
 30
0.000000
 11
-2.058800
 21
5.710011
 31
0.000000
  0
LINE
  8
49
 10
-2.058800
 20
5.710011
 30
0.000000
 11
-2.054297
 21
5.705508
 31
0.000000
  0
LINE
  8
49
 10
-2.054297
 20
5.705508
 30
0.000000
 11
-2.054297
 21
5.701004
 31
0.000000
  0
LINE
  8
49
 10
-2.054297
 20
5.701004
 30
0.000000
 11
-2.058800
 21
5.696500
 31
0.000000
  0
LINE
  8
49
 10
-2.058800
 20
5.696500
 30
0.000000
 11
-2.067808
 21
5.696500
 31
0.000000
  0
LINE
  8
49
 10
-2.067808
 20
5.696500
 30
0.000000
 11
-2.072312
 21
5.701004
 31
0.000000
  0
LINE
  8
49
 10
-2.035681
 20
5.696500
 30
0.000000
 11
-2.035681
 21
5.723523
 31
0.000000
  0
LINE
  8
49
 10
-2.044688
 20
5.723523
 30
0.000000
 11
-2.026673
 21
5.723523
 31
0.000000
  0
LINE
  8
48
 10
1.697402
 20
2.537500
 30
0.000000
 11
1.697402
 21
2.687628
 31
0.000000
  0
LINE
  8
48
 10
1.697402
 20
2.687628
 30
0.000000
 11
1.772466
 21
2.762692
 31
0.000000
  0
LINE
  8
48
 10
1.772466
 20
2.762692
 30
0.000000
 11
1.847530
 21
2.687628
 31
0.000000
  0
LINE
  8
48
 10
1.847530
 20
2.687628
 30
0.000000
 11
1.847530
 21
2.537500
 31
0.000000
  0
LINE
  8
48
 10
1.697402
 20
2.650096
 30
0.000000
 11
1.847530
 21
2.650096
 31
0.000000
  0
CIRCLE
  8
20
 10
-2.475000
 20
4.375000
 30
0.000000
 40
0.050000
  0
CIRCLE
  8
20
 10
-0.325000
 20
4.375000
 30
0.000000
 40
0.050000
  0
CIRCLE
  8
20
 10
-0.325000
 20
3.325000
 30
0.000000
 40
0.050000
  0
CIRCLE
  8
20
 10
-2.475000
 20
3.325000
 30
0.000000
 40
0.050000
  0
CIRCLE
  8
20
 10
-2.475000
 20
2.875000
 30
0.000000
 40
0.050000
  0
CIRCLE
  8
20
 10
-0.325000
 20
2.875000
 30
0.000000
 40
0.050000
  0
CIRCLE
  8
20
 10
-0.325000
 20
1.825000
 30
0.000000
 40
0.050000
  0
CIRCLE
  8
20
 10
-2.475000
 20
1.825000
 30
0.000000
 40
0.050000
  0
CIRCLE
  8
20
 10
-2.475000
 20
5.875000
 30
0.000000
 40
0.050000
  0
CIRCLE
  8
20
 10
-0.325000
 20
5.875000
 30
0.000000
 40
0.050000
  0
CIRCLE
  8
20
 10
-0.325000
 20
4.825000
 30
0.000000
 40
0.050000
  0
CIRCLE
  8
20
 10
-2.475000
 20
4.825000
 30
0.000000
 40
0.050000
  0
CIRCLE
  8
49
 10
-2.300000
 20
5.000000
 30
0.000000
 40
0.050000
  0
CIRCLE
  8
49
 10
-2.300000
 20
5.700000
 30
0.000000
 40
0.050000
  0
CIRCLE
  8
49
 10
-0.500000
 20
5.700000
 30
0.000000
 40
0.050000
  0
CIRCLE
  8
49
 10
-0.500000
 20
5.000000
 30
0.000000
 40
0.050000
  0
CIRCLE
  8
20
 10
-2.475000
 20
1.375000
 30
0.000000
 40
0.050000
  0
CIRCLE
  8
20
 10
-0.325000
 20
1.375000
 30
0.000000
 40
0.050000
  0
CIRCLE
  8
20
 10
-0.325000
 20
0.325000
 30
0.000000
 40
0.050000
  0
CIRCLE
  8
20
 10
-2.475000
 20
0.325000
 30
0.000000
 40
0.050000
  0
CIRCLE
  8
49
 10
-2.300000
 20
0.500000
 30
0.000000
 40
0.050000
  0
CIRCLE
  8
49
 10
-2.300000
 20
1.200000
 30
0.000000
 40
0.050000
  0
CIRCLE
  8
49
 10
-0.500000
 20
1.200000
 30
0.000000
 40
0.050000
  0
CIRCLE
  8
49
 10
-0.500000
 20
0.500000
 30
0.000000
 40
0.050000
  0
CIRCLE
  8
20
 10
-2.300000
 20
1.200000
 30
0.000000
 40
0.050000
  0
CIRCLE
  8
20
 10
-2.300000
 20
0.500000
 30
0.000000
 40
0.050000
  0
CIRCLE
  8
20
 10
-0.500000
 20
0.500000
 30
0.000000
 40
0.050000
  0
CIRCLE
  8
20
 10
-0.500000
 20
1.200000
 30
0.000000
 40
0.050000
  0
CIRCLE
  8
20
 10
2.875000
 20
3.725000
 30
0.000000
 40
0.050000
  0
CIRCLE
  8
20
 10
0.725000
 20
3.725000
 30
0.000000
 40
0.050000
  0
CIRCLE
  8
20
 10
0.725000
 20
4.775000
 30
0.000000
 40
0.050000
  0
CIRCLE
  8
20
 10
2.875000
 20
4.775000
 30
0.000000
 40
0.050000
  0
CIRCLE
  8
20
 10
2.875000
 20
5.325000
 30
0.000000
 40
0.050000
  0
CIRCLE
  8
20
 10
0.725000
 20
5.325000
 30
0.000000
 40
0.050000
  0
CIRCLE
  8
20
 10
0.725000
 20
6.375000
 30
0.000000
 40
0.050000
  0
CIRCLE
  8
20
 10
2.875000
 20
6.375000
 30
0.000000
 40
0.050000
  0
CIRCLE
  8
20
 10
0.725000
 20
7.975000
 30
0.000000
 40
0.050000
  0
CIRCLE
  8
20
 10
2.875000
 20
7.975000
 30
0.000000
 40
0.050000
  0
CIRCLE
  8
20
 10
2.875000
 20
6.925000
 30
0.000000
 40
0.050000
  0
CIRCLE
  8
20
 10
0.725000
 20
6.925000
 30
0.000000
 40
0.050000
  0
CIRCLE
  8
20
 10
0.725000
 20
9.575000
 30
0.000000
 40
0.050000
  0
CIRCLE
  8
20
 10
2.875000
 20
9.575000
 30
0.000000
 40
0.050000
  0
CIRCLE
  8
20
 10
2.875000
 20
8.525000
 30
0.000000
 40
0.050000
  0
CIRCLE
  8
20
 10
0.725000
 20
8.525000
 30
0.000000
 40
0.050000
  0
CIRCLE
  8
20
 10
0.725000
 20
11.175000
 30
0.000000
 40
0.050000
  0
CIRCLE
  8
20
 10
2.875000
 20
11.175000
 30
0.000000
 40
0.050000
  0
CIRCLE
  8
20
 10
2.875000
 20
10.125000
 30
0.000000
 40
0.050000
  0
CIRCLE
  8
20
 10
0.725000
 20
10.125000
 30
0.000000
 40
0.050000
  0
CIRCLE
  8
20
 10
3.425000
 20
6.375000
 30
0.000000
 40
0.050000
  0
CIRCLE
  8
20
 10
5.575000
 20
6.375000
 30
0.000000
 40
0.050000
  0
CIRCLE
  8
20
 10
5.575000
 20
5.325000
 30
0.000000
 40
0.050000
  0
CIRCLE
  8
20
 10
3.425000
 20
5.325000
 30
0.000000
 40
0.050000
  0
CIRCLE
  8
20
 10
3.425000
 20
7.975000
 30
0.000000
 40
0.050000
  0
CIRCLE
  8
20
 10
5.575000
 20
7.975000
 30
0.000000
 40
0.050000
  0
CIRCLE
  8
20
 10
5.575000
 20
6.925000
 30
0.000000
 40
0.050000
  0
CIRCLE
  8
20
 10
3.425000
 20
6.925000
 30
0.000000
 40
0.050000
  0
CIRCLE
  8
20
 10
3.425000
 20
9.575000
 30
0.000000
 40
0.050000
  0
CIRCLE
  8
20
 10
5.575000
 20
9.575000
 30
0.000000
 40
0.050000
  0
CIRCLE
  8
20
 10
5.575000
 20
8.525000
 30
0.000000
 40
0.050000
  0
CIRCLE
  8
20
 10
3.425000
 20
8.525000
 30
0.000000
 40
0.050000
  0
CIRCLE
  8
20
 10
3.425000
 20
11.175000
 30
0.000000
 40
0.050000
  0
CIRCLE
  8
20
 10
5.575000
 20
11.175000
 30
0.000000
 40
0.050000
  0
CIRCLE
  8
20
 10
5.575000
 20
10.125000
 30
0.000000
 40
0.050000
  0
CIRCLE
  8
20
 10
3.425000
 20
10.125000
 30
0.000000
 40
0.050000
  0
CIRCLE
  8
20
 10
3.425000
 20
4.775000
 30
0.000000
 40
0.050000
  0
CIRCLE
  8
20
 10
5.575000
 20
4.775000
 30
0.000000
 40
0.050000
  0
CIRCLE
  8
20
 10
5.575000
 20
3.725000
 30
0.000000
 40
0.050000
  0
CIRCLE
  8
20
 10
3.425000
 20
3.725000
 30
0.000000
 40
0.050000
  0
CIRCLE
  8
20
 10
3.425000
 20
1.575000
 30
0.000000
 40
0.050000
  0
CIRCLE
  8
20
 10
5.575000
 20
1.575000
 30
0.000000
 40
0.050000
  0
CIRCLE
  8
20
 10
5.575000
 20
0.525000
 30
0.000000
 40
0.050000
  0
CIRCLE
  8
20
 10
3.425000
 20
0.525000
 30
0.000000
 40
0.050000
  0
CIRCLE
  8
20
 10
3.600000
 20
1.400000
 30
0.000000
 40
0.050000
  0
CIRCLE
  8
20
 10
3.600000
 20
0.700000
 30
0.000000
 40
0.050000
  0
CIRCLE
  8
20
 10
5.400000
 20
0.700000
 30
0.000000
 40
0.050000
  0
CIRCLE
  8
20
 10
5.400000
 20
1.400000
 30
0.000000
 40
0.050000
  0
CIRCLE
  8
20
 10
-2.230000
 20
5.525000
 30
0.000000
 40
0.050000
  0
CIRCLE
  8
20
 10
-2.230000
 20
5.350000
 30
0.000000
 40
0.050000
  0
CIRCLE
  8
20
 10
-2.230000
 20
5.175000
 30
0.000000
 40
0.050000
  0
CIRCLE
  8
20
 10
-2.060000
 20
5.710000
 30
0.000000
 40
0.037500
  0
CIRCLE
  8
20
 10
0.725000
 20
1.575000
 30
0.000000
 40
0.050000
  0
CIRCLE
  8
20
 10
2.875000
 20
1.575000
 30
0.000000
 40
0.050000
  0
CIRCLE
  8
20
 10
2.875000
 20
0.525000
 30
0.000000
 40
0.050000
  0
CIRCLE
  8
20
 10
0.725000
 20
0.525000
 30
0.000000
 40
0.050000
  0
CIRCLE
  8
20
 10
0.970000
 20
1.225000
 30
0.000000
 40
0.050000
  0
CIRCLE
  8
20
 10
0.970000
 20
1.050000
 30
0.000000
 40
0.050000
  0
CIRCLE
  8
20
 10
0.970000
 20
0.875000
 30
0.000000
 40
0.050000
  0
CIRCLE
  8
20
 10
1.140000
 20
1.410000
 30
0.000000
 40
0.037500
  0
CIRCLE
  8
20
 10
0.725000
 20
3.175000
 30
0.000000
 40
0.050000
  0
CIRCLE
  8
20
 10
2.875000
 20
3.175000
 30
0.000000
 40
0.050000
  0
CIRCLE
  8
20
 10
2.875000
 20
2.125000
 30
0.000000
 40
0.050000
  0
CIRCLE
  8
20
 10
0.725000
 20
2.125000
 30
0.000000
 40
0.050000
  0
CIRCLE
  8
20
 10
0.970000
 20
2.825000
 30
0.000000
 40
0.050000
  0
CIRCLE
  8
20
 10
0.970000
 20
2.650000
 30
0.000000
 40
0.050000
  0
CIRCLE
  8
20
 10
0.970000
 20
2.475000
 30
0.000000
 40
0.050000
  0
CIRCLE
  8
20
 10
1.140000
 20
3.010000
 30
0.000000
 40
0.037500
  0
CIRCLE
  8
20
 10
8.275000
 20
3.725000
 30
0.000000
 40
0.050000
  0
CIRCLE
  8
20
 10
6.125000
 20
3.725000
 30
0.000000
 40
0.050000
  0
CIRCLE
  8
20
 10
6.125000
 20
4.775000
 30
0.000000
 40
0.050000
  0
CIRCLE
  8
20
 10
8.275000
 20
4.775000
 30
0.000000
 40
0.050000
  0
CIRCLE
  8
20
 10
8.275000
 20
5.325000
 30
0.000000
 40
0.050000
  0
CIRCLE
  8
20
 10
6.125000
 20
5.325000
 30
0.000000
 40
0.050000
  0
CIRCLE
  8
20
 10
6.125000
 20
6.375000
 30
0.000000
 40
0.050000
  0
CIRCLE
  8
20
 10
8.275000
 20
6.375000
 30
0.000000
 40
0.050000
  0
CIRCLE
  8
20
 10
6.125000
 20
7.975000
 30
0.000000
 40
0.050000
  0
CIRCLE
  8
20
 10
8.275000
 20
7.975000
 30
0.000000
 40
0.050000
  0
CIRCLE
  8
20
 10
8.275000
 20
6.925000
 30
0.000000
 40
0.050000
  0
CIRCLE
  8
20
 10
6.125000
 20
6.925000
 30
0.000000
 40
0.050000
  0
CIRCLE
  8
20
 10
6.125000
 20
9.575000
 30
0.000000
 40
0.050000
  0
CIRCLE
  8
20
 10
8.275000
 20
9.575000
 30
0.000000
 40
0.050000
  0
CIRCLE
  8
20
 10
8.275000
 20
8.525000
 30
0.000000
 40
0.050000
  0
CIRCLE
  8
20
 10
6.125000
 20
8.525000
 30
0.000000
 40
0.050000
  0
CIRCLE
  8
20
 10
6.125000
 20
11.175000
 30
0.000000
 40
0.050000
  0
CIRCLE
  8
20
 10
8.275000
 20
11.175000
 30
0.000000
 40
0.050000
  0
CIRCLE
  8
20
 10
8.275000
 20
10.125000
 30
0.000000
 40
0.050000
  0
CIRCLE
  8
20
 10
6.125000
 20
10.125000
 30
0.000000
 40
0.050000
  0
CIRCLE
  8
20
 10
8.825000
 20
6.375000
 30
0.000000
 40
0.050000
  0
CIRCLE
  8
20
 10
10.975000
 20
6.375000
 30
0.000000
 40
0.050000
  0
CIRCLE
  8
20
 10
10.975000
 20
5.325000
 30
0.000000
 40
0.050000
  0
CIRCLE
  8
20
 10
8.825000
 20
5.325000
 30
0.000000
 40
0.050000
  0
CIRCLE
  8
20
 10
8.825000
 20
7.975000
 30
0.000000
 40
0.050000
  0
CIRCLE
  8
20
 10
10.975000
 20
7.975000
 30
0.000000
 40
0.050000
  0
CIRCLE
  8
20
 10
10.975000
 20
6.925000
 30
0.000000
 40
0.050000
  0
CIRCLE
  8
20
 10
8.825000
 20
6.925000
 30
0.000000
 40
0.050000
  0
CIRCLE
  8
20
 10
8.825000
 20
9.575000
 30
0.000000
 40
0.050000
  0
CIRCLE
  8
20
 10
10.975000
 20
9.575000
 30
0.000000
 40
0.050000
  0
CIRCLE
  8
20
 10
10.975000
 20
8.525000
 30
0.000000
 40
0.050000
  0
CIRCLE
  8
20
 10
8.825000
 20
8.525000
 30
0.000000
 40
0.050000
  0
CIRCLE
  8
20
 10
8.825000
 20
11.175000
 30
0.000000
 40
0.050000
  0
CIRCLE
  8
20
 10
10.975000
 20
11.175000
 30
0.000000
 40
0.050000
  0
CIRCLE
  8
20
 10
10.975000
 20
10.125000
 30
0.000000
 40
0.050000
  0
CIRCLE
  8
20
 10
8.825000
 20
10.125000
 30
0.000000
 40
0.050000
  0
CIRCLE
  8
20
 10
8.825000
 20
4.775000
 30
0.000000
 40
0.050000
  0
CIRCLE
  8
20
 10
10.975000
 20
4.775000
 30
0.000000
 40
0.050000
  0
CIRCLE
  8
20
 10
10.975000
 20
3.725000
 30
0.000000
 40
0.050000
  0
CIRCLE
  8
20
 10
8.825000
 20
3.725000
 30
0.000000
 40
0.050000
  0
CIRCLE
  8
20
 10
8.825000
 20
1.575000
 30
0.000000
 40
0.050000
  0
CIRCLE
  8
20
 10
10.975000
 20
1.575000
 30
0.000000
 40
0.050000
  0
CIRCLE
  8
20
 10
10.975000
 20
0.525000
 30
0.000000
 40
0.050000
  0
CIRCLE
  8
20
 10
8.825000
 20
0.525000
 30
0.000000
 40
0.050000
  0
CIRCLE
  8
20
 10
9.000000
 20
1.400000
 30
0.000000
 40
0.050000
  0
CIRCLE
  8
20
 10
9.000000
 20
0.700000
 30
0.000000
 40
0.050000
  0
CIRCLE
  8
20
 10
10.800000
 20
0.700000
 30
0.000000
 40
0.050000
  0
CIRCLE
  8
20
 10
10.800000
 20
1.400000
 30
0.000000
 40
0.050000
  0
CIRCLE
  8
20
 10
6.125000
 20
1.575000
 30
0.000000
 40
0.050000
  0
CIRCLE
  8
20
 10
8.275000
 20
1.575000
 30
0.000000
 40
0.050000
  0
CIRCLE
  8
20
 10
8.275000
 20
0.525000
 30
0.000000
 40
0.050000
  0
CIRCLE
  8
20
 10
6.125000
 20
0.525000
 30
0.000000
 40
0.050000
  0
CIRCLE
  8
20
 10
6.370000
 20
1.225000
 30
0.000000
 40
0.050000
  0
CIRCLE
  8
20
 10
6.370000
 20
1.050000
 30
0.000000
 40
0.050000
  0
CIRCLE
  8
20
 10
6.370000
 20
0.875000
 30
0.000000
 40
0.050000
  0
CIRCLE
  8
20
 10
6.540000
 20
1.410000
 30
0.000000
 40
0.037500
  0
CIRCLE
  8
20
 10
6.125000
 20
3.175000
 30
0.000000
 40
0.050000
  0
CIRCLE
  8
20
 10
8.275000
 20
3.175000
 30
0.000000
 40
0.050000
  0
CIRCLE
  8
20
 10
8.275000
 20
2.125000
 30
0.000000
 40
0.050000
  0
CIRCLE
  8
20
 10
6.125000
 20
2.125000
 30
0.000000
 40
0.050000
  0
CIRCLE
  8
20
 10
6.370000
 20
2.825000
 30
0.000000
 40
0.050000
  0
CIRCLE
  8
20
 10
6.370000
 20
2.650000
 30
0.000000
 40
0.050000
  0
CIRCLE
  8
20
 10
6.370000
 20
2.475000
 30
0.000000
 40
0.050000
  0
CIRCLE
  8
20
 10
6.540000
 20
3.010000
 30
0.000000
 40
0.037500
  0
CIRCLE
  8
20
 10
3.425000
 20
3.175000
 30
0.000000
 40
0.050000
  0
CIRCLE
  8
20
 10
5.575000
 20
3.175000
 30
0.000000
 40
0.050000
  0
CIRCLE
  8
20
 10
5.575000
 20
2.125000
 30
0.000000
 40
0.050000
  0
CIRCLE
  8
20
 10
3.425000
 20
2.125000
 30
0.000000
 40
0.050000
  0
CIRCLE
  8
20
 10
3.600000
 20
3.000000
 30
0.000000
 40
0.050000
  0
CIRCLE
  8
20
 10
3.600000
 20
2.300000
 30
0.000000
 40
0.050000
  0
CIRCLE
  8
20
 10
5.400000
 20
2.300000
 30
0.000000
 40
0.050000
  0
CIRCLE
  8
20
 10
5.400000
 20
3.000000
 30
0.000000
 40
0.050000
  0
CIRCLE
  8
20
 10
8.825000
 20
3.175000
 30
0.000000
 40
0.050000
  0
CIRCLE
  8
20
 10
10.975000
 20
3.175000
 30
0.000000
 40
0.050000
  0
CIRCLE
  8
20
 10
10.975000
 20
2.125000
 30
0.000000
 40
0.050000
  0
CIRCLE
  8
20
 10
8.825000
 20
2.125000
 30
0.000000
 40
0.050000
  0
CIRCLE
  8
20
 10
9.000000
 20
3.000000
 30
0.000000
 40
0.050000
  0
CIRCLE
  8
20
 10
9.000000
 20
2.300000
 30
0.000000
 40
0.050000
  0
CIRCLE
  8
20
 10
10.800000
 20
2.300000
 30
0.000000
 40
0.050000
  0
CIRCLE
  8
20
 10
10.800000
 20
3.000000
 30
0.000000
 40
0.050000
  0
ENDSEC
  0
EOF
