  0
SECTION
  2
HEADER
  9
$ACADVER
  1
AC1009
  9
$FILLMODE
 70
0
  9
$EXTMIN
 10
-66.1162
 20
-12.9117
 30
0.0000
  9
$EXTMAX
 10
298.5262
 20
298.5262
 30
0.0000
  0
ENDSEC
  0
SECTION
  2
TABLES
  0
TABLE
  2
LTYPE
 70
1
  0
LTYPE
  2
CONTINUOUS
 70
64
  3
Solid line
 72
65
 73
0
 40
0
  0
ENDTAB
  0
TABLE
  2
LAYER
 70
255
  0
LAYER
  2
1
 70
64
 62
22
  6
CONTINUOUS
  0
LAYER
  2
16
 70
64
 62
175
  6
CONTINUOUS
  0
LAYER
  2
17
 70
64
 62
82
  6
CONTINUOUS
  0
LAYER
  2
18
 70
64
 62
82
  6
CONTINUOUS
  0
LAYER
  2
19
 70
64
 62
53
  6
CONTINUOUS
  0
LAYER
  2
20
 70
64
 62
7
  6
CONTINUOUS
  0
LAYER
  2
21
 70
64
 62
253
  6
CONTINUOUS
  0
LAYER
  2
22
 70
64
 62
253
  6
CONTINUOUS
  0
LAYER
  2
23
 70
64
 62
7
  6
CONTINUOUS
  0
LAYER
  2
24
 70
64
 62
7
  6
CONTINUOUS
  0
LAYER
  2
25
 70
64
 62
253
  6
CONTINUOUS
  0
LAYER
  2
26
 70
64
 62
253
  6
CONTINUOUS
  0
LAYER
  2
27
 70
64
 62
253
  6
CONTINUOUS
  0
LAYER
  2
28
 70
64
 62
253
  6
CONTINUOUS
  0
LAYER
  2
39
 70
64
 62
22
  6
CONTINUOUS
  0
LAYER
  2
40
 70
64
 62
175
  6
CONTINUOUS
  0
LAYER
  2
41
 70
64
 62
22
  6
CONTINUOUS
  0
LAYER
  2
42
 70
64
 62
175
  6
CONTINUOUS
  0
LAYER
  2
43
 70
64
 62
82
  6
CONTINUOUS
  0
LAYER
  2
44
 70
64
 62
253
  6
CONTINUOUS
  0
LAYER
  2
45
 70
64
 62
253
  6
CONTINUOUS
  0
LAYER
  2
46
 70
64
 62
140
  6
CONTINUOUS
  0
LAYER
  2
47
 70
64
 62
140
  6
CONTINUOUS
  0
LAYER
  2
48
 70
64
 62
82
  6
CONTINUOUS
  0
LAYER
  2
49
 70
64
 62
53
  6
CONTINUOUS
  0
LAYER
  2
51
 70
64
 62
253
  6
CONTINUOUS
  0
LAYER
  2
52
 70
64
 62
253
  6
CONTINUOUS
  0
ENDTAB
  0
ENDSEC
  0
SECTION
  2
BLOCKS
  0
BLOCK
  8
0
  2
RECT
 70
64
 10
0.0000
 20
0.0000
 30
0.0000
  3
RECT
  0
SOLID
  8
0
 10
-0.5000
 20
-0.5000
 30
0.0000
 11
0.5000
 21
-0.5000
 31
0.0000
 12
-0.5000
 22
0.5000
 32
0.0000
 13
0.5000
 23
0.5000
 33
0.0000
  0
ENDBLK
  8
0
  0
BLOCK
  8
0
  2
PIE
 70
64
 10
0.0000
 20
0.0000
 30
0.0000
  3
PIE
  0
CIRCLE
  8
0
 10
0.0000
 20
0.0000
 30
0.0000
 40
0.5000
  0
ENDBLK
  8
0
  0
BLOCK
  8
0
  2
OCTAGONP
 70
64
 10
0.0000
 20
0.0000
 30
0.0000
  3
OCTAGONP
  0
POLYLINE
  8
0
 66
1
 10
0.0000
 20
0.0000
 30
0.0000
 40
0.0000
 41
0.0000
 70
1
  0
VERTEX
  8
0
 10
-0.5000
 20
-0.2071
 30
0.0000
  0
VERTEX
  8
0
 10
-0.5000
 20
0.2071
 30
0.0000
  0
VERTEX
  8
0
 10
-0.2071
 20
0.5000
 30
0.0000
  0
VERTEX
  8
0
 10
0.2071
 20
0.5000
 30
0.0000
  0
VERTEX
  8
0
 10
0.5000
 20
0.2071
 30
0.0000
  0
VERTEX
  8
0
 10
0.5000
 20
-0.2071
 30
0.0000
  0
VERTEX
  8
0
 10
0.2071
 20
-0.5000
 30
0.0000
  0
VERTEX
  8
0
 10
-0.2071
 20
-0.5000
 30
0.0000
  0
SEQEND
  8
0
  0
ENDBLK
  8
0
  0
BLOCK
  8
0
  2
SQUAREP
 70
64
 10
0.0000
 20
0.0000
 30
0.0000
  3
SQUAREP
  0
SOLID
  8
0
 10
-0.5000
 20
-0.5000
 30
0.0000
 11
0.5000
 21
-0.5000
 31
0.0000
 12
-0.5000
 22
0.5000
 32
0.0000
 13
0.5000
 23
0.5000
 33
0.0000
  0
ENDBLK
  8
0
  0
BLOCK
  8
0
  2
ROUNDP
 70
64
 10
0.0000
 20
0.0000
 30
0.0000
  3
ROUNDP
  0
CIRCLE
  8
0
 10
0.0000
 20
0.0000
 30
0.0000
 40
0.5000
  0
ENDBLK
  8
0
  0
BLOCK
  8
0
  2
ANNULUSP
 70
64
 10
0.0000
 20
0.0000
 30
0.0000
  3
ANNULUSP
  0
CIRCLE
  8
0
 10
0.0000
 20
0.0000
 30
0.0000
 40
0.5000
  0
ENDBLK
  8
0
  0
BLOCK
  8
0
  2
THERMALP
 70
64
 10
0.0000
 20
0.0000
 30
0.0000
  3
THERMALP
  0
LINE
  8
0
 10
-0.2379
 20
0.4500
 30
0.0000
 11
0.2379
 21
0.4500
 31
0.0000
  0
LINE
  8
0
 10
0.4500
 20
0.2379
 30
0.0000
 11
0.4500
 21
-0.2379
 31
0.0000
  0
LINE
  8
0
 10
0.2379
 20
-0.4500
 30
0.0000
 11
-0.2379
 21
-0.4500
 31
0.0000
  0
LINE
  8
0
 10
-0.4500
 20
-0.2379
 30
0.0000
 11
-0.4500
 21
0.2379
 31
0.0000
  0
ENDBLK
  8
0
  0
BLOCK
  8
0
  2
OCTAGONV
 70
64
 10
0.0000
 20
0.0000
 30
0.0000
  3
OCTAGONV
  0
POLYLINE
  8
0
 66
1
 10
0.0000
 20
0.0000
 30
0.0000
 40
0.0000
 41
0.0000
 70
1
  0
VERTEX
  8
0
 10
-0.5000
 20
-0.2071
 30
0.0000
  0
VERTEX
  8
0
 10
-0.5000
 20
0.2071
 30
0.0000
  0
VERTEX
  8
0
 10
-0.2071
 20
0.5000
 30
0.0000
  0
VERTEX
  8
0
 10
0.2071
 20
0.5000
 30
0.0000
  0
VERTEX
  8
0
 10
0.5000
 20
0.2071
 30
0.0000
  0
VERTEX
  8
0
 10
0.5000
 20
-0.2071
 30
0.0000
  0
VERTEX
  8
0
 10
0.2071
 20
-0.5000
 30
0.0000
  0
VERTEX
  8
0
 10
-0.2071
 20
-0.5000
 30
0.0000
  0
SEQEND
  8
0
  0
ENDBLK
  8
0
  0
BLOCK
  8
0
  2
SQUAREV
 70
64
 10
0.0000
 20
0.0000
 30
0.0000
  3
SQUAREV
  0
SOLID
  8
0
 10
-0.5000
 20
-0.5000
 30
0.0000
 11
0.5000
 21
-0.5000
 31
0.0000
 12
-0.5000
 22
0.5000
 32
0.0000
 13
0.5000
 23
0.5000
 33
0.0000
  0
ENDBLK
  8
0
  0
BLOCK
  8
0
  2
ROUNDV
 70
64
 10
0.0000
 20
0.0000
 30
0.0000
  3
ROUNDV
  0
CIRCLE
  8
0
 10
0.0000
 20
0.0000
 30
0.0000
 40
0.5000
  0
ENDBLK
  8
0
  0
BLOCK
  8
0
  2
ANNULUSV
 70
64
 10
0.0000
 20
0.0000
 30
0.0000
  3
ANNULUSV
  0
CIRCLE
  8
0
 10
0.0000
 20
0.0000
 30
0.0000
 40
0.5000
  0
ENDBLK
  8
0
  0
BLOCK
  8
0
  2
THERMALV
 70
64
 10
0.0000
 20
0.0000
 30
0.0000
  3
THERMALV
  0
LINE
  8
0
 10
-0.2379
 20
0.4500
 30
0.0000
 11
0.2379
 21
0.4500
 31
0.0000
  0
LINE
  8
0
 10
0.4500
 20
0.2379
 30
0.0000
 11
0.4500
 21
-0.2379
 31
0.0000
  0
LINE
  8
0
 10
0.2379
 20
-0.4500
 30
0.0000
 11
-0.2379
 21
-0.4500
 31
0.0000
  0
LINE
  8
0
 10
-0.4500
 20
-0.2379
 30
0.0000
 11
-0.4500
 21
0.2379
 31
0.0000
  0
ENDBLK
  8
0
  0
ENDSEC
  0
SECTION
  2
ENTITIES
  0
LINE
  8
49
 10
-50.8000
 20
190.5000
 30
0.0000
 11
-50.8000
 21
165.1000
 31
0.0000
  0
LINE
  8
49
 10
-50.8000
 20
165.1000
 30
0.0000
 11
-25.4000
 21
165.1000
 31
0.0000
  0
LINE
  8
49
 10
-25.4000
 20
165.1000
 30
0.0000
 11
-25.4000
 21
190.5000
 31
0.0000
  0
LINE
  8
49
 10
-25.4000
 20
190.5000
 30
0.0000
 11
-50.8000
 21
190.5000
 31
0.0000
  0
LINE
  8
20
 10
-63.5000
 20
114.3000
 30
0.0000
 11
-7.6200
 21
114.3000
 31
0.0000
  0
ARC
  8
20
 10
-7.6200
 20
111.7600
 30
0.0000
 40
2.5400
 50
0.0000
 51
90.0000
  0
LINE
  8
20
 10
-5.0800
 20
111.7600
 30
0.0000
 11
-5.0800
 21
83.8200
 31
0.0000
  0
ARC
  8
20
 10
-7.6200
 20
83.8200
 30
0.0000
 40
2.5400
 50
270.0000
 51
0.0000
  0
LINE
  8
20
 10
-7.6200
 20
81.2800
 30
0.0000
 11
-63.5000
 21
81.2800
 31
0.0000
  0
ARC
  8
20
 10
-63.5000
 20
83.8200
 30
0.0000
 40
2.5400
 50
180.0000
 51
270.0000
  0
LINE
  8
20
 10
-66.0400
 20
83.8200
 30
0.0000
 11
-66.0400
 21
91.4400
 31
0.0000
  0
ARC
  8
20
 10
-64.7700
 20
91.4400
 30
0.0000
 40
1.2700
 50
90.0000
 51
180.0000
  0
LINE
  8
20
 10
-64.7700
 20
92.7100
 30
0.0000
 11
-62.8650
 21
92.7100
 31
0.0000
  0
ARC
  8
20
 10
-62.8650
 20
91.4400
 30
0.0000
 40
1.2700
 50
0.0000
 51
90.0000
  0
LINE
  8
20
 10
-61.5950
 20
91.4400
 30
0.0000
 11
-61.5950
 21
88.2650
 31
0.0000
  0
LINE
  8
20
 10
-66.0400
 20
111.7600
 30
0.0000
 11
-66.0400
 21
104.1400
 31
0.0000
  0
ARC
  8
20
 10
-64.7700
 20
104.1400
 30
0.0000
 40
1.2700
 50
180.0000
 51
270.0000
  0
LINE
  8
20
 10
-61.5950
 20
107.3150
 30
0.0000
 11
-61.5950
 21
104.1400
 31
0.0000
  0
ARC
  8
20
 10
-62.8650
 20
104.1400
 30
0.0000
 40
1.2700
 50
270.0000
 51
0.0000
  0
LINE
  8
20
 10
-62.8650
 20
102.8700
 30
0.0000
 11
-64.7700
 21
102.8700
 31
0.0000
  0
ARC
  8
20
 10
-63.5000
 20
111.7600
 30
0.0000
 40
2.5400
 50
90.0000
 51
180.0000
  0
LINE
  8
20
 10
-12.0650
 20
109.8550
 30
0.0000
 11
-59.0550
 21
109.8550
 31
0.0000
  0
ARC
  8
20
 10
-59.0550
 20
107.3150
 30
0.0000
 40
2.5400
 50
90.0000
 51
180.0000
  0
ARC
  8
20
 10
-59.0550
 20
88.2650
 30
0.0000
 40
2.5400
 50
180.0000
 51
270.0000
  0
LINE
  8
20
 10
-59.0550
 20
85.7250
 30
0.0000
 11
-12.0650
 21
85.7250
 31
0.0000
  0
ARC
  8
20
 10
-12.0650
 20
88.2650
 30
0.0000
 40
2.5400
 50
270.0000
 51
0.0000
  0
LINE
  8
20
 10
-9.5250
 20
88.2650
 30
0.0000
 11
-9.5250
 21
107.3150
 31
0.0000
  0
ARC
  8
20
 10
-12.0650
 20
107.3150
 30
0.0000
 40
2.5400
 50
0.0000
 51
90.0000
  0
LINE
  8
20
 10
-5.0800
 20
73.6600
 30
0.0000
 11
-5.0800
 21
45.7200
 31
0.0000
  0
ARC
  8
20
 10
-7.6200
 20
45.7200
 30
0.0000
 40
2.5400
 50
270.0000
 51
0.0000
  0
LINE
  8
20
 10
-7.6200
 20
43.1800
 30
0.0000
 11
-63.5000
 21
43.1800
 31
0.0000
  0
ARC
  8
20
 10
-63.5000
 20
45.7200
 30
0.0000
 40
2.5400
 50
180.0000
 51
270.0000
  0
LINE
  8
20
 10
-66.0400
 20
45.7200
 30
0.0000
 11
-66.0400
 21
73.6600
 31
0.0000
  0
ARC
  8
20
 10
-63.5000
 20
73.6600
 30
0.0000
 40
2.5400
 50
90.0000
 51
180.0000
  0
LINE
  8
20
 10
-63.5000
 20
76.2000
 30
0.0000
 11
-7.6200
 21
76.2000
 31
0.0000
  0
ARC
  8
20
 10
-7.6200
 20
73.6600
 30
0.0000
 40
2.5400
 50
0.0000
 51
90.0000
  0
LINE
  8
20
 10
-12.0650
 20
71.7550
 30
0.0000
 11
-59.0550
 21
71.7550
 31
0.0000
  0
ARC
  8
20
 10
-59.0550
 20
69.2150
 30
0.0000
 40
2.5400
 50
90.0000
 51
180.0000
  0
LINE
  8
20
 10
-61.5950
 20
69.2150
 30
0.0000
 11
-61.5950
 21
50.1650
 31
0.0000
  0
ARC
  8
20
 10
-59.0550
 20
50.1650
 30
0.0000
 40
2.5400
 50
180.0000
 51
270.0000
  0
LINE
  8
20
 10
-59.0550
 20
47.6250
 30
0.0000
 11
-12.0650
 21
47.6250
 31
0.0000
  0
ARC
  8
20
 10
-12.0650
 20
50.1650
 30
0.0000
 40
2.5400
 50
270.0000
 51
0.0000
  0
LINE
  8
20
 10
-9.5250
 20
50.1650
 30
0.0000
 11
-9.5250
 21
69.2150
 31
0.0000
  0
ARC
  8
20
 10
-12.0650
 20
69.2150
 30
0.0000
 40
2.5400
 50
0.0000
 51
90.0000
  0
LINE
  8
47
 10
0.0000
 20
298.4500
 30
0.0000
 11
298.4500
 21
298.4500
 31
0.0000
  0
LINE
  8
47
 10
0.0000
 20
0.0000
 30
0.0000
 11
298.4500
 21
0.0000
 31
0.0000
  0
LINE
  8
47
 10
0.0000
 20
0.0000
 30
0.0000
 11
0.0000
 21
298.4500
 31
0.0000
  0
LINE
  8
47
 10
298.4500
 20
0.0000
 30
0.0000
 11
298.4500
 21
298.4500
 31
0.0000
  0
LINE
  8
20
 10
-5.0800
 20
149.8600
 30
0.0000
 11
-5.0800
 21
121.9200
 31
0.0000
  0
ARC
  8
20
 10
-7.6200
 20
121.9200
 30
0.0000
 40
2.5400
 50
270.0000
 51
0.0000
  0
LINE
  8
20
 10
-7.6200
 20
119.3800
 30
0.0000
 11
-63.5000
 21
119.3800
 31
0.0000
  0
ARC
  8
20
 10
-63.5000
 20
121.9200
 30
0.0000
 40
2.5400
 50
180.0000
 51
270.0000
  0
LINE
  8
20
 10
-66.0400
 20
121.9200
 30
0.0000
 11
-66.0400
 21
149.8600
 31
0.0000
  0
ARC
  8
20
 10
-63.5000
 20
149.8600
 30
0.0000
 40
2.5400
 50
90.0000
 51
180.0000
  0
LINE
  8
20
 10
-63.5000
 20
152.4000
 30
0.0000
 11
-7.6200
 21
152.4000
 31
0.0000
  0
ARC
  8
20
 10
-7.6200
 20
149.8600
 30
0.0000
 40
2.5400
 50
0.0000
 51
90.0000
  0
LINE
  8
49
 10
-60.9600
 20
144.7800
 30
0.0000
 11
-60.9600
 21
127.0000
 31
0.0000
  0
ARC
  8
49
 10
-58.4200
 20
127.0000
 30
0.0000
 40
2.5400
 50
180.0000
 51
270.0000
  0
LINE
  8
49
 10
-58.4200
 20
124.4600
 30
0.0000
 11
-12.7000
 21
124.4600
 31
0.0000
  0
ARC
  8
49
 10
-12.7000
 20
127.0000
 30
0.0000
 40
2.5400
 50
270.0000
 51
0.0000
  0
LINE
  8
49
 10
-10.1600
 20
127.0000
 30
0.0000
 11
-10.1600
 21
144.7800
 31
0.0000
  0
ARC
  8
49
 10
-12.7000
 20
144.7800
 30
0.0000
 40
2.5400
 50
0.0000
 51
90.0000
  0
LINE
  8
49
 10
-12.7000
 20
147.3200
 30
0.0000
 11
-58.4200
 21
147.3200
 31
0.0000
  0
ARC
  8
49
 10
-58.4200
 20
144.7800
 30
0.0000
 40
2.5400
 50
90.0000
 51
180.0000
  0
LINE
  8
20
 10
-5.0800
 20
35.5600
 30
0.0000
 11
-5.0800
 21
7.6200
 31
0.0000
  0
ARC
  8
20
 10
-7.6200
 20
7.6200
 30
0.0000
 40
2.5400
 50
270.0000
 51
0.0000
  0
LINE
  8
20
 10
-7.6200
 20
5.0800
 30
0.0000
 11
-63.5000
 21
5.0800
 31
0.0000
  0
ARC
  8
20
 10
-63.5000
 20
7.6200
 30
0.0000
 40
2.5400
 50
180.0000
 51
270.0000
  0
LINE
  8
20
 10
-66.0400
 20
7.6200
 30
0.0000
 11
-66.0400
 21
35.5600
 31
0.0000
  0
ARC
  8
20
 10
-63.5000
 20
35.5600
 30
0.0000
 40
2.5400
 50
90.0000
 51
180.0000
  0
LINE
  8
20
 10
-63.5000
 20
38.1000
 30
0.0000
 11
-7.6200
 21
38.1000
 31
0.0000
  0
ARC
  8
20
 10
-7.6200
 20
35.5600
 30
0.0000
 40
2.5400
 50
0.0000
 51
90.0000
  0
LINE
  8
49
 10
-60.9600
 20
30.4800
 30
0.0000
 11
-60.9600
 21
12.7000
 31
0.0000
  0
ARC
  8
49
 10
-58.4200
 20
12.7000
 30
0.0000
 40
2.5400
 50
180.0000
 51
270.0000
  0
LINE
  8
49
 10
-58.4200
 20
10.1600
 30
0.0000
 11
-12.7000
 21
10.1600
 31
0.0000
  0
ARC
  8
49
 10
-12.7000
 20
12.7000
 30
0.0000
 40
2.5400
 50
270.0000
 51
0.0000
  0
LINE
  8
49
 10
-10.1600
 20
12.7000
 30
0.0000
 11
-10.1600
 21
30.4800
 31
0.0000
  0
ARC
  8
49
 10
-12.7000
 20
30.4800
 30
0.0000
 40
2.5400
 50
0.0000
 51
90.0000
  0
LINE
  8
49
 10
-12.7000
 20
33.0200
 30
0.0000
 11
-58.4200
 21
33.0200
 31
0.0000
  0
ARC
  8
49
 10
-58.4200
 20
30.4800
 30
0.0000
 40
2.5400
 50
90.0000
 51
180.0000
  0
LINE
  8
20
 10
73.6600
 20
50.8000
 30
0.0000
 11
17.7800
 21
50.8000
 31
0.0000
  0
ARC
  8
20
 10
17.7800
 20
53.3400
 30
0.0000
 40
2.5400
 50
180.0000
 51
270.0000
  0
LINE
  8
20
 10
15.2400
 20
53.3400
 30
0.0000
 11
15.2400
 21
81.2800
 31
0.0000
  0
ARC
  8
20
 10
17.7800
 20
81.2800
 30
0.0000
 40
2.5400
 50
90.0000
 51
180.0000
  0
LINE
  8
20
 10
17.7800
 20
83.8200
 30
0.0000
 11
73.6600
 21
83.8200
 31
0.0000
  0
ARC
  8
20
 10
73.6600
 20
81.2800
 30
0.0000
 40
2.5400
 50
0.0000
 51
90.0000
  0
LINE
  8
20
 10
76.2000
 20
81.2800
 30
0.0000
 11
76.2000
 21
73.6600
 31
0.0000
  0
ARC
  8
20
 10
74.9300
 20
73.6600
 30
0.0000
 40
1.2700
 50
270.0000
 51
0.0000
  0
LINE
  8
20
 10
74.9300
 20
72.3900
 30
0.0000
 11
73.0250
 21
72.3900
 31
0.0000
  0
ARC
  8
20
 10
73.0250
 20
73.6600
 30
0.0000
 40
1.2700
 50
180.0000
 51
270.0000
  0
LINE
  8
20
 10
71.7550
 20
73.6600
 30
0.0000
 11
71.7550
 21
76.8350
 31
0.0000
  0
LINE
  8
20
 10
76.2000
 20
53.3400
 30
0.0000
 11
76.2000
 21
60.9600
 31
0.0000
  0
ARC
  8
20
 10
74.9300
 20
60.9600
 30
0.0000
 40
1.2700
 50
0.0000
 51
90.0000
  0
LINE
  8
20
 10
71.7550
 20
57.7850
 30
0.0000
 11
71.7550
 21
60.9600
 31
0.0000
  0
ARC
  8
20
 10
73.0250
 20
60.9600
 30
0.0000
 40
1.2700
 50
90.0000
 51
180.0000
  0
LINE
  8
20
 10
73.0250
 20
62.2300
 30
0.0000
 11
74.9300
 21
62.2300
 31
0.0000
  0
ARC
  8
20
 10
73.6600
 20
53.3400
 30
0.0000
 40
2.5400
 50
270.0000
 51
0.0000
  0
LINE
  8
20
 10
22.2250
 20
55.2450
 30
0.0000
 11
69.2150
 21
55.2450
 31
0.0000
  0
ARC
  8
20
 10
69.2150
 20
57.7850
 30
0.0000
 40
2.5400
 50
270.0000
 51
0.0000
  0
ARC
  8
20
 10
69.2150
 20
76.8350
 30
0.0000
 40
2.5400
 50
0.0000
 51
90.0000
  0
LINE
  8
20
 10
69.2150
 20
79.3750
 30
0.0000
 11
22.2250
 21
79.3750
 31
0.0000
  0
ARC
  8
20
 10
22.2250
 20
76.8350
 30
0.0000
 40
2.5400
 50
90.0000
 51
180.0000
  0
LINE
  8
20
 10
19.6850
 20
76.8350
 30
0.0000
 11
19.6850
 21
57.7850
 31
0.0000
  0
ARC
  8
20
 10
22.2250
 20
57.7850
 30
0.0000
 40
2.5400
 50
180.0000
 51
270.0000
  0
LINE
  8
20
 10
15.2400
 20
12.7000
 30
0.0000
 11
15.2400
 21
40.6400
 31
0.0000
  0
ARC
  8
20
 10
17.7800
 20
40.6400
 30
0.0000
 40
2.5400
 50
90.0000
 51
180.0000
  0
LINE
  8
20
 10
17.7800
 20
43.1800
 30
0.0000
 11
73.6600
 21
43.1800
 31
0.0000
  0
ARC
  8
20
 10
73.6600
 20
40.6400
 30
0.0000
 40
2.5400
 50
0.0000
 51
90.0000
  0
LINE
  8
20
 10
76.2000
 20
40.6400
 30
0.0000
 11
76.2000
 21
12.7000
 31
0.0000
  0
ARC
  8
20
 10
73.6600
 20
12.7000
 30
0.0000
 40
2.5400
 50
270.0000
 51
0.0000
  0
LINE
  8
20
 10
73.6600
 20
10.1600
 30
0.0000
 11
17.7800
 21
10.1600
 31
0.0000
  0
ARC
  8
20
 10
17.7800
 20
12.7000
 30
0.0000
 40
2.5400
 50
180.0000
 51
270.0000
  0
LINE
  8
20
 10
73.6600
 20
91.4400
 30
0.0000
 11
17.7800
 21
91.4400
 31
0.0000
  0
ARC
  8
20
 10
17.7800
 20
93.9800
 30
0.0000
 40
2.5400
 50
180.0000
 51
270.0000
  0
LINE
  8
20
 10
15.2400
 20
93.9800
 30
0.0000
 11
15.2400
 21
121.9200
 31
0.0000
  0
ARC
  8
20
 10
17.7800
 20
121.9200
 30
0.0000
 40
2.5400
 50
90.0000
 51
180.0000
  0
LINE
  8
20
 10
17.7800
 20
124.4600
 30
0.0000
 11
73.6600
 21
124.4600
 31
0.0000
  0
ARC
  8
20
 10
73.6600
 20
121.9200
 30
0.0000
 40
2.5400
 50
0.0000
 51
90.0000
  0
LINE
  8
20
 10
76.2000
 20
121.9200
 30
0.0000
 11
76.2000
 21
114.3000
 31
0.0000
  0
ARC
  8
20
 10
74.9300
 20
114.3000
 30
0.0000
 40
1.2700
 50
270.0000
 51
0.0000
  0
LINE
  8
20
 10
74.9300
 20
113.0300
 30
0.0000
 11
73.0250
 21
113.0300
 31
0.0000
  0
ARC
  8
20
 10
73.0250
 20
114.3000
 30
0.0000
 40
1.2700
 50
180.0000
 51
270.0000
  0
LINE
  8
20
 10
71.7550
 20
114.3000
 30
0.0000
 11
71.7550
 21
117.4750
 31
0.0000
  0
LINE
  8
20
 10
76.2000
 20
93.9800
 30
0.0000
 11
76.2000
 21
101.6000
 31
0.0000
  0
ARC
  8
20
 10
74.9300
 20
101.6000
 30
0.0000
 40
1.2700
 50
0.0000
 51
90.0000
  0
LINE
  8
20
 10
71.7550
 20
98.4250
 30
0.0000
 11
71.7550
 21
101.6000
 31
0.0000
  0
ARC
  8
20
 10
73.0250
 20
101.6000
 30
0.0000
 40
1.2700
 50
90.0000
 51
180.0000
  0
LINE
  8
20
 10
73.0250
 20
102.8700
 30
0.0000
 11
74.9300
 21
102.8700
 31
0.0000
  0
ARC
  8
20
 10
73.6600
 20
93.9800
 30
0.0000
 40
2.5400
 50
270.0000
 51
0.0000
  0
LINE
  8
20
 10
22.2250
 20
95.8850
 30
0.0000
 11
69.2150
 21
95.8850
 31
0.0000
  0
ARC
  8
20
 10
69.2150
 20
98.4250
 30
0.0000
 40
2.5400
 50
270.0000
 51
0.0000
  0
ARC
  8
20
 10
69.2150
 20
117.4750
 30
0.0000
 40
2.5400
 50
0.0000
 51
90.0000
  0
LINE
  8
20
 10
69.2150
 20
120.0150
 30
0.0000
 11
22.2250
 21
120.0150
 31
0.0000
  0
ARC
  8
20
 10
22.2250
 20
117.4750
 30
0.0000
 40
2.5400
 50
90.0000
 51
180.0000
  0
LINE
  8
20
 10
19.6850
 20
117.4750
 30
0.0000
 11
19.6850
 21
98.4250
 31
0.0000
  0
ARC
  8
20
 10
22.2250
 20
98.4250
 30
0.0000
 40
2.5400
 50
180.0000
 51
270.0000
  0
LINE
  8
20
 10
76.2000
 20
162.5600
 30
0.0000
 11
76.2000
 21
134.6200
 31
0.0000
  0
ARC
  8
20
 10
73.6600
 20
134.6200
 30
0.0000
 40
2.5400
 50
270.0000
 51
0.0000
  0
LINE
  8
20
 10
73.6600
 20
132.0800
 30
0.0000
 11
17.7800
 21
132.0800
 31
0.0000
  0
ARC
  8
20
 10
17.7800
 20
134.6200
 30
0.0000
 40
2.5400
 50
180.0000
 51
270.0000
  0
LINE
  8
20
 10
15.2400
 20
134.6200
 30
0.0000
 11
15.2400
 21
162.5600
 31
0.0000
  0
ARC
  8
20
 10
17.7800
 20
162.5600
 30
0.0000
 40
2.5400
 50
90.0000
 51
180.0000
  0
LINE
  8
20
 10
17.7800
 20
165.1000
 30
0.0000
 11
73.6600
 21
165.1000
 31
0.0000
  0
ARC
  8
20
 10
73.6600
 20
162.5600
 30
0.0000
 40
2.5400
 50
0.0000
 51
90.0000
  0
LINE
  8
20
 10
69.2150
 20
160.6550
 30
0.0000
 11
22.2250
 21
160.6550
 31
0.0000
  0
ARC
  8
20
 10
22.2250
 20
158.1150
 30
0.0000
 40
2.5400
 50
90.0000
 51
180.0000
  0
LINE
  8
20
 10
19.6850
 20
158.1150
 30
0.0000
 11
19.6850
 21
139.0650
 31
0.0000
  0
ARC
  8
20
 10
22.2250
 20
139.0650
 30
0.0000
 40
2.5400
 50
180.0000
 51
270.0000
  0
LINE
  8
20
 10
22.2250
 20
136.5250
 30
0.0000
 11
69.2150
 21
136.5250
 31
0.0000
  0
ARC
  8
20
 10
69.2150
 20
139.0650
 30
0.0000
 40
2.5400
 50
270.0000
 51
0.0000
  0
LINE
  8
20
 10
71.7550
 20
139.0650
 30
0.0000
 11
71.7550
 21
158.1150
 31
0.0000
  0
ARC
  8
20
 10
69.2150
 20
158.1150
 30
0.0000
 40
2.5400
 50
0.0000
 51
90.0000
  0
LINE
  8
20
 10
76.2000
 20
203.2000
 30
0.0000
 11
76.2000
 21
175.2600
 31
0.0000
  0
ARC
  8
20
 10
73.6600
 20
175.2600
 30
0.0000
 40
2.5400
 50
270.0000
 51
0.0000
  0
LINE
  8
20
 10
73.6600
 20
172.7200
 30
0.0000
 11
17.7800
 21
172.7200
 31
0.0000
  0
ARC
  8
20
 10
17.7800
 20
175.2600
 30
0.0000
 40
2.5400
 50
180.0000
 51
270.0000
  0
LINE
  8
20
 10
15.2400
 20
175.2600
 30
0.0000
 11
15.2400
 21
203.2000
 31
0.0000
  0
ARC
  8
20
 10
17.7800
 20
203.2000
 30
0.0000
 40
2.5400
 50
90.0000
 51
180.0000
  0
LINE
  8
20
 10
17.7800
 20
205.7400
 30
0.0000
 11
73.6600
 21
205.7400
 31
0.0000
  0
ARC
  8
20
 10
73.6600
 20
203.2000
 30
0.0000
 40
2.5400
 50
0.0000
 51
90.0000
  0
LINE
  8
20
 10
69.2150
 20
201.2950
 30
0.0000
 11
22.2250
 21
201.2950
 31
0.0000
  0
ARC
  8
20
 10
22.2250
 20
198.7550
 30
0.0000
 40
2.5400
 50
90.0000
 51
180.0000
  0
LINE
  8
20
 10
19.6850
 20
198.7550
 30
0.0000
 11
19.6850
 21
179.7050
 31
0.0000
  0
ARC
  8
20
 10
22.2250
 20
179.7050
 30
0.0000
 40
2.5400
 50
180.0000
 51
270.0000
  0
LINE
  8
20
 10
22.2250
 20
177.1650
 30
0.0000
 11
69.2150
 21
177.1650
 31
0.0000
  0
ARC
  8
20
 10
69.2150
 20
179.7050
 30
0.0000
 40
2.5400
 50
270.0000
 51
0.0000
  0
LINE
  8
20
 10
71.7550
 20
179.7050
 30
0.0000
 11
71.7550
 21
198.7550
 31
0.0000
  0
ARC
  8
20
 10
69.2150
 20
198.7550
 30
0.0000
 40
2.5400
 50
0.0000
 51
90.0000
  0
LINE
  8
20
 10
76.2000
 20
243.8400
 30
0.0000
 11
76.2000
 21
215.9000
 31
0.0000
  0
ARC
  8
20
 10
73.6600
 20
215.9000
 30
0.0000
 40
2.5400
 50
270.0000
 51
0.0000
  0
LINE
  8
20
 10
73.6600
 20
213.3600
 30
0.0000
 11
17.7800
 21
213.3600
 31
0.0000
  0
ARC
  8
20
 10
17.7800
 20
215.9000
 30
0.0000
 40
2.5400
 50
180.0000
 51
270.0000
  0
LINE
  8
20
 10
15.2400
 20
215.9000
 30
0.0000
 11
15.2400
 21
243.8400
 31
0.0000
  0
ARC
  8
20
 10
17.7800
 20
243.8400
 30
0.0000
 40
2.5400
 50
90.0000
 51
180.0000
  0
LINE
  8
20
 10
17.7800
 20
246.3800
 30
0.0000
 11
73.6600
 21
246.3800
 31
0.0000
  0
ARC
  8
20
 10
73.6600
 20
243.8400
 30
0.0000
 40
2.5400
 50
0.0000
 51
90.0000
  0
LINE
  8
20
 10
69.2150
 20
241.9350
 30
0.0000
 11
22.2250
 21
241.9350
 31
0.0000
  0
ARC
  8
20
 10
22.2250
 20
239.3950
 30
0.0000
 40
2.5400
 50
90.0000
 51
180.0000
  0
LINE
  8
20
 10
19.6850
 20
239.3950
 30
0.0000
 11
19.6850
 21
220.3450
 31
0.0000
  0
ARC
  8
20
 10
22.2250
 20
220.3450
 30
0.0000
 40
2.5400
 50
180.0000
 51
270.0000
  0
LINE
  8
20
 10
22.2250
 20
217.8050
 30
0.0000
 11
69.2150
 21
217.8050
 31
0.0000
  0
ARC
  8
20
 10
69.2150
 20
220.3450
 30
0.0000
 40
2.5400
 50
270.0000
 51
0.0000
  0
LINE
  8
20
 10
71.7550
 20
220.3450
 30
0.0000
 11
71.7550
 21
239.3950
 31
0.0000
  0
ARC
  8
20
 10
69.2150
 20
239.3950
 30
0.0000
 40
2.5400
 50
0.0000
 51
90.0000
  0
LINE
  8
20
 10
76.2000
 20
284.4800
 30
0.0000
 11
76.2000
 21
256.5400
 31
0.0000
  0
ARC
  8
20
 10
73.6600
 20
256.5400
 30
0.0000
 40
2.5400
 50
270.0000
 51
0.0000
  0
LINE
  8
20
 10
73.6600
 20
254.0000
 30
0.0000
 11
17.7800
 21
254.0000
 31
0.0000
  0
ARC
  8
20
 10
17.7800
 20
256.5400
 30
0.0000
 40
2.5400
 50
180.0000
 51
270.0000
  0
LINE
  8
20
 10
15.2400
 20
256.5400
 30
0.0000
 11
15.2400
 21
284.4800
 31
0.0000
  0
ARC
  8
20
 10
17.7800
 20
284.4800
 30
0.0000
 40
2.5400
 50
90.0000
 51
180.0000
  0
LINE
  8
20
 10
17.7800
 20
287.0200
 30
0.0000
 11
73.6600
 21
287.0200
 31
0.0000
  0
ARC
  8
20
 10
73.6600
 20
284.4800
 30
0.0000
 40
2.5400
 50
0.0000
 51
90.0000
  0
LINE
  8
20
 10
69.2150
 20
282.5750
 30
0.0000
 11
22.2250
 21
282.5750
 31
0.0000
  0
ARC
  8
20
 10
22.2250
 20
280.0350
 30
0.0000
 40
2.5400
 50
90.0000
 51
180.0000
  0
LINE
  8
20
 10
19.6850
 20
280.0350
 30
0.0000
 11
19.6850
 21
260.9850
 31
0.0000
  0
ARC
  8
20
 10
22.2250
 20
260.9850
 30
0.0000
 40
2.5400
 50
180.0000
 51
270.0000
  0
LINE
  8
20
 10
22.2250
 20
258.4450
 30
0.0000
 11
69.2150
 21
258.4450
 31
0.0000
  0
ARC
  8
20
 10
69.2150
 20
260.9850
 30
0.0000
 40
2.5400
 50
270.0000
 51
0.0000
  0
LINE
  8
20
 10
71.7550
 20
260.9850
 30
0.0000
 11
71.7550
 21
280.0350
 31
0.0000
  0
ARC
  8
20
 10
69.2150
 20
280.0350
 30
0.0000
 40
2.5400
 50
0.0000
 51
90.0000
  0
LINE
  8
20
 10
144.7800
 20
162.5600
 30
0.0000
 11
144.7800
 21
134.6200
 31
0.0000
  0
ARC
  8
20
 10
142.2400
 20
134.6200
 30
0.0000
 40
2.5400
 50
270.0000
 51
0.0000
  0
LINE
  8
20
 10
142.2400
 20
132.0800
 30
0.0000
 11
86.3600
 21
132.0800
 31
0.0000
  0
ARC
  8
20
 10
86.3600
 20
134.6200
 30
0.0000
 40
2.5400
 50
180.0000
 51
270.0000
  0
LINE
  8
20
 10
83.8200
 20
134.6200
 30
0.0000
 11
83.8200
 21
162.5600
 31
0.0000
  0
ARC
  8
20
 10
86.3600
 20
162.5600
 30
0.0000
 40
2.5400
 50
90.0000
 51
180.0000
  0
LINE
  8
20
 10
86.3600
 20
165.1000
 30
0.0000
 11
142.2400
 21
165.1000
 31
0.0000
  0
ARC
  8
20
 10
142.2400
 20
162.5600
 30
0.0000
 40
2.5400
 50
0.0000
 51
90.0000
  0
LINE
  8
20
 10
137.7950
 20
160.6550
 30
0.0000
 11
90.8050
 21
160.6550
 31
0.0000
  0
ARC
  8
20
 10
90.8050
 20
158.1150
 30
0.0000
 40
2.5400
 50
90.0000
 51
180.0000
  0
LINE
  8
20
 10
88.2650
 20
158.1150
 30
0.0000
 11
88.2650
 21
139.0650
 31
0.0000
  0
ARC
  8
20
 10
90.8050
 20
139.0650
 30
0.0000
 40
2.5400
 50
180.0000
 51
270.0000
  0
LINE
  8
20
 10
90.8050
 20
136.5250
 30
0.0000
 11
137.7950
 21
136.5250
 31
0.0000
  0
ARC
  8
20
 10
137.7950
 20
139.0650
 30
0.0000
 40
2.5400
 50
270.0000
 51
0.0000
  0
LINE
  8
20
 10
140.3350
 20
139.0650
 30
0.0000
 11
140.3350
 21
158.1150
 31
0.0000
  0
ARC
  8
20
 10
137.7950
 20
158.1150
 30
0.0000
 40
2.5400
 50
0.0000
 51
90.0000
  0
LINE
  8
20
 10
144.7800
 20
203.2000
 30
0.0000
 11
144.7800
 21
175.2600
 31
0.0000
  0
ARC
  8
20
 10
142.2400
 20
175.2600
 30
0.0000
 40
2.5400
 50
270.0000
 51
0.0000
  0
LINE
  8
20
 10
142.2400
 20
172.7200
 30
0.0000
 11
86.3600
 21
172.7200
 31
0.0000
  0
ARC
  8
20
 10
86.3600
 20
175.2600
 30
0.0000
 40
2.5400
 50
180.0000
 51
270.0000
  0
LINE
  8
20
 10
83.8200
 20
175.2600
 30
0.0000
 11
83.8200
 21
203.2000
 31
0.0000
  0
ARC
  8
20
 10
86.3600
 20
203.2000
 30
0.0000
 40
2.5400
 50
90.0000
 51
180.0000
  0
LINE
  8
20
 10
86.3600
 20
205.7400
 30
0.0000
 11
142.2400
 21
205.7400
 31
0.0000
  0
ARC
  8
20
 10
142.2400
 20
203.2000
 30
0.0000
 40
2.5400
 50
0.0000
 51
90.0000
  0
LINE
  8
20
 10
137.7950
 20
201.2950
 30
0.0000
 11
90.8050
 21
201.2950
 31
0.0000
  0
ARC
  8
20
 10
90.8050
 20
198.7550
 30
0.0000
 40
2.5400
 50
90.0000
 51
180.0000
  0
LINE
  8
20
 10
88.2650
 20
198.7550
 30
0.0000
 11
88.2650
 21
179.7050
 31
0.0000
  0
ARC
  8
20
 10
90.8050
 20
179.7050
 30
0.0000
 40
2.5400
 50
180.0000
 51
270.0000
  0
LINE
  8
20
 10
90.8050
 20
177.1650
 30
0.0000
 11
137.7950
 21
177.1650
 31
0.0000
  0
ARC
  8
20
 10
137.7950
 20
179.7050
 30
0.0000
 40
2.5400
 50
270.0000
 51
0.0000
  0
LINE
  8
20
 10
140.3350
 20
179.7050
 30
0.0000
 11
140.3350
 21
198.7550
 31
0.0000
  0
ARC
  8
20
 10
137.7950
 20
198.7550
 30
0.0000
 40
2.5400
 50
0.0000
 51
90.0000
  0
LINE
  8
20
 10
144.7800
 20
243.8400
 30
0.0000
 11
144.7800
 21
215.9000
 31
0.0000
  0
ARC
  8
20
 10
142.2400
 20
215.9000
 30
0.0000
 40
2.5400
 50
270.0000
 51
0.0000
  0
LINE
  8
20
 10
142.2400
 20
213.3600
 30
0.0000
 11
86.3600
 21
213.3600
 31
0.0000
  0
ARC
  8
20
 10
86.3600
 20
215.9000
 30
0.0000
 40
2.5400
 50
180.0000
 51
270.0000
  0
LINE
  8
20
 10
83.8200
 20
215.9000
 30
0.0000
 11
83.8200
 21
243.8400
 31
0.0000
  0
ARC
  8
20
 10
86.3600
 20
243.8400
 30
0.0000
 40
2.5400
 50
90.0000
 51
180.0000
  0
LINE
  8
20
 10
86.3600
 20
246.3800
 30
0.0000
 11
142.2400
 21
246.3800
 31
0.0000
  0
ARC
  8
20
 10
142.2400
 20
243.8400
 30
0.0000
 40
2.5400
 50
0.0000
 51
90.0000
  0
LINE
  8
20
 10
137.7950
 20
241.9350
 30
0.0000
 11
90.8050
 21
241.9350
 31
0.0000
  0
ARC
  8
20
 10
90.8050
 20
239.3950
 30
0.0000
 40
2.5400
 50
90.0000
 51
180.0000
  0
LINE
  8
20
 10
88.2650
 20
239.3950
 30
0.0000
 11
88.2650
 21
220.3450
 31
0.0000
  0
ARC
  8
20
 10
90.8050
 20
220.3450
 30
0.0000
 40
2.5400
 50
180.0000
 51
270.0000
  0
LINE
  8
20
 10
90.8050
 20
217.8050
 30
0.0000
 11
137.7950
 21
217.8050
 31
0.0000
  0
ARC
  8
20
 10
137.7950
 20
220.3450
 30
0.0000
 40
2.5400
 50
270.0000
 51
0.0000
  0
LINE
  8
20
 10
140.3350
 20
220.3450
 30
0.0000
 11
140.3350
 21
239.3950
 31
0.0000
  0
ARC
  8
20
 10
137.7950
 20
239.3950
 30
0.0000
 40
2.5400
 50
0.0000
 51
90.0000
  0
LINE
  8
20
 10
144.7800
 20
284.4800
 30
0.0000
 11
144.7800
 21
256.5400
 31
0.0000
  0
ARC
  8
20
 10
142.2400
 20
256.5400
 30
0.0000
 40
2.5400
 50
270.0000
 51
0.0000
  0
LINE
  8
20
 10
142.2400
 20
254.0000
 30
0.0000
 11
86.3600
 21
254.0000
 31
0.0000
  0
ARC
  8
20
 10
86.3600
 20
256.5400
 30
0.0000
 40
2.5400
 50
180.0000
 51
270.0000
  0
LINE
  8
20
 10
83.8200
 20
256.5400
 30
0.0000
 11
83.8200
 21
284.4800
 31
0.0000
  0
ARC
  8
20
 10
86.3600
 20
284.4800
 30
0.0000
 40
2.5400
 50
90.0000
 51
180.0000
  0
LINE
  8
20
 10
86.3600
 20
287.0200
 30
0.0000
 11
142.2400
 21
287.0200
 31
0.0000
  0
ARC
  8
20
 10
142.2400
 20
284.4800
 30
0.0000
 40
2.5400
 50
0.0000
 51
90.0000
  0
LINE
  8
20
 10
137.7950
 20
282.5750
 30
0.0000
 11
90.8050
 21
282.5750
 31
0.0000
  0
ARC
  8
20
 10
90.8050
 20
280.0350
 30
0.0000
 40
2.5400
 50
90.0000
 51
180.0000
  0
LINE
  8
20
 10
88.2650
 20
280.0350
 30
0.0000
 11
88.2650
 21
260.9850
 31
0.0000
  0
ARC
  8
20
 10
90.8050
 20
260.9850
 30
0.0000
 40
2.5400
 50
180.0000
 51
270.0000
  0
LINE
  8
20
 10
90.8050
 20
258.4450
 30
0.0000
 11
137.7950
 21
258.4450
 31
0.0000
  0
ARC
  8
20
 10
137.7950
 20
260.9850
 30
0.0000
 40
2.5400
 50
270.0000
 51
0.0000
  0
LINE
  8
20
 10
140.3350
 20
260.9850
 30
0.0000
 11
140.3350
 21
280.0350
 31
0.0000
  0
ARC
  8
20
 10
137.7950
 20
280.0350
 30
0.0000
 40
2.5400
 50
0.0000
 51
90.0000
  0
LINE
  8
20
 10
144.7800
 20
81.2800
 30
0.0000
 11
144.7800
 21
53.3400
 31
0.0000
  0
ARC
  8
20
 10
142.2400
 20
53.3400
 30
0.0000
 40
2.5400
 50
270.0000
 51
0.0000
  0
LINE
  8
20
 10
142.2400
 20
50.8000
 30
0.0000
 11
86.3600
 21
50.8000
 31
0.0000
  0
ARC
  8
20
 10
86.3600
 20
53.3400
 30
0.0000
 40
2.5400
 50
180.0000
 51
270.0000
  0
LINE
  8
20
 10
83.8200
 20
53.3400
 30
0.0000
 11
83.8200
 21
81.2800
 31
0.0000
  0
ARC
  8
20
 10
86.3600
 20
81.2800
 30
0.0000
 40
2.5400
 50
90.0000
 51
180.0000
  0
LINE
  8
20
 10
86.3600
 20
83.8200
 30
0.0000
 11
142.2400
 21
83.8200
 31
0.0000
  0
ARC
  8
20
 10
142.2400
 20
81.2800
 30
0.0000
 40
2.5400
 50
0.0000
 51
90.0000
  0
LINE
  8
20
 10
137.7950
 20
79.3750
 30
0.0000
 11
90.8050
 21
79.3750
 31
0.0000
  0
ARC
  8
20
 10
90.8050
 20
76.8350
 30
0.0000
 40
2.5400
 50
90.0000
 51
180.0000
  0
LINE
  8
20
 10
88.2650
 20
76.8350
 30
0.0000
 11
88.2650
 21
57.7850
 31
0.0000
  0
ARC
  8
20
 10
90.8050
 20
57.7850
 30
0.0000
 40
2.5400
 50
180.0000
 51
270.0000
  0
LINE
  8
20
 10
90.8050
 20
55.2450
 30
0.0000
 11
137.7950
 21
55.2450
 31
0.0000
  0
ARC
  8
20
 10
137.7950
 20
57.7850
 30
0.0000
 40
2.5400
 50
270.0000
 51
0.0000
  0
LINE
  8
20
 10
140.3350
 20
57.7850
 30
0.0000
 11
140.3350
 21
76.8350
 31
0.0000
  0
ARC
  8
20
 10
137.7950
 20
76.8350
 30
0.0000
 40
2.5400
 50
0.0000
 51
90.0000
  0
LINE
  8
20
 10
144.7800
 20
121.9200
 30
0.0000
 11
144.7800
 21
93.9800
 31
0.0000
  0
ARC
  8
20
 10
142.2400
 20
93.9800
 30
0.0000
 40
2.5400
 50
270.0000
 51
0.0000
  0
LINE
  8
20
 10
142.2400
 20
91.4400
 30
0.0000
 11
86.3600
 21
91.4400
 31
0.0000
  0
ARC
  8
20
 10
86.3600
 20
93.9800
 30
0.0000
 40
2.5400
 50
180.0000
 51
270.0000
  0
LINE
  8
20
 10
83.8200
 20
93.9800
 30
0.0000
 11
83.8200
 21
121.9200
 31
0.0000
  0
ARC
  8
20
 10
86.3600
 20
121.9200
 30
0.0000
 40
2.5400
 50
90.0000
 51
180.0000
  0
LINE
  8
20
 10
86.3600
 20
124.4600
 30
0.0000
 11
142.2400
 21
124.4600
 31
0.0000
  0
ARC
  8
20
 10
142.2400
 20
121.9200
 30
0.0000
 40
2.5400
 50
0.0000
 51
90.0000
  0
LINE
  8
20
 10
137.7950
 20
120.0150
 30
0.0000
 11
90.8050
 21
120.0150
 31
0.0000
  0
ARC
  8
20
 10
90.8050
 20
117.4750
 30
0.0000
 40
2.5400
 50
90.0000
 51
180.0000
  0
LINE
  8
20
 10
88.2650
 20
117.4750
 30
0.0000
 11
88.2650
 21
98.4250
 31
0.0000
  0
ARC
  8
20
 10
90.8050
 20
98.4250
 30
0.0000
 40
2.5400
 50
180.0000
 51
270.0000
  0
LINE
  8
20
 10
90.8050
 20
95.8850
 30
0.0000
 11
137.7950
 21
95.8850
 31
0.0000
  0
ARC
  8
20
 10
137.7950
 20
98.4250
 30
0.0000
 40
2.5400
 50
270.0000
 51
0.0000
  0
LINE
  8
20
 10
140.3350
 20
98.4250
 30
0.0000
 11
140.3350
 21
117.4750
 31
0.0000
  0
ARC
  8
20
 10
137.7950
 20
117.4750
 30
0.0000
 40
2.5400
 50
0.0000
 51
90.0000
  0
LINE
  8
20
 10
144.7800
 20
40.6400
 30
0.0000
 11
144.7800
 21
12.7000
 31
0.0000
  0
ARC
  8
20
 10
142.2400
 20
12.7000
 30
0.0000
 40
2.5400
 50
270.0000
 51
0.0000
  0
LINE
  8
20
 10
142.2400
 20
10.1600
 30
0.0000
 11
86.3600
 21
10.1600
 31
0.0000
  0
ARC
  8
20
 10
86.3600
 20
12.7000
 30
0.0000
 40
2.5400
 50
180.0000
 51
270.0000
  0
LINE
  8
20
 10
83.8200
 20
12.7000
 30
0.0000
 11
83.8200
 21
40.6400
 31
0.0000
  0
ARC
  8
20
 10
86.3600
 20
40.6400
 30
0.0000
 40
2.5400
 50
90.0000
 51
180.0000
  0
LINE
  8
20
 10
86.3600
 20
43.1800
 30
0.0000
 11
142.2400
 21
43.1800
 31
0.0000
  0
ARC
  8
20
 10
142.2400
 20
40.6400
 30
0.0000
 40
2.5400
 50
0.0000
 51
90.0000
  0
LINE
  8
20
 10
210.8200
 20
50.8000
 30
0.0000
 11
154.9400
 21
50.8000
 31
0.0000
  0
ARC
  8
20
 10
154.9400
 20
53.3400
 30
0.0000
 40
2.5400
 50
180.0000
 51
270.0000
  0
LINE
  8
20
 10
152.4000
 20
53.3400
 30
0.0000
 11
152.4000
 21
81.2800
 31
0.0000
  0
ARC
  8
20
 10
154.9400
 20
81.2800
 30
0.0000
 40
2.5400
 50
90.0000
 51
180.0000
  0
LINE
  8
20
 10
154.9400
 20
83.8200
 30
0.0000
 11
210.8200
 21
83.8200
 31
0.0000
  0
ARC
  8
20
 10
210.8200
 20
81.2800
 30
0.0000
 40
2.5400
 50
0.0000
 51
90.0000
  0
LINE
  8
20
 10
213.3600
 20
81.2800
 30
0.0000
 11
213.3600
 21
73.6600
 31
0.0000
  0
ARC
  8
20
 10
212.0900
 20
73.6600
 30
0.0000
 40
1.2700
 50
270.0000
 51
0.0000
  0
LINE
  8
20
 10
212.0900
 20
72.3900
 30
0.0000
 11
210.1850
 21
72.3900
 31
0.0000
  0
ARC
  8
20
 10
210.1850
 20
73.6600
 30
0.0000
 40
1.2700
 50
180.0000
 51
270.0000
  0
LINE
  8
20
 10
208.9150
 20
73.6600
 30
0.0000
 11
208.9150
 21
76.8350
 31
0.0000
  0
LINE
  8
20
 10
213.3600
 20
53.3400
 30
0.0000
 11
213.3600
 21
60.9600
 31
0.0000
  0
ARC
  8
20
 10
212.0900
 20
60.9600
 30
0.0000
 40
1.2700
 50
0.0000
 51
90.0000
  0
LINE
  8
20
 10
208.9150
 20
57.7850
 30
0.0000
 11
208.9150
 21
60.9600
 31
0.0000
  0
ARC
  8
20
 10
210.1850
 20
60.9600
 30
0.0000
 40
1.2700
 50
90.0000
 51
180.0000
  0
LINE
  8
20
 10
210.1850
 20
62.2300
 30
0.0000
 11
212.0900
 21
62.2300
 31
0.0000
  0
ARC
  8
20
 10
210.8200
 20
53.3400
 30
0.0000
 40
2.5400
 50
270.0000
 51
0.0000
  0
LINE
  8
20
 10
159.3850
 20
55.2450
 30
0.0000
 11
206.3750
 21
55.2450
 31
0.0000
  0
ARC
  8
20
 10
206.3750
 20
57.7850
 30
0.0000
 40
2.5400
 50
270.0000
 51
0.0000
  0
ARC
  8
20
 10
206.3750
 20
76.8350
 30
0.0000
 40
2.5400
 50
0.0000
 51
90.0000
  0
LINE
  8
20
 10
206.3750
 20
79.3750
 30
0.0000
 11
159.3850
 21
79.3750
 31
0.0000
  0
ARC
  8
20
 10
159.3850
 20
76.8350
 30
0.0000
 40
2.5400
 50
90.0000
 51
180.0000
  0
LINE
  8
20
 10
156.8450
 20
76.8350
 30
0.0000
 11
156.8450
 21
57.7850
 31
0.0000
  0
ARC
  8
20
 10
159.3850
 20
57.7850
 30
0.0000
 40
2.5400
 50
180.0000
 51
270.0000
  0
LINE
  8
20
 10
152.4000
 20
12.7000
 30
0.0000
 11
152.4000
 21
40.6400
 31
0.0000
  0
ARC
  8
20
 10
154.9400
 20
40.6400
 30
0.0000
 40
2.5400
 50
90.0000
 51
180.0000
  0
LINE
  8
20
 10
154.9400
 20
43.1800
 30
0.0000
 11
210.8200
 21
43.1800
 31
0.0000
  0
ARC
  8
20
 10
210.8200
 20
40.6400
 30
0.0000
 40
2.5400
 50
0.0000
 51
90.0000
  0
LINE
  8
20
 10
213.3600
 20
40.6400
 30
0.0000
 11
213.3600
 21
12.7000
 31
0.0000
  0
ARC
  8
20
 10
210.8200
 20
12.7000
 30
0.0000
 40
2.5400
 50
270.0000
 51
0.0000
  0
LINE
  8
20
 10
210.8200
 20
10.1600
 30
0.0000
 11
154.9400
 21
10.1600
 31
0.0000
  0
ARC
  8
20
 10
154.9400
 20
12.7000
 30
0.0000
 40
2.5400
 50
180.0000
 51
270.0000
  0
LINE
  8
20
 10
210.8200
 20
91.4400
 30
0.0000
 11
154.9400
 21
91.4400
 31
0.0000
  0
ARC
  8
20
 10
154.9400
 20
93.9800
 30
0.0000
 40
2.5400
 50
180.0000
 51
270.0000
  0
LINE
  8
20
 10
152.4000
 20
93.9800
 30
0.0000
 11
152.4000
 21
121.9200
 31
0.0000
  0
ARC
  8
20
 10
154.9400
 20
121.9200
 30
0.0000
 40
2.5400
 50
90.0000
 51
180.0000
  0
LINE
  8
20
 10
154.9400
 20
124.4600
 30
0.0000
 11
210.8200
 21
124.4600
 31
0.0000
  0
ARC
  8
20
 10
210.8200
 20
121.9200
 30
0.0000
 40
2.5400
 50
0.0000
 51
90.0000
  0
LINE
  8
20
 10
213.3600
 20
121.9200
 30
0.0000
 11
213.3600
 21
114.3000
 31
0.0000
  0
ARC
  8
20
 10
212.0900
 20
114.3000
 30
0.0000
 40
1.2700
 50
270.0000
 51
0.0000
  0
LINE
  8
20
 10
212.0900
 20
113.0300
 30
0.0000
 11
210.1850
 21
113.0300
 31
0.0000
  0
ARC
  8
20
 10
210.1850
 20
114.3000
 30
0.0000
 40
1.2700
 50
180.0000
 51
270.0000
  0
LINE
  8
20
 10
208.9150
 20
114.3000
 30
0.0000
 11
208.9150
 21
117.4750
 31
0.0000
  0
LINE
  8
20
 10
213.3600
 20
93.9800
 30
0.0000
 11
213.3600
 21
101.6000
 31
0.0000
  0
ARC
  8
20
 10
212.0900
 20
101.6000
 30
0.0000
 40
1.2700
 50
0.0000
 51
90.0000
  0
LINE
  8
20
 10
208.9150
 20
98.4250
 30
0.0000
 11
208.9150
 21
101.6000
 31
0.0000
  0
ARC
  8
20
 10
210.1850
 20
101.6000
 30
0.0000
 40
1.2700
 50
90.0000
 51
180.0000
  0
LINE
  8
20
 10
210.1850
 20
102.8700
 30
0.0000
 11
212.0900
 21
102.8700
 31
0.0000
  0
ARC
  8
20
 10
210.8200
 20
93.9800
 30
0.0000
 40
2.5400
 50
270.0000
 51
0.0000
  0
LINE
  8
20
 10
159.3850
 20
95.8850
 30
0.0000
 11
206.3750
 21
95.8850
 31
0.0000
  0
ARC
  8
20
 10
206.3750
 20
98.4250
 30
0.0000
 40
2.5400
 50
270.0000
 51
0.0000
  0
ARC
  8
20
 10
206.3750
 20
117.4750
 30
0.0000
 40
2.5400
 50
0.0000
 51
90.0000
  0
LINE
  8
20
 10
206.3750
 20
120.0150
 30
0.0000
 11
159.3850
 21
120.0150
 31
0.0000
  0
ARC
  8
20
 10
159.3850
 20
117.4750
 30
0.0000
 40
2.5400
 50
90.0000
 51
180.0000
  0
LINE
  8
20
 10
156.8450
 20
117.4750
 30
0.0000
 11
156.8450
 21
98.4250
 31
0.0000
  0
ARC
  8
20
 10
159.3850
 20
98.4250
 30
0.0000
 40
2.5400
 50
180.0000
 51
270.0000
  0
LINE
  8
20
 10
213.3600
 20
162.5600
 30
0.0000
 11
213.3600
 21
134.6200
 31
0.0000
  0
ARC
  8
20
 10
210.8200
 20
134.6200
 30
0.0000
 40
2.5400
 50
270.0000
 51
0.0000
  0
LINE
  8
20
 10
210.8200
 20
132.0800
 30
0.0000
 11
154.9400
 21
132.0800
 31
0.0000
  0
ARC
  8
20
 10
154.9400
 20
134.6200
 30
0.0000
 40
2.5400
 50
180.0000
 51
270.0000
  0
LINE
  8
20
 10
152.4000
 20
134.6200
 30
0.0000
 11
152.4000
 21
162.5600
 31
0.0000
  0
ARC
  8
20
 10
154.9400
 20
162.5600
 30
0.0000
 40
2.5400
 50
90.0000
 51
180.0000
  0
LINE
  8
20
 10
154.9400
 20
165.1000
 30
0.0000
 11
210.8200
 21
165.1000
 31
0.0000
  0
ARC
  8
20
 10
210.8200
 20
162.5600
 30
0.0000
 40
2.5400
 50
0.0000
 51
90.0000
  0
LINE
  8
20
 10
206.3750
 20
160.6550
 30
0.0000
 11
159.3850
 21
160.6550
 31
0.0000
  0
ARC
  8
20
 10
159.3850
 20
158.1150
 30
0.0000
 40
2.5400
 50
90.0000
 51
180.0000
  0
LINE
  8
20
 10
156.8450
 20
158.1150
 30
0.0000
 11
156.8450
 21
139.0650
 31
0.0000
  0
ARC
  8
20
 10
159.3850
 20
139.0650
 30
0.0000
 40
2.5400
 50
180.0000
 51
270.0000
  0
LINE
  8
20
 10
159.3850
 20
136.5250
 30
0.0000
 11
206.3750
 21
136.5250
 31
0.0000
  0
ARC
  8
20
 10
206.3750
 20
139.0650
 30
0.0000
 40
2.5400
 50
270.0000
 51
0.0000
  0
LINE
  8
20
 10
208.9150
 20
139.0650
 30
0.0000
 11
208.9150
 21
158.1150
 31
0.0000
  0
ARC
  8
20
 10
206.3750
 20
158.1150
 30
0.0000
 40
2.5400
 50
0.0000
 51
90.0000
  0
LINE
  8
20
 10
213.3600
 20
203.2000
 30
0.0000
 11
213.3600
 21
175.2600
 31
0.0000
  0
ARC
  8
20
 10
210.8200
 20
175.2600
 30
0.0000
 40
2.5400
 50
270.0000
 51
0.0000
  0
LINE
  8
20
 10
210.8200
 20
172.7200
 30
0.0000
 11
154.9400
 21
172.7200
 31
0.0000
  0
ARC
  8
20
 10
154.9400
 20
175.2600
 30
0.0000
 40
2.5400
 50
180.0000
 51
270.0000
  0
LINE
  8
20
 10
152.4000
 20
175.2600
 30
0.0000
 11
152.4000
 21
203.2000
 31
0.0000
  0
ARC
  8
20
 10
154.9400
 20
203.2000
 30
0.0000
 40
2.5400
 50
90.0000
 51
180.0000
  0
LINE
  8
20
 10
154.9400
 20
205.7400
 30
0.0000
 11
210.8200
 21
205.7400
 31
0.0000
  0
ARC
  8
20
 10
210.8200
 20
203.2000
 30
0.0000
 40
2.5400
 50
0.0000
 51
90.0000
  0
LINE
  8
20
 10
206.3750
 20
201.2950
 30
0.0000
 11
159.3850
 21
201.2950
 31
0.0000
  0
ARC
  8
20
 10
159.3850
 20
198.7550
 30
0.0000
 40
2.5400
 50
90.0000
 51
180.0000
  0
LINE
  8
20
 10
156.8450
 20
198.7550
 30
0.0000
 11
156.8450
 21
179.7050
 31
0.0000
  0
ARC
  8
20
 10
159.3850
 20
179.7050
 30
0.0000
 40
2.5400
 50
180.0000
 51
270.0000
  0
LINE
  8
20
 10
159.3850
 20
177.1650
 30
0.0000
 11
206.3750
 21
177.1650
 31
0.0000
  0
ARC
  8
20
 10
206.3750
 20
179.7050
 30
0.0000
 40
2.5400
 50
270.0000
 51
0.0000
  0
LINE
  8
20
 10
208.9150
 20
179.7050
 30
0.0000
 11
208.9150
 21
198.7550
 31
0.0000
  0
ARC
  8
20
 10
206.3750
 20
198.7550
 30
0.0000
 40
2.5400
 50
0.0000
 51
90.0000
  0
LINE
  8
20
 10
213.3600
 20
243.8400
 30
0.0000
 11
213.3600
 21
215.9000
 31
0.0000
  0
ARC
  8
20
 10
210.8200
 20
215.9000
 30
0.0000
 40
2.5400
 50
270.0000
 51
0.0000
  0
LINE
  8
20
 10
210.8200
 20
213.3600
 30
0.0000
 11
154.9400
 21
213.3600
 31
0.0000
  0
ARC
  8
20
 10
154.9400
 20
215.9000
 30
0.0000
 40
2.5400
 50
180.0000
 51
270.0000
  0
LINE
  8
20
 10
152.4000
 20
215.9000
 30
0.0000
 11
152.4000
 21
243.8400
 31
0.0000
  0
ARC
  8
20
 10
154.9400
 20
243.8400
 30
0.0000
 40
2.5400
 50
90.0000
 51
180.0000
  0
LINE
  8
20
 10
154.9400
 20
246.3800
 30
0.0000
 11
210.8200
 21
246.3800
 31
0.0000
  0
ARC
  8
20
 10
210.8200
 20
243.8400
 30
0.0000
 40
2.5400
 50
0.0000
 51
90.0000
  0
LINE
  8
20
 10
206.3750
 20
241.9350
 30
0.0000
 11
159.3850
 21
241.9350
 31
0.0000
  0
ARC
  8
20
 10
159.3850
 20
239.3950
 30
0.0000
 40
2.5400
 50
90.0000
 51
180.0000
  0
LINE
  8
20
 10
156.8450
 20
239.3950
 30
0.0000
 11
156.8450
 21
220.3450
 31
0.0000
  0
ARC
  8
20
 10
159.3850
 20
220.3450
 30
0.0000
 40
2.5400
 50
180.0000
 51
270.0000
  0
LINE
  8
20
 10
159.3850
 20
217.8050
 30
0.0000
 11
206.3750
 21
217.8050
 31
0.0000
  0
ARC
  8
20
 10
206.3750
 20
220.3450
 30
0.0000
 40
2.5400
 50
270.0000
 51
0.0000
  0
LINE
  8
20
 10
208.9150
 20
220.3450
 30
0.0000
 11
208.9150
 21
239.3950
 31
0.0000
  0
ARC
  8
20
 10
206.3750
 20
239.3950
 30
0.0000
 40
2.5400
 50
0.0000
 51
90.0000
  0
LINE
  8
20
 10
213.3600
 20
284.4800
 30
0.0000
 11
213.3600
 21
256.5400
 31
0.0000
  0
ARC
  8
20
 10
210.8200
 20
256.5400
 30
0.0000
 40
2.5400
 50
270.0000
 51
0.0000
  0
LINE
  8
20
 10
210.8200
 20
254.0000
 30
0.0000
 11
154.9400
 21
254.0000
 31
0.0000
  0
ARC
  8
20
 10
154.9400
 20
256.5400
 30
0.0000
 40
2.5400
 50
180.0000
 51
270.0000
  0
LINE
  8
20
 10
152.4000
 20
256.5400
 30
0.0000
 11
152.4000
 21
284.4800
 31
0.0000
  0
ARC
  8
20
 10
154.9400
 20
284.4800
 30
0.0000
 40
2.5400
 50
90.0000
 51
180.0000
  0
LINE
  8
20
 10
154.9400
 20
287.0200
 30
0.0000
 11
210.8200
 21
287.0200
 31
0.0000
  0
ARC
  8
20
 10
210.8200
 20
284.4800
 30
0.0000
 40
2.5400
 50
0.0000
 51
90.0000
  0
LINE
  8
20
 10
206.3750
 20
282.5750
 30
0.0000
 11
159.3850
 21
282.5750
 31
0.0000
  0
ARC
  8
20
 10
159.3850
 20
280.0350
 30
0.0000
 40
2.5400
 50
90.0000
 51
180.0000
  0
LINE
  8
20
 10
156.8450
 20
280.0350
 30
0.0000
 11
156.8450
 21
260.9850
 31
0.0000
  0
ARC
  8
20
 10
159.3850
 20
260.9850
 30
0.0000
 40
2.5400
 50
180.0000
 51
270.0000
  0
LINE
  8
20
 10
159.3850
 20
258.4450
 30
0.0000
 11
206.3750
 21
258.4450
 31
0.0000
  0
ARC
  8
20
 10
206.3750
 20
260.9850
 30
0.0000
 40
2.5400
 50
270.0000
 51
0.0000
  0
LINE
  8
20
 10
208.9150
 20
260.9850
 30
0.0000
 11
208.9150
 21
280.0350
 31
0.0000
  0
ARC
  8
20
 10
206.3750
 20
280.0350
 30
0.0000
 40
2.5400
 50
0.0000
 51
90.0000
  0
LINE
  8
20
 10
281.9400
 20
162.5600
 30
0.0000
 11
281.9400
 21
134.6200
 31
0.0000
  0
ARC
  8
20
 10
279.4000
 20
134.6200
 30
0.0000
 40
2.5400
 50
270.0000
 51
0.0000
  0
LINE
  8
20
 10
279.4000
 20
132.0800
 30
0.0000
 11
223.5200
 21
132.0800
 31
0.0000
  0
ARC
  8
20
 10
223.5200
 20
134.6200
 30
0.0000
 40
2.5400
 50
180.0000
 51
270.0000
  0
LINE
  8
20
 10
220.9800
 20
134.6200
 30
0.0000
 11
220.9800
 21
162.5600
 31
0.0000
  0
ARC
  8
20
 10
223.5200
 20
162.5600
 30
0.0000
 40
2.5400
 50
90.0000
 51
180.0000
  0
LINE
  8
20
 10
223.5200
 20
165.1000
 30
0.0000
 11
279.4000
 21
165.1000
 31
0.0000
  0
ARC
  8
20
 10
279.4000
 20
162.5600
 30
0.0000
 40
2.5400
 50
0.0000
 51
90.0000
  0
LINE
  8
20
 10
274.9550
 20
160.6550
 30
0.0000
 11
227.9650
 21
160.6550
 31
0.0000
  0
ARC
  8
20
 10
227.9650
 20
158.1150
 30
0.0000
 40
2.5400
 50
90.0000
 51
180.0000
  0
LINE
  8
20
 10
225.4250
 20
158.1150
 30
0.0000
 11
225.4250
 21
139.0650
 31
0.0000
  0
ARC
  8
20
 10
227.9650
 20
139.0650
 30
0.0000
 40
2.5400
 50
180.0000
 51
270.0000
  0
LINE
  8
20
 10
227.9650
 20
136.5250
 30
0.0000
 11
274.9550
 21
136.5250
 31
0.0000
  0
ARC
  8
20
 10
274.9550
 20
139.0650
 30
0.0000
 40
2.5400
 50
270.0000
 51
0.0000
  0
LINE
  8
20
 10
277.4950
 20
139.0650
 30
0.0000
 11
277.4950
 21
158.1150
 31
0.0000
  0
ARC
  8
20
 10
274.9550
 20
158.1150
 30
0.0000
 40
2.5400
 50
0.0000
 51
90.0000
  0
LINE
  8
20
 10
281.9400
 20
203.2000
 30
0.0000
 11
281.9400
 21
175.2600
 31
0.0000
  0
ARC
  8
20
 10
279.4000
 20
175.2600
 30
0.0000
 40
2.5400
 50
270.0000
 51
0.0000
  0
LINE
  8
20
 10
279.4000
 20
172.7200
 30
0.0000
 11
223.5200
 21
172.7200
 31
0.0000
  0
ARC
  8
20
 10
223.5200
 20
175.2600
 30
0.0000
 40
2.5400
 50
180.0000
 51
270.0000
  0
LINE
  8
20
 10
220.9800
 20
175.2600
 30
0.0000
 11
220.9800
 21
203.2000
 31
0.0000
  0
ARC
  8
20
 10
223.5200
 20
203.2000
 30
0.0000
 40
2.5400
 50
90.0000
 51
180.0000
  0
LINE
  8
20
 10
223.5200
 20
205.7400
 30
0.0000
 11
279.4000
 21
205.7400
 31
0.0000
  0
ARC
  8
20
 10
279.4000
 20
203.2000
 30
0.0000
 40
2.5400
 50
0.0000
 51
90.0000
  0
LINE
  8
20
 10
274.9550
 20
201.2950
 30
0.0000
 11
227.9650
 21
201.2950
 31
0.0000
  0
ARC
  8
20
 10
227.9650
 20
198.7550
 30
0.0000
 40
2.5400
 50
90.0000
 51
180.0000
  0
LINE
  8
20
 10
225.4250
 20
198.7550
 30
0.0000
 11
225.4250
 21
179.7050
 31
0.0000
  0
ARC
  8
20
 10
227.9650
 20
179.7050
 30
0.0000
 40
2.5400
 50
180.0000
 51
270.0000
  0
LINE
  8
20
 10
227.9650
 20
177.1650
 30
0.0000
 11
274.9550
 21
177.1650
 31
0.0000
  0
ARC
  8
20
 10
274.9550
 20
179.7050
 30
0.0000
 40
2.5400
 50
270.0000
 51
0.0000
  0
LINE
  8
20
 10
277.4950
 20
179.7050
 30
0.0000
 11
277.4950
 21
198.7550
 31
0.0000
  0
ARC
  8
20
 10
274.9550
 20
198.7550
 30
0.0000
 40
2.5400
 50
0.0000
 51
90.0000
  0
LINE
  8
20
 10
281.9400
 20
243.8400
 30
0.0000
 11
281.9400
 21
215.9000
 31
0.0000
  0
ARC
  8
20
 10
279.4000
 20
215.9000
 30
0.0000
 40
2.5400
 50
270.0000
 51
0.0000
  0
LINE
  8
20
 10
279.4000
 20
213.3600
 30
0.0000
 11
223.5200
 21
213.3600
 31
0.0000
  0
ARC
  8
20
 10
223.5200
 20
215.9000
 30
0.0000
 40
2.5400
 50
180.0000
 51
270.0000
  0
LINE
  8
20
 10
220.9800
 20
215.9000
 30
0.0000
 11
220.9800
 21
243.8400
 31
0.0000
  0
ARC
  8
20
 10
223.5200
 20
243.8400
 30
0.0000
 40
2.5400
 50
90.0000
 51
180.0000
  0
LINE
  8
20
 10
223.5200
 20
246.3800
 30
0.0000
 11
279.4000
 21
246.3800
 31
0.0000
  0
ARC
  8
20
 10
279.4000
 20
243.8400
 30
0.0000
 40
2.5400
 50
0.0000
 51
90.0000
  0
LINE
  8
20
 10
274.9550
 20
241.9350
 30
0.0000
 11
227.9650
 21
241.9350
 31
0.0000
  0
ARC
  8
20
 10
227.9650
 20
239.3950
 30
0.0000
 40
2.5400
 50
90.0000
 51
180.0000
  0
LINE
  8
20
 10
225.4250
 20
239.3950
 30
0.0000
 11
225.4250
 21
220.3450
 31
0.0000
  0
ARC
  8
20
 10
227.9650
 20
220.3450
 30
0.0000
 40
2.5400
 50
180.0000
 51
270.0000
  0
LINE
  8
20
 10
227.9650
 20
217.8050
 30
0.0000
 11
274.9550
 21
217.8050
 31
0.0000
  0
ARC
  8
20
 10
274.9550
 20
220.3450
 30
0.0000
 40
2.5400
 50
270.0000
 51
0.0000
  0
LINE
  8
20
 10
277.4950
 20
220.3450
 30
0.0000
 11
277.4950
 21
239.3950
 31
0.0000
  0
ARC
  8
20
 10
274.9550
 20
239.3950
 30
0.0000
 40
2.5400
 50
0.0000
 51
90.0000
  0
LINE
  8
20
 10
281.9400
 20
284.4800
 30
0.0000
 11
281.9400
 21
256.5400
 31
0.0000
  0
ARC
  8
20
 10
279.4000
 20
256.5400
 30
0.0000
 40
2.5400
 50
270.0000
 51
0.0000
  0
LINE
  8
20
 10
279.4000
 20
254.0000
 30
0.0000
 11
223.5200
 21
254.0000
 31
0.0000
  0
ARC
  8
20
 10
223.5200
 20
256.5400
 30
0.0000
 40
2.5400
 50
180.0000
 51
270.0000
  0
LINE
  8
20
 10
220.9800
 20
256.5400
 30
0.0000
 11
220.9800
 21
284.4800
 31
0.0000
  0
ARC
  8
20
 10
223.5200
 20
284.4800
 30
0.0000
 40
2.5400
 50
90.0000
 51
180.0000
  0
LINE
  8
20
 10
223.5200
 20
287.0200
 30
0.0000
 11
279.4000
 21
287.0200
 31
0.0000
  0
ARC
  8
20
 10
279.4000
 20
284.4800
 30
0.0000
 40
2.5400
 50
0.0000
 51
90.0000
  0
LINE
  8
20
 10
274.9550
 20
282.5750
 30
0.0000
 11
227.9650
 21
282.5750
 31
0.0000
  0
ARC
  8
20
 10
227.9650
 20
280.0350
 30
0.0000
 40
2.5400
 50
90.0000
 51
180.0000
  0
LINE
  8
20
 10
225.4250
 20
280.0350
 30
0.0000
 11
225.4250
 21
260.9850
 31
0.0000
  0
ARC
  8
20
 10
227.9650
 20
260.9850
 30
0.0000
 40
2.5400
 50
180.0000
 51
270.0000
  0
LINE
  8
20
 10
227.9650
 20
258.4450
 30
0.0000
 11
274.9550
 21
258.4450
 31
0.0000
  0
ARC
  8
20
 10
274.9550
 20
260.9850
 30
0.0000
 40
2.5400
 50
270.0000
 51
0.0000
  0
LINE
  8
20
 10
277.4950
 20
260.9850
 30
0.0000
 11
277.4950
 21
280.0350
 31
0.0000
  0
ARC
  8
20
 10
274.9550
 20
280.0350
 30
0.0000
 40
2.5400
 50
0.0000
 51
90.0000
  0
LINE
  8
20
 10
281.9400
 20
81.2800
 30
0.0000
 11
281.9400
 21
53.3400
 31
0.0000
  0
ARC
  8
20
 10
279.4000
 20
53.3400
 30
0.0000
 40
2.5400
 50
270.0000
 51
0.0000
  0
LINE
  8
20
 10
279.4000
 20
50.8000
 30
0.0000
 11
223.5200
 21
50.8000
 31
0.0000
  0
ARC
  8
20
 10
223.5200
 20
53.3400
 30
0.0000
 40
2.5400
 50
180.0000
 51
270.0000
  0
LINE
  8
20
 10
220.9800
 20
53.3400
 30
0.0000
 11
220.9800
 21
81.2800
 31
0.0000
  0
ARC
  8
20
 10
223.5200
 20
81.2800
 30
0.0000
 40
2.5400
 50
90.0000
 51
180.0000
  0
LINE
  8
20
 10
223.5200
 20
83.8200
 30
0.0000
 11
279.4000
 21
83.8200
 31
0.0000
  0
ARC
  8
20
 10
279.4000
 20
81.2800
 30
0.0000
 40
2.5400
 50
0.0000
 51
90.0000
  0
LINE
  8
20
 10
274.9550
 20
79.3750
 30
0.0000
 11
227.9650
 21
79.3750
 31
0.0000
  0
ARC
  8
20
 10
227.9650
 20
76.8350
 30
0.0000
 40
2.5400
 50
90.0000
 51
180.0000
  0
LINE
  8
20
 10
225.4250
 20
76.8350
 30
0.0000
 11
225.4250
 21
57.7850
 31
0.0000
  0
ARC
  8
20
 10
227.9650
 20
57.7850
 30
0.0000
 40
2.5400
 50
180.0000
 51
270.0000
  0
LINE
  8
20
 10
227.9650
 20
55.2450
 30
0.0000
 11
274.9550
 21
55.2450
 31
0.0000
  0
ARC
  8
20
 10
274.9550
 20
57.7850
 30
0.0000
 40
2.5400
 50
270.0000
 51
0.0000
  0
LINE
  8
20
 10
277.4950
 20
57.7850
 30
0.0000
 11
277.4950
 21
76.8350
 31
0.0000
  0
ARC
  8
20
 10
274.9550
 20
76.8350
 30
0.0000
 40
2.5400
 50
0.0000
 51
90.0000
  0
LINE
  8
20
 10
281.9400
 20
121.9200
 30
0.0000
 11
281.9400
 21
93.9800
 31
0.0000
  0
ARC
  8
20
 10
279.4000
 20
93.9800
 30
0.0000
 40
2.5400
 50
270.0000
 51
0.0000
  0
LINE
  8
20
 10
279.4000
 20
91.4400
 30
0.0000
 11
223.5200
 21
91.4400
 31
0.0000
  0
ARC
  8
20
 10
223.5200
 20
93.9800
 30
0.0000
 40
2.5400
 50
180.0000
 51
270.0000
  0
LINE
  8
20
 10
220.9800
 20
93.9800
 30
0.0000
 11
220.9800
 21
121.9200
 31
0.0000
  0
ARC
  8
20
 10
223.5200
 20
121.9200
 30
0.0000
 40
2.5400
 50
90.0000
 51
180.0000
  0
LINE
  8
20
 10
223.5200
 20
124.4600
 30
0.0000
 11
279.4000
 21
124.4600
 31
0.0000
  0
ARC
  8
20
 10
279.4000
 20
121.9200
 30
0.0000
 40
2.5400
 50
0.0000
 51
90.0000
  0
LINE
  8
20
 10
274.9550
 20
120.0150
 30
0.0000
 11
227.9650
 21
120.0150
 31
0.0000
  0
ARC
  8
20
 10
227.9650
 20
117.4750
 30
0.0000
 40
2.5400
 50
90.0000
 51
180.0000
  0
LINE
  8
20
 10
225.4250
 20
117.4750
 30
0.0000
 11
225.4250
 21
98.4250
 31
0.0000
  0
ARC
  8
20
 10
227.9650
 20
98.4250
 30
0.0000
 40
2.5400
 50
180.0000
 51
270.0000
  0
LINE
  8
20
 10
227.9650
 20
95.8850
 30
0.0000
 11
274.9550
 21
95.8850
 31
0.0000
  0
ARC
  8
20
 10
274.9550
 20
98.4250
 30
0.0000
 40
2.5400
 50
270.0000
 51
0.0000
  0
LINE
  8
20
 10
277.4950
 20
98.4250
 30
0.0000
 11
277.4950
 21
117.4750
 31
0.0000
  0
ARC
  8
20
 10
274.9550
 20
117.4750
 30
0.0000
 40
2.5400
 50
0.0000
 51
90.0000
  0
LINE
  8
20
 10
281.9400
 20
40.6400
 30
0.0000
 11
281.9400
 21
12.7000
 31
0.0000
  0
ARC
  8
20
 10
279.4000
 20
12.7000
 30
0.0000
 40
2.5400
 50
270.0000
 51
0.0000
  0
LINE
  8
20
 10
279.4000
 20
10.1600
 30
0.0000
 11
223.5200
 21
10.1600
 31
0.0000
  0
ARC
  8
20
 10
223.5200
 20
12.7000
 30
0.0000
 40
2.5400
 50
180.0000
 51
270.0000
  0
LINE
  8
20
 10
220.9800
 20
12.7000
 30
0.0000
 11
220.9800
 21
40.6400
 31
0.0000
  0
ARC
  8
20
 10
223.5200
 20
40.6400
 30
0.0000
 40
2.5400
 50
90.0000
 51
180.0000
  0
LINE
  8
20
 10
223.5200
 20
43.1800
 30
0.0000
 11
279.4000
 21
43.1800
 31
0.0000
  0
ARC
  8
20
 10
279.4000
 20
40.6400
 30
0.0000
 40
2.5400
 50
0.0000
 51
90.0000
  0
LINE
  8
20
 10
21.5900
 20
28.5750
 30
0.0000
 11
21.5900
 21
24.7650
 31
0.0000
  0
LINE
  8
20
 10
21.5900
 20
24.7650
 30
0.0000
 11
24.1300
 21
24.7650
 31
0.0000
  0
LINE
  8
20
 10
24.1300
 20
24.7650
 30
0.0000
 11
24.1300
 21
28.5750
 31
0.0000
  0
LINE
  8
20
 10
24.1300
 20
28.5750
 30
0.0000
 11
21.5900
 21
28.5750
 31
0.0000
  0
LINE
  8
20
 10
67.3100
 20
29.2100
 30
0.0000
 11
67.3100
 21
24.1300
 31
0.0000
  0
LINE
  8
20
 10
67.3100
 20
24.1300
 30
0.0000
 11
69.8500
 21
24.1300
 31
0.0000
  0
LINE
  8
20
 10
69.8500
 20
24.1300
 30
0.0000
 11
69.8500
 21
29.2100
 31
0.0000
  0
LINE
  8
20
 10
69.8500
 20
29.2100
 30
0.0000
 11
67.3100
 21
29.2100
 31
0.0000
  0
LINE
  8
20
 10
-59.6900
 20
137.7950
 30
0.0000
 11
-59.6900
 21
133.9850
 31
0.0000
  0
LINE
  8
20
 10
-59.6900
 20
133.9850
 30
0.0000
 11
-57.1500
 21
133.9850
 31
0.0000
  0
LINE
  8
20
 10
-57.1500
 20
133.9850
 30
0.0000
 11
-57.1500
 21
137.7950
 31
0.0000
  0
LINE
  8
20
 10
-57.1500
 20
137.7950
 30
0.0000
 11
-59.6900
 21
137.7950
 31
0.0000
  0
LINE
  8
20
 10
-13.9700
 20
138.4300
 30
0.0000
 11
-13.9700
 21
133.3500
 31
0.0000
  0
LINE
  8
20
 10
-13.9700
 20
133.3500
 30
0.0000
 11
-11.4300
 21
133.3500
 31
0.0000
  0
LINE
  8
20
 10
-11.4300
 20
133.3500
 30
0.0000
 11
-11.4300
 21
138.4300
 31
0.0000
  0
LINE
  8
20
 10
-11.4300
 20
138.4300
 30
0.0000
 11
-13.9700
 21
138.4300
 31
0.0000
  0
LINE
  8
20
 10
158.7500
 20
28.5750
 30
0.0000
 11
158.7500
 21
24.7650
 31
0.0000
  0
LINE
  8
20
 10
158.7500
 20
24.7650
 30
0.0000
 11
161.2900
 21
24.7650
 31
0.0000
  0
LINE
  8
20
 10
161.2900
 20
24.7650
 30
0.0000
 11
161.2900
 21
28.5750
 31
0.0000
  0
LINE
  8
20
 10
161.2900
 20
28.5750
 30
0.0000
 11
158.7500
 21
28.5750
 31
0.0000
  0
LINE
  8
20
 10
204.4700
 20
29.2100
 30
0.0000
 11
204.4700
 21
24.1300
 31
0.0000
  0
LINE
  8
20
 10
204.4700
 20
24.1300
 30
0.0000
 11
207.0100
 21
24.1300
 31
0.0000
  0
LINE
  8
20
 10
207.0100
 20
24.1300
 30
0.0000
 11
207.0100
 21
29.2100
 31
0.0000
  0
LINE
  8
20
 10
207.0100
 20
29.2100
 30
0.0000
 11
204.4700
 21
29.2100
 31
0.0000
  0
LINE
  8
49
 10
-41.6421
 20
178.9437
 30
0.0000
 11
-41.2608
 21
179.3250
 31
0.0000
  0
LINE
  8
49
 10
-41.2608
 20
179.3250
 30
0.0000
 11
-41.2608
 21
178.1810
 31
0.0000
  0
LINE
  8
49
 10
-41.6421
 20
178.1810
 30
0.0000
 11
-40.8795
 21
178.1810
 31
0.0000
  0
LINE
  8
49
 10
-40.4728
 20
178.1810
 30
0.0000
 11
-40.4728
 21
178.3717
 31
0.0000
  0
LINE
  8
49
 10
-40.4728
 20
178.3717
 30
0.0000
 11
-40.2821
 21
178.3717
 31
0.0000
  0
LINE
  8
49
 10
-40.2821
 20
178.3717
 30
0.0000
 11
-40.2821
 21
178.1810
 31
0.0000
  0
LINE
  8
49
 10
-40.2821
 20
178.1810
 30
0.0000
 11
-40.4728
 21
178.1810
 31
0.0000
  0
LINE
  8
49
 10
-39.8881
 20
178.3717
 30
0.0000
 11
-39.8881
 21
179.1343
 31
0.0000
  0
LINE
  8
49
 10
-39.8881
 20
179.1343
 30
0.0000
 11
-39.6974
 21
179.3250
 31
0.0000
  0
LINE
  8
49
 10
-39.6974
 20
179.3250
 30
0.0000
 11
-39.3161
 21
179.3250
 31
0.0000
  0
LINE
  8
49
 10
-39.3161
 20
179.3250
 30
0.0000
 11
-39.1254
 21
179.1343
 31
0.0000
  0
LINE
  8
49
 10
-39.1254
 20
179.1343
 30
0.0000
 11
-39.1254
 21
178.3717
 31
0.0000
  0
LINE
  8
49
 10
-39.1254
 20
178.3717
 30
0.0000
 11
-39.3161
 21
178.1810
 31
0.0000
  0
LINE
  8
49
 10
-39.3161
 20
178.1810
 30
0.0000
 11
-39.6974
 21
178.1810
 31
0.0000
  0
LINE
  8
49
 10
-39.6974
 20
178.1810
 30
0.0000
 11
-39.8881
 21
178.3717
 31
0.0000
  0
LINE
  8
49
 10
-39.8881
 20
178.3717
 30
0.0000
 11
-39.1254
 21
179.1343
 31
0.0000
  0
LINE
  8
49
 10
-38.7187
 20
178.3717
 30
0.0000
 11
-38.7187
 21
179.1343
 31
0.0000
  0
LINE
  8
49
 10
-38.7187
 20
179.1343
 30
0.0000
 11
-38.5280
 21
179.3250
 31
0.0000
  0
LINE
  8
49
 10
-38.5280
 20
179.3250
 30
0.0000
 11
-38.1467
 21
179.3250
 31
0.0000
  0
LINE
  8
49
 10
-38.1467
 20
179.3250
 30
0.0000
 11
-37.9560
 21
179.1343
 31
0.0000
  0
LINE
  8
49
 10
-37.9560
 20
179.1343
 30
0.0000
 11
-37.9560
 21
178.3717
 31
0.0000
  0
LINE
  8
49
 10
-37.9560
 20
178.3717
 30
0.0000
 11
-38.1467
 21
178.1810
 31
0.0000
  0
LINE
  8
49
 10
-38.1467
 20
178.1810
 30
0.0000
 11
-38.5280
 21
178.1810
 31
0.0000
  0
LINE
  8
49
 10
-38.5280
 20
178.1810
 30
0.0000
 11
-38.7187
 21
178.3717
 31
0.0000
  0
LINE
  8
49
 10
-38.7187
 20
178.3717
 30
0.0000
 11
-37.9560
 21
179.1343
 31
0.0000
  0
LINE
  8
49
 10
-36.3799
 20
178.9437
 30
0.0000
 11
-36.1892
 21
178.9437
 31
0.0000
  0
LINE
  8
49
 10
-36.1892
 20
178.9437
 30
0.0000
 11
-36.1892
 21
178.1810
 31
0.0000
  0
LINE
  8
49
 10
-36.3799
 20
178.1810
 30
0.0000
 11
-35.9985
 21
178.1810
 31
0.0000
  0
LINE
  8
49
 10
-36.1892
 20
179.5156
 30
0.0000
 11
-36.1892
 21
179.3250
 31
0.0000
  0
LINE
  8
49
 10
-35.6003
 20
178.1810
 30
0.0000
 11
-35.6003
 21
178.9437
 31
0.0000
  0
LINE
  8
49
 10
-35.6003
 20
178.9437
 30
0.0000
 11
-35.0283
 21
178.9437
 31
0.0000
  0
LINE
  8
49
 10
-35.0283
 20
178.9437
 30
0.0000
 11
-34.8376
 21
178.7530
 31
0.0000
  0
LINE
  8
49
 10
-34.8376
 20
178.7530
 30
0.0000
 11
-34.8376
 21
178.1810
 31
0.0000
  0
LINE
  8
49
 10
-44.5826
 20
177.0387
 30
0.0000
 11
-45.1546
 21
177.0387
 31
0.0000
  0
LINE
  8
49
 10
-45.1546
 20
177.0387
 30
0.0000
 11
-45.3452
 21
176.8480
 31
0.0000
  0
LINE
  8
49
 10
-45.3452
 20
176.8480
 30
0.0000
 11
-45.3452
 21
176.4667
 31
0.0000
  0
LINE
  8
49
 10
-45.3452
 20
176.4667
 30
0.0000
 11
-45.1546
 21
176.2760
 31
0.0000
  0
LINE
  8
49
 10
-45.1546
 20
176.2760
 30
0.0000
 11
-44.5826
 21
176.2760
 31
0.0000
  0
LINE
  8
49
 10
-43.9852
 20
177.0387
 30
0.0000
 11
-43.6039
 21
177.0387
 31
0.0000
  0
LINE
  8
49
 10
-43.6039
 20
177.0387
 30
0.0000
 11
-43.4132
 21
176.8480
 31
0.0000
  0
LINE
  8
49
 10
-43.4132
 20
176.8480
 30
0.0000
 11
-43.4132
 21
176.2760
 31
0.0000
  0
LINE
  8
49
 10
-43.4132
 20
176.2760
 30
0.0000
 11
-43.9852
 21
176.2760
 31
0.0000
  0
LINE
  8
49
 10
-43.9852
 20
176.2760
 30
0.0000
 11
-44.1758
 21
176.4667
 31
0.0000
  0
LINE
  8
49
 10
-44.1758
 20
176.4667
 30
0.0000
 11
-43.9852
 21
176.6573
 31
0.0000
  0
LINE
  8
49
 10
-43.9852
 20
176.6573
 30
0.0000
 11
-43.4132
 21
176.6573
 31
0.0000
  0
LINE
  8
49
 10
-43.0065
 20
177.4200
 30
0.0000
 11
-42.8158
 21
177.4200
 31
0.0000
  0
LINE
  8
49
 10
-42.8158
 20
177.4200
 30
0.0000
 11
-42.8158
 21
176.2760
 31
0.0000
  0
LINE
  8
49
 10
-43.0065
 20
176.2760
 30
0.0000
 11
-42.6251
 21
176.2760
 31
0.0000
  0
LINE
  8
49
 10
-42.2269
 20
177.0387
 30
0.0000
 11
-42.0362
 21
177.0387
 31
0.0000
  0
LINE
  8
49
 10
-42.0362
 20
177.0387
 30
0.0000
 11
-42.0362
 21
176.2760
 31
0.0000
  0
LINE
  8
49
 10
-42.2269
 20
176.2760
 30
0.0000
 11
-41.8455
 21
176.2760
 31
0.0000
  0
LINE
  8
49
 10
-42.0362
 20
177.6106
 30
0.0000
 11
-42.0362
 21
177.4200
 31
0.0000
  0
LINE
  8
49
 10
-41.4473
 20
177.4200
 30
0.0000
 11
-41.4473
 21
176.2760
 31
0.0000
  0
LINE
  8
49
 10
-41.4473
 20
176.2760
 30
0.0000
 11
-40.8753
 21
176.2760
 31
0.0000
  0
LINE
  8
49
 10
-40.8753
 20
176.2760
 30
0.0000
 11
-40.6846
 21
176.4667
 31
0.0000
  0
LINE
  8
49
 10
-40.6846
 20
176.4667
 30
0.0000
 11
-40.6846
 21
176.8480
 31
0.0000
  0
LINE
  8
49
 10
-40.6846
 20
176.8480
 30
0.0000
 11
-40.8753
 21
177.0387
 31
0.0000
  0
LINE
  8
49
 10
-40.8753
 20
177.0387
 30
0.0000
 11
-41.4473
 21
177.0387
 31
0.0000
  0
LINE
  8
49
 10
-40.2779
 20
176.2760
 30
0.0000
 11
-40.2779
 21
177.0387
 31
0.0000
  0
LINE
  8
49
 10
-40.2779
 20
176.6573
 30
0.0000
 11
-39.8965
 21
177.0387
 31
0.0000
  0
LINE
  8
49
 10
-39.8965
 20
177.0387
 30
0.0000
 11
-39.7059
 21
177.0387
 31
0.0000
  0
LINE
  8
49
 10
-39.1127
 20
177.0387
 30
0.0000
 11
-38.7314
 21
177.0387
 31
0.0000
  0
LINE
  8
49
 10
-38.7314
 20
177.0387
 30
0.0000
 11
-38.5407
 21
176.8480
 31
0.0000
  0
LINE
  8
49
 10
-38.5407
 20
176.8480
 30
0.0000
 11
-38.5407
 21
176.2760
 31
0.0000
  0
LINE
  8
49
 10
-38.5407
 20
176.2760
 30
0.0000
 11
-39.1127
 21
176.2760
 31
0.0000
  0
LINE
  8
49
 10
-39.1127
 20
176.2760
 30
0.0000
 11
-39.3034
 21
176.4667
 31
0.0000
  0
LINE
  8
49
 10
-39.3034
 20
176.4667
 30
0.0000
 11
-39.1127
 21
176.6573
 31
0.0000
  0
LINE
  8
49
 10
-39.1127
 20
176.6573
 30
0.0000
 11
-38.5407
 21
176.6573
 31
0.0000
  0
LINE
  8
49
 10
-37.9433
 20
177.2293
 30
0.0000
 11
-37.9433
 21
176.4667
 31
0.0000
  0
LINE
  8
49
 10
-37.9433
 20
176.4667
 30
0.0000
 11
-37.7526
 21
176.2760
 31
0.0000
  0
LINE
  8
49
 10
-38.1340
 20
177.0387
 30
0.0000
 11
-37.7526
 21
177.0387
 31
0.0000
  0
LINE
  8
49
 10
-37.3544
 20
177.0387
 30
0.0000
 11
-37.1637
 21
177.0387
 31
0.0000
  0
LINE
  8
49
 10
-37.1637
 20
177.0387
 30
0.0000
 11
-37.1637
 21
176.2760
 31
0.0000
  0
LINE
  8
49
 10
-37.3544
 20
176.2760
 30
0.0000
 11
-36.9730
 21
176.2760
 31
0.0000
  0
LINE
  8
49
 10
-37.1637
 20
177.6106
 30
0.0000
 11
-37.1637
 21
177.4200
 31
0.0000
  0
LINE
  8
49
 10
-36.3841
 20
176.2760
 30
0.0000
 11
-36.0028
 21
176.2760
 31
0.0000
  0
LINE
  8
49
 10
-36.0028
 20
176.2760
 30
0.0000
 11
-35.8121
 21
176.4667
 31
0.0000
  0
LINE
  8
49
 10
-35.8121
 20
176.4667
 30
0.0000
 11
-35.8121
 21
176.8480
 31
0.0000
  0
LINE
  8
49
 10
-35.8121
 20
176.8480
 30
0.0000
 11
-36.0028
 21
177.0387
 31
0.0000
  0
LINE
  8
49
 10
-36.0028
 20
177.0387
 30
0.0000
 11
-36.3841
 21
177.0387
 31
0.0000
  0
LINE
  8
49
 10
-36.3841
 20
177.0387
 30
0.0000
 11
-36.5748
 21
176.8480
 31
0.0000
  0
LINE
  8
49
 10
-36.5748
 20
176.8480
 30
0.0000
 11
-36.5748
 21
176.4667
 31
0.0000
  0
LINE
  8
49
 10
-36.5748
 20
176.4667
 30
0.0000
 11
-36.3841
 21
176.2760
 31
0.0000
  0
LINE
  8
49
 10
-35.4054
 20
176.2760
 30
0.0000
 11
-35.4054
 21
177.0387
 31
0.0000
  0
LINE
  8
49
 10
-35.4054
 20
177.0387
 30
0.0000
 11
-34.8334
 21
177.0387
 31
0.0000
  0
LINE
  8
49
 10
-34.8334
 20
177.0387
 30
0.0000
 11
-34.6427
 21
176.8480
 31
0.0000
  0
LINE
  8
49
 10
-34.6427
 20
176.8480
 30
0.0000
 11
-34.6427
 21
176.2760
 31
0.0000
  0
LINE
  8
49
 10
-33.0666
 20
176.2760
 30
0.0000
 11
-32.4946
 21
176.2760
 31
0.0000
  0
LINE
  8
49
 10
-32.4946
 20
176.2760
 30
0.0000
 11
-32.3039
 21
176.4667
 31
0.0000
  0
LINE
  8
49
 10
-32.3039
 20
176.4667
 30
0.0000
 11
-32.4946
 21
176.6573
 31
0.0000
  0
LINE
  8
49
 10
-32.4946
 20
176.6573
 30
0.0000
 11
-32.8759
 21
176.6573
 31
0.0000
  0
LINE
  8
49
 10
-32.8759
 20
176.6573
 30
0.0000
 11
-33.0666
 21
176.8480
 31
0.0000
  0
LINE
  8
49
 10
-33.0666
 20
176.8480
 30
0.0000
 11
-32.8759
 21
177.0387
 31
0.0000
  0
LINE
  8
49
 10
-32.8759
 20
177.0387
 30
0.0000
 11
-32.3039
 21
177.0387
 31
0.0000
  0
LINE
  8
49
 10
-31.1345
 20
175.8947
 30
0.0000
 11
-31.1345
 21
177.0387
 31
0.0000
  0
LINE
  8
49
 10
-31.1345
 20
177.0387
 30
0.0000
 11
-31.7065
 21
177.0387
 31
0.0000
  0
LINE
  8
49
 10
-31.7065
 20
177.0387
 30
0.0000
 11
-31.8972
 21
176.8480
 31
0.0000
  0
LINE
  8
49
 10
-31.8972
 20
176.8480
 30
0.0000
 11
-31.8972
 21
176.4667
 31
0.0000
  0
LINE
  8
49
 10
-31.8972
 20
176.4667
 30
0.0000
 11
-31.7065
 21
176.2760
 31
0.0000
  0
LINE
  8
49
 10
-31.7065
 20
176.2760
 30
0.0000
 11
-31.1345
 21
176.2760
 31
0.0000
  0
LINE
  8
48
 10
-56.9418
 20
159.4485
 30
0.0000
 11
-56.9418
 21
160.5925
 31
0.0000
  0
LINE
  8
48
 10
-56.9418
 20
160.5925
 30
0.0000
 11
-56.5605
 21
160.2112
 31
0.0000
  0
LINE
  8
48
 10
-56.5605
 20
160.2112
 30
0.0000
 11
-56.1791
 21
160.5925
 31
0.0000
  0
LINE
  8
48
 10
-56.1791
 20
160.5925
 30
0.0000
 11
-56.1791
 21
159.4485
 31
0.0000
  0
LINE
  8
48
 10
-55.5817
 20
160.2112
 30
0.0000
 11
-55.2004
 21
160.2112
 31
0.0000
  0
LINE
  8
48
 10
-55.2004
 20
160.2112
 30
0.0000
 11
-55.0097
 21
160.0205
 31
0.0000
  0
LINE
  8
48
 10
-55.0097
 20
160.0205
 30
0.0000
 11
-55.0097
 21
159.4485
 31
0.0000
  0
LINE
  8
48
 10
-55.0097
 20
159.4485
 30
0.0000
 11
-55.5817
 21
159.4485
 31
0.0000
  0
LINE
  8
48
 10
-55.5817
 20
159.4485
 30
0.0000
 11
-55.7724
 21
159.6392
 31
0.0000
  0
LINE
  8
48
 10
-55.7724
 20
159.6392
 30
0.0000
 11
-55.5817
 21
159.8298
 31
0.0000
  0
LINE
  8
48
 10
-55.5817
 20
159.8298
 30
0.0000
 11
-55.0097
 21
159.8298
 31
0.0000
  0
LINE
  8
48
 10
-54.4123
 20
160.4018
 30
0.0000
 11
-54.4123
 21
159.6392
 31
0.0000
  0
LINE
  8
48
 10
-54.4123
 20
159.6392
 30
0.0000
 11
-54.2217
 21
159.4485
 31
0.0000
  0
LINE
  8
48
 10
-54.6030
 20
160.2112
 30
0.0000
 11
-54.2217
 21
160.2112
 31
0.0000
  0
LINE
  8
48
 10
-53.2514
 20
159.4485
 30
0.0000
 11
-53.6327
 21
159.4485
 31
0.0000
  0
LINE
  8
48
 10
-53.6327
 20
159.4485
 30
0.0000
 11
-53.8234
 21
159.6392
 31
0.0000
  0
LINE
  8
48
 10
-53.8234
 20
159.6392
 30
0.0000
 11
-53.8234
 21
160.0205
 31
0.0000
  0
LINE
  8
48
 10
-53.8234
 20
160.0205
 30
0.0000
 11
-53.6327
 21
160.2112
 31
0.0000
  0
LINE
  8
48
 10
-53.6327
 20
160.2112
 30
0.0000
 11
-53.2514
 21
160.2112
 31
0.0000
  0
LINE
  8
48
 10
-53.2514
 20
160.2112
 30
0.0000
 11
-53.0608
 21
160.0205
 31
0.0000
  0
LINE
  8
48
 10
-53.0608
 20
160.0205
 30
0.0000
 11
-53.0608
 21
159.8298
 31
0.0000
  0
LINE
  8
48
 10
-53.0608
 20
159.8298
 30
0.0000
 11
-53.8234
 21
159.8298
 31
0.0000
  0
LINE
  8
48
 10
-52.6540
 20
159.4485
 30
0.0000
 11
-52.6540
 21
160.2112
 31
0.0000
  0
LINE
  8
48
 10
-52.6540
 20
159.8298
 30
0.0000
 11
-52.2727
 21
160.2112
 31
0.0000
  0
LINE
  8
48
 10
-52.2727
 20
160.2112
 30
0.0000
 11
-52.0820
 21
160.2112
 31
0.0000
  0
LINE
  8
48
 10
-51.6795
 20
160.2112
 30
0.0000
 11
-51.4888
 21
160.2112
 31
0.0000
  0
LINE
  8
48
 10
-51.4888
 20
160.2112
 30
0.0000
 11
-51.4888
 21
159.4485
 31
0.0000
  0
LINE
  8
48
 10
-51.6795
 20
159.4485
 30
0.0000
 11
-51.2982
 21
159.4485
 31
0.0000
  0
LINE
  8
48
 10
-51.4888
 20
160.7831
 30
0.0000
 11
-51.4888
 21
160.5925
 31
0.0000
  0
LINE
  8
48
 10
-50.7092
 20
160.2112
 30
0.0000
 11
-50.3279
 21
160.2112
 31
0.0000
  0
LINE
  8
48
 10
-50.3279
 20
160.2112
 30
0.0000
 11
-50.1373
 21
160.0205
 31
0.0000
  0
LINE
  8
48
 10
-50.1373
 20
160.0205
 30
0.0000
 11
-50.1373
 21
159.4485
 31
0.0000
  0
LINE
  8
48
 10
-50.1373
 20
159.4485
 30
0.0000
 11
-50.7092
 21
159.4485
 31
0.0000
  0
LINE
  8
48
 10
-50.7092
 20
159.4485
 30
0.0000
 11
-50.8999
 21
159.6392
 31
0.0000
  0
LINE
  8
48
 10
-50.8999
 20
159.6392
 30
0.0000
 11
-50.7092
 21
159.8298
 31
0.0000
  0
LINE
  8
48
 10
-50.7092
 20
159.8298
 30
0.0000
 11
-50.1373
 21
159.8298
 31
0.0000
  0
LINE
  8
48
 10
-49.7305
 20
160.5925
 30
0.0000
 11
-49.5399
 21
160.5925
 31
0.0000
  0
LINE
  8
48
 10
-49.5399
 20
160.5925
 30
0.0000
 11
-49.5399
 21
159.4485
 31
0.0000
  0
LINE
  8
48
 10
-49.7305
 20
159.4485
 30
0.0000
 11
-49.3492
 21
159.4485
 31
0.0000
  0
LINE
  8
48
 10
-47.5909
 20
159.4485
 30
0.0000
 11
-47.5909
 21
160.5925
 31
0.0000
  0
LINE
  8
48
 10
-47.2095
 20
160.5925
 30
0.0000
 11
-47.2095
 21
159.4485
 31
0.0000
  0
LINE
  8
48
 10
-47.7815
 20
160.2112
 30
0.0000
 11
-47.2095
 21
160.2112
 31
0.0000
  0
LINE
  8
48
 10
-47.2095
 20
160.2112
 30
0.0000
 11
-47.0189
 21
160.2112
 31
0.0000
  0
LINE
  8
48
 10
-47.7815
 20
159.8298
 30
0.0000
 11
-47.0189
 21
159.8298
 31
0.0000
  0
LINE
  8
48
 10
-46.6121
 20
160.2112
 30
0.0000
 11
-46.2308
 21
160.5925
 31
0.0000
  0
LINE
  8
48
 10
-46.2308
 20
160.5925
 30
0.0000
 11
-46.2308
 21
159.4485
 31
0.0000
  0
LINE
  8
48
 10
-46.6121
 20
159.4485
 30
0.0000
 11
-45.8495
 21
159.4485
 31
0.0000
  0
LINE
  8
48
 10
-44.2733
 20
160.0205
 30
0.0000
 11
-43.5107
 21
160.0205
 31
0.0000
  0
LINE
  8
48
 10
-41.1719
 20
160.4018
 30
0.0000
 11
-41.3625
 21
160.5925
 31
0.0000
  0
LINE
  8
48
 10
-41.3625
 20
160.5925
 30
0.0000
 11
-41.7439
 21
160.5925
 31
0.0000
  0
LINE
  8
48
 10
-41.7439
 20
160.5925
 30
0.0000
 11
-41.9345
 21
160.4018
 31
0.0000
  0
LINE
  8
48
 10
-41.9345
 20
160.4018
 30
0.0000
 11
-41.9345
 21
159.6392
 31
0.0000
  0
LINE
  8
48
 10
-41.9345
 20
159.6392
 30
0.0000
 11
-41.7439
 21
159.4485
 31
0.0000
  0
LINE
  8
48
 10
-41.7439
 20
159.4485
 30
0.0000
 11
-41.3625
 21
159.4485
 31
0.0000
  0
LINE
  8
48
 10
-41.3625
 20
159.4485
 30
0.0000
 11
-41.1719
 21
159.6392
 31
0.0000
  0
LINE
  8
48
 10
-40.7651
 20
160.5925
 30
0.0000
 11
-40.5745
 21
160.5925
 31
0.0000
  0
LINE
  8
48
 10
-40.5745
 20
160.5925
 30
0.0000
 11
-40.5745
 21
159.4485
 31
0.0000
  0
LINE
  8
48
 10
-40.7651
 20
159.4485
 30
0.0000
 11
-40.3838
 21
159.4485
 31
0.0000
  0
LINE
  8
48
 10
-39.4136
 20
159.4485
 30
0.0000
 11
-39.7949
 21
159.4485
 31
0.0000
  0
LINE
  8
48
 10
-39.7949
 20
159.4485
 30
0.0000
 11
-39.9855
 21
159.6392
 31
0.0000
  0
LINE
  8
48
 10
-39.9855
 20
159.6392
 30
0.0000
 11
-39.9855
 21
160.0205
 31
0.0000
  0
LINE
  8
48
 10
-39.9855
 20
160.0205
 30
0.0000
 11
-39.7949
 21
160.2112
 31
0.0000
  0
LINE
  8
48
 10
-39.7949
 20
160.2112
 30
0.0000
 11
-39.4136
 21
160.2112
 31
0.0000
  0
LINE
  8
48
 10
-39.4136
 20
160.2112
 30
0.0000
 11
-39.2229
 21
160.0205
 31
0.0000
  0
LINE
  8
48
 10
-39.2229
 20
160.0205
 30
0.0000
 11
-39.2229
 21
159.8298
 31
0.0000
  0
LINE
  8
48
 10
-39.2229
 20
159.8298
 30
0.0000
 11
-39.9855
 21
159.8298
 31
0.0000
  0
LINE
  8
48
 10
-38.6255
 20
160.2112
 30
0.0000
 11
-38.2442
 21
160.2112
 31
0.0000
  0
LINE
  8
48
 10
-38.2442
 20
160.2112
 30
0.0000
 11
-38.0535
 21
160.0205
 31
0.0000
  0
LINE
  8
48
 10
-38.0535
 20
160.0205
 30
0.0000
 11
-38.0535
 21
159.4485
 31
0.0000
  0
LINE
  8
48
 10
-38.0535
 20
159.4485
 30
0.0000
 11
-38.6255
 21
159.4485
 31
0.0000
  0
LINE
  8
48
 10
-38.6255
 20
159.4485
 30
0.0000
 11
-38.8161
 21
159.6392
 31
0.0000
  0
LINE
  8
48
 10
-38.8161
 20
159.6392
 30
0.0000
 11
-38.6255
 21
159.8298
 31
0.0000
  0
LINE
  8
48
 10
-38.6255
 20
159.8298
 30
0.0000
 11
-38.0535
 21
159.8298
 31
0.0000
  0
LINE
  8
48
 10
-37.6467
 20
159.4485
 30
0.0000
 11
-37.6467
 21
160.2112
 31
0.0000
  0
LINE
  8
48
 10
-37.6467
 20
159.8298
 30
0.0000
 11
-37.2654
 21
160.2112
 31
0.0000
  0
LINE
  8
48
 10
-37.2654
 20
160.2112
 30
0.0000
 11
-37.0748
 21
160.2112
 31
0.0000
  0
LINE
  8
48
 10
-35.5029
 20
159.4485
 30
0.0000
 11
-35.5029
 21
160.2112
 31
0.0000
  0
LINE
  8
48
 10
-35.5029
 20
160.2112
 30
0.0000
 11
-35.1215
 21
160.5925
 31
0.0000
  0
LINE
  8
48
 10
-35.1215
 20
160.5925
 30
0.0000
 11
-34.7402
 21
160.2112
 31
0.0000
  0
LINE
  8
48
 10
-34.7402
 20
160.2112
 30
0.0000
 11
-34.7402
 21
159.4485
 31
0.0000
  0
LINE
  8
48
 10
-35.5029
 20
160.0205
 30
0.0000
 11
-34.7402
 21
160.0205
 31
0.0000
  0
LINE
  8
48
 10
-33.5708
 20
160.2112
 30
0.0000
 11
-34.1428
 21
160.2112
 31
0.0000
  0
LINE
  8
48
 10
-34.1428
 20
160.2112
 30
0.0000
 11
-34.3335
 21
160.0205
 31
0.0000
  0
LINE
  8
48
 10
-34.3335
 20
160.0205
 30
0.0000
 11
-34.3335
 21
159.6392
 31
0.0000
  0
LINE
  8
48
 10
-34.3335
 20
159.6392
 30
0.0000
 11
-34.1428
 21
159.4485
 31
0.0000
  0
LINE
  8
48
 10
-34.1428
 20
159.4485
 30
0.0000
 11
-33.5708
 21
159.4485
 31
0.0000
  0
LINE
  8
48
 10
-33.1641
 20
159.4485
 30
0.0000
 11
-33.1641
 21
160.2112
 31
0.0000
  0
LINE
  8
48
 10
-33.1641
 20
159.8298
 30
0.0000
 11
-32.7827
 21
160.2112
 31
0.0000
  0
LINE
  8
48
 10
-32.7827
 20
160.2112
 30
0.0000
 11
-32.5921
 21
160.2112
 31
0.0000
  0
LINE
  8
48
 10
-32.1896
 20
160.2112
 30
0.0000
 11
-32.1896
 21
159.6392
 31
0.0000
  0
LINE
  8
48
 10
-32.1896
 20
159.6392
 30
0.0000
 11
-31.9989
 21
159.4485
 31
0.0000
  0
LINE
  8
48
 10
-31.9989
 20
159.4485
 30
0.0000
 11
-31.4269
 21
159.4485
 31
0.0000
  0
LINE
  8
48
 10
-31.4269
 20
160.2112
 30
0.0000
 11
-31.4269
 21
159.2578
 31
0.0000
  0
LINE
  8
48
 10
-31.4269
 20
159.2578
 30
0.0000
 11
-31.6176
 21
159.0672
 31
0.0000
  0
LINE
  8
48
 10
-31.6176
 20
159.0672
 30
0.0000
 11
-31.8082
 21
159.0672
 31
0.0000
  0
LINE
  8
48
 10
-31.0202
 20
160.5925
 30
0.0000
 11
-30.8295
 21
160.5925
 31
0.0000
  0
LINE
  8
48
 10
-30.8295
 20
160.5925
 30
0.0000
 11
-30.8295
 21
159.4485
 31
0.0000
  0
LINE
  8
48
 10
-31.0202
 20
159.4485
 30
0.0000
 11
-30.6388
 21
159.4485
 31
0.0000
  0
LINE
  8
48
 10
-30.2406
 20
160.2112
 30
0.0000
 11
-30.0499
 21
160.2112
 31
0.0000
  0
LINE
  8
48
 10
-30.0499
 20
160.2112
 30
0.0000
 11
-30.0499
 21
159.4485
 31
0.0000
  0
LINE
  8
48
 10
-30.2406
 20
159.4485
 30
0.0000
 11
-29.8592
 21
159.4485
 31
0.0000
  0
LINE
  8
48
 10
-30.0499
 20
160.7831
 30
0.0000
 11
-30.0499
 21
160.5925
 31
0.0000
  0
LINE
  8
48
 10
-28.6983
 20
160.2112
 30
0.0000
 11
-29.2703
 21
160.2112
 31
0.0000
  0
LINE
  8
48
 10
-29.2703
 20
160.2112
 30
0.0000
 11
-29.4610
 21
160.0205
 31
0.0000
  0
LINE
  8
48
 10
-29.4610
 20
160.0205
 30
0.0000
 11
-29.4610
 21
159.6392
 31
0.0000
  0
LINE
  8
48
 10
-29.4610
 20
159.6392
 30
0.0000
 11
-29.2703
 21
159.4485
 31
0.0000
  0
LINE
  8
48
 10
-29.2703
 20
159.4485
 30
0.0000
 11
-28.6983
 21
159.4485
 31
0.0000
  0
LINE
  8
48
 10
-26.7409
 20
159.4485
 30
0.0000
 11
-27.1222
 21
159.8298
 31
0.0000
  0
LINE
  8
48
 10
-27.1222
 20
159.8298
 30
0.0000
 11
-27.1222
 21
160.2112
 31
0.0000
  0
LINE
  8
48
 10
-27.1222
 20
160.2112
 30
0.0000
 11
-26.7409
 21
160.5925
 31
0.0000
  0
LINE
  8
48
 10
-26.3426
 20
160.2112
 30
0.0000
 11
-25.9613
 21
160.5925
 31
0.0000
  0
LINE
  8
48
 10
-25.9613
 20
160.5925
 30
0.0000
 11
-25.9613
 21
159.4485
 31
0.0000
  0
LINE
  8
48
 10
-26.3426
 20
159.4485
 30
0.0000
 11
-25.5799
 21
159.4485
 31
0.0000
  0
LINE
  8
48
 10
-25.1732
 20
159.4485
 30
0.0000
 11
-25.1732
 21
159.6392
 31
0.0000
  0
LINE
  8
48
 10
-25.1732
 20
159.6392
 30
0.0000
 11
-24.9825
 21
159.6392
 31
0.0000
  0
LINE
  8
48
 10
-24.9825
 20
159.6392
 30
0.0000
 11
-24.9825
 21
159.4485
 31
0.0000
  0
LINE
  8
48
 10
-24.9825
 20
159.4485
 30
0.0000
 11
-25.1732
 21
159.4485
 31
0.0000
  0
LINE
  8
48
 10
-23.8258
 20
160.5925
 30
0.0000
 11
-24.5885
 21
160.5925
 31
0.0000
  0
LINE
  8
48
 10
-24.5885
 20
160.5925
 30
0.0000
 11
-24.5885
 21
160.0205
 31
0.0000
  0
LINE
  8
48
 10
-24.5885
 20
160.0205
 30
0.0000
 11
-24.2072
 21
160.2112
 31
0.0000
  0
LINE
  8
48
 10
-24.2072
 20
160.2112
 30
0.0000
 11
-24.0165
 21
160.2112
 31
0.0000
  0
LINE
  8
48
 10
-24.0165
 20
160.2112
 30
0.0000
 11
-23.8258
 21
160.0205
 31
0.0000
  0
LINE
  8
48
 10
-23.8258
 20
160.0205
 30
0.0000
 11
-23.8258
 21
159.6392
 31
0.0000
  0
LINE
  8
48
 10
-23.8258
 20
159.6392
 30
0.0000
 11
-24.0165
 21
159.4485
 31
0.0000
  0
LINE
  8
48
 10
-24.0165
 20
159.4485
 30
0.0000
 11
-24.3978
 21
159.4485
 31
0.0000
  0
LINE
  8
48
 10
-24.3978
 20
159.4485
 30
0.0000
 11
-24.5885
 21
159.6392
 31
0.0000
  0
LINE
  8
48
 10
-22.2497
 20
159.4485
 30
0.0000
 11
-22.2497
 21
160.2112
 31
0.0000
  0
LINE
  8
48
 10
-22.2497
 20
160.2112
 30
0.0000
 11
-22.0590
 21
160.2112
 31
0.0000
  0
LINE
  8
48
 10
-22.0590
 20
160.2112
 30
0.0000
 11
-21.8684
 21
160.0205
 31
0.0000
  0
LINE
  8
48
 10
-21.8684
 20
160.0205
 30
0.0000
 11
-21.8684
 21
159.4485
 31
0.0000
  0
LINE
  8
48
 10
-21.8684
 20
160.0205
 30
0.0000
 11
-21.6777
 21
160.2112
 31
0.0000
  0
LINE
  8
48
 10
-21.6777
 20
160.2112
 30
0.0000
 11
-21.4870
 21
160.0205
 31
0.0000
  0
LINE
  8
48
 10
-21.4870
 20
160.0205
 30
0.0000
 11
-21.4870
 21
159.4485
 31
0.0000
  0
LINE
  8
48
 10
-21.0803
 20
159.4485
 30
0.0000
 11
-21.0803
 21
160.2112
 31
0.0000
  0
LINE
  8
48
 10
-21.0803
 20
160.2112
 30
0.0000
 11
-20.8896
 21
160.2112
 31
0.0000
  0
LINE
  8
48
 10
-20.8896
 20
160.2112
 30
0.0000
 11
-20.6990
 21
160.0205
 31
0.0000
  0
LINE
  8
48
 10
-20.6990
 20
160.0205
 30
0.0000
 11
-20.6990
 21
159.4485
 31
0.0000
  0
LINE
  8
48
 10
-20.6990
 20
160.0205
 30
0.0000
 11
-20.5083
 21
160.2112
 31
0.0000
  0
LINE
  8
48
 10
-20.5083
 20
160.2112
 30
0.0000
 11
-20.3176
 21
160.0205
 31
0.0000
  0
LINE
  8
48
 10
-20.3176
 20
160.0205
 30
0.0000
 11
-20.3176
 21
159.4485
 31
0.0000
  0
LINE
  8
48
 10
-19.9109
 20
159.4485
 30
0.0000
 11
-19.5296
 21
159.8298
 31
0.0000
  0
LINE
  8
48
 10
-19.5296
 20
159.8298
 30
0.0000
 11
-19.5296
 21
160.2112
 31
0.0000
  0
LINE
  8
48
 10
-19.5296
 20
160.2112
 30
0.0000
 11
-19.9109
 21
160.5925
 31
0.0000
  0
LINE
  8
48
 10
-51.1859
 20
97.2185
 30
0.0000
 11
-51.1859
 21
98.3625
 31
0.0000
  0
LINE
  8
48
 10
-51.1859
 20
98.3625
 30
0.0000
 11
-50.6140
 21
98.3625
 31
0.0000
  0
LINE
  8
48
 10
-50.6140
 20
98.3625
 30
0.0000
 11
-50.4233
 21
98.1718
 31
0.0000
  0
LINE
  8
48
 10
-50.4233
 20
98.1718
 30
0.0000
 11
-50.4233
 21
97.7905
 31
0.0000
  0
LINE
  8
48
 10
-50.4233
 20
97.7905
 30
0.0000
 11
-50.6140
 21
97.5998
 31
0.0000
  0
LINE
  8
48
 10
-50.6140
 20
97.5998
 30
0.0000
 11
-51.1859
 21
97.5998
 31
0.0000
  0
LINE
  8
48
 10
-49.8259
 20
97.9811
 30
0.0000
 11
-49.4446
 21
97.9811
 31
0.0000
  0
LINE
  8
48
 10
-49.4446
 20
97.9811
 30
0.0000
 11
-49.2539
 21
97.7905
 31
0.0000
  0
LINE
  8
48
 10
-49.2539
 20
97.7905
 30
0.0000
 11
-49.2539
 21
97.2185
 31
0.0000
  0
LINE
  8
48
 10
-49.2539
 20
97.2185
 30
0.0000
 11
-49.8259
 21
97.2185
 31
0.0000
  0
LINE
  8
48
 10
-49.8259
 20
97.2185
 30
0.0000
 11
-50.0165
 21
97.4092
 31
0.0000
  0
LINE
  8
48
 10
-50.0165
 20
97.4092
 30
0.0000
 11
-49.8259
 21
97.5998
 31
0.0000
  0
LINE
  8
48
 10
-49.8259
 20
97.5998
 30
0.0000
 11
-49.2539
 21
97.5998
 31
0.0000
  0
LINE
  8
48
 10
-48.8471
 20
97.2185
 30
0.0000
 11
-48.8471
 21
97.9811
 31
0.0000
  0
LINE
  8
48
 10
-48.8471
 20
97.5998
 30
0.0000
 11
-48.4658
 21
97.9811
 31
0.0000
  0
LINE
  8
48
 10
-48.4658
 20
97.9811
 30
0.0000
 11
-48.2752
 21
97.9811
 31
0.0000
  0
LINE
  8
48
 10
-47.6820
 20
98.1718
 30
0.0000
 11
-47.6820
 21
97.4092
 31
0.0000
  0
LINE
  8
48
 10
-47.6820
 20
97.4092
 30
0.0000
 11
-47.4913
 21
97.2185
 31
0.0000
  0
LINE
  8
48
 10
-47.8727
 20
97.9811
 30
0.0000
 11
-47.4913
 21
97.9811
 31
0.0000
  0
LINE
  8
48
 10
-45.9237
 20
97.2185
 30
0.0000
 11
-45.9237
 21
98.3625
 31
0.0000
  0
LINE
  8
48
 10
-45.9237
 20
98.3625
 30
0.0000
 11
-45.3517
 21
98.3625
 31
0.0000
  0
LINE
  8
48
 10
-45.3517
 20
98.3625
 30
0.0000
 11
-45.1610
 21
98.1718
 31
0.0000
  0
LINE
  8
48
 10
-45.1610
 20
98.1718
 30
0.0000
 11
-45.1610
 21
97.9811
 31
0.0000
  0
LINE
  8
48
 10
-45.1610
 20
97.9811
 30
0.0000
 11
-45.3517
 21
97.7905
 31
0.0000
  0
LINE
  8
48
 10
-45.3517
 20
97.7905
 30
0.0000
 11
-45.1610
 21
97.5998
 31
0.0000
  0
LINE
  8
48
 10
-45.1610
 20
97.5998
 30
0.0000
 11
-45.1610
 21
97.4092
 31
0.0000
  0
LINE
  8
48
 10
-45.1610
 20
97.4092
 30
0.0000
 11
-45.3517
 21
97.2185
 31
0.0000
  0
LINE
  8
48
 10
-45.3517
 20
97.2185
 30
0.0000
 11
-45.9237
 21
97.2185
 31
0.0000
  0
LINE
  8
48
 10
-45.9237
 20
97.7905
 30
0.0000
 11
-45.3517
 21
97.7905
 31
0.0000
  0
LINE
  8
48
 10
-43.2035
 20
97.2185
 30
0.0000
 11
-43.5849
 21
97.2185
 31
0.0000
  0
LINE
  8
48
 10
-43.5849
 20
97.2185
 30
0.0000
 11
-43.5849
 21
98.3625
 31
0.0000
  0
LINE
  8
48
 10
-43.5849
 20
98.3625
 30
0.0000
 11
-43.2035
 21
98.3625
 31
0.0000
  0
LINE
  8
48
 10
-40.8732
 20
97.2185
 30
0.0000
 11
-41.6359
 21
97.2185
 31
0.0000
  0
LINE
  8
48
 10
-41.6359
 20
97.2185
 30
0.0000
 11
-40.8732
 21
97.9811
 31
0.0000
  0
LINE
  8
48
 10
-40.8732
 20
97.9811
 30
0.0000
 11
-40.8732
 21
98.1718
 31
0.0000
  0
LINE
  8
48
 10
-40.8732
 20
98.1718
 30
0.0000
 11
-41.0639
 21
98.3625
 31
0.0000
  0
LINE
  8
48
 10
-41.0639
 20
98.3625
 30
0.0000
 11
-41.4452
 21
98.3625
 31
0.0000
  0
LINE
  8
48
 10
-41.4452
 20
98.3625
 30
0.0000
 11
-41.6359
 21
98.1718
 31
0.0000
  0
LINE
  8
48
 10
-39.2971
 20
98.1718
 30
0.0000
 11
-38.5344
 21
97.4092
 31
0.0000
  0
LINE
  8
48
 10
-39.2971
 20
97.4092
 30
0.0000
 11
-38.5344
 21
98.1718
 31
0.0000
  0
LINE
  8
48
 10
-39.2971
 20
97.7905
 30
0.0000
 11
-38.5344
 21
97.7905
 31
0.0000
  0
LINE
  8
48
 10
-38.9158
 20
97.4092
 30
0.0000
 11
-38.9158
 21
98.1718
 31
0.0000
  0
LINE
  8
48
 10
-36.1956
 20
97.2185
 30
0.0000
 11
-36.9583
 21
97.2185
 31
0.0000
  0
LINE
  8
48
 10
-36.9583
 20
97.2185
 30
0.0000
 11
-36.1956
 21
97.9811
 31
0.0000
  0
LINE
  8
48
 10
-36.1956
 20
97.9811
 30
0.0000
 11
-36.1956
 21
98.1718
 31
0.0000
  0
LINE
  8
48
 10
-36.1956
 20
98.1718
 30
0.0000
 11
-36.3863
 21
98.3625
 31
0.0000
  0
LINE
  8
48
 10
-36.3863
 20
98.3625
 30
0.0000
 11
-36.7676
 21
98.3625
 31
0.0000
  0
LINE
  8
48
 10
-36.7676
 20
98.3625
 30
0.0000
 11
-36.9583
 21
98.1718
 31
0.0000
  0
LINE
  8
48
 10
-34.6195
 20
97.5998
 30
0.0000
 11
-33.8568
 21
97.5998
 31
0.0000
  0
LINE
  8
48
 10
-34.6195
 20
97.9811
 30
0.0000
 11
-33.8568
 21
97.9811
 31
0.0000
  0
LINE
  8
48
 10
-31.8994
 20
97.2185
 30
0.0000
 11
-32.2807
 21
97.5998
 31
0.0000
  0
LINE
  8
48
 10
-32.2807
 20
97.5998
 30
0.0000
 11
-32.2807
 21
97.9811
 31
0.0000
  0
LINE
  8
48
 10
-32.2807
 20
97.9811
 30
0.0000
 11
-31.8994
 21
98.3625
 31
0.0000
  0
LINE
  8
48
 10
-30.9291
 20
97.2185
 30
0.0000
 11
-30.9291
 21
98.3625
 31
0.0000
  0
LINE
  8
48
 10
-30.9291
 20
98.3625
 30
0.0000
 11
-31.5011
 21
97.7905
 31
0.0000
  0
LINE
  8
48
 10
-31.5011
 20
97.7905
 30
0.0000
 11
-30.7384
 21
97.7905
 31
0.0000
  0
LINE
  8
48
 10
-30.3317
 20
97.2185
 30
0.0000
 11
-29.9504
 21
97.5998
 31
0.0000
  0
LINE
  8
48
 10
-29.9504
 20
97.5998
 30
0.0000
 11
-29.9504
 21
97.9811
 31
0.0000
  0
LINE
  8
48
 10
-29.9504
 20
97.9811
 30
0.0000
 11
-30.3317
 21
98.3625
 31
0.0000
  0
LINE
  8
48
 10
-27.6201
 20
97.9811
 30
0.0000
 11
-28.1920
 21
97.9811
 31
0.0000
  0
LINE
  8
48
 10
-28.1920
 20
97.9811
 30
0.0000
 11
-28.3827
 21
97.7905
 31
0.0000
  0
LINE
  8
48
 10
-28.3827
 20
97.7905
 30
0.0000
 11
-28.3827
 21
97.4092
 31
0.0000
  0
LINE
  8
48
 10
-28.3827
 20
97.4092
 30
0.0000
 11
-28.1920
 21
97.2185
 31
0.0000
  0
LINE
  8
48
 10
-28.1920
 20
97.2185
 30
0.0000
 11
-27.6201
 21
97.2185
 31
0.0000
  0
LINE
  8
48
 10
-27.0226
 20
97.2185
 30
0.0000
 11
-26.6413
 21
97.2185
 31
0.0000
  0
LINE
  8
48
 10
-26.6413
 20
97.2185
 30
0.0000
 11
-26.4507
 21
97.4092
 31
0.0000
  0
LINE
  8
48
 10
-26.4507
 20
97.4092
 30
0.0000
 11
-26.4507
 21
97.7905
 31
0.0000
  0
LINE
  8
48
 10
-26.4507
 20
97.7905
 30
0.0000
 11
-26.6413
 21
97.9811
 31
0.0000
  0
LINE
  8
48
 10
-26.6413
 20
97.9811
 30
0.0000
 11
-27.0226
 21
97.9811
 31
0.0000
  0
LINE
  8
48
 10
-27.0226
 20
97.9811
 30
0.0000
 11
-27.2133
 21
97.7905
 31
0.0000
  0
LINE
  8
48
 10
-27.2133
 20
97.7905
 30
0.0000
 11
-27.2133
 21
97.4092
 31
0.0000
  0
LINE
  8
48
 10
-27.2133
 20
97.4092
 30
0.0000
 11
-27.0226
 21
97.2185
 31
0.0000
  0
LINE
  8
48
 10
-26.0439
 20
96.8372
 30
0.0000
 11
-26.0439
 21
97.9811
 31
0.0000
  0
LINE
  8
48
 10
-26.0439
 20
97.9811
 30
0.0000
 11
-25.4719
 21
97.9811
 31
0.0000
  0
LINE
  8
48
 10
-25.4719
 20
97.9811
 30
0.0000
 11
-25.2813
 21
97.7905
 31
0.0000
  0
LINE
  8
48
 10
-25.2813
 20
97.7905
 30
0.0000
 11
-25.2813
 21
97.4092
 31
0.0000
  0
LINE
  8
48
 10
-25.2813
 20
97.4092
 30
0.0000
 11
-25.4719
 21
97.2185
 31
0.0000
  0
LINE
  8
48
 10
-25.4719
 20
97.2185
 30
0.0000
 11
-26.0439
 21
97.2185
 31
0.0000
  0
LINE
  8
48
 10
-24.8745
 20
97.9811
 30
0.0000
 11
-24.6839
 21
97.9811
 31
0.0000
  0
LINE
  8
48
 10
-24.6839
 20
97.9811
 30
0.0000
 11
-24.6839
 21
97.2185
 31
0.0000
  0
LINE
  8
48
 10
-24.8745
 20
97.2185
 30
0.0000
 11
-24.4932
 21
97.2185
 31
0.0000
  0
LINE
  8
48
 10
-24.6839
 20
98.5531
 30
0.0000
 11
-24.6839
 21
98.3625
 31
0.0000
  0
LINE
  8
48
 10
-23.5229
 20
97.2185
 30
0.0000
 11
-23.9043
 21
97.2185
 31
0.0000
  0
LINE
  8
48
 10
-23.9043
 20
97.2185
 30
0.0000
 11
-24.0949
 21
97.4092
 31
0.0000
  0
LINE
  8
48
 10
-24.0949
 20
97.4092
 30
0.0000
 11
-24.0949
 21
97.7905
 31
0.0000
  0
LINE
  8
48
 10
-24.0949
 20
97.7905
 30
0.0000
 11
-23.9043
 21
97.9811
 31
0.0000
  0
LINE
  8
48
 10
-23.9043
 20
97.9811
 30
0.0000
 11
-23.5229
 21
97.9811
 31
0.0000
  0
LINE
  8
48
 10
-23.5229
 20
97.9811
 30
0.0000
 11
-23.3323
 21
97.7905
 31
0.0000
  0
LINE
  8
48
 10
-23.3323
 20
97.7905
 30
0.0000
 11
-23.3323
 21
97.5998
 31
0.0000
  0
LINE
  8
48
 10
-23.3323
 20
97.5998
 30
0.0000
 11
-24.0949
 21
97.5998
 31
0.0000
  0
LINE
  8
48
 10
-22.9255
 20
97.2185
 30
0.0000
 11
-22.3535
 21
97.2185
 31
0.0000
  0
LINE
  8
48
 10
-22.3535
 20
97.2185
 30
0.0000
 11
-22.1629
 21
97.4092
 31
0.0000
  0
LINE
  8
48
 10
-22.1629
 20
97.4092
 30
0.0000
 11
-22.3535
 21
97.5998
 31
0.0000
  0
LINE
  8
48
 10
-22.3535
 20
97.5998
 30
0.0000
 11
-22.7349
 21
97.5998
 31
0.0000
  0
LINE
  8
48
 10
-22.7349
 20
97.5998
 30
0.0000
 11
-22.9255
 21
97.7905
 31
0.0000
  0
LINE
  8
48
 10
-22.9255
 20
97.7905
 30
0.0000
 11
-22.7349
 21
97.9811
 31
0.0000
  0
LINE
  8
48
 10
-22.7349
 20
97.9811
 30
0.0000
 11
-22.1629
 21
97.9811
 31
0.0000
  0
LINE
  8
48
 10
-20.5867
 20
97.2185
 30
0.0000
 11
-20.2054
 21
97.2185
 31
0.0000
  0
LINE
  8
48
 10
-20.2054
 20
97.2185
 30
0.0000
 11
-20.2054
 21
98.3625
 31
0.0000
  0
LINE
  8
48
 10
-20.2054
 20
98.3625
 30
0.0000
 11
-20.5867
 21
98.3625
 31
0.0000
  0
LINE
  8
48
 10
-51.7706
 20
59.1185
 30
0.0000
 11
-51.7706
 21
60.2625
 31
0.0000
  0
LINE
  8
48
 10
-51.7706
 20
60.2625
 30
0.0000
 11
-51.1987
 21
60.2625
 31
0.0000
  0
LINE
  8
48
 10
-51.1987
 20
60.2625
 30
0.0000
 11
-51.0080
 21
60.0718
 31
0.0000
  0
LINE
  8
48
 10
-51.0080
 20
60.0718
 30
0.0000
 11
-51.0080
 21
59.6905
 31
0.0000
  0
LINE
  8
48
 10
-51.0080
 20
59.6905
 30
0.0000
 11
-51.1987
 21
59.4998
 31
0.0000
  0
LINE
  8
48
 10
-51.1987
 20
59.4998
 30
0.0000
 11
-51.7706
 21
59.4998
 31
0.0000
  0
LINE
  8
48
 10
-50.4106
 20
59.8812
 30
0.0000
 11
-50.0293
 21
59.8812
 31
0.0000
  0
LINE
  8
48
 10
-50.0293
 20
59.8812
 30
0.0000
 11
-49.8386
 21
59.6905
 31
0.0000
  0
LINE
  8
48
 10
-49.8386
 20
59.6905
 30
0.0000
 11
-49.8386
 21
59.1185
 31
0.0000
  0
LINE
  8
48
 10
-49.8386
 20
59.1185
 30
0.0000
 11
-50.4106
 21
59.1185
 31
0.0000
  0
LINE
  8
48
 10
-50.4106
 20
59.1185
 30
0.0000
 11
-50.6012
 21
59.3092
 31
0.0000
  0
LINE
  8
48
 10
-50.6012
 20
59.3092
 30
0.0000
 11
-50.4106
 21
59.4998
 31
0.0000
  0
LINE
  8
48
 10
-50.4106
 20
59.4998
 30
0.0000
 11
-49.8386
 21
59.4998
 31
0.0000
  0
LINE
  8
48
 10
-49.4318
 20
59.1185
 30
0.0000
 11
-49.4318
 21
59.8812
 31
0.0000
  0
LINE
  8
48
 10
-49.4318
 20
59.4998
 30
0.0000
 11
-49.0505
 21
59.8812
 31
0.0000
  0
LINE
  8
48
 10
-49.0505
 20
59.8812
 30
0.0000
 11
-48.8599
 21
59.8812
 31
0.0000
  0
LINE
  8
48
 10
-48.2667
 20
60.0718
 30
0.0000
 11
-48.2667
 21
59.3092
 31
0.0000
  0
LINE
  8
48
 10
-48.2667
 20
59.3092
 30
0.0000
 11
-48.0760
 21
59.1185
 31
0.0000
  0
LINE
  8
48
 10
-48.4574
 20
59.8812
 30
0.0000
 11
-48.0760
 21
59.8812
 31
0.0000
  0
LINE
  8
48
 10
-45.7457
 20
60.0718
 30
0.0000
 11
-45.9364
 21
60.2625
 31
0.0000
  0
LINE
  8
48
 10
-45.9364
 20
60.2625
 30
0.0000
 11
-46.3177
 21
60.2625
 31
0.0000
  0
LINE
  8
48
 10
-46.3177
 20
60.2625
 30
0.0000
 11
-46.5084
 21
60.0718
 31
0.0000
  0
LINE
  8
48
 10
-46.5084
 20
60.0718
 30
0.0000
 11
-46.5084
 21
59.3092
 31
0.0000
  0
LINE
  8
48
 10
-46.5084
 20
59.3092
 30
0.0000
 11
-46.3177
 21
59.1185
 31
0.0000
  0
LINE
  8
48
 10
-46.3177
 20
59.1185
 30
0.0000
 11
-45.9364
 21
59.1185
 31
0.0000
  0
LINE
  8
48
 10
-45.9364
 20
59.1185
 30
0.0000
 11
-45.7457
 21
59.3092
 31
0.0000
  0
LINE
  8
48
 10
-43.7882
 20
59.1185
 30
0.0000
 11
-44.1696
 21
59.1185
 31
0.0000
  0
LINE
  8
48
 10
-44.1696
 20
59.1185
 30
0.0000
 11
-44.1696
 21
60.2625
 31
0.0000
  0
LINE
  8
48
 10
-44.1696
 20
60.2625
 30
0.0000
 11
-43.7882
 21
60.2625
 31
0.0000
  0
LINE
  8
48
 10
-41.4579
 20
59.1185
 30
0.0000
 11
-42.2206
 21
59.1185
 31
0.0000
  0
LINE
  8
48
 10
-42.2206
 20
59.1185
 30
0.0000
 11
-41.4579
 21
59.8812
 31
0.0000
  0
LINE
  8
48
 10
-41.4579
 20
59.8812
 30
0.0000
 11
-41.4579
 21
60.0718
 31
0.0000
  0
LINE
  8
48
 10
-41.4579
 20
60.0718
 30
0.0000
 11
-41.6486
 21
60.2625
 31
0.0000
  0
LINE
  8
48
 10
-41.6486
 20
60.2625
 30
0.0000
 11
-42.0299
 21
60.2625
 31
0.0000
  0
LINE
  8
48
 10
-42.0299
 20
60.2625
 30
0.0000
 11
-42.2206
 21
60.0718
 31
0.0000
  0
LINE
  8
48
 10
-39.8818
 20
60.0718
 30
0.0000
 11
-39.1191
 21
59.3092
 31
0.0000
  0
LINE
  8
48
 10
-39.8818
 20
59.3092
 30
0.0000
 11
-39.1191
 21
60.0718
 31
0.0000
  0
LINE
  8
48
 10
-39.8818
 20
59.6905
 30
0.0000
 11
-39.1191
 21
59.6905
 31
0.0000
  0
LINE
  8
48
 10
-39.5005
 20
59.3092
 30
0.0000
 11
-39.5005
 21
60.0718
 31
0.0000
  0
LINE
  8
48
 10
-37.5430
 20
59.8812
 30
0.0000
 11
-37.1617
 21
60.2625
 31
0.0000
  0
LINE
  8
48
 10
-37.1617
 20
60.2625
 30
0.0000
 11
-37.1617
 21
59.1185
 31
0.0000
  0
LINE
  8
48
 10
-37.5430
 20
59.1185
 30
0.0000
 11
-36.7803
 21
59.1185
 31
0.0000
  0
LINE
  8
48
 10
-36.3736
 20
59.3092
 30
0.0000
 11
-36.3736
 21
60.0718
 31
0.0000
  0
LINE
  8
48
 10
-36.3736
 20
60.0718
 30
0.0000
 11
-36.1829
 21
60.2625
 31
0.0000
  0
LINE
  8
48
 10
-36.1829
 20
60.2625
 30
0.0000
 11
-35.8016
 21
60.2625
 31
0.0000
  0
LINE
  8
48
 10
-35.8016
 20
60.2625
 30
0.0000
 11
-35.6109
 21
60.0718
 31
0.0000
  0
LINE
  8
48
 10
-35.6109
 20
60.0718
 30
0.0000
 11
-35.6109
 21
59.3092
 31
0.0000
  0
LINE
  8
48
 10
-35.6109
 20
59.3092
 30
0.0000
 11
-35.8016
 21
59.1185
 31
0.0000
  0
LINE
  8
48
 10
-35.8016
 20
59.1185
 30
0.0000
 11
-36.1829
 21
59.1185
 31
0.0000
  0
LINE
  8
48
 10
-36.1829
 20
59.1185
 30
0.0000
 11
-36.3736
 21
59.3092
 31
0.0000
  0
LINE
  8
48
 10
-36.3736
 20
59.3092
 30
0.0000
 11
-35.6109
 21
60.0718
 31
0.0000
  0
LINE
  8
48
 10
-34.0348
 20
59.4998
 30
0.0000
 11
-33.2721
 21
59.4998
 31
0.0000
  0
LINE
  8
48
 10
-34.0348
 20
59.8812
 30
0.0000
 11
-33.2721
 21
59.8812
 31
0.0000
  0
LINE
  8
48
 10
-31.3147
 20
59.1185
 30
0.0000
 11
-31.6960
 21
59.4998
 31
0.0000
  0
LINE
  8
48
 10
-31.6960
 20
59.4998
 30
0.0000
 11
-31.6960
 21
59.8812
 31
0.0000
  0
LINE
  8
48
 10
-31.6960
 20
59.8812
 30
0.0000
 11
-31.3147
 21
60.2625
 31
0.0000
  0
LINE
  8
48
 10
-30.1538
 20
59.1185
 30
0.0000
 11
-30.9164
 21
59.1185
 31
0.0000
  0
LINE
  8
48
 10
-30.9164
 20
59.1185
 30
0.0000
 11
-30.1538
 21
59.8812
 31
0.0000
  0
LINE
  8
48
 10
-30.1538
 20
59.8812
 30
0.0000
 11
-30.1538
 21
60.0718
 31
0.0000
  0
LINE
  8
48
 10
-30.1538
 20
60.0718
 30
0.0000
 11
-30.3444
 21
60.2625
 31
0.0000
  0
LINE
  8
48
 10
-30.3444
 20
60.2625
 30
0.0000
 11
-30.7257
 21
60.2625
 31
0.0000
  0
LINE
  8
48
 10
-30.7257
 20
60.2625
 30
0.0000
 11
-30.9164
 21
60.0718
 31
0.0000
  0
LINE
  8
48
 10
-29.7470
 20
59.3092
 30
0.0000
 11
-29.7470
 21
60.0718
 31
0.0000
  0
LINE
  8
48
 10
-29.7470
 20
60.0718
 30
0.0000
 11
-29.5563
 21
60.2625
 31
0.0000
  0
LINE
  8
48
 10
-29.5563
 20
60.2625
 30
0.0000
 11
-29.1750
 21
60.2625
 31
0.0000
  0
LINE
  8
48
 10
-29.1750
 20
60.2625
 30
0.0000
 11
-28.9844
 21
60.0718
 31
0.0000
  0
LINE
  8
48
 10
-28.9844
 20
60.0718
 30
0.0000
 11
-28.9844
 21
59.3092
 31
0.0000
  0
LINE
  8
48
 10
-28.9844
 20
59.3092
 30
0.0000
 11
-29.1750
 21
59.1185
 31
0.0000
  0
LINE
  8
48
 10
-29.1750
 20
59.1185
 30
0.0000
 11
-29.5563
 21
59.1185
 31
0.0000
  0
LINE
  8
48
 10
-29.5563
 20
59.1185
 30
0.0000
 11
-29.7470
 21
59.3092
 31
0.0000
  0
LINE
  8
48
 10
-29.7470
 20
59.3092
 30
0.0000
 11
-28.9844
 21
60.0718
 31
0.0000
  0
LINE
  8
48
 10
-28.5776
 20
59.1185
 30
0.0000
 11
-28.1963
 21
59.4998
 31
0.0000
  0
LINE
  8
48
 10
-28.1963
 20
59.4998
 30
0.0000
 11
-28.1963
 21
59.8812
 31
0.0000
  0
LINE
  8
48
 10
-28.1963
 20
59.8812
 30
0.0000
 11
-28.5776
 21
60.2625
 31
0.0000
  0
LINE
  8
48
 10
-25.8660
 20
59.8812
 30
0.0000
 11
-26.4380
 21
59.8812
 31
0.0000
  0
LINE
  8
48
 10
-26.4380
 20
59.8812
 30
0.0000
 11
-26.6286
 21
59.6905
 31
0.0000
  0
LINE
  8
48
 10
-26.6286
 20
59.6905
 30
0.0000
 11
-26.6286
 21
59.3092
 31
0.0000
  0
LINE
  8
48
 10
-26.6286
 20
59.3092
 30
0.0000
 11
-26.4380
 21
59.1185
 31
0.0000
  0
LINE
  8
48
 10
-26.4380
 20
59.1185
 30
0.0000
 11
-25.8660
 21
59.1185
 31
0.0000
  0
LINE
  8
48
 10
-25.2686
 20
59.1185
 30
0.0000
 11
-24.8872
 21
59.1185
 31
0.0000
  0
LINE
  8
48
 10
-24.8872
 20
59.1185
 30
0.0000
 11
-24.6966
 21
59.3092
 31
0.0000
  0
LINE
  8
48
 10
-24.6966
 20
59.3092
 30
0.0000
 11
-24.6966
 21
59.6905
 31
0.0000
  0
LINE
  8
48
 10
-24.6966
 20
59.6905
 30
0.0000
 11
-24.8872
 21
59.8812
 31
0.0000
  0
LINE
  8
48
 10
-24.8872
 20
59.8812
 30
0.0000
 11
-25.2686
 21
59.8812
 31
0.0000
  0
LINE
  8
48
 10
-25.2686
 20
59.8812
 30
0.0000
 11
-25.4592
 21
59.6905
 31
0.0000
  0
LINE
  8
48
 10
-25.4592
 20
59.6905
 30
0.0000
 11
-25.4592
 21
59.3092
 31
0.0000
  0
LINE
  8
48
 10
-25.4592
 20
59.3092
 30
0.0000
 11
-25.2686
 21
59.1185
 31
0.0000
  0
LINE
  8
48
 10
-24.2898
 20
58.7372
 30
0.0000
 11
-24.2898
 21
59.8812
 31
0.0000
  0
LINE
  8
48
 10
-24.2898
 20
59.8812
 30
0.0000
 11
-23.7178
 21
59.8812
 31
0.0000
  0
LINE
  8
48
 10
-23.7178
 20
59.8812
 30
0.0000
 11
-23.5272
 21
59.6905
 31
0.0000
  0
LINE
  8
48
 10
-23.5272
 20
59.6905
 30
0.0000
 11
-23.5272
 21
59.3092
 31
0.0000
  0
LINE
  8
48
 10
-23.5272
 20
59.3092
 30
0.0000
 11
-23.7178
 21
59.1185
 31
0.0000
  0
LINE
  8
48
 10
-23.7178
 20
59.1185
 30
0.0000
 11
-24.2898
 21
59.1185
 31
0.0000
  0
LINE
  8
48
 10
-23.1204
 20
59.8812
 30
0.0000
 11
-22.9298
 21
59.8812
 31
0.0000
  0
LINE
  8
48
 10
-22.9298
 20
59.8812
 30
0.0000
 11
-22.9298
 21
59.1185
 31
0.0000
  0
LINE
  8
48
 10
-23.1204
 20
59.1185
 30
0.0000
 11
-22.7391
 21
59.1185
 31
0.0000
  0
LINE
  8
48
 10
-22.9298
 20
60.4531
 30
0.0000
 11
-22.9298
 21
60.2625
 31
0.0000
  0
LINE
  8
48
 10
-21.7688
 20
59.1185
 30
0.0000
 11
-22.1502
 21
59.1185
 31
0.0000
  0
LINE
  8
48
 10
-22.1502
 20
59.1185
 30
0.0000
 11
-22.3408
 21
59.3092
 31
0.0000
  0
LINE
  8
48
 10
-22.3408
 20
59.3092
 30
0.0000
 11
-22.3408
 21
59.6905
 31
0.0000
  0
LINE
  8
48
 10
-22.3408
 20
59.6905
 30
0.0000
 11
-22.1502
 21
59.8812
 31
0.0000
  0
LINE
  8
48
 10
-22.1502
 20
59.8812
 30
0.0000
 11
-21.7688
 21
59.8812
 31
0.0000
  0
LINE
  8
48
 10
-21.7688
 20
59.8812
 30
0.0000
 11
-21.5782
 21
59.6905
 31
0.0000
  0
LINE
  8
48
 10
-21.5782
 20
59.6905
 30
0.0000
 11
-21.5782
 21
59.4998
 31
0.0000
  0
LINE
  8
48
 10
-21.5782
 20
59.4998
 30
0.0000
 11
-22.3408
 21
59.4998
 31
0.0000
  0
LINE
  8
48
 10
-21.1714
 20
59.1185
 30
0.0000
 11
-20.5994
 21
59.1185
 31
0.0000
  0
LINE
  8
48
 10
-20.5994
 20
59.1185
 30
0.0000
 11
-20.4088
 21
59.3092
 31
0.0000
  0
LINE
  8
48
 10
-20.4088
 20
59.3092
 30
0.0000
 11
-20.5994
 21
59.4998
 31
0.0000
  0
LINE
  8
48
 10
-20.5994
 20
59.4998
 30
0.0000
 11
-20.9808
 21
59.4998
 31
0.0000
  0
LINE
  8
48
 10
-20.9808
 20
59.4998
 30
0.0000
 11
-21.1714
 21
59.6905
 31
0.0000
  0
LINE
  8
48
 10
-21.1714
 20
59.6905
 30
0.0000
 11
-20.9808
 21
59.8812
 31
0.0000
  0
LINE
  8
48
 10
-20.9808
 20
59.8812
 30
0.0000
 11
-20.4088
 21
59.8812
 31
0.0000
  0
LINE
  8
48
 10
-20.0020
 20
59.1185
 30
0.0000
 11
-19.6207
 21
59.1185
 31
0.0000
  0
LINE
  8
48
 10
-19.6207
 20
59.1185
 30
0.0000
 11
-19.6207
 21
60.2625
 31
0.0000
  0
LINE
  8
48
 10
-19.6207
 20
60.2625
 30
0.0000
 11
-20.0020
 21
60.2625
 31
0.0000
  0
LINE
  8
48
 10
-50.6012
 20
135.3185
 30
0.0000
 11
-50.6012
 21
136.4625
 31
0.0000
  0
LINE
  8
48
 10
-50.6012
 20
136.4625
 30
0.0000
 11
-50.0293
 21
136.4625
 31
0.0000
  0
LINE
  8
48
 10
-50.0293
 20
136.4625
 30
0.0000
 11
-49.8386
 21
136.2718
 31
0.0000
  0
LINE
  8
48
 10
-49.8386
 20
136.2718
 30
0.0000
 11
-49.8386
 21
135.8905
 31
0.0000
  0
LINE
  8
48
 10
-49.8386
 20
135.8905
 30
0.0000
 11
-50.0293
 21
135.6998
 31
0.0000
  0
LINE
  8
48
 10
-50.0293
 20
135.6998
 30
0.0000
 11
-50.6012
 21
135.6998
 31
0.0000
  0
LINE
  8
48
 10
-49.2412
 20
136.0812
 30
0.0000
 11
-48.8599
 21
136.0812
 31
0.0000
  0
LINE
  8
48
 10
-48.8599
 20
136.0812
 30
0.0000
 11
-48.6692
 21
135.8905
 31
0.0000
  0
LINE
  8
48
 10
-48.6692
 20
135.8905
 30
0.0000
 11
-48.6692
 21
135.3185
 31
0.0000
  0
LINE
  8
48
 10
-48.6692
 20
135.3185
 30
0.0000
 11
-49.2412
 21
135.3185
 31
0.0000
  0
LINE
  8
48
 10
-49.2412
 20
135.3185
 30
0.0000
 11
-49.4318
 21
135.5092
 31
0.0000
  0
LINE
  8
48
 10
-49.4318
 20
135.5092
 30
0.0000
 11
-49.2412
 21
135.6998
 31
0.0000
  0
LINE
  8
48
 10
-49.2412
 20
135.6998
 30
0.0000
 11
-48.6692
 21
135.6998
 31
0.0000
  0
LINE
  8
48
 10
-48.2624
 20
135.3185
 30
0.0000
 11
-48.2624
 21
136.0812
 31
0.0000
  0
LINE
  8
48
 10
-48.2624
 20
135.6998
 30
0.0000
 11
-47.8811
 21
136.0812
 31
0.0000
  0
LINE
  8
48
 10
-47.8811
 20
136.0812
 30
0.0000
 11
-47.6905
 21
136.0812
 31
0.0000
  0
LINE
  8
48
 10
-47.0973
 20
136.2718
 30
0.0000
 11
-47.0973
 21
135.5092
 31
0.0000
  0
LINE
  8
48
 10
-47.0973
 20
135.5092
 30
0.0000
 11
-46.9066
 21
135.3185
 31
0.0000
  0
LINE
  8
48
 10
-47.2880
 20
136.0812
 30
0.0000
 11
-46.9066
 21
136.0812
 31
0.0000
  0
LINE
  8
48
 10
-45.3390
 20
135.3185
 30
0.0000
 11
-45.3390
 21
136.0812
 31
0.0000
  0
LINE
  8
48
 10
-45.3390
 20
136.0812
 30
0.0000
 11
-44.9576
 21
136.4625
 31
0.0000
  0
LINE
  8
48
 10
-44.9576
 20
136.4625
 30
0.0000
 11
-44.5763
 21
136.0812
 31
0.0000
  0
LINE
  8
48
 10
-44.5763
 20
136.0812
 30
0.0000
 11
-44.5763
 21
135.3185
 31
0.0000
  0
LINE
  8
48
 10
-45.3390
 20
135.8905
 30
0.0000
 11
-44.5763
 21
135.8905
 31
0.0000
  0
LINE
  8
48
 10
-42.6188
 20
135.3185
 30
0.0000
 11
-43.0002
 21
135.3185
 31
0.0000
  0
LINE
  8
48
 10
-43.0002
 20
135.3185
 30
0.0000
 11
-43.0002
 21
136.4625
 31
0.0000
  0
LINE
  8
48
 10
-43.0002
 20
136.4625
 30
0.0000
 11
-42.6188
 21
136.4625
 31
0.0000
  0
LINE
  8
48
 10
-40.2885
 20
135.3185
 30
0.0000
 11
-41.0512
 21
135.3185
 31
0.0000
  0
LINE
  8
48
 10
-41.0512
 20
135.3185
 30
0.0000
 11
-40.2885
 21
136.0812
 31
0.0000
  0
LINE
  8
48
 10
-40.2885
 20
136.0812
 30
0.0000
 11
-40.2885
 21
136.2718
 31
0.0000
  0
LINE
  8
48
 10
-40.2885
 20
136.2718
 30
0.0000
 11
-40.4792
 21
136.4625
 31
0.0000
  0
LINE
  8
48
 10
-40.4792
 20
136.4625
 30
0.0000
 11
-40.8605
 21
136.4625
 31
0.0000
  0
LINE
  8
48
 10
-40.8605
 20
136.4625
 30
0.0000
 11
-41.0512
 21
136.2718
 31
0.0000
  0
LINE
  8
48
 10
-39.8818
 20
136.2718
 30
0.0000
 11
-39.1191
 21
135.5092
 31
0.0000
  0
LINE
  8
48
 10
-39.8818
 20
135.5092
 30
0.0000
 11
-39.1191
 21
136.2718
 31
0.0000
  0
LINE
  8
48
 10
-39.8818
 20
135.8905
 30
0.0000
 11
-39.1191
 21
135.8905
 31
0.0000
  0
LINE
  8
48
 10
-39.5004
 20
135.5092
 30
0.0000
 11
-39.5004
 21
136.2718
 31
0.0000
  0
LINE
  8
48
 10
-37.5430
 20
136.0812
 30
0.0000
 11
-37.1617
 21
136.4625
 31
0.0000
  0
LINE
  8
48
 10
-37.1617
 20
136.4625
 30
0.0000
 11
-37.1617
 21
135.3185
 31
0.0000
  0
LINE
  8
48
 10
-37.5430
 20
135.3185
 30
0.0000
 11
-36.7803
 21
135.3185
 31
0.0000
  0
LINE
  8
48
 10
-35.2042
 20
135.6998
 30
0.0000
 11
-34.4415
 21
135.6998
 31
0.0000
  0
LINE
  8
48
 10
-35.2042
 20
136.0812
 30
0.0000
 11
-34.4415
 21
136.0812
 31
0.0000
  0
LINE
  8
48
 10
-32.4841
 20
135.3185
 30
0.0000
 11
-32.8654
 21
135.6998
 31
0.0000
  0
LINE
  8
48
 10
-32.8654
 20
135.6998
 30
0.0000
 11
-32.8654
 21
136.0812
 31
0.0000
  0
LINE
  8
48
 10
-32.8654
 20
136.0812
 30
0.0000
 11
-32.4841
 21
136.4625
 31
0.0000
  0
LINE
  8
48
 10
-31.3231
 20
135.3185
 30
0.0000
 11
-32.0858
 21
135.3185
 31
0.0000
  0
LINE
  8
48
 10
-32.0858
 20
135.3185
 30
0.0000
 11
-31.3231
 21
136.0812
 31
0.0000
  0
LINE
  8
48
 10
-31.3231
 20
136.0812
 30
0.0000
 11
-31.3231
 21
136.2718
 31
0.0000
  0
LINE
  8
48
 10
-31.3231
 20
136.2718
 30
0.0000
 11
-31.5138
 21
136.4625
 31
0.0000
  0
LINE
  8
48
 10
-31.5138
 20
136.4625
 30
0.0000
 11
-31.8951
 21
136.4625
 31
0.0000
  0
LINE
  8
48
 10
-31.8951
 20
136.4625
 30
0.0000
 11
-32.0858
 21
136.2718
 31
0.0000
  0
LINE
  8
48
 10
-30.9164
 20
135.3185
 30
0.0000
 11
-30.5351
 21
135.6998
 31
0.0000
  0
LINE
  8
48
 10
-30.5351
 20
135.6998
 30
0.0000
 11
-30.5351
 21
136.0812
 31
0.0000
  0
LINE
  8
48
 10
-30.5351
 20
136.0812
 30
0.0000
 11
-30.9164
 21
136.4625
 31
0.0000
  0
LINE
  8
48
 10
-28.2048
 20
136.0812
 30
0.0000
 11
-28.7767
 21
136.0812
 31
0.0000
  0
LINE
  8
48
 10
-28.7767
 20
136.0812
 30
0.0000
 11
-28.9674
 21
135.8905
 31
0.0000
  0
LINE
  8
48
 10
-28.9674
 20
135.8905
 30
0.0000
 11
-28.9674
 21
135.5092
 31
0.0000
  0
LINE
  8
48
 10
-28.9674
 20
135.5092
 30
0.0000
 11
-28.7767
 21
135.3185
 31
0.0000
  0
LINE
  8
48
 10
-28.7767
 20
135.3185
 30
0.0000
 11
-28.2048
 21
135.3185
 31
0.0000
  0
LINE
  8
48
 10
-27.6073
 20
135.3185
 30
0.0000
 11
-27.2260
 21
135.3185
 31
0.0000
  0
LINE
  8
48
 10
-27.2260
 20
135.3185
 30
0.0000
 11
-27.0354
 21
135.5092
 31
0.0000
  0
LINE
  8
48
 10
-27.0354
 20
135.5092
 30
0.0000
 11
-27.0354
 21
135.8905
 31
0.0000
  0
LINE
  8
48
 10
-27.0354
 20
135.8905
 30
0.0000
 11
-27.2260
 21
136.0812
 31
0.0000
  0
LINE
  8
48
 10
-27.2260
 20
136.0812
 30
0.0000
 11
-27.6073
 21
136.0812
 31
0.0000
  0
LINE
  8
48
 10
-27.6073
 20
136.0812
 30
0.0000
 11
-27.7980
 21
135.8905
 31
0.0000
  0
LINE
  8
48
 10
-27.7980
 20
135.8905
 30
0.0000
 11
-27.7980
 21
135.5092
 31
0.0000
  0
LINE
  8
48
 10
-27.7980
 20
135.5092
 30
0.0000
 11
-27.6073
 21
135.3185
 31
0.0000
  0
LINE
  8
48
 10
-26.6286
 20
134.9372
 30
0.0000
 11
-26.6286
 21
136.0812
 31
0.0000
  0
LINE
  8
48
 10
-26.6286
 20
136.0812
 30
0.0000
 11
-26.0566
 21
136.0812
 31
0.0000
  0
LINE
  8
48
 10
-26.0566
 20
136.0812
 30
0.0000
 11
-25.8660
 21
135.8905
 31
0.0000
  0
LINE
  8
48
 10
-25.8660
 20
135.8905
 30
0.0000
 11
-25.8660
 21
135.5092
 31
0.0000
  0
LINE
  8
48
 10
-25.8660
 20
135.5092
 30
0.0000
 11
-26.0566
 21
135.3185
 31
0.0000
  0
LINE
  8
48
 10
-26.0566
 20
135.3185
 30
0.0000
 11
-26.6286
 21
135.3185
 31
0.0000
  0
LINE
  8
48
 10
-25.4592
 20
136.0812
 30
0.0000
 11
-25.2686
 21
136.0812
 31
0.0000
  0
LINE
  8
48
 10
-25.2686
 20
136.0812
 30
0.0000
 11
-25.2686
 21
135.3185
 31
0.0000
  0
LINE
  8
48
 10
-25.4592
 20
135.3185
 30
0.0000
 11
-25.0779
 21
135.3185
 31
0.0000
  0
LINE
  8
48
 10
-25.2686
 20
136.6531
 30
0.0000
 11
-25.2686
 21
136.4625
 31
0.0000
  0
LINE
  8
48
 10
-24.1076
 20
135.3185
 30
0.0000
 11
-24.4890
 21
135.3185
 31
0.0000
  0
LINE
  8
48
 10
-24.4890
 20
135.3185
 30
0.0000
 11
-24.6796
 21
135.5092
 31
0.0000
  0
LINE
  8
48
 10
-24.6796
 20
135.5092
 30
0.0000
 11
-24.6796
 21
135.8905
 31
0.0000
  0
LINE
  8
48
 10
-24.6796
 20
135.8905
 30
0.0000
 11
-24.4890
 21
136.0812
 31
0.0000
  0
LINE
  8
48
 10
-24.4890
 20
136.0812
 30
0.0000
 11
-24.1076
 21
136.0812
 31
0.0000
  0
LINE
  8
48
 10
-24.1076
 20
136.0812
 30
0.0000
 11
-23.9170
 21
135.8905
 31
0.0000
  0
LINE
  8
48
 10
-23.9170
 20
135.8905
 30
0.0000
 11
-23.9170
 21
135.6998
 31
0.0000
  0
LINE
  8
48
 10
-23.9170
 20
135.6998
 30
0.0000
 11
-24.6796
 21
135.6998
 31
0.0000
  0
LINE
  8
48
 10
-23.5102
 20
135.3185
 30
0.0000
 11
-22.9382
 21
135.3185
 31
0.0000
  0
LINE
  8
48
 10
-22.9382
 20
135.3185
 30
0.0000
 11
-22.7476
 21
135.5092
 31
0.0000
  0
LINE
  8
48
 10
-22.7476
 20
135.5092
 30
0.0000
 11
-22.9382
 21
135.6998
 31
0.0000
  0
LINE
  8
48
 10
-22.9382
 20
135.6998
 30
0.0000
 11
-23.3196
 21
135.6998
 31
0.0000
  0
LINE
  8
48
 10
-23.3196
 20
135.6998
 30
0.0000
 11
-23.5102
 21
135.8905
 31
0.0000
  0
LINE
  8
48
 10
-23.5102
 20
135.8905
 30
0.0000
 11
-23.3196
 21
136.0812
 31
0.0000
  0
LINE
  8
48
 10
-23.3196
 20
136.0812
 30
0.0000
 11
-22.7476
 21
136.0812
 31
0.0000
  0
LINE
  8
48
 10
-21.1714
 20
135.3185
 30
0.0000
 11
-20.7901
 21
135.3185
 31
0.0000
  0
LINE
  8
48
 10
-20.7901
 20
135.3185
 30
0.0000
 11
-20.7901
 21
136.4625
 31
0.0000
  0
LINE
  8
48
 10
-20.7901
 20
136.4625
 30
0.0000
 11
-21.1714
 21
136.4625
 31
0.0000
  0
LINE
  8
48
 10
-50.6012
 20
28.6385
 30
0.0000
 11
-50.6012
 21
29.7825
 31
0.0000
  0
LINE
  8
48
 10
-50.6012
 20
29.7825
 30
0.0000
 11
-50.0293
 21
29.7825
 31
0.0000
  0
LINE
  8
48
 10
-50.0293
 20
29.7825
 30
0.0000
 11
-49.8386
 21
29.5918
 31
0.0000
  0
LINE
  8
48
 10
-49.8386
 20
29.5918
 30
0.0000
 11
-49.8386
 21
29.2105
 31
0.0000
  0
LINE
  8
48
 10
-49.8386
 20
29.2105
 30
0.0000
 11
-50.0293
 21
29.0198
 31
0.0000
  0
LINE
  8
48
 10
-50.0293
 20
29.0198
 30
0.0000
 11
-50.6012
 21
29.0198
 31
0.0000
  0
LINE
  8
48
 10
-49.2412
 20
29.4012
 30
0.0000
 11
-48.8599
 21
29.4012
 31
0.0000
  0
LINE
  8
48
 10
-48.8599
 20
29.4012
 30
0.0000
 11
-48.6692
 21
29.2105
 31
0.0000
  0
LINE
  8
48
 10
-48.6692
 20
29.2105
 30
0.0000
 11
-48.6692
 21
28.6385
 31
0.0000
  0
LINE
  8
48
 10
-48.6692
 20
28.6385
 30
0.0000
 11
-49.2412
 21
28.6385
 31
0.0000
  0
LINE
  8
48
 10
-49.2412
 20
28.6385
 30
0.0000
 11
-49.4318
 21
28.8292
 31
0.0000
  0
LINE
  8
48
 10
-49.4318
 20
28.8292
 30
0.0000
 11
-49.2412
 21
29.0198
 31
0.0000
  0
LINE
  8
48
 10
-49.2412
 20
29.0198
 30
0.0000
 11
-48.6692
 21
29.0198
 31
0.0000
  0
LINE
  8
48
 10
-48.2624
 20
28.6385
 30
0.0000
 11
-48.2624
 21
29.4012
 31
0.0000
  0
LINE
  8
48
 10
-48.2624
 20
29.0198
 30
0.0000
 11
-47.8811
 21
29.4012
 31
0.0000
  0
LINE
  8
48
 10
-47.8811
 20
29.4012
 30
0.0000
 11
-47.6905
 21
29.4012
 31
0.0000
  0
LINE
  8
48
 10
-47.0973
 20
29.5918
 30
0.0000
 11
-47.0973
 21
28.8292
 31
0.0000
  0
LINE
  8
48
 10
-47.0973
 20
28.8292
 30
0.0000
 11
-46.9066
 21
28.6385
 31
0.0000
  0
LINE
  8
48
 10
-47.2880
 20
29.4012
 30
0.0000
 11
-46.9066
 21
29.4012
 31
0.0000
  0
LINE
  8
48
 10
-45.3390
 20
29.7825
 30
0.0000
 11
-45.3390
 21
28.6385
 31
0.0000
  0
LINE
  8
48
 10
-45.3390
 20
28.6385
 30
0.0000
 11
-44.7670
 21
28.6385
 31
0.0000
  0
LINE
  8
48
 10
-44.7670
 20
28.6385
 30
0.0000
 11
-44.5763
 21
28.8292
 31
0.0000
  0
LINE
  8
48
 10
-44.5763
 20
28.8292
 30
0.0000
 11
-44.5763
 21
29.5918
 31
0.0000
  0
LINE
  8
48
 10
-44.5763
 20
29.5918
 30
0.0000
 11
-44.7670
 21
29.7825
 31
0.0000
  0
LINE
  8
48
 10
-44.7670
 20
29.7825
 30
0.0000
 11
-45.3390
 21
29.7825
 31
0.0000
  0
LINE
  8
48
 10
-42.6188
 20
28.6385
 30
0.0000
 11
-43.0002
 21
28.6385
 31
0.0000
  0
LINE
  8
48
 10
-43.0002
 20
28.6385
 30
0.0000
 11
-43.0002
 21
29.7825
 31
0.0000
  0
LINE
  8
48
 10
-43.0002
 20
29.7825
 30
0.0000
 11
-42.6188
 21
29.7825
 31
0.0000
  0
LINE
  8
48
 10
-40.2885
 20
28.6385
 30
0.0000
 11
-41.0512
 21
28.6385
 31
0.0000
  0
LINE
  8
48
 10
-41.0512
 20
28.6385
 30
0.0000
 11
-40.2885
 21
29.4012
 31
0.0000
  0
LINE
  8
48
 10
-40.2885
 20
29.4012
 30
0.0000
 11
-40.2885
 21
29.5918
 31
0.0000
  0
LINE
  8
48
 10
-40.2885
 20
29.5918
 30
0.0000
 11
-40.4792
 21
29.7825
 31
0.0000
  0
LINE
  8
48
 10
-40.4792
 20
29.7825
 30
0.0000
 11
-40.8605
 21
29.7825
 31
0.0000
  0
LINE
  8
48
 10
-40.8605
 20
29.7825
 30
0.0000
 11
-41.0512
 21
29.5918
 31
0.0000
  0
LINE
  8
48
 10
-39.8818
 20
29.5918
 30
0.0000
 11
-39.1191
 21
28.8292
 31
0.0000
  0
LINE
  8
48
 10
-39.8818
 20
28.8292
 30
0.0000
 11
-39.1191
 21
29.5918
 31
0.0000
  0
LINE
  8
48
 10
-39.8818
 20
29.2105
 30
0.0000
 11
-39.1191
 21
29.2105
 31
0.0000
  0
LINE
  8
48
 10
-39.5004
 20
28.8292
 30
0.0000
 11
-39.5004
 21
29.5918
 31
0.0000
  0
LINE
  8
48
 10
-37.5430
 20
29.4012
 30
0.0000
 11
-37.1617
 21
29.7825
 31
0.0000
  0
LINE
  8
48
 10
-37.1617
 20
29.7825
 30
0.0000
 11
-37.1617
 21
28.6385
 31
0.0000
  0
LINE
  8
48
 10
-37.5430
 20
28.6385
 30
0.0000
 11
-36.7803
 21
28.6385
 31
0.0000
  0
LINE
  8
48
 10
-35.2042
 20
29.0198
 30
0.0000
 11
-34.4415
 21
29.0198
 31
0.0000
  0
LINE
  8
48
 10
-35.2042
 20
29.4012
 30
0.0000
 11
-34.4415
 21
29.4012
 31
0.0000
  0
LINE
  8
48
 10
-32.4841
 20
28.6385
 30
0.0000
 11
-32.8654
 21
29.0198
 31
0.0000
  0
LINE
  8
48
 10
-32.8654
 20
29.0198
 30
0.0000
 11
-32.8654
 21
29.4012
 31
0.0000
  0
LINE
  8
48
 10
-32.8654
 20
29.4012
 30
0.0000
 11
-32.4841
 21
29.7825
 31
0.0000
  0
LINE
  8
48
 10
-31.3231
 20
28.6385
 30
0.0000
 11
-32.0858
 21
28.6385
 31
0.0000
  0
LINE
  8
48
 10
-32.0858
 20
28.6385
 30
0.0000
 11
-31.3231
 21
29.4012
 31
0.0000
  0
LINE
  8
48
 10
-31.3231
 20
29.4012
 30
0.0000
 11
-31.3231
 21
29.5918
 31
0.0000
  0
LINE
  8
48
 10
-31.3231
 20
29.5918
 30
0.0000
 11
-31.5138
 21
29.7825
 31
0.0000
  0
LINE
  8
48
 10
-31.5138
 20
29.7825
 30
0.0000
 11
-31.8951
 21
29.7825
 31
0.0000
  0
LINE
  8
48
 10
-31.8951
 20
29.7825
 30
0.0000
 11
-32.0858
 21
29.5918
 31
0.0000
  0
LINE
  8
48
 10
-30.9164
 20
28.6385
 30
0.0000
 11
-30.5351
 21
29.0198
 31
0.0000
  0
LINE
  8
48
 10
-30.5351
 20
29.0198
 30
0.0000
 11
-30.5351
 21
29.4012
 31
0.0000
  0
LINE
  8
48
 10
-30.5351
 20
29.4012
 30
0.0000
 11
-30.9164
 21
29.7825
 31
0.0000
  0
LINE
  8
48
 10
-28.2048
 20
29.4012
 30
0.0000
 11
-28.7767
 21
29.4012
 31
0.0000
  0
LINE
  8
48
 10
-28.7767
 20
29.4012
 30
0.0000
 11
-28.9674
 21
29.2105
 31
0.0000
  0
LINE
  8
48
 10
-28.9674
 20
29.2105
 30
0.0000
 11
-28.9674
 21
28.8292
 31
0.0000
  0
LINE
  8
48
 10
-28.9674
 20
28.8292
 30
0.0000
 11
-28.7767
 21
28.6385
 31
0.0000
  0
LINE
  8
48
 10
-28.7767
 20
28.6385
 30
0.0000
 11
-28.2048
 21
28.6385
 31
0.0000
  0
LINE
  8
48
 10
-27.6073
 20
28.6385
 30
0.0000
 11
-27.2260
 21
28.6385
 31
0.0000
  0
LINE
  8
48
 10
-27.2260
 20
28.6385
 30
0.0000
 11
-27.0354
 21
28.8292
 31
0.0000
  0
LINE
  8
48
 10
-27.0354
 20
28.8292
 30
0.0000
 11
-27.0354
 21
29.2105
 31
0.0000
  0
LINE
  8
48
 10
-27.0354
 20
29.2105
 30
0.0000
 11
-27.2260
 21
29.4012
 31
0.0000
  0
LINE
  8
48
 10
-27.2260
 20
29.4012
 30
0.0000
 11
-27.6073
 21
29.4012
 31
0.0000
  0
LINE
  8
48
 10
-27.6073
 20
29.4012
 30
0.0000
 11
-27.7980
 21
29.2105
 31
0.0000
  0
LINE
  8
48
 10
-27.7980
 20
29.2105
 30
0.0000
 11
-27.7980
 21
28.8292
 31
0.0000
  0
LINE
  8
48
 10
-27.7980
 20
28.8292
 30
0.0000
 11
-27.6073
 21
28.6385
 31
0.0000
  0
LINE
  8
48
 10
-26.6286
 20
28.2572
 30
0.0000
 11
-26.6286
 21
29.4012
 31
0.0000
  0
LINE
  8
48
 10
-26.6286
 20
29.4012
 30
0.0000
 11
-26.0566
 21
29.4012
 31
0.0000
  0
LINE
  8
48
 10
-26.0566
 20
29.4012
 30
0.0000
 11
-25.8660
 21
29.2105
 31
0.0000
  0
LINE
  8
48
 10
-25.8660
 20
29.2105
 30
0.0000
 11
-25.8660
 21
28.8292
 31
0.0000
  0
LINE
  8
48
 10
-25.8660
 20
28.8292
 30
0.0000
 11
-26.0566
 21
28.6385
 31
0.0000
  0
LINE
  8
48
 10
-26.0566
 20
28.6385
 30
0.0000
 11
-26.6286
 21
28.6385
 31
0.0000
  0
LINE
  8
48
 10
-25.4592
 20
29.4012
 30
0.0000
 11
-25.2686
 21
29.4012
 31
0.0000
  0
LINE
  8
48
 10
-25.2686
 20
29.4012
 30
0.0000
 11
-25.2686
 21
28.6385
 31
0.0000
  0
LINE
  8
48
 10
-25.4592
 20
28.6385
 30
0.0000
 11
-25.0779
 21
28.6385
 31
0.0000
  0
LINE
  8
48
 10
-25.2686
 20
29.9731
 30
0.0000
 11
-25.2686
 21
29.7825
 31
0.0000
  0
LINE
  8
48
 10
-24.1076
 20
28.6385
 30
0.0000
 11
-24.4890
 21
28.6385
 31
0.0000
  0
LINE
  8
48
 10
-24.4890
 20
28.6385
 30
0.0000
 11
-24.6796
 21
28.8292
 31
0.0000
  0
LINE
  8
48
 10
-24.6796
 20
28.8292
 30
0.0000
 11
-24.6796
 21
29.2105
 31
0.0000
  0
LINE
  8
48
 10
-24.6796
 20
29.2105
 30
0.0000
 11
-24.4890
 21
29.4012
 31
0.0000
  0
LINE
  8
48
 10
-24.4890
 20
29.4012
 30
0.0000
 11
-24.1076
 21
29.4012
 31
0.0000
  0
LINE
  8
48
 10
-24.1076
 20
29.4012
 30
0.0000
 11
-23.9170
 21
29.2105
 31
0.0000
  0
LINE
  8
48
 10
-23.9170
 20
29.2105
 30
0.0000
 11
-23.9170
 21
29.0198
 31
0.0000
  0
LINE
  8
48
 10
-23.9170
 20
29.0198
 30
0.0000
 11
-24.6796
 21
29.0198
 31
0.0000
  0
LINE
  8
48
 10
-23.5102
 20
28.6385
 30
0.0000
 11
-22.9382
 21
28.6385
 31
0.0000
  0
LINE
  8
48
 10
-22.9382
 20
28.6385
 30
0.0000
 11
-22.7476
 21
28.8292
 31
0.0000
  0
LINE
  8
48
 10
-22.7476
 20
28.8292
 30
0.0000
 11
-22.9382
 21
29.0198
 31
0.0000
  0
LINE
  8
48
 10
-22.9382
 20
29.0198
 30
0.0000
 11
-23.3196
 21
29.0198
 31
0.0000
  0
LINE
  8
48
 10
-23.3196
 20
29.0198
 30
0.0000
 11
-23.5102
 21
29.2105
 31
0.0000
  0
LINE
  8
48
 10
-23.5102
 20
29.2105
 30
0.0000
 11
-23.3196
 21
29.4012
 31
0.0000
  0
LINE
  8
48
 10
-23.3196
 20
29.4012
 30
0.0000
 11
-22.7476
 21
29.4012
 31
0.0000
  0
LINE
  8
48
 10
-21.1714
 20
28.6385
 30
0.0000
 11
-20.7901
 21
28.6385
 31
0.0000
  0
LINE
  8
48
 10
-20.7901
 20
28.6385
 30
0.0000
 11
-20.7901
 21
29.7825
 31
0.0000
  0
LINE
  8
48
 10
-20.7901
 20
29.7825
 30
0.0000
 11
-21.1714
 21
29.7825
 31
0.0000
  0
LINE
  8
48
 10
43.1140
 20
23.8125
 30
0.0000
 11
43.1140
 21
27.6258
 31
0.0000
  0
LINE
  8
48
 10
43.1140
 20
27.6258
 30
0.0000
 11
45.0206
 21
29.5324
 31
0.0000
  0
LINE
  8
48
 10
45.0206
 20
29.5324
 30
0.0000
 11
46.9273
 21
27.6258
 31
0.0000
  0
LINE
  8
48
 10
46.9273
 20
27.6258
 30
0.0000
 11
46.9273
 21
23.8125
 31
0.0000
  0
LINE
  8
48
 10
43.1140
 20
26.6724
 30
0.0000
 11
46.9273
 21
26.6724
 31
0.0000
  0
LINE
  8
48
 10
180.2740
 20
23.8125
 30
0.0000
 11
180.2740
 21
27.6258
 31
0.0000
  0
LINE
  8
48
 10
180.2740
 20
27.6258
 30
0.0000
 11
182.1806
 21
29.5324
 31
0.0000
  0
LINE
  8
48
 10
182.1806
 20
29.5324
 30
0.0000
 11
184.0873
 21
27.6258
 31
0.0000
  0
LINE
  8
48
 10
184.0873
 20
27.6258
 30
0.0000
 11
184.0873
 21
23.8125
 31
0.0000
  0
LINE
  8
48
 10
180.2740
 20
26.6724
 30
0.0000
 11
184.0873
 21
26.6724
 31
0.0000
  0
LINE
  8
48
 10
111.6940
 20
29.5324
 30
0.0000
 11
111.6940
 21
23.8125
 31
0.0000
  0
LINE
  8
48
 10
111.6940
 20
23.8125
 30
0.0000
 11
114.5539
 21
23.8125
 31
0.0000
  0
LINE
  8
48
 10
114.5539
 20
23.8125
 30
0.0000
 11
115.5073
 21
24.7658
 31
0.0000
  0
LINE
  8
48
 10
115.5073
 20
24.7658
 30
0.0000
 11
115.5073
 21
28.5791
 31
0.0000
  0
LINE
  8
48
 10
115.5073
 20
28.5791
 30
0.0000
 11
114.5539
 21
29.5324
 31
0.0000
  0
LINE
  8
48
 10
114.5539
 20
29.5324
 30
0.0000
 11
111.6940
 21
29.5324
 31
0.0000
  0
LINE
  8
48
 10
248.8540
 20
29.5324
 30
0.0000
 11
248.8540
 21
23.8125
 31
0.0000
  0
LINE
  8
48
 10
248.8540
 20
23.8125
 30
0.0000
 11
251.7139
 21
23.8125
 31
0.0000
  0
LINE
  8
48
 10
251.7139
 20
23.8125
 30
0.0000
 11
252.6673
 21
24.7658
 31
0.0000
  0
LINE
  8
48
 10
252.6673
 20
24.7658
 30
0.0000
 11
252.6673
 21
28.5791
 31
0.0000
  0
LINE
  8
48
 10
252.6673
 20
28.5791
 30
0.0000
 11
251.7139
 21
29.5324
 31
0.0000
  0
LINE
  8
48
 10
251.7139
 20
29.5324
 30
0.0000
 11
248.8540
 21
29.5324
 31
0.0000
  0
LINE
  8
48
 10
43.1140
 20
64.4525
 30
0.0000
 11
43.1140
 21
70.1724
 31
0.0000
  0
LINE
  8
48
 10
43.1140
 20
70.1724
 30
0.0000
 11
45.9739
 21
70.1724
 31
0.0000
  0
LINE
  8
48
 10
45.9739
 20
70.1724
 30
0.0000
 11
46.9273
 21
69.2191
 31
0.0000
  0
LINE
  8
48
 10
46.9273
 20
69.2191
 30
0.0000
 11
46.9273
 21
68.2658
 31
0.0000
  0
LINE
  8
48
 10
46.9273
 20
68.2658
 30
0.0000
 11
45.9739
 21
67.3124
 31
0.0000
  0
LINE
  8
48
 10
45.9739
 20
67.3124
 30
0.0000
 11
46.9273
 21
66.3591
 31
0.0000
  0
LINE
  8
48
 10
46.9273
 20
66.3591
 30
0.0000
 11
46.9273
 21
65.4058
 31
0.0000
  0
LINE
  8
48
 10
46.9273
 20
65.4058
 30
0.0000
 11
45.9739
 21
64.4525
 31
0.0000
  0
LINE
  8
48
 10
45.9739
 20
64.4525
 30
0.0000
 11
43.1140
 21
64.4525
 31
0.0000
  0
LINE
  8
48
 10
43.1140
 20
67.3124
 30
0.0000
 11
45.9739
 21
67.3124
 31
0.0000
  0
LINE
  8
48
 10
43.1140
 20
105.0925
 30
0.0000
 11
43.1140
 21
110.8124
 31
0.0000
  0
LINE
  8
48
 10
43.1140
 20
110.8124
 30
0.0000
 11
45.9739
 21
110.8124
 31
0.0000
  0
LINE
  8
48
 10
45.9739
 20
110.8124
 30
0.0000
 11
46.9273
 21
109.8591
 31
0.0000
  0
LINE
  8
48
 10
46.9273
 20
109.8591
 30
0.0000
 11
46.9273
 21
108.9058
 31
0.0000
  0
LINE
  8
48
 10
46.9273
 20
108.9058
 30
0.0000
 11
45.9739
 21
107.9524
 31
0.0000
  0
LINE
  8
48
 10
45.9739
 20
107.9524
 30
0.0000
 11
46.9273
 21
106.9991
 31
0.0000
  0
LINE
  8
48
 10
46.9273
 20
106.9991
 30
0.0000
 11
46.9273
 21
106.0458
 31
0.0000
  0
LINE
  8
48
 10
46.9273
 20
106.0458
 30
0.0000
 11
45.9739
 21
105.0925
 31
0.0000
  0
LINE
  8
48
 10
45.9739
 20
105.0925
 30
0.0000
 11
43.1140
 21
105.0925
 31
0.0000
  0
LINE
  8
48
 10
43.1140
 20
107.9524
 30
0.0000
 11
45.9739
 21
107.9524
 31
0.0000
  0
LINE
  8
48
 10
180.2740
 20
105.0925
 30
0.0000
 11
180.2740
 21
110.8124
 31
0.0000
  0
LINE
  8
48
 10
180.2740
 20
110.8124
 30
0.0000
 11
183.1339
 21
110.8124
 31
0.0000
  0
LINE
  8
48
 10
183.1339
 20
110.8124
 30
0.0000
 11
184.0873
 21
109.8591
 31
0.0000
  0
LINE
  8
48
 10
184.0873
 20
109.8591
 30
0.0000
 11
184.0873
 21
108.9058
 31
0.0000
  0
LINE
  8
48
 10
184.0873
 20
108.9058
 30
0.0000
 11
183.1339
 21
107.9524
 31
0.0000
  0
LINE
  8
48
 10
183.1339
 20
107.9524
 30
0.0000
 11
184.0873
 21
106.9991
 31
0.0000
  0
LINE
  8
48
 10
184.0873
 20
106.9991
 30
0.0000
 11
184.0873
 21
106.0458
 31
0.0000
  0
LINE
  8
48
 10
184.0873
 20
106.0458
 30
0.0000
 11
183.1339
 21
105.0925
 31
0.0000
  0
LINE
  8
48
 10
183.1339
 20
105.0925
 30
0.0000
 11
180.2740
 21
105.0925
 31
0.0000
  0
LINE
  8
48
 10
180.2740
 20
107.9524
 30
0.0000
 11
183.1339
 21
107.9524
 31
0.0000
  0
LINE
  8
48
 10
180.2740
 20
64.4525
 30
0.0000
 11
180.2740
 21
70.1724
 31
0.0000
  0
LINE
  8
48
 10
180.2740
 20
70.1724
 30
0.0000
 11
183.1339
 21
70.1724
 31
0.0000
  0
LINE
  8
48
 10
183.1339
 20
70.1724
 30
0.0000
 11
184.0873
 21
69.2191
 31
0.0000
  0
LINE
  8
48
 10
184.0873
 20
69.2191
 30
0.0000
 11
184.0873
 21
68.2658
 31
0.0000
  0
LINE
  8
48
 10
184.0873
 20
68.2658
 30
0.0000
 11
183.1339
 21
67.3124
 31
0.0000
  0
LINE
  8
48
 10
183.1339
 20
67.3124
 30
0.0000
 11
184.0873
 21
66.3591
 31
0.0000
  0
LINE
  8
48
 10
184.0873
 20
66.3591
 30
0.0000
 11
184.0873
 21
65.4058
 31
0.0000
  0
LINE
  8
48
 10
184.0873
 20
65.4058
 30
0.0000
 11
183.1339
 21
64.4525
 31
0.0000
  0
LINE
  8
48
 10
183.1339
 20
64.4525
 30
0.0000
 11
180.2740
 21
64.4525
 31
0.0000
  0
LINE
  8
48
 10
180.2740
 20
67.3124
 30
0.0000
 11
183.1339
 21
67.3124
 31
0.0000
  0
LINE
  8
48
 10
115.5073
 20
109.8591
 30
0.0000
 11
114.5539
 21
110.8124
 31
0.0000
  0
LINE
  8
48
 10
114.5539
 20
110.8124
 30
0.0000
 11
112.6473
 21
110.8124
 31
0.0000
  0
LINE
  8
48
 10
112.6473
 20
110.8124
 30
0.0000
 11
111.6940
 21
109.8591
 31
0.0000
  0
LINE
  8
48
 10
111.6940
 20
109.8591
 30
0.0000
 11
111.6940
 21
106.0458
 31
0.0000
  0
LINE
  8
48
 10
111.6940
 20
106.0458
 30
0.0000
 11
112.6473
 21
105.0925
 31
0.0000
  0
LINE
  8
48
 10
112.6473
 20
105.0925
 30
0.0000
 11
114.5539
 21
105.0925
 31
0.0000
  0
LINE
  8
48
 10
114.5539
 20
105.0925
 30
0.0000
 11
115.5073
 21
106.0458
 31
0.0000
  0
LINE
  8
48
 10
115.5073
 20
69.2191
 30
0.0000
 11
114.5539
 21
70.1724
 31
0.0000
  0
LINE
  8
48
 10
114.5539
 20
70.1724
 30
0.0000
 11
112.6473
 21
70.1724
 31
0.0000
  0
LINE
  8
48
 10
112.6473
 20
70.1724
 30
0.0000
 11
111.6940
 21
69.2191
 31
0.0000
  0
LINE
  8
48
 10
111.6940
 20
69.2191
 30
0.0000
 11
111.6940
 21
65.4058
 31
0.0000
  0
LINE
  8
48
 10
111.6940
 20
65.4058
 30
0.0000
 11
112.6473
 21
64.4525
 31
0.0000
  0
LINE
  8
48
 10
112.6473
 20
64.4525
 30
0.0000
 11
114.5539
 21
64.4525
 31
0.0000
  0
LINE
  8
48
 10
114.5539
 20
64.4525
 30
0.0000
 11
115.5073
 21
65.4058
 31
0.0000
  0
LINE
  8
48
 10
252.6673
 20
69.2191
 30
0.0000
 11
251.7139
 21
70.1724
 31
0.0000
  0
LINE
  8
48
 10
251.7139
 20
70.1724
 30
0.0000
 11
249.8073
 21
70.1724
 31
0.0000
  0
LINE
  8
48
 10
249.8073
 20
70.1724
 30
0.0000
 11
248.8540
 21
69.2191
 31
0.0000
  0
LINE
  8
48
 10
248.8540
 20
69.2191
 30
0.0000
 11
248.8540
 21
65.4058
 31
0.0000
  0
LINE
  8
48
 10
248.8540
 20
65.4058
 30
0.0000
 11
249.8073
 21
64.4525
 31
0.0000
  0
LINE
  8
48
 10
249.8073
 20
64.4525
 30
0.0000
 11
251.7139
 21
64.4525
 31
0.0000
  0
LINE
  8
48
 10
251.7139
 20
64.4525
 30
0.0000
 11
252.6673
 21
65.4058
 31
0.0000
  0
LINE
  8
48
 10
252.6673
 20
109.8591
 30
0.0000
 11
251.7139
 21
110.8124
 31
0.0000
  0
LINE
  8
48
 10
251.7139
 20
110.8124
 30
0.0000
 11
249.8073
 21
110.8124
 31
0.0000
  0
LINE
  8
48
 10
249.8073
 20
110.8124
 30
0.0000
 11
248.8540
 21
109.8591
 31
0.0000
  0
LINE
  8
48
 10
248.8540
 20
109.8591
 30
0.0000
 11
248.8540
 21
106.0458
 31
0.0000
  0
LINE
  8
48
 10
248.8540
 20
106.0458
 30
0.0000
 11
249.8073
 21
105.0925
 31
0.0000
  0
LINE
  8
48
 10
249.8073
 20
105.0925
 30
0.0000
 11
251.7139
 21
105.0925
 31
0.0000
  0
LINE
  8
48
 10
251.7139
 20
105.0925
 30
0.0000
 11
252.6673
 21
106.0458
 31
0.0000
  0
LINE
  8
48
 10
252.6673
 20
150.4991
 30
0.0000
 11
251.7139
 21
151.4524
 31
0.0000
  0
LINE
  8
48
 10
251.7139
 20
151.4524
 30
0.0000
 11
249.8073
 21
151.4524
 31
0.0000
  0
LINE
  8
48
 10
249.8073
 20
151.4524
 30
0.0000
 11
248.8540
 21
150.4991
 31
0.0000
  0
LINE
  8
48
 10
248.8540
 20
150.4991
 30
0.0000
 11
248.8540
 21
146.6858
 31
0.0000
  0
LINE
  8
48
 10
248.8540
 20
146.6858
 30
0.0000
 11
249.8073
 21
145.7325
 31
0.0000
  0
LINE
  8
48
 10
249.8073
 20
145.7325
 30
0.0000
 11
251.7139
 21
145.7325
 31
0.0000
  0
LINE
  8
48
 10
251.7139
 20
145.7325
 30
0.0000
 11
252.6673
 21
146.6858
 31
0.0000
  0
LINE
  8
48
 10
252.6673
 20
191.1391
 30
0.0000
 11
251.7139
 21
192.0924
 31
0.0000
  0
LINE
  8
48
 10
251.7139
 20
192.0924
 30
0.0000
 11
249.8073
 21
192.0924
 31
0.0000
  0
LINE
  8
48
 10
249.8073
 20
192.0924
 30
0.0000
 11
248.8540
 21
191.1391
 31
0.0000
  0
LINE
  8
48
 10
248.8540
 20
191.1391
 30
0.0000
 11
248.8540
 21
187.3258
 31
0.0000
  0
LINE
  8
48
 10
248.8540
 20
187.3258
 30
0.0000
 11
249.8073
 21
186.3725
 31
0.0000
  0
LINE
  8
48
 10
249.8073
 20
186.3725
 30
0.0000
 11
251.7139
 21
186.3725
 31
0.0000
  0
LINE
  8
48
 10
251.7139
 20
186.3725
 30
0.0000
 11
252.6673
 21
187.3258
 31
0.0000
  0
LINE
  8
48
 10
252.6673
 20
231.7791
 30
0.0000
 11
251.7139
 21
232.7324
 31
0.0000
  0
LINE
  8
48
 10
251.7139
 20
232.7324
 30
0.0000
 11
249.8073
 21
232.7324
 31
0.0000
  0
LINE
  8
48
 10
249.8073
 20
232.7324
 30
0.0000
 11
248.8540
 21
231.7791
 31
0.0000
  0
LINE
  8
48
 10
248.8540
 20
231.7791
 30
0.0000
 11
248.8540
 21
227.9658
 31
0.0000
  0
LINE
  8
48
 10
248.8540
 20
227.9658
 30
0.0000
 11
249.8073
 21
227.0125
 31
0.0000
  0
LINE
  8
48
 10
249.8073
 20
227.0125
 30
0.0000
 11
251.7139
 21
227.0125
 31
0.0000
  0
LINE
  8
48
 10
251.7139
 20
227.0125
 30
0.0000
 11
252.6673
 21
227.9658
 31
0.0000
  0
LINE
  8
48
 10
252.6673
 20
272.4191
 30
0.0000
 11
251.7139
 21
273.3724
 31
0.0000
  0
LINE
  8
48
 10
251.7139
 20
273.3724
 30
0.0000
 11
249.8073
 21
273.3724
 31
0.0000
  0
LINE
  8
48
 10
249.8073
 20
273.3724
 30
0.0000
 11
248.8540
 21
272.4191
 31
0.0000
  0
LINE
  8
48
 10
248.8540
 20
272.4191
 30
0.0000
 11
248.8540
 21
268.6058
 31
0.0000
  0
LINE
  8
48
 10
248.8540
 20
268.6058
 30
0.0000
 11
249.8073
 21
267.6525
 31
0.0000
  0
LINE
  8
48
 10
249.8073
 20
267.6525
 30
0.0000
 11
251.7139
 21
267.6525
 31
0.0000
  0
LINE
  8
48
 10
251.7139
 20
267.6525
 30
0.0000
 11
252.6673
 21
268.6058
 31
0.0000
  0
LINE
  8
48
 10
184.0873
 20
150.4991
 30
0.0000
 11
183.1339
 21
151.4524
 31
0.0000
  0
LINE
  8
48
 10
183.1339
 20
151.4524
 30
0.0000
 11
181.2273
 21
151.4524
 31
0.0000
  0
LINE
  8
48
 10
181.2273
 20
151.4524
 30
0.0000
 11
180.2740
 21
150.4991
 31
0.0000
  0
LINE
  8
48
 10
180.2740
 20
150.4991
 30
0.0000
 11
180.2740
 21
146.6858
 31
0.0000
  0
LINE
  8
48
 10
180.2740
 20
146.6858
 30
0.0000
 11
181.2273
 21
145.7325
 31
0.0000
  0
LINE
  8
48
 10
181.2273
 20
145.7325
 30
0.0000
 11
183.1339
 21
145.7325
 31
0.0000
  0
LINE
  8
48
 10
183.1339
 20
145.7325
 30
0.0000
 11
184.0873
 21
146.6858
 31
0.0000
  0
LINE
  8
48
 10
184.0873
 20
191.1391
 30
0.0000
 11
183.1339
 21
192.0924
 31
0.0000
  0
LINE
  8
48
 10
183.1339
 20
192.0924
 30
0.0000
 11
181.2273
 21
192.0924
 31
0.0000
  0
LINE
  8
48
 10
181.2273
 20
192.0924
 30
0.0000
 11
180.2740
 21
191.1391
 31
0.0000
  0
LINE
  8
48
 10
180.2740
 20
191.1391
 30
0.0000
 11
180.2740
 21
187.3258
 31
0.0000
  0
LINE
  8
48
 10
180.2740
 20
187.3258
 30
0.0000
 11
181.2273
 21
186.3725
 31
0.0000
  0
LINE
  8
48
 10
181.2273
 20
186.3725
 30
0.0000
 11
183.1339
 21
186.3725
 31
0.0000
  0
LINE
  8
48
 10
183.1339
 20
186.3725
 30
0.0000
 11
184.0873
 21
187.3258
 31
0.0000
  0
LINE
  8
48
 10
184.0873
 20
231.7791
 30
0.0000
 11
183.1339
 21
232.7324
 31
0.0000
  0
LINE
  8
48
 10
183.1339
 20
232.7324
 30
0.0000
 11
181.2273
 21
232.7324
 31
0.0000
  0
LINE
  8
48
 10
181.2273
 20
232.7324
 30
0.0000
 11
180.2740
 21
231.7791
 31
0.0000
  0
LINE
  8
48
 10
180.2740
 20
231.7791
 30
0.0000
 11
180.2740
 21
227.9658
 31
0.0000
  0
LINE
  8
48
 10
180.2740
 20
227.9658
 30
0.0000
 11
181.2273
 21
227.0125
 31
0.0000
  0
LINE
  8
48
 10
181.2273
 20
227.0125
 30
0.0000
 11
183.1339
 21
227.0125
 31
0.0000
  0
LINE
  8
48
 10
183.1339
 20
227.0125
 30
0.0000
 11
184.0873
 21
227.9658
 31
0.0000
  0
LINE
  8
48
 10
184.0873
 20
272.4191
 30
0.0000
 11
183.1339
 21
273.3724
 31
0.0000
  0
LINE
  8
48
 10
183.1339
 20
273.3724
 30
0.0000
 11
181.2273
 21
273.3724
 31
0.0000
  0
LINE
  8
48
 10
181.2273
 20
273.3724
 30
0.0000
 11
180.2740
 21
272.4191
 31
0.0000
  0
LINE
  8
48
 10
180.2740
 20
272.4191
 30
0.0000
 11
180.2740
 21
268.6058
 31
0.0000
  0
LINE
  8
48
 10
180.2740
 20
268.6058
 30
0.0000
 11
181.2273
 21
267.6525
 31
0.0000
  0
LINE
  8
48
 10
181.2273
 20
267.6525
 30
0.0000
 11
183.1339
 21
267.6525
 31
0.0000
  0
LINE
  8
48
 10
183.1339
 20
267.6525
 30
0.0000
 11
184.0873
 21
268.6058
 31
0.0000
  0
LINE
  8
48
 10
115.5073
 20
150.4991
 30
0.0000
 11
114.5539
 21
151.4524
 31
0.0000
  0
LINE
  8
48
 10
114.5539
 20
151.4524
 30
0.0000
 11
112.6473
 21
151.4524
 31
0.0000
  0
LINE
  8
48
 10
112.6473
 20
151.4524
 30
0.0000
 11
111.6940
 21
150.4991
 31
0.0000
  0
LINE
  8
48
 10
111.6940
 20
150.4991
 30
0.0000
 11
111.6940
 21
146.6858
 31
0.0000
  0
LINE
  8
48
 10
111.6940
 20
146.6858
 30
0.0000
 11
112.6473
 21
145.7325
 31
0.0000
  0
LINE
  8
48
 10
112.6473
 20
145.7325
 30
0.0000
 11
114.5539
 21
145.7325
 31
0.0000
  0
LINE
  8
48
 10
114.5539
 20
145.7325
 30
0.0000
 11
115.5073
 21
146.6858
 31
0.0000
  0
LINE
  8
48
 10
115.5073
 20
191.1391
 30
0.0000
 11
114.5539
 21
192.0924
 31
0.0000
  0
LINE
  8
48
 10
114.5539
 20
192.0924
 30
0.0000
 11
112.6473
 21
192.0924
 31
0.0000
  0
LINE
  8
48
 10
112.6473
 20
192.0924
 30
0.0000
 11
111.6940
 21
191.1391
 31
0.0000
  0
LINE
  8
48
 10
111.6940
 20
191.1391
 30
0.0000
 11
111.6940
 21
187.3258
 31
0.0000
  0
LINE
  8
48
 10
111.6940
 20
187.3258
 30
0.0000
 11
112.6473
 21
186.3725
 31
0.0000
  0
LINE
  8
48
 10
112.6473
 20
186.3725
 30
0.0000
 11
114.5539
 21
186.3725
 31
0.0000
  0
LINE
  8
48
 10
114.5539
 20
186.3725
 30
0.0000
 11
115.5073
 21
187.3258
 31
0.0000
  0
LINE
  8
48
 10
115.5073
 20
231.7791
 30
0.0000
 11
114.5539
 21
232.7324
 31
0.0000
  0
LINE
  8
48
 10
114.5539
 20
232.7324
 30
0.0000
 11
112.6473
 21
232.7324
 31
0.0000
  0
LINE
  8
48
 10
112.6473
 20
232.7324
 30
0.0000
 11
111.6940
 21
231.7791
 31
0.0000
  0
LINE
  8
48
 10
111.6940
 20
231.7791
 30
0.0000
 11
111.6940
 21
227.9658
 31
0.0000
  0
LINE
  8
48
 10
111.6940
 20
227.9658
 30
0.0000
 11
112.6473
 21
227.0125
 31
0.0000
  0
LINE
  8
48
 10
112.6473
 20
227.0125
 30
0.0000
 11
114.5539
 21
227.0125
 31
0.0000
  0
LINE
  8
48
 10
114.5539
 20
227.0125
 30
0.0000
 11
115.5073
 21
227.9658
 31
0.0000
  0
LINE
  8
48
 10
115.5073
 20
272.4191
 30
0.0000
 11
114.5539
 21
273.3724
 31
0.0000
  0
LINE
  8
48
 10
114.5539
 20
273.3724
 30
0.0000
 11
112.6473
 21
273.3724
 31
0.0000
  0
LINE
  8
48
 10
112.6473
 20
273.3724
 30
0.0000
 11
111.6940
 21
272.4191
 31
0.0000
  0
LINE
  8
48
 10
111.6940
 20
272.4191
 30
0.0000
 11
111.6940
 21
268.6058
 31
0.0000
  0
LINE
  8
48
 10
111.6940
 20
268.6058
 30
0.0000
 11
112.6473
 21
267.6525
 31
0.0000
  0
LINE
  8
48
 10
112.6473
 20
267.6525
 30
0.0000
 11
114.5539
 21
267.6525
 31
0.0000
  0
LINE
  8
48
 10
114.5539
 20
267.6525
 30
0.0000
 11
115.5073
 21
268.6058
 31
0.0000
  0
LINE
  8
48
 10
46.9273
 20
150.4991
 30
0.0000
 11
45.9739
 21
151.4524
 31
0.0000
  0
LINE
  8
48
 10
45.9739
 20
151.4524
 30
0.0000
 11
44.0673
 21
151.4524
 31
0.0000
  0
LINE
  8
48
 10
44.0673
 20
151.4524
 30
0.0000
 11
43.1140
 21
150.4991
 31
0.0000
  0
LINE
  8
48
 10
43.1140
 20
150.4991
 30
0.0000
 11
43.1140
 21
146.6858
 31
0.0000
  0
LINE
  8
48
 10
43.1140
 20
146.6858
 30
0.0000
 11
44.0673
 21
145.7325
 31
0.0000
  0
LINE
  8
48
 10
44.0673
 20
145.7325
 30
0.0000
 11
45.9739
 21
145.7325
 31
0.0000
  0
LINE
  8
48
 10
45.9739
 20
145.7325
 30
0.0000
 11
46.9273
 21
146.6858
 31
0.0000
  0
LINE
  8
48
 10
46.9273
 20
191.1391
 30
0.0000
 11
45.9739
 21
192.0924
 31
0.0000
  0
LINE
  8
48
 10
45.9739
 20
192.0924
 30
0.0000
 11
44.0673
 21
192.0924
 31
0.0000
  0
LINE
  8
48
 10
44.0673
 20
192.0924
 30
0.0000
 11
43.1140
 21
191.1391
 31
0.0000
  0
LINE
  8
48
 10
43.1140
 20
191.1391
 30
0.0000
 11
43.1140
 21
187.3258
 31
0.0000
  0
LINE
  8
48
 10
43.1140
 20
187.3258
 30
0.0000
 11
44.0673
 21
186.3725
 31
0.0000
  0
LINE
  8
48
 10
44.0673
 20
186.3725
 30
0.0000
 11
45.9739
 21
186.3725
 31
0.0000
  0
LINE
  8
48
 10
45.9739
 20
186.3725
 30
0.0000
 11
46.9273
 21
187.3258
 31
0.0000
  0
LINE
  8
48
 10
46.9273
 20
231.7791
 30
0.0000
 11
45.9739
 21
232.7324
 31
0.0000
  0
LINE
  8
48
 10
45.9739
 20
232.7324
 30
0.0000
 11
44.0673
 21
232.7324
 31
0.0000
  0
LINE
  8
48
 10
44.0673
 20
232.7324
 30
0.0000
 11
43.1140
 21
231.7791
 31
0.0000
  0
LINE
  8
48
 10
43.1140
 20
231.7791
 30
0.0000
 11
43.1140
 21
227.9658
 31
0.0000
  0
LINE
  8
48
 10
43.1140
 20
227.9658
 30
0.0000
 11
44.0673
 21
227.0125
 31
0.0000
  0
LINE
  8
48
 10
44.0673
 20
227.0125
 30
0.0000
 11
45.9739
 21
227.0125
 31
0.0000
  0
LINE
  8
48
 10
45.9739
 20
227.0125
 30
0.0000
 11
46.9273
 21
227.9658
 31
0.0000
  0
LINE
  8
48
 10
46.9273
 20
272.4191
 30
0.0000
 11
45.9739
 21
273.3724
 31
0.0000
  0
LINE
  8
48
 10
45.9739
 20
273.3724
 30
0.0000
 11
44.0673
 21
273.3724
 31
0.0000
  0
LINE
  8
48
 10
44.0673
 20
273.3724
 30
0.0000
 11
43.1140
 21
272.4191
 31
0.0000
  0
LINE
  8
48
 10
43.1140
 20
272.4191
 30
0.0000
 11
43.1140
 21
268.6058
 31
0.0000
  0
LINE
  8
48
 10
43.1140
 20
268.6058
 30
0.0000
 11
44.0673
 21
267.6525
 31
0.0000
  0
LINE
  8
48
 10
44.0673
 20
267.6525
 30
0.0000
 11
45.9739
 21
267.6525
 31
0.0000
  0
LINE
  8
48
 10
45.9739
 20
267.6525
 30
0.0000
 11
46.9273
 21
268.6058
 31
0.0000
  0
LINE
  8
48
 10
-56.7450
 20
-4.7576
 30
0.0000
 11
-58.6517
 21
-4.7576
 31
0.0000
  0
LINE
  8
48
 10
-58.6517
 20
-4.7576
 30
0.0000
 11
-59.6050
 21
-5.7109
 31
0.0000
  0
LINE
  8
48
 10
-59.6050
 20
-5.7109
 30
0.0000
 11
-59.6050
 21
-9.5242
 31
0.0000
  0
LINE
  8
48
 10
-59.6050
 20
-9.5242
 30
0.0000
 11
-58.6517
 21
-10.4775
 31
0.0000
  0
LINE
  8
48
 10
-58.6517
 20
-10.4775
 30
0.0000
 11
-56.7450
 21
-10.4775
 31
0.0000
  0
LINE
  8
48
 10
-56.7450
 20
-10.4775
 30
0.0000
 11
-55.7917
 21
-9.5242
 31
0.0000
  0
LINE
  8
48
 10
-55.7917
 20
-9.5242
 30
0.0000
 11
-55.7917
 21
-5.7109
 31
0.0000
  0
LINE
  8
48
 10
-55.7917
 20
-5.7109
 30
0.0000
 11
-56.7450
 21
-4.7576
 31
0.0000
  0
LINE
  8
48
 10
-53.7580
 20
-10.4775
 30
0.0000
 11
-53.7580
 21
-4.7576
 31
0.0000
  0
LINE
  8
48
 10
-53.7580
 20
-4.7576
 30
0.0000
 11
-50.8980
 21
-4.7576
 31
0.0000
  0
LINE
  8
48
 10
-50.8980
 20
-4.7576
 30
0.0000
 11
-49.9447
 21
-5.7109
 31
0.0000
  0
LINE
  8
48
 10
-49.9447
 20
-5.7109
 30
0.0000
 11
-49.9447
 21
-7.6176
 31
0.0000
  0
LINE
  8
48
 10
-49.9447
 20
-7.6176
 30
0.0000
 11
-50.8980
 21
-8.5709
 31
0.0000
  0
LINE
  8
48
 10
-50.8980
 20
-8.5709
 30
0.0000
 11
-53.7580
 21
-8.5709
 31
0.0000
  0
LINE
  8
48
 10
-51.8514
 20
-8.5709
 30
0.0000
 11
-49.9447
 21
-10.4775
 31
0.0000
  0
LINE
  8
48
 10
-47.9110
 20
-10.4775
 30
0.0000
 11
-46.0044
 21
-10.4775
 31
0.0000
  0
LINE
  8
48
 10
-46.9577
 20
-10.4775
 30
0.0000
 11
-46.9577
 21
-4.7576
 31
0.0000
  0
LINE
  8
48
 10
-47.9110
 20
-4.7576
 30
0.0000
 11
-46.0044
 21
-4.7576
 31
0.0000
  0
LINE
  8
48
 10
-40.1997
 20
-5.7109
 30
0.0000
 11
-41.1531
 21
-4.7576
 31
0.0000
  0
LINE
  8
48
 10
-41.1531
 20
-4.7576
 30
0.0000
 11
-43.0597
 21
-4.7576
 31
0.0000
  0
LINE
  8
48
 10
-43.0597
 20
-4.7576
 30
0.0000
 11
-44.0130
 21
-5.7109
 31
0.0000
  0
LINE
  8
48
 10
-44.0130
 20
-5.7109
 30
0.0000
 11
-44.0130
 21
-9.5242
 31
0.0000
  0
LINE
  8
48
 10
-44.0130
 20
-9.5242
 30
0.0000
 11
-43.0597
 21
-10.4775
 31
0.0000
  0
LINE
  8
48
 10
-43.0597
 20
-10.4775
 30
0.0000
 11
-41.1531
 21
-10.4775
 31
0.0000
  0
LINE
  8
48
 10
-41.1531
 20
-10.4775
 30
0.0000
 11
-40.1997
 21
-9.5242
 31
0.0000
  0
LINE
  8
48
 10
-40.1997
 20
-9.5242
 30
0.0000
 11
-40.1997
 21
-7.6176
 31
0.0000
  0
LINE
  8
48
 10
-40.1997
 20
-7.6176
 30
0.0000
 11
-42.1064
 21
-7.6176
 31
0.0000
  0
LINE
  8
48
 10
-38.1660
 20
-10.4775
 30
0.0000
 11
-36.2594
 21
-10.4775
 31
0.0000
  0
LINE
  8
48
 10
-37.2127
 20
-10.4775
 30
0.0000
 11
-37.2127
 21
-4.7576
 31
0.0000
  0
LINE
  8
48
 10
-38.1660
 20
-4.7576
 30
0.0000
 11
-36.2594
 21
-4.7576
 31
0.0000
  0
LINE
  8
48
 10
-34.2680
 20
-10.4775
 30
0.0000
 11
-34.2680
 21
-4.7576
 31
0.0000
  0
LINE
  8
48
 10
-34.2680
 20
-4.7576
 30
0.0000
 11
-30.4547
 21
-10.4775
 31
0.0000
  0
LINE
  8
48
 10
-30.4547
 20
-10.4775
 30
0.0000
 11
-30.4547
 21
-4.7576
 31
0.0000
  0
LINE
  8
48
 10
-28.4210
 20
-10.4775
 30
0.0000
 11
-28.4210
 21
-6.6642
 31
0.0000
  0
LINE
  8
48
 10
-28.4210
 20
-6.6642
 30
0.0000
 11
-26.5144
 21
-4.7576
 31
0.0000
  0
LINE
  8
48
 10
-26.5144
 20
-4.7576
 30
0.0000
 11
-24.6078
 21
-6.6642
 31
0.0000
  0
LINE
  8
48
 10
-24.6078
 20
-6.6642
 30
0.0000
 11
-24.6078
 21
-10.4775
 31
0.0000
  0
LINE
  8
48
 10
-28.4210
 20
-7.6176
 30
0.0000
 11
-24.6078
 21
-7.6176
 31
0.0000
  0
LINE
  8
48
 10
-22.5740
 20
-4.7576
 30
0.0000
 11
-22.5740
 21
-10.4775
 31
0.0000
  0
LINE
  8
48
 10
-22.5740
 20
-10.4775
 30
0.0000
 11
-18.7608
 21
-10.4775
 31
0.0000
  0
LINE
  8
48
 10
-12.9138
 20
-5.7109
 30
0.0000
 11
-13.8671
 21
-4.7576
 31
0.0000
  0
LINE
  8
48
 10
-13.8671
 20
-4.7576
 30
0.0000
 11
-15.7737
 21
-4.7576
 31
0.0000
  0
LINE
  8
48
 10
-15.7737
 20
-4.7576
 30
0.0000
 11
-16.7270
 21
-5.7109
 31
0.0000
  0
LINE
  8
48
 10
-16.7270
 20
-5.7109
 30
0.0000
 11
-16.7270
 21
-6.6642
 31
0.0000
  0
LINE
  8
48
 10
-16.7270
 20
-6.6642
 30
0.0000
 11
-15.7737
 21
-7.6176
 31
0.0000
  0
LINE
  8
48
 10
-15.7737
 20
-7.6176
 30
0.0000
 11
-13.8671
 21
-7.6176
 31
0.0000
  0
LINE
  8
48
 10
-13.8671
 20
-7.6176
 30
0.0000
 11
-12.9138
 21
-8.5709
 31
0.0000
  0
LINE
  8
48
 10
-12.9138
 20
-8.5709
 30
0.0000
 11
-12.9138
 21
-9.5242
 31
0.0000
  0
LINE
  8
48
 10
-12.9138
 20
-9.5242
 30
0.0000
 11
-13.8671
 21
-10.4775
 31
0.0000
  0
LINE
  8
48
 10
-13.8671
 20
-10.4775
 30
0.0000
 11
-15.7737
 21
-10.4775
 31
0.0000
  0
LINE
  8
48
 10
-15.7737
 20
-10.4775
 30
0.0000
 11
-16.7270
 21
-9.5242
 31
0.0000
  0
LINE
  8
48
 10
132.6365
 20
-2.2176
 30
0.0000
 11
132.6365
 21
-7.9375
 31
0.0000
  0
LINE
  8
48
 10
132.6365
 20
-7.9375
 30
0.0000
 11
136.4498
 21
-7.9375
 31
0.0000
  0
LINE
  8
48
 10
138.4835
 20
-7.9375
 30
0.0000
 11
138.4835
 21
-4.1242
 31
0.0000
  0
LINE
  8
48
 10
138.4835
 20
-4.1242
 30
0.0000
 11
140.3901
 21
-2.2176
 31
0.0000
  0
LINE
  8
48
 10
140.3901
 20
-2.2176
 30
0.0000
 11
142.2968
 21
-4.1242
 31
0.0000
  0
LINE
  8
48
 10
142.2968
 20
-4.1242
 30
0.0000
 11
142.2968
 21
-7.9375
 31
0.0000
  0
LINE
  8
48
 10
138.4835
 20
-5.0776
 30
0.0000
 11
142.2968
 21
-5.0776
 31
0.0000
  0
LINE
  8
48
 10
144.3305
 20
-2.2176
 30
0.0000
 11
144.3305
 21
-3.1709
 31
0.0000
  0
LINE
  8
48
 10
144.3305
 20
-3.1709
 30
0.0000
 11
146.2371
 21
-5.0776
 31
0.0000
  0
LINE
  8
48
 10
146.2371
 20
-5.0776
 30
0.0000
 11
148.1438
 21
-3.1709
 31
0.0000
  0
LINE
  8
48
 10
148.1438
 20
-3.1709
 30
0.0000
 11
148.1438
 21
-2.2176
 31
0.0000
  0
LINE
  8
48
 10
146.2371
 20
-5.0776
 30
0.0000
 11
146.2371
 21
-7.9375
 31
0.0000
  0
LINE
  8
48
 10
153.0374
 20
-2.2176
 30
0.0000
 11
151.1308
 21
-2.2176
 31
0.0000
  0
LINE
  8
48
 10
151.1308
 20
-2.2176
 30
0.0000
 11
150.1775
 21
-3.1709
 31
0.0000
  0
LINE
  8
48
 10
150.1775
 20
-3.1709
 30
0.0000
 11
150.1775
 21
-6.9842
 31
0.0000
  0
LINE
  8
48
 10
150.1775
 20
-6.9842
 30
0.0000
 11
151.1308
 21
-7.9375
 31
0.0000
  0
LINE
  8
48
 10
151.1308
 20
-7.9375
 30
0.0000
 11
153.0374
 21
-7.9375
 31
0.0000
  0
LINE
  8
48
 10
153.0374
 20
-7.9375
 30
0.0000
 11
153.9908
 21
-6.9842
 31
0.0000
  0
LINE
  8
48
 10
153.9908
 20
-6.9842
 30
0.0000
 11
153.9908
 21
-3.1709
 31
0.0000
  0
LINE
  8
48
 10
153.9908
 20
-3.1709
 30
0.0000
 11
153.0374
 21
-2.2176
 31
0.0000
  0
LINE
  8
48
 10
156.0245
 20
-2.2176
 30
0.0000
 11
156.0245
 21
-6.9842
 31
0.0000
  0
LINE
  8
48
 10
156.0245
 20
-6.9842
 30
0.0000
 11
156.9778
 21
-7.9375
 31
0.0000
  0
LINE
  8
48
 10
156.9778
 20
-7.9375
 30
0.0000
 11
158.8844
 21
-7.9375
 31
0.0000
  0
LINE
  8
48
 10
158.8844
 20
-7.9375
 30
0.0000
 11
159.8378
 21
-6.9842
 31
0.0000
  0
LINE
  8
48
 10
159.8378
 20
-6.9842
 30
0.0000
 11
159.8378
 21
-2.2176
 31
0.0000
  0
LINE
  8
48
 10
163.7781
 20
-7.9375
 30
0.0000
 11
163.7781
 21
-2.2176
 31
0.0000
  0
LINE
  8
48
 10
161.8715
 20
-2.2176
 30
0.0000
 11
165.6848
 21
-2.2176
 31
0.0000
  0
CIRCLE
  8
20
 10
-62.8650
 20
111.1250
 30
0.0000
 40
1.2700
  0
CIRCLE
  8
20
 10
-8.2550
 20
111.1250
 30
0.0000
 40
1.2700
  0
CIRCLE
  8
20
 10
-8.2550
 20
84.4550
 30
0.0000
 40
1.2700
  0
CIRCLE
  8
20
 10
-62.8650
 20
84.4550
 30
0.0000
 40
1.2700
  0
CIRCLE
  8
20
 10
-62.8650
 20
73.0250
 30
0.0000
 40
1.2700
  0
CIRCLE
  8
20
 10
-8.2550
 20
73.0250
 30
0.0000
 40
1.2700
  0
CIRCLE
  8
20
 10
-8.2550
 20
46.3550
 30
0.0000
 40
1.2700
  0
CIRCLE
  8
20
 10
-62.8650
 20
46.3550
 30
0.0000
 40
1.2700
  0
CIRCLE
  8
20
 10
-62.8650
 20
149.2250
 30
0.0000
 40
1.2700
  0
CIRCLE
  8
20
 10
-8.2550
 20
149.2250
 30
0.0000
 40
1.2700
  0
CIRCLE
  8
20
 10
-8.2550
 20
122.5550
 30
0.0000
 40
1.2700
  0
CIRCLE
  8
20
 10
-62.8650
 20
122.5550
 30
0.0000
 40
1.2700
  0
CIRCLE
  8
49
 10
-58.4200
 20
127.0000
 30
0.0000
 40
1.2700
  0
CIRCLE
  8
49
 10
-58.4200
 20
144.7800
 30
0.0000
 40
1.2700
  0
CIRCLE
  8
49
 10
-12.7000
 20
144.7800
 30
0.0000
 40
1.2700
  0
CIRCLE
  8
49
 10
-12.7000
 20
127.0000
 30
0.0000
 40
1.2700
  0
CIRCLE
  8
20
 10
-62.8650
 20
34.9250
 30
0.0000
 40
1.2700
  0
CIRCLE
  8
20
 10
-8.2550
 20
34.9250
 30
0.0000
 40
1.2700
  0
CIRCLE
  8
20
 10
-8.2550
 20
8.2550
 30
0.0000
 40
1.2700
  0
CIRCLE
  8
20
 10
-62.8650
 20
8.2550
 30
0.0000
 40
1.2700
  0
CIRCLE
  8
49
 10
-58.4200
 20
12.7000
 30
0.0000
 40
1.2700
  0
CIRCLE
  8
49
 10
-58.4200
 20
30.4800
 30
0.0000
 40
1.2700
  0
CIRCLE
  8
49
 10
-12.7000
 20
30.4800
 30
0.0000
 40
1.2700
  0
CIRCLE
  8
49
 10
-12.7000
 20
12.7000
 30
0.0000
 40
1.2700
  0
CIRCLE
  8
20
 10
-58.4200
 20
30.4800
 30
0.0000
 40
1.2700
  0
CIRCLE
  8
20
 10
-58.4200
 20
12.7000
 30
0.0000
 40
1.2700
  0
CIRCLE
  8
20
 10
-12.7000
 20
12.7000
 30
0.0000
 40
1.2700
  0
CIRCLE
  8
20
 10
-12.7000
 20
30.4800
 30
0.0000
 40
1.2700
  0
CIRCLE
  8
20
 10
73.0250
 20
53.9750
 30
0.0000
 40
1.2700
  0
CIRCLE
  8
20
 10
18.4150
 20
53.9750
 30
0.0000
 40
1.2700
  0
CIRCLE
  8
20
 10
18.4150
 20
80.6450
 30
0.0000
 40
1.2700
  0
CIRCLE
  8
20
 10
73.0250
 20
80.6450
 30
0.0000
 40
1.2700
  0
CIRCLE
  8
20
 10
73.0250
 20
13.3350
 30
0.0000
 40
1.2700
  0
CIRCLE
  8
20
 10
18.4150
 20
13.3350
 30
0.0000
 40
1.2700
  0
CIRCLE
  8
20
 10
18.4150
 20
40.0050
 30
0.0000
 40
1.2700
  0
CIRCLE
  8
20
 10
73.0250
 20
40.0050
 30
0.0000
 40
1.2700
  0
CIRCLE
  8
20
 10
73.0250
 20
94.6150
 30
0.0000
 40
1.2700
  0
CIRCLE
  8
20
 10
18.4150
 20
94.6150
 30
0.0000
 40
1.2700
  0
CIRCLE
  8
20
 10
18.4150
 20
121.2850
 30
0.0000
 40
1.2700
  0
CIRCLE
  8
20
 10
73.0250
 20
121.2850
 30
0.0000
 40
1.2700
  0
CIRCLE
  8
20
 10
18.4150
 20
161.9250
 30
0.0000
 40
1.2700
  0
CIRCLE
  8
20
 10
73.0250
 20
161.9250
 30
0.0000
 40
1.2700
  0
CIRCLE
  8
20
 10
73.0250
 20
135.2550
 30
0.0000
 40
1.2700
  0
CIRCLE
  8
20
 10
18.4150
 20
135.2550
 30
0.0000
 40
1.2700
  0
CIRCLE
  8
20
 10
18.4150
 20
202.5650
 30
0.0000
 40
1.2700
  0
CIRCLE
  8
20
 10
73.0250
 20
202.5650
 30
0.0000
 40
1.2700
  0
CIRCLE
  8
20
 10
73.0250
 20
175.8950
 30
0.0000
 40
1.2700
  0
CIRCLE
  8
20
 10
18.4150
 20
175.8950
 30
0.0000
 40
1.2700
  0
CIRCLE
  8
20
 10
18.4150
 20
243.2050
 30
0.0000
 40
1.2700
  0
CIRCLE
  8
20
 10
73.0250
 20
243.2050
 30
0.0000
 40
1.2700
  0
CIRCLE
  8
20
 10
73.0250
 20
216.5350
 30
0.0000
 40
1.2700
  0
CIRCLE
  8
20
 10
18.4150
 20
216.5350
 30
0.0000
 40
1.2700
  0
CIRCLE
  8
20
 10
18.4150
 20
283.8450
 30
0.0000
 40
1.2700
  0
CIRCLE
  8
20
 10
73.0250
 20
283.8450
 30
0.0000
 40
1.2700
  0
CIRCLE
  8
20
 10
73.0250
 20
257.1750
 30
0.0000
 40
1.2700
  0
CIRCLE
  8
20
 10
18.4150
 20
257.1750
 30
0.0000
 40
1.2700
  0
CIRCLE
  8
20
 10
86.9950
 20
161.9250
 30
0.0000
 40
1.2700
  0
CIRCLE
  8
20
 10
141.6050
 20
161.9250
 30
0.0000
 40
1.2700
  0
CIRCLE
  8
20
 10
141.6050
 20
135.2550
 30
0.0000
 40
1.2700
  0
CIRCLE
  8
20
 10
86.9950
 20
135.2550
 30
0.0000
 40
1.2700
  0
CIRCLE
  8
20
 10
86.9950
 20
202.5650
 30
0.0000
 40
1.2700
  0
CIRCLE
  8
20
 10
141.6050
 20
202.5650
 30
0.0000
 40
1.2700
  0
CIRCLE
  8
20
 10
141.6050
 20
175.8950
 30
0.0000
 40
1.2700
  0
CIRCLE
  8
20
 10
86.9950
 20
175.8950
 30
0.0000
 40
1.2700
  0
CIRCLE
  8
20
 10
86.9950
 20
243.2050
 30
0.0000
 40
1.2700
  0
CIRCLE
  8
20
 10
141.6050
 20
243.2050
 30
0.0000
 40
1.2700
  0
CIRCLE
  8
20
 10
141.6050
 20
216.5350
 30
0.0000
 40
1.2700
  0
CIRCLE
  8
20
 10
86.9950
 20
216.5350
 30
0.0000
 40
1.2700
  0
CIRCLE
  8
20
 10
86.9950
 20
283.8450
 30
0.0000
 40
1.2700
  0
CIRCLE
  8
20
 10
141.6050
 20
283.8450
 30
0.0000
 40
1.2700
  0
CIRCLE
  8
20
 10
141.6050
 20
257.1750
 30
0.0000
 40
1.2700
  0
CIRCLE
  8
20
 10
86.9950
 20
257.1750
 30
0.0000
 40
1.2700
  0
CIRCLE
  8
20
 10
86.9950
 20
80.6450
 30
0.0000
 40
1.2700
  0
CIRCLE
  8
20
 10
141.6050
 20
80.6450
 30
0.0000
 40
1.2700
  0
CIRCLE
  8
20
 10
141.6050
 20
53.9750
 30
0.0000
 40
1.2700
  0
CIRCLE
  8
20
 10
86.9950
 20
53.9750
 30
0.0000
 40
1.2700
  0
CIRCLE
  8
20
 10
86.9950
 20
121.2850
 30
0.0000
 40
1.2700
  0
CIRCLE
  8
20
 10
141.6050
 20
121.2850
 30
0.0000
 40
1.2700
  0
CIRCLE
  8
20
 10
141.6050
 20
94.6150
 30
0.0000
 40
1.2700
  0
CIRCLE
  8
20
 10
86.9950
 20
94.6150
 30
0.0000
 40
1.2700
  0
CIRCLE
  8
20
 10
86.9950
 20
40.0050
 30
0.0000
 40
1.2700
  0
CIRCLE
  8
20
 10
141.6050
 20
40.0050
 30
0.0000
 40
1.2700
  0
CIRCLE
  8
20
 10
141.6050
 20
13.3350
 30
0.0000
 40
1.2700
  0
CIRCLE
  8
20
 10
86.9950
 20
13.3350
 30
0.0000
 40
1.2700
  0
CIRCLE
  8
20
 10
91.4400
 20
35.5600
 30
0.0000
 40
1.2700
  0
CIRCLE
  8
20
 10
91.4400
 20
17.7800
 30
0.0000
 40
1.2700
  0
CIRCLE
  8
20
 10
137.1600
 20
17.7800
 30
0.0000
 40
1.2700
  0
CIRCLE
  8
20
 10
137.1600
 20
35.5600
 30
0.0000
 40
1.2700
  0
CIRCLE
  8
20
 10
210.1850
 20
53.9750
 30
0.0000
 40
1.2700
  0
CIRCLE
  8
20
 10
155.5750
 20
53.9750
 30
0.0000
 40
1.2700
  0
CIRCLE
  8
20
 10
155.5750
 20
80.6450
 30
0.0000
 40
1.2700
  0
CIRCLE
  8
20
 10
210.1850
 20
80.6450
 30
0.0000
 40
1.2700
  0
CIRCLE
  8
20
 10
210.1850
 20
13.3350
 30
0.0000
 40
1.2700
  0
CIRCLE
  8
20
 10
155.5750
 20
13.3350
 30
0.0000
 40
1.2700
  0
CIRCLE
  8
20
 10
155.5750
 20
40.0050
 30
0.0000
 40
1.2700
  0
CIRCLE
  8
20
 10
210.1850
 20
40.0050
 30
0.0000
 40
1.2700
  0
CIRCLE
  8
20
 10
210.1850
 20
94.6150
 30
0.0000
 40
1.2700
  0
CIRCLE
  8
20
 10
155.5750
 20
94.6150
 30
0.0000
 40
1.2700
  0
CIRCLE
  8
20
 10
155.5750
 20
121.2850
 30
0.0000
 40
1.2700
  0
CIRCLE
  8
20
 10
210.1850
 20
121.2850
 30
0.0000
 40
1.2700
  0
CIRCLE
  8
20
 10
155.5750
 20
161.9250
 30
0.0000
 40
1.2700
  0
CIRCLE
  8
20
 10
210.1850
 20
161.9250
 30
0.0000
 40
1.2700
  0
CIRCLE
  8
20
 10
210.1850
 20
135.2550
 30
0.0000
 40
1.2700
  0
CIRCLE
  8
20
 10
155.5750
 20
135.2550
 30
0.0000
 40
1.2700
  0
CIRCLE
  8
20
 10
155.5750
 20
202.5650
 30
0.0000
 40
1.2700
  0
CIRCLE
  8
20
 10
210.1850
 20
202.5650
 30
0.0000
 40
1.2700
  0
CIRCLE
  8
20
 10
210.1850
 20
175.8950
 30
0.0000
 40
1.2700
  0
CIRCLE
  8
20
 10
155.5750
 20
175.8950
 30
0.0000
 40
1.2700
  0
CIRCLE
  8
20
 10
155.5750
 20
243.2050
 30
0.0000
 40
1.2700
  0
CIRCLE
  8
20
 10
210.1850
 20
243.2050
 30
0.0000
 40
1.2700
  0
CIRCLE
  8
20
 10
210.1850
 20
216.5350
 30
0.0000
 40
1.2700
  0
CIRCLE
  8
20
 10
155.5750
 20
216.5350
 30
0.0000
 40
1.2700
  0
CIRCLE
  8
20
 10
155.5750
 20
283.8450
 30
0.0000
 40
1.2700
  0
CIRCLE
  8
20
 10
210.1850
 20
283.8450
 30
0.0000
 40
1.2700
  0
CIRCLE
  8
20
 10
210.1850
 20
257.1750
 30
0.0000
 40
1.2700
  0
CIRCLE
  8
20
 10
155.5750
 20
257.1750
 30
0.0000
 40
1.2700
  0
CIRCLE
  8
20
 10
224.1550
 20
161.9250
 30
0.0000
 40
1.2700
  0
CIRCLE
  8
20
 10
278.7650
 20
161.9250
 30
0.0000
 40
1.2700
  0
CIRCLE
  8
20
 10
278.7650
 20
135.2550
 30
0.0000
 40
1.2700
  0
CIRCLE
  8
20
 10
224.1550
 20
135.2550
 30
0.0000
 40
1.2700
  0
CIRCLE
  8
20
 10
224.1550
 20
202.5650
 30
0.0000
 40
1.2700
  0
CIRCLE
  8
20
 10
278.7650
 20
202.5650
 30
0.0000
 40
1.2700
  0
CIRCLE
  8
20
 10
278.7650
 20
175.8950
 30
0.0000
 40
1.2700
  0
CIRCLE
  8
20
 10
224.1550
 20
175.8950
 30
0.0000
 40
1.2700
  0
CIRCLE
  8
20
 10
224.1550
 20
243.2050
 30
0.0000
 40
1.2700
  0
CIRCLE
  8
20
 10
278.7650
 20
243.2050
 30
0.0000
 40
1.2700
  0
CIRCLE
  8
20
 10
278.7650
 20
216.5350
 30
0.0000
 40
1.2700
  0
CIRCLE
  8
20
 10
224.1550
 20
216.5350
 30
0.0000
 40
1.2700
  0
CIRCLE
  8
20
 10
224.1550
 20
283.8450
 30
0.0000
 40
1.2700
  0
CIRCLE
  8
20
 10
278.7650
 20
283.8450
 30
0.0000
 40
1.2700
  0
CIRCLE
  8
20
 10
278.7650
 20
257.1750
 30
0.0000
 40
1.2700
  0
CIRCLE
  8
20
 10
224.1550
 20
257.1750
 30
0.0000
 40
1.2700
  0
CIRCLE
  8
20
 10
224.1550
 20
80.6450
 30
0.0000
 40
1.2700
  0
CIRCLE
  8
20
 10
278.7650
 20
80.6450
 30
0.0000
 40
1.2700
  0
CIRCLE
  8
20
 10
278.7650
 20
53.9750
 30
0.0000
 40
1.2700
  0
CIRCLE
  8
20
 10
224.1550
 20
53.9750
 30
0.0000
 40
1.2700
  0
CIRCLE
  8
20
 10
224.1550
 20
121.2850
 30
0.0000
 40
1.2700
  0
CIRCLE
  8
20
 10
278.7650
 20
121.2850
 30
0.0000
 40
1.2700
  0
CIRCLE
  8
20
 10
278.7650
 20
94.6150
 30
0.0000
 40
1.2700
  0
CIRCLE
  8
20
 10
224.1550
 20
94.6150
 30
0.0000
 40
1.2700
  0
CIRCLE
  8
20
 10
224.1550
 20
40.0050
 30
0.0000
 40
1.2700
  0
CIRCLE
  8
20
 10
278.7650
 20
40.0050
 30
0.0000
 40
1.2700
  0
CIRCLE
  8
20
 10
278.7650
 20
13.3350
 30
0.0000
 40
1.2700
  0
CIRCLE
  8
20
 10
224.1550
 20
13.3350
 30
0.0000
 40
1.2700
  0
CIRCLE
  8
20
 10
228.6000
 20
35.5600
 30
0.0000
 40
1.2700
  0
CIRCLE
  8
20
 10
228.6000
 20
17.7800
 30
0.0000
 40
1.2700
  0
CIRCLE
  8
20
 10
274.3200
 20
17.7800
 30
0.0000
 40
1.2700
  0
CIRCLE
  8
20
 10
274.3200
 20
35.5600
 30
0.0000
 40
1.2700
  0
CIRCLE
  8
20
 10
-47.6250
 20
135.5090
 30
0.0000
 40
1.2700
  0
CIRCLE
  8
20
 10
33.6550
 20
26.2890
 30
0.0000
 40
1.2700
  0
CIRCLE
  8
20
 10
170.8150
 20
26.2890
 30
0.0000
 40
1.2700
  0
ENDSEC
  0
EOF
